M48
INCH,TZ
T1C0.025
T2C0.032
T3C0.040
T4C0.051
T5C0.063
T6C0.120
%
G90
G05
T1
X040750Y-031750
X041500Y-038500
X041875Y-044750
X042500Y-044250
X045000Y-045000
X047500Y-045000
X049000Y-044500
X055000Y-039500
X058000Y-045250
X059000Y-045250
X061000Y-045250
X063500Y-040250
X064000Y-029250
X064000Y-039750
X067500Y-045000
X069500Y-045500
X073750Y-041250
X075500Y-045000
T2
X041500Y-026500
X041500Y-027500
X041500Y-029500
X041500Y-030500
X041500Y-034000
X041500Y-036000
X041500Y-041000
X041500Y-043000
X042000Y-028500
X042000Y-031500
X043000Y-023500
X043000Y-025500
X043000Y-040500
X043000Y-043500
X043500Y-033500
X043500Y-036500
X044000Y-028500
X044000Y-031500
X044000Y-040500
X044000Y-043500
X044500Y-026500
X044500Y-027500
X044500Y-029500
X044500Y-030500
X044500Y-033500
X044500Y-036500
X045000Y-040500
X045000Y-043500
X045500Y-022000
X045500Y-024500
X045500Y-025500
X045500Y-026500
X045500Y-027500
X045500Y-029500
X045500Y-030500
X045500Y-033500
X045500Y-036500
X046000Y-028500
X046000Y-031500
X046000Y-040500
X046000Y-043500
X046500Y-033500
X046500Y-036500
X047000Y-040500
X047000Y-043500
X047500Y-033500
X047500Y-036500
X048000Y-028500
X048000Y-031500
X048000Y-040500
X048000Y-043500
X048500Y-024500
X048500Y-025500
X048500Y-026500
X048500Y-027500
X048500Y-029500
X048500Y-030500
X048500Y-033500
X048500Y-036500
X049000Y-040500
X049000Y-043500
X049500Y-033500
X049500Y-036500
X050000Y-040500
X050000Y-043500
X050500Y-024500
X050500Y-025500
X050500Y-026500
X050500Y-027500
X050500Y-030500
X051500Y-027500
X051500Y-030500
X051500Y-034000
X051500Y-036000
X051500Y-038500
X051500Y-041000
X051500Y-043000
X052500Y-027500
X052500Y-030500
X053000Y-040500
X053000Y-043500
X053500Y-024500
X053500Y-026500
X053500Y-027500
X053500Y-030500
X053500Y-033500
X053500Y-036500
X054000Y-040500
X054000Y-043500
X054500Y-027500
X054500Y-030500
X054500Y-033500
X054500Y-036500
X054500Y-038500
X055000Y-040500
X055000Y-043500
X055500Y-022000
X055500Y-027500
X055500Y-030500
X055500Y-033500
X055500Y-036500
X056000Y-040500
X056000Y-043500
X056500Y-023000
X056500Y-024500
X056500Y-026500
X056500Y-027500
X056500Y-030500
X056500Y-033500
X056500Y-036500
X057000Y-022000
X057000Y-040500
X057000Y-043500
X057500Y-033500
X057500Y-036500
X058000Y-040500
X058000Y-043500
X058500Y-028000
X058500Y-030000
X058500Y-033500
X058500Y-036500
X059000Y-022000
X059000Y-040500
X059000Y-043500
X059500Y-023000
X059500Y-024500
X059500Y-026500
X059500Y-028000
X059500Y-030000
X059500Y-033500
X059500Y-036500
X060000Y-040500
X060000Y-043500
X060500Y-028000
X060500Y-030000
X061500Y-034500
X061500Y-036500
X061500Y-041000
X061500Y-043000
X062000Y-022000
X062000Y-025000
X062000Y-027500
X062000Y-030500
X063000Y-022000
X063000Y-025000
X063000Y-026250
X063000Y-027500
X063000Y-030500
X063000Y-032500
X063000Y-038500
X063000Y-040500
X063000Y-043500
X064000Y-022000
X064000Y-025000
X064000Y-027500
X064000Y-030500
X064000Y-032500
X064000Y-038500
X064000Y-040500
X064000Y-043500
X065000Y-022000
X065000Y-025000
X065000Y-026250
X065000Y-027500
X065000Y-030500
X065000Y-032500
X065000Y-038500
X065000Y-040500
X065000Y-043500
X066000Y-032500
X066000Y-038500
X066000Y-040500
X066000Y-043500
X066500Y-022500
X066500Y-024500
X067000Y-026500
X067000Y-029500
X067000Y-032500
X067000Y-038500
X067000Y-040500
X067000Y-043500
X068000Y-026500
X068000Y-029500
X068000Y-032500
X068000Y-038500
X068000Y-040500
X068000Y-043500
X069000Y-027000
X069000Y-029000
X069000Y-032500
X069000Y-038500
X069000Y-040500
X069000Y-043500
X070000Y-026500
X070000Y-029500
X070000Y-032500
X070000Y-038500
X070000Y-040500
X070000Y-043500
X071000Y-021000
X071000Y-022000
X071000Y-023000
X071000Y-027000
X071000Y-029000
X071000Y-032500
X071000Y-038500
X071000Y-040500
X071000Y-043500
X072000Y-032500
X072000Y-038500
X072000Y-040500
X072000Y-043500
X073000Y-032500
X073000Y-038500
X074000Y-021000
X074000Y-022000
X074000Y-023000
X074000Y-032500
X074000Y-038500
X076000Y-038500
X076000Y-040500
X076000Y-041500
X076000Y-043500
X078500Y-038500
X078500Y-040500
T3
X048000Y-038000
X048000Y-039000
X049000Y-038000
X049000Y-039000
X050000Y-038000
X050000Y-039000
X056000Y-038000
X056000Y-039000
X057000Y-038000
X057000Y-039000
X058000Y-038000
X058000Y-039000
X059000Y-038000
X059000Y-039000
X072900Y-026000
X072900Y-027000
X072900Y-028000
T4
X077850Y-033031
X077850Y-034016
X077850Y-035984
X077850Y-036969
X079819Y-035000
T5
X077850Y-035000
X079819Y-033031
X079819Y-036969
T6
X079500Y-022500
X079500Y-044750
T0
M30
