G04 (created by PCBNEW-RS274X (2012-01-19 BZR 3256)-stable) date 9/26/2012 11:25:36 PM*
G01*
G70*
G90*
%MOIN*%
G04 Gerber Fmt 3.4, Leading zero omitted, Abs format*
%FSLAX34Y34*%
G04 APERTURE LIST*
%ADD10C,0.006000*%
%ADD11C,0.008000*%
%ADD12C,0.010000*%
%ADD13C,0.012000*%
%ADD14C,0.015000*%
G04 APERTURE END LIST*
G54D10*
G54D11*
X40458Y-22619D02*
X40534Y-22952D01*
X40611Y-22714D01*
X40687Y-22952D01*
X40763Y-22619D01*
X40877Y-22619D02*
X40953Y-22952D01*
X41030Y-22714D01*
X41106Y-22952D01*
X41182Y-22619D01*
X41296Y-22619D02*
X41372Y-22952D01*
X41449Y-22714D01*
X41525Y-22952D01*
X41601Y-22619D01*
X41753Y-22905D02*
X41772Y-22929D01*
X41753Y-22952D01*
X41734Y-22929D01*
X41753Y-22905D01*
X41753Y-22952D01*
X41943Y-22952D02*
X41943Y-22619D01*
X41943Y-22667D02*
X41962Y-22643D01*
X42000Y-22619D01*
X42058Y-22619D01*
X42096Y-22643D01*
X42115Y-22690D01*
X42115Y-22952D01*
X42115Y-22690D02*
X42134Y-22643D01*
X42172Y-22619D01*
X42229Y-22619D01*
X42267Y-22643D01*
X42286Y-22690D01*
X42286Y-22952D01*
X42648Y-22952D02*
X42648Y-22690D01*
X42629Y-22643D01*
X42591Y-22619D01*
X42514Y-22619D01*
X42476Y-22643D01*
X42648Y-22929D02*
X42610Y-22952D01*
X42514Y-22952D01*
X42476Y-22929D01*
X42457Y-22881D01*
X42457Y-22833D01*
X42476Y-22786D01*
X42514Y-22762D01*
X42610Y-22762D01*
X42648Y-22738D01*
X42895Y-22952D02*
X42857Y-22929D01*
X42838Y-22881D01*
X42838Y-22452D01*
X43048Y-22952D02*
X43048Y-22619D01*
X43048Y-22452D02*
X43029Y-22476D01*
X43048Y-22500D01*
X43067Y-22476D01*
X43048Y-22452D01*
X43048Y-22500D01*
X43238Y-22619D02*
X43238Y-22952D01*
X43238Y-22667D02*
X43257Y-22643D01*
X43295Y-22619D01*
X43353Y-22619D01*
X43391Y-22643D01*
X43410Y-22690D01*
X43410Y-22952D01*
X43657Y-22952D02*
X43619Y-22929D01*
X43600Y-22905D01*
X43581Y-22857D01*
X43581Y-22714D01*
X43600Y-22667D01*
X43619Y-22643D01*
X43657Y-22619D01*
X43715Y-22619D01*
X43753Y-22643D01*
X43772Y-22667D01*
X43791Y-22714D01*
X43791Y-22857D01*
X43772Y-22905D01*
X43753Y-22929D01*
X43715Y-22952D01*
X43657Y-22952D01*
X43924Y-22619D02*
X44019Y-22952D01*
X44115Y-22619D01*
X44267Y-22905D02*
X44286Y-22929D01*
X44267Y-22952D01*
X44248Y-22929D01*
X44267Y-22905D01*
X44267Y-22952D01*
X44629Y-22929D02*
X44591Y-22952D01*
X44514Y-22952D01*
X44476Y-22929D01*
X44457Y-22905D01*
X44438Y-22857D01*
X44438Y-22714D01*
X44457Y-22667D01*
X44476Y-22643D01*
X44514Y-22619D01*
X44591Y-22619D01*
X44629Y-22643D01*
X44857Y-22952D02*
X44819Y-22929D01*
X44800Y-22905D01*
X44781Y-22857D01*
X44781Y-22714D01*
X44800Y-22667D01*
X44819Y-22643D01*
X44857Y-22619D01*
X44915Y-22619D01*
X44953Y-22643D01*
X44972Y-22667D01*
X44991Y-22714D01*
X44991Y-22857D01*
X44972Y-22905D01*
X44953Y-22929D01*
X44915Y-22952D01*
X44857Y-22952D01*
X45162Y-22952D02*
X45162Y-22619D01*
X45162Y-22667D02*
X45181Y-22643D01*
X45219Y-22619D01*
X45277Y-22619D01*
X45315Y-22643D01*
X45334Y-22690D01*
X45334Y-22952D01*
X45334Y-22690D02*
X45353Y-22643D01*
X45391Y-22619D01*
X45448Y-22619D01*
X45486Y-22643D01*
X45505Y-22690D01*
X45505Y-22952D01*
G54D12*
X41187Y-32868D02*
X41187Y-32268D01*
X41444Y-32839D02*
X41530Y-32868D01*
X41673Y-32868D01*
X41730Y-32839D01*
X41759Y-32811D01*
X41787Y-32754D01*
X41787Y-32696D01*
X41759Y-32639D01*
X41730Y-32611D01*
X41673Y-32582D01*
X41559Y-32554D01*
X41501Y-32525D01*
X41473Y-32496D01*
X41444Y-32439D01*
X41444Y-32382D01*
X41473Y-32325D01*
X41501Y-32296D01*
X41559Y-32268D01*
X41701Y-32268D01*
X41787Y-32296D01*
X42015Y-32696D02*
X42301Y-32696D01*
X41958Y-32868D02*
X42158Y-32268D01*
X42358Y-32868D01*
X43129Y-32268D02*
X43243Y-32268D01*
X43301Y-32296D01*
X43358Y-32354D01*
X43386Y-32468D01*
X43386Y-32668D01*
X43358Y-32782D01*
X43301Y-32839D01*
X43243Y-32868D01*
X43129Y-32868D01*
X43072Y-32839D01*
X43015Y-32782D01*
X42986Y-32668D01*
X42986Y-32468D01*
X43015Y-32354D01*
X43072Y-32296D01*
X43129Y-32268D01*
X43644Y-32868D02*
X43644Y-32268D01*
X43872Y-32268D01*
X43930Y-32296D01*
X43958Y-32325D01*
X43987Y-32382D01*
X43987Y-32468D01*
X43958Y-32525D01*
X43930Y-32554D01*
X43872Y-32582D01*
X43644Y-32582D01*
X44530Y-32868D02*
X44244Y-32868D01*
X44244Y-32268D01*
X44701Y-32325D02*
X44730Y-32296D01*
X44787Y-32268D01*
X44930Y-32268D01*
X44987Y-32296D01*
X45016Y-32325D01*
X45044Y-32382D01*
X45044Y-32439D01*
X45016Y-32525D01*
X44673Y-32868D01*
X45044Y-32868D01*
X45758Y-32639D02*
X46215Y-32639D01*
X46872Y-32268D02*
X47072Y-32868D01*
X47272Y-32268D01*
X47700Y-32839D02*
X47643Y-32868D01*
X47529Y-32868D01*
X47472Y-32839D01*
X47443Y-32782D01*
X47443Y-32554D01*
X47472Y-32496D01*
X47529Y-32468D01*
X47643Y-32468D01*
X47700Y-32496D01*
X47729Y-32554D01*
X47729Y-32611D01*
X47443Y-32668D01*
X47986Y-32868D02*
X47986Y-32468D01*
X47986Y-32582D02*
X48014Y-32525D01*
X48043Y-32496D01*
X48100Y-32468D01*
X48157Y-32468D01*
X48328Y-32839D02*
X48385Y-32868D01*
X48500Y-32868D01*
X48557Y-32839D01*
X48585Y-32782D01*
X48585Y-32754D01*
X48557Y-32696D01*
X48500Y-32668D01*
X48414Y-32668D01*
X48357Y-32639D01*
X48328Y-32582D01*
X48328Y-32554D01*
X48357Y-32496D01*
X48414Y-32468D01*
X48500Y-32468D01*
X48557Y-32496D01*
X48843Y-32868D02*
X48843Y-32468D01*
X48843Y-32268D02*
X48814Y-32296D01*
X48843Y-32325D01*
X48871Y-32296D01*
X48843Y-32268D01*
X48843Y-32325D01*
X49215Y-32868D02*
X49157Y-32839D01*
X49129Y-32811D01*
X49100Y-32754D01*
X49100Y-32582D01*
X49129Y-32525D01*
X49157Y-32496D01*
X49215Y-32468D01*
X49300Y-32468D01*
X49357Y-32496D01*
X49386Y-32525D01*
X49415Y-32582D01*
X49415Y-32754D01*
X49386Y-32811D01*
X49357Y-32839D01*
X49300Y-32868D01*
X49215Y-32868D01*
X49672Y-32468D02*
X49672Y-32868D01*
X49672Y-32525D02*
X49700Y-32496D01*
X49758Y-32468D01*
X49843Y-32468D01*
X49900Y-32496D01*
X49929Y-32554D01*
X49929Y-32868D01*
X50986Y-32868D02*
X50643Y-32868D01*
X50815Y-32868D02*
X50815Y-32268D01*
X50758Y-32354D01*
X50700Y-32411D01*
X50643Y-32439D01*
X51243Y-32811D02*
X51271Y-32839D01*
X51243Y-32868D01*
X51214Y-32839D01*
X51243Y-32811D01*
X51243Y-32868D01*
X51643Y-32268D02*
X51700Y-32268D01*
X51757Y-32296D01*
X51786Y-32325D01*
X51815Y-32382D01*
X51843Y-32496D01*
X51843Y-32639D01*
X51815Y-32754D01*
X51786Y-32811D01*
X51757Y-32839D01*
X51700Y-32868D01*
X51643Y-32868D01*
X51586Y-32839D01*
X51557Y-32811D01*
X51529Y-32754D01*
X51500Y-32639D01*
X51500Y-32496D01*
X51529Y-32382D01*
X51557Y-32325D01*
X51586Y-32296D01*
X51643Y-32268D01*
X43500Y-21625D02*
X44000Y-22125D01*
X42750Y-21375D02*
X43250Y-21875D01*
X43500Y-21875D02*
X43500Y-21375D01*
X43250Y-21625D02*
X43250Y-22125D01*
X42750Y-21625D02*
X42750Y-21125D01*
X42250Y-22125D02*
X41750Y-22125D01*
X42750Y-21625D02*
X42250Y-22125D01*
X43250Y-22125D02*
X42750Y-21625D01*
X43500Y-21875D02*
X43250Y-22125D01*
X43750Y-22125D02*
X43500Y-21875D01*
X44250Y-22125D02*
X43750Y-22125D01*
X43500Y-21375D02*
X44250Y-22125D01*
X43250Y-21625D02*
X43500Y-21375D01*
X42750Y-21125D02*
X43250Y-21625D01*
X41750Y-22125D02*
X42750Y-21125D01*
G54D10*
X58625Y-36887D02*
X58811Y-36887D01*
X58711Y-37039D01*
X58753Y-37039D01*
X58782Y-37058D01*
X58796Y-37077D01*
X58811Y-37115D01*
X58811Y-37211D01*
X58796Y-37249D01*
X58782Y-37268D01*
X58753Y-37287D01*
X58668Y-37287D01*
X58639Y-37268D01*
X58625Y-37249D01*
X58982Y-37058D02*
X58954Y-37039D01*
X58939Y-37020D01*
X58925Y-36982D01*
X58925Y-36963D01*
X58939Y-36925D01*
X58954Y-36906D01*
X58982Y-36887D01*
X59039Y-36887D01*
X59068Y-36906D01*
X59082Y-36925D01*
X59097Y-36963D01*
X59097Y-36982D01*
X59082Y-37020D01*
X59068Y-37039D01*
X59039Y-37058D01*
X58982Y-37058D01*
X58954Y-37077D01*
X58939Y-37096D01*
X58925Y-37135D01*
X58925Y-37211D01*
X58939Y-37249D01*
X58954Y-37268D01*
X58982Y-37287D01*
X59039Y-37287D01*
X59068Y-37268D01*
X59082Y-37249D01*
X59097Y-37211D01*
X59097Y-37135D01*
X59082Y-37096D01*
X59068Y-37077D01*
X59039Y-37058D01*
X59268Y-37058D02*
X59240Y-37039D01*
X59225Y-37020D01*
X59211Y-36982D01*
X59211Y-36963D01*
X59225Y-36925D01*
X59240Y-36906D01*
X59268Y-36887D01*
X59325Y-36887D01*
X59354Y-36906D01*
X59368Y-36925D01*
X59383Y-36963D01*
X59383Y-36982D01*
X59368Y-37020D01*
X59354Y-37039D01*
X59325Y-37058D01*
X59268Y-37058D01*
X59240Y-37077D01*
X59225Y-37096D01*
X59211Y-37135D01*
X59211Y-37211D01*
X59225Y-37249D01*
X59240Y-37268D01*
X59268Y-37287D01*
X59325Y-37287D01*
X59354Y-37268D01*
X59368Y-37249D01*
X59383Y-37211D01*
X59383Y-37135D01*
X59368Y-37096D01*
X59354Y-37077D01*
X59325Y-37058D01*
X59554Y-36887D02*
X59554Y-36982D01*
X59483Y-36944D02*
X59554Y-36982D01*
X59626Y-36944D01*
X59511Y-37058D02*
X59554Y-36982D01*
X59597Y-37058D01*
X57614Y-36887D02*
X57800Y-36887D01*
X57700Y-37039D01*
X57742Y-37039D01*
X57771Y-37058D01*
X57785Y-37077D01*
X57800Y-37115D01*
X57800Y-37211D01*
X57785Y-37249D01*
X57771Y-37268D01*
X57742Y-37287D01*
X57657Y-37287D01*
X57628Y-37268D01*
X57614Y-37249D01*
X58086Y-37287D02*
X57914Y-37287D01*
X58000Y-37287D02*
X58000Y-36887D01*
X57971Y-36944D01*
X57943Y-36982D01*
X57914Y-37001D01*
X58257Y-37058D02*
X58229Y-37039D01*
X58214Y-37020D01*
X58200Y-36982D01*
X58200Y-36963D01*
X58214Y-36925D01*
X58229Y-36906D01*
X58257Y-36887D01*
X58314Y-36887D01*
X58343Y-36906D01*
X58357Y-36925D01*
X58372Y-36963D01*
X58372Y-36982D01*
X58357Y-37020D01*
X58343Y-37039D01*
X58314Y-37058D01*
X58257Y-37058D01*
X58229Y-37077D01*
X58214Y-37096D01*
X58200Y-37135D01*
X58200Y-37211D01*
X58214Y-37249D01*
X58229Y-37268D01*
X58257Y-37287D01*
X58314Y-37287D01*
X58343Y-37268D01*
X58357Y-37249D01*
X58372Y-37211D01*
X58372Y-37135D01*
X58357Y-37096D01*
X58343Y-37077D01*
X58314Y-37058D01*
X56628Y-36925D02*
X56642Y-36906D01*
X56671Y-36887D01*
X56742Y-36887D01*
X56771Y-36906D01*
X56785Y-36925D01*
X56800Y-36963D01*
X56800Y-37001D01*
X56785Y-37058D01*
X56614Y-37287D01*
X56800Y-37287D01*
X56971Y-37058D02*
X56943Y-37039D01*
X56928Y-37020D01*
X56914Y-36982D01*
X56914Y-36963D01*
X56928Y-36925D01*
X56943Y-36906D01*
X56971Y-36887D01*
X57028Y-36887D01*
X57057Y-36906D01*
X57071Y-36925D01*
X57086Y-36963D01*
X57086Y-36982D01*
X57071Y-37020D01*
X57057Y-37039D01*
X57028Y-37058D01*
X56971Y-37058D01*
X56943Y-37077D01*
X56928Y-37096D01*
X56914Y-37135D01*
X56914Y-37211D01*
X56928Y-37249D01*
X56943Y-37268D01*
X56971Y-37287D01*
X57028Y-37287D01*
X57057Y-37268D01*
X57071Y-37249D01*
X57086Y-37211D01*
X57086Y-37135D01*
X57071Y-37096D01*
X57057Y-37077D01*
X57028Y-37058D01*
X57257Y-37058D02*
X57229Y-37039D01*
X57214Y-37020D01*
X57200Y-36982D01*
X57200Y-36963D01*
X57214Y-36925D01*
X57229Y-36906D01*
X57257Y-36887D01*
X57314Y-36887D01*
X57343Y-36906D01*
X57357Y-36925D01*
X57372Y-36963D01*
X57372Y-36982D01*
X57357Y-37020D01*
X57343Y-37039D01*
X57314Y-37058D01*
X57257Y-37058D01*
X57229Y-37077D01*
X57214Y-37096D01*
X57200Y-37135D01*
X57200Y-37211D01*
X57214Y-37249D01*
X57229Y-37268D01*
X57257Y-37287D01*
X57314Y-37287D01*
X57343Y-37268D01*
X57357Y-37249D01*
X57372Y-37211D01*
X57372Y-37135D01*
X57357Y-37096D01*
X57343Y-37077D01*
X57314Y-37058D01*
X55628Y-36925D02*
X55642Y-36906D01*
X55671Y-36887D01*
X55742Y-36887D01*
X55771Y-36906D01*
X55785Y-36925D01*
X55800Y-36963D01*
X55800Y-37001D01*
X55785Y-37058D01*
X55614Y-37287D01*
X55800Y-37287D01*
X56086Y-37287D02*
X55914Y-37287D01*
X56000Y-37287D02*
X56000Y-36887D01*
X55971Y-36944D01*
X55943Y-36982D01*
X55914Y-37001D01*
X56257Y-37058D02*
X56229Y-37039D01*
X56214Y-37020D01*
X56200Y-36982D01*
X56200Y-36963D01*
X56214Y-36925D01*
X56229Y-36906D01*
X56257Y-36887D01*
X56314Y-36887D01*
X56343Y-36906D01*
X56357Y-36925D01*
X56372Y-36963D01*
X56372Y-36982D01*
X56357Y-37020D01*
X56343Y-37039D01*
X56314Y-37058D01*
X56257Y-37058D01*
X56229Y-37077D01*
X56214Y-37096D01*
X56200Y-37135D01*
X56200Y-37211D01*
X56214Y-37249D01*
X56229Y-37268D01*
X56257Y-37287D01*
X56314Y-37287D01*
X56343Y-37268D01*
X56357Y-37249D01*
X56372Y-37211D01*
X56372Y-37135D01*
X56357Y-37096D01*
X56343Y-37077D01*
X56314Y-37058D01*
G54D11*
X49886Y-36925D02*
X49905Y-36906D01*
X49943Y-36887D01*
X50039Y-36887D01*
X50077Y-36906D01*
X50096Y-36925D01*
X50115Y-36963D01*
X50115Y-37001D01*
X50096Y-37058D01*
X49867Y-37287D01*
X50115Y-37287D01*
X49096Y-36887D02*
X48905Y-36887D01*
X48886Y-37077D01*
X48905Y-37058D01*
X48943Y-37039D01*
X49039Y-37039D01*
X49077Y-37058D01*
X49096Y-37077D01*
X49115Y-37115D01*
X49115Y-37211D01*
X49096Y-37249D01*
X49077Y-37268D01*
X49039Y-37287D01*
X48943Y-37287D01*
X48905Y-37268D01*
X48886Y-37249D01*
X47867Y-36887D02*
X48115Y-36887D01*
X47981Y-37039D01*
X48039Y-37039D01*
X48077Y-37058D01*
X48096Y-37077D01*
X48115Y-37115D01*
X48115Y-37211D01*
X48096Y-37249D01*
X48077Y-37268D01*
X48039Y-37287D01*
X47924Y-37287D01*
X47886Y-37268D01*
X47867Y-37249D01*
G54D12*
X40000Y-48875D02*
X40000Y-45375D01*
X72000Y-45375D02*
X40000Y-45375D01*
G54D13*
X72000Y-48875D02*
X40000Y-48875D01*
G54D12*
X72000Y-45375D02*
X72000Y-48875D01*
G54D14*
X80400Y-22500D02*
X80382Y-22674D01*
X80332Y-22842D01*
X80249Y-22998D01*
X80138Y-23134D01*
X80003Y-23246D01*
X79848Y-23329D01*
X79680Y-23381D01*
X79506Y-23399D01*
X79332Y-23384D01*
X79163Y-23334D01*
X79008Y-23253D01*
X78871Y-23143D01*
X78758Y-23008D01*
X78673Y-22854D01*
X78620Y-22687D01*
X78601Y-22512D01*
X78615Y-22338D01*
X78664Y-22169D01*
X78744Y-22013D01*
X78853Y-21875D01*
X78987Y-21761D01*
X79140Y-21676D01*
X79307Y-21621D01*
X79482Y-21601D01*
X79656Y-21614D01*
X79825Y-21661D01*
X79982Y-21741D01*
X80120Y-21849D01*
X80235Y-21982D01*
X80322Y-22134D01*
X80377Y-22301D01*
X80399Y-22475D01*
X80400Y-22500D01*
X80400Y-44750D02*
X80382Y-44924D01*
X80332Y-45092D01*
X80249Y-45248D01*
X80138Y-45384D01*
X80003Y-45496D01*
X79848Y-45579D01*
X79680Y-45631D01*
X79506Y-45649D01*
X79332Y-45634D01*
X79163Y-45584D01*
X79008Y-45503D01*
X78871Y-45393D01*
X78758Y-45258D01*
X78673Y-45104D01*
X78620Y-44937D01*
X78601Y-44762D01*
X78615Y-44588D01*
X78664Y-44419D01*
X78744Y-44263D01*
X78853Y-44125D01*
X78987Y-44011D01*
X79140Y-43926D01*
X79307Y-43871D01*
X79482Y-43851D01*
X79656Y-43864D01*
X79825Y-43911D01*
X79982Y-43991D01*
X80120Y-44099D01*
X80235Y-44232D01*
X80322Y-44384D01*
X80377Y-44551D01*
X80399Y-44725D01*
X80400Y-44750D01*
G54D12*
X81000Y-33622D02*
X81000Y-36378D01*
X81000Y-36378D02*
X81000Y-37362D01*
X81000Y-37362D02*
X76472Y-37362D01*
X76472Y-37362D02*
X76472Y-32638D01*
X76472Y-32638D02*
X81000Y-32638D01*
X81000Y-32638D02*
X81000Y-33622D01*
X81000Y-33622D02*
X82378Y-33622D01*
X82378Y-33622D02*
X82378Y-36378D01*
X82378Y-36378D02*
X81000Y-36378D01*
X61300Y-43400D02*
X61700Y-43400D01*
X61100Y-40800D02*
X61100Y-43200D01*
X61900Y-40800D02*
X61900Y-43200D01*
X61100Y-43200D02*
X61101Y-43217D01*
X61104Y-43234D01*
X61107Y-43251D01*
X61113Y-43268D01*
X61119Y-43284D01*
X61127Y-43299D01*
X61137Y-43314D01*
X61147Y-43328D01*
X61159Y-43341D01*
X61172Y-43353D01*
X61186Y-43363D01*
X61201Y-43373D01*
X61216Y-43381D01*
X61232Y-43387D01*
X61249Y-43393D01*
X61266Y-43396D01*
X61283Y-43399D01*
X61300Y-43400D01*
X61700Y-43400D02*
X61717Y-43399D01*
X61734Y-43396D01*
X61751Y-43393D01*
X61768Y-43387D01*
X61784Y-43381D01*
X61800Y-43373D01*
X61814Y-43363D01*
X61828Y-43353D01*
X61841Y-43341D01*
X61853Y-43328D01*
X61863Y-43314D01*
X61873Y-43299D01*
X61881Y-43284D01*
X61887Y-43268D01*
X61893Y-43251D01*
X61896Y-43234D01*
X61899Y-43217D01*
X61900Y-43200D01*
X61300Y-40600D02*
X61283Y-40601D01*
X61266Y-40604D01*
X61249Y-40607D01*
X61232Y-40613D01*
X61216Y-40619D01*
X61201Y-40627D01*
X61186Y-40637D01*
X61172Y-40647D01*
X61159Y-40659D01*
X61147Y-40672D01*
X61137Y-40686D01*
X61127Y-40701D01*
X61119Y-40716D01*
X61113Y-40732D01*
X61107Y-40749D01*
X61104Y-40766D01*
X61101Y-40783D01*
X61100Y-40800D01*
X61900Y-40800D02*
X61899Y-40783D01*
X61896Y-40766D01*
X61893Y-40749D01*
X61887Y-40732D01*
X61881Y-40716D01*
X61873Y-40701D01*
X61863Y-40686D01*
X61853Y-40672D01*
X61841Y-40659D01*
X61828Y-40647D01*
X61814Y-40637D01*
X61800Y-40627D01*
X61784Y-40619D01*
X61768Y-40613D01*
X61751Y-40607D01*
X61734Y-40604D01*
X61717Y-40601D01*
X61700Y-40600D01*
X61300Y-40600D02*
X61700Y-40600D01*
X41300Y-43400D02*
X41700Y-43400D01*
X41100Y-40800D02*
X41100Y-43200D01*
X41900Y-40800D02*
X41900Y-43200D01*
X41100Y-43200D02*
X41101Y-43217D01*
X41104Y-43234D01*
X41107Y-43251D01*
X41113Y-43268D01*
X41119Y-43284D01*
X41127Y-43299D01*
X41137Y-43314D01*
X41147Y-43328D01*
X41159Y-43341D01*
X41172Y-43353D01*
X41186Y-43363D01*
X41201Y-43373D01*
X41216Y-43381D01*
X41232Y-43387D01*
X41249Y-43393D01*
X41266Y-43396D01*
X41283Y-43399D01*
X41300Y-43400D01*
X41700Y-43400D02*
X41717Y-43399D01*
X41734Y-43396D01*
X41751Y-43393D01*
X41768Y-43387D01*
X41784Y-43381D01*
X41800Y-43373D01*
X41814Y-43363D01*
X41828Y-43353D01*
X41841Y-43341D01*
X41853Y-43328D01*
X41863Y-43314D01*
X41873Y-43299D01*
X41881Y-43284D01*
X41887Y-43268D01*
X41893Y-43251D01*
X41896Y-43234D01*
X41899Y-43217D01*
X41900Y-43200D01*
X41300Y-40600D02*
X41283Y-40601D01*
X41266Y-40604D01*
X41249Y-40607D01*
X41232Y-40613D01*
X41216Y-40619D01*
X41201Y-40627D01*
X41186Y-40637D01*
X41172Y-40647D01*
X41159Y-40659D01*
X41147Y-40672D01*
X41137Y-40686D01*
X41127Y-40701D01*
X41119Y-40716D01*
X41113Y-40732D01*
X41107Y-40749D01*
X41104Y-40766D01*
X41101Y-40783D01*
X41100Y-40800D01*
X41900Y-40800D02*
X41899Y-40783D01*
X41896Y-40766D01*
X41893Y-40749D01*
X41887Y-40732D01*
X41881Y-40716D01*
X41873Y-40701D01*
X41863Y-40686D01*
X41853Y-40672D01*
X41841Y-40659D01*
X41828Y-40647D01*
X41814Y-40637D01*
X41800Y-40627D01*
X41784Y-40619D01*
X41768Y-40613D01*
X41751Y-40607D01*
X41734Y-40604D01*
X41717Y-40601D01*
X41700Y-40600D01*
X41300Y-40600D02*
X41700Y-40600D01*
X41300Y-36400D02*
X41700Y-36400D01*
X41100Y-33800D02*
X41100Y-36200D01*
X41900Y-33800D02*
X41900Y-36200D01*
X41100Y-36200D02*
X41101Y-36217D01*
X41104Y-36234D01*
X41107Y-36251D01*
X41113Y-36268D01*
X41119Y-36284D01*
X41127Y-36299D01*
X41137Y-36314D01*
X41147Y-36328D01*
X41159Y-36341D01*
X41172Y-36353D01*
X41186Y-36363D01*
X41201Y-36373D01*
X41216Y-36381D01*
X41232Y-36387D01*
X41249Y-36393D01*
X41266Y-36396D01*
X41283Y-36399D01*
X41300Y-36400D01*
X41700Y-36400D02*
X41717Y-36399D01*
X41734Y-36396D01*
X41751Y-36393D01*
X41768Y-36387D01*
X41784Y-36381D01*
X41800Y-36373D01*
X41814Y-36363D01*
X41828Y-36353D01*
X41841Y-36341D01*
X41853Y-36328D01*
X41863Y-36314D01*
X41873Y-36299D01*
X41881Y-36284D01*
X41887Y-36268D01*
X41893Y-36251D01*
X41896Y-36234D01*
X41899Y-36217D01*
X41900Y-36200D01*
X41300Y-33600D02*
X41283Y-33601D01*
X41266Y-33604D01*
X41249Y-33607D01*
X41232Y-33613D01*
X41216Y-33619D01*
X41201Y-33627D01*
X41186Y-33637D01*
X41172Y-33647D01*
X41159Y-33659D01*
X41147Y-33672D01*
X41137Y-33686D01*
X41127Y-33701D01*
X41119Y-33716D01*
X41113Y-33732D01*
X41107Y-33749D01*
X41104Y-33766D01*
X41101Y-33783D01*
X41100Y-33800D01*
X41900Y-33800D02*
X41899Y-33783D01*
X41896Y-33766D01*
X41893Y-33749D01*
X41887Y-33732D01*
X41881Y-33716D01*
X41873Y-33701D01*
X41863Y-33686D01*
X41853Y-33672D01*
X41841Y-33659D01*
X41828Y-33647D01*
X41814Y-33637D01*
X41800Y-33627D01*
X41784Y-33619D01*
X41768Y-33613D01*
X41751Y-33607D01*
X41734Y-33604D01*
X41717Y-33601D01*
X41700Y-33600D01*
X41300Y-33600D02*
X41700Y-33600D01*
X51300Y-36400D02*
X51700Y-36400D01*
X51100Y-33800D02*
X51100Y-36200D01*
X51900Y-33800D02*
X51900Y-36200D01*
X51100Y-36200D02*
X51101Y-36217D01*
X51104Y-36234D01*
X51107Y-36251D01*
X51113Y-36268D01*
X51119Y-36284D01*
X51127Y-36299D01*
X51137Y-36314D01*
X51147Y-36328D01*
X51159Y-36341D01*
X51172Y-36353D01*
X51186Y-36363D01*
X51201Y-36373D01*
X51216Y-36381D01*
X51232Y-36387D01*
X51249Y-36393D01*
X51266Y-36396D01*
X51283Y-36399D01*
X51300Y-36400D01*
X51700Y-36400D02*
X51717Y-36399D01*
X51734Y-36396D01*
X51751Y-36393D01*
X51768Y-36387D01*
X51784Y-36381D01*
X51800Y-36373D01*
X51814Y-36363D01*
X51828Y-36353D01*
X51841Y-36341D01*
X51853Y-36328D01*
X51863Y-36314D01*
X51873Y-36299D01*
X51881Y-36284D01*
X51887Y-36268D01*
X51893Y-36251D01*
X51896Y-36234D01*
X51899Y-36217D01*
X51900Y-36200D01*
X51300Y-33600D02*
X51283Y-33601D01*
X51266Y-33604D01*
X51249Y-33607D01*
X51232Y-33613D01*
X51216Y-33619D01*
X51201Y-33627D01*
X51186Y-33637D01*
X51172Y-33647D01*
X51159Y-33659D01*
X51147Y-33672D01*
X51137Y-33686D01*
X51127Y-33701D01*
X51119Y-33716D01*
X51113Y-33732D01*
X51107Y-33749D01*
X51104Y-33766D01*
X51101Y-33783D01*
X51100Y-33800D01*
X51900Y-33800D02*
X51899Y-33783D01*
X51896Y-33766D01*
X51893Y-33749D01*
X51887Y-33732D01*
X51881Y-33716D01*
X51873Y-33701D01*
X51863Y-33686D01*
X51853Y-33672D01*
X51841Y-33659D01*
X51828Y-33647D01*
X51814Y-33637D01*
X51800Y-33627D01*
X51784Y-33619D01*
X51768Y-33613D01*
X51751Y-33607D01*
X51734Y-33604D01*
X51717Y-33601D01*
X51700Y-33600D01*
X51300Y-33600D02*
X51700Y-33600D01*
X61300Y-36900D02*
X61700Y-36900D01*
X61100Y-34300D02*
X61100Y-36700D01*
X61900Y-34300D02*
X61900Y-36700D01*
X61100Y-36700D02*
X61101Y-36717D01*
X61104Y-36734D01*
X61107Y-36751D01*
X61113Y-36768D01*
X61119Y-36784D01*
X61127Y-36799D01*
X61137Y-36814D01*
X61147Y-36828D01*
X61159Y-36841D01*
X61172Y-36853D01*
X61186Y-36863D01*
X61201Y-36873D01*
X61216Y-36881D01*
X61232Y-36887D01*
X61249Y-36893D01*
X61266Y-36896D01*
X61283Y-36899D01*
X61300Y-36900D01*
X61700Y-36900D02*
X61717Y-36899D01*
X61734Y-36896D01*
X61751Y-36893D01*
X61768Y-36887D01*
X61784Y-36881D01*
X61800Y-36873D01*
X61814Y-36863D01*
X61828Y-36853D01*
X61841Y-36841D01*
X61853Y-36828D01*
X61863Y-36814D01*
X61873Y-36799D01*
X61881Y-36784D01*
X61887Y-36768D01*
X61893Y-36751D01*
X61896Y-36734D01*
X61899Y-36717D01*
X61900Y-36700D01*
X61300Y-34100D02*
X61283Y-34101D01*
X61266Y-34104D01*
X61249Y-34107D01*
X61232Y-34113D01*
X61216Y-34119D01*
X61201Y-34127D01*
X61186Y-34137D01*
X61172Y-34147D01*
X61159Y-34159D01*
X61147Y-34172D01*
X61137Y-34186D01*
X61127Y-34201D01*
X61119Y-34216D01*
X61113Y-34232D01*
X61107Y-34249D01*
X61104Y-34266D01*
X61101Y-34283D01*
X61100Y-34300D01*
X61900Y-34300D02*
X61899Y-34283D01*
X61896Y-34266D01*
X61893Y-34249D01*
X61887Y-34232D01*
X61881Y-34216D01*
X61873Y-34201D01*
X61863Y-34186D01*
X61853Y-34172D01*
X61841Y-34159D01*
X61828Y-34147D01*
X61814Y-34137D01*
X61800Y-34127D01*
X61784Y-34119D01*
X61768Y-34113D01*
X61751Y-34107D01*
X61734Y-34104D01*
X61717Y-34101D01*
X61700Y-34100D01*
X61300Y-34100D02*
X61700Y-34100D01*
X60700Y-27600D02*
X60300Y-27600D01*
X60900Y-30200D02*
X60900Y-27800D01*
X60100Y-30200D02*
X60100Y-27800D01*
X60900Y-27800D02*
X60899Y-27783D01*
X60896Y-27766D01*
X60893Y-27749D01*
X60887Y-27732D01*
X60881Y-27716D01*
X60873Y-27701D01*
X60863Y-27686D01*
X60853Y-27672D01*
X60841Y-27659D01*
X60828Y-27647D01*
X60814Y-27637D01*
X60800Y-27627D01*
X60784Y-27619D01*
X60768Y-27613D01*
X60751Y-27607D01*
X60734Y-27604D01*
X60717Y-27601D01*
X60700Y-27600D01*
X60300Y-27600D02*
X60283Y-27601D01*
X60266Y-27604D01*
X60249Y-27607D01*
X60232Y-27613D01*
X60216Y-27619D01*
X60201Y-27627D01*
X60186Y-27637D01*
X60172Y-27647D01*
X60159Y-27659D01*
X60147Y-27672D01*
X60137Y-27686D01*
X60127Y-27701D01*
X60119Y-27716D01*
X60113Y-27732D01*
X60107Y-27749D01*
X60104Y-27766D01*
X60101Y-27783D01*
X60100Y-27800D01*
X60700Y-30400D02*
X60717Y-30399D01*
X60734Y-30396D01*
X60751Y-30393D01*
X60768Y-30387D01*
X60784Y-30381D01*
X60800Y-30373D01*
X60814Y-30363D01*
X60828Y-30353D01*
X60841Y-30341D01*
X60853Y-30328D01*
X60863Y-30314D01*
X60873Y-30299D01*
X60881Y-30284D01*
X60887Y-30268D01*
X60893Y-30251D01*
X60896Y-30234D01*
X60899Y-30217D01*
X60900Y-30200D01*
X60100Y-30200D02*
X60101Y-30217D01*
X60104Y-30234D01*
X60107Y-30251D01*
X60113Y-30268D01*
X60119Y-30284D01*
X60127Y-30299D01*
X60137Y-30314D01*
X60147Y-30328D01*
X60159Y-30341D01*
X60172Y-30353D01*
X60186Y-30363D01*
X60201Y-30373D01*
X60216Y-30381D01*
X60232Y-30387D01*
X60249Y-30393D01*
X60266Y-30396D01*
X60283Y-30399D01*
X60300Y-30400D01*
X60700Y-30400D02*
X60300Y-30400D01*
X59300Y-30400D02*
X59700Y-30400D01*
X59100Y-27800D02*
X59100Y-30200D01*
X59900Y-27800D02*
X59900Y-30200D01*
X59100Y-30200D02*
X59101Y-30217D01*
X59104Y-30234D01*
X59107Y-30251D01*
X59113Y-30268D01*
X59119Y-30284D01*
X59127Y-30299D01*
X59137Y-30314D01*
X59147Y-30328D01*
X59159Y-30341D01*
X59172Y-30353D01*
X59186Y-30363D01*
X59201Y-30373D01*
X59216Y-30381D01*
X59232Y-30387D01*
X59249Y-30393D01*
X59266Y-30396D01*
X59283Y-30399D01*
X59300Y-30400D01*
X59700Y-30400D02*
X59717Y-30399D01*
X59734Y-30396D01*
X59751Y-30393D01*
X59768Y-30387D01*
X59784Y-30381D01*
X59800Y-30373D01*
X59814Y-30363D01*
X59828Y-30353D01*
X59841Y-30341D01*
X59853Y-30328D01*
X59863Y-30314D01*
X59873Y-30299D01*
X59881Y-30284D01*
X59887Y-30268D01*
X59893Y-30251D01*
X59896Y-30234D01*
X59899Y-30217D01*
X59900Y-30200D01*
X59300Y-27600D02*
X59283Y-27601D01*
X59266Y-27604D01*
X59249Y-27607D01*
X59232Y-27613D01*
X59216Y-27619D01*
X59201Y-27627D01*
X59186Y-27637D01*
X59172Y-27647D01*
X59159Y-27659D01*
X59147Y-27672D01*
X59137Y-27686D01*
X59127Y-27701D01*
X59119Y-27716D01*
X59113Y-27732D01*
X59107Y-27749D01*
X59104Y-27766D01*
X59101Y-27783D01*
X59100Y-27800D01*
X59900Y-27800D02*
X59899Y-27783D01*
X59896Y-27766D01*
X59893Y-27749D01*
X59887Y-27732D01*
X59881Y-27716D01*
X59873Y-27701D01*
X59863Y-27686D01*
X59853Y-27672D01*
X59841Y-27659D01*
X59828Y-27647D01*
X59814Y-27637D01*
X59800Y-27627D01*
X59784Y-27619D01*
X59768Y-27613D01*
X59751Y-27607D01*
X59734Y-27604D01*
X59717Y-27601D01*
X59700Y-27600D01*
X59300Y-27600D02*
X59700Y-27600D01*
X66300Y-24900D02*
X66700Y-24900D01*
X66100Y-22300D02*
X66100Y-24700D01*
X66900Y-22300D02*
X66900Y-24700D01*
X66100Y-24700D02*
X66101Y-24717D01*
X66104Y-24734D01*
X66107Y-24751D01*
X66113Y-24768D01*
X66119Y-24784D01*
X66127Y-24799D01*
X66137Y-24814D01*
X66147Y-24828D01*
X66159Y-24841D01*
X66172Y-24853D01*
X66186Y-24863D01*
X66201Y-24873D01*
X66216Y-24881D01*
X66232Y-24887D01*
X66249Y-24893D01*
X66266Y-24896D01*
X66283Y-24899D01*
X66300Y-24900D01*
X66700Y-24900D02*
X66717Y-24899D01*
X66734Y-24896D01*
X66751Y-24893D01*
X66768Y-24887D01*
X66784Y-24881D01*
X66800Y-24873D01*
X66814Y-24863D01*
X66828Y-24853D01*
X66841Y-24841D01*
X66853Y-24828D01*
X66863Y-24814D01*
X66873Y-24799D01*
X66881Y-24784D01*
X66887Y-24768D01*
X66893Y-24751D01*
X66896Y-24734D01*
X66899Y-24717D01*
X66900Y-24700D01*
X66300Y-22100D02*
X66283Y-22101D01*
X66266Y-22104D01*
X66249Y-22107D01*
X66232Y-22113D01*
X66216Y-22119D01*
X66201Y-22127D01*
X66186Y-22137D01*
X66172Y-22147D01*
X66159Y-22159D01*
X66147Y-22172D01*
X66137Y-22186D01*
X66127Y-22201D01*
X66119Y-22216D01*
X66113Y-22232D01*
X66107Y-22249D01*
X66104Y-22266D01*
X66101Y-22283D01*
X66100Y-22300D01*
X66900Y-22300D02*
X66899Y-22283D01*
X66896Y-22266D01*
X66893Y-22249D01*
X66887Y-22232D01*
X66881Y-22216D01*
X66873Y-22201D01*
X66863Y-22186D01*
X66853Y-22172D01*
X66841Y-22159D01*
X66828Y-22147D01*
X66814Y-22137D01*
X66800Y-22127D01*
X66784Y-22119D01*
X66768Y-22113D01*
X66751Y-22107D01*
X66734Y-22104D01*
X66717Y-22101D01*
X66700Y-22100D01*
X66300Y-22100D02*
X66700Y-22100D01*
X57583Y-25500D02*
X57562Y-25710D01*
X57501Y-25912D01*
X57402Y-26099D01*
X57268Y-26263D01*
X57105Y-26397D01*
X56919Y-26498D01*
X56717Y-26560D01*
X56507Y-26582D01*
X56298Y-26563D01*
X56095Y-26504D01*
X55907Y-26406D01*
X55743Y-26273D01*
X55607Y-26111D01*
X55505Y-25926D01*
X55441Y-25725D01*
X55418Y-25515D01*
X55435Y-25305D01*
X55494Y-25102D01*
X55590Y-24914D01*
X55721Y-24748D01*
X55882Y-24611D01*
X56067Y-24508D01*
X56268Y-24443D01*
X56478Y-24418D01*
X56688Y-24434D01*
X56891Y-24491D01*
X57080Y-24586D01*
X57246Y-24716D01*
X57384Y-24876D01*
X57489Y-25060D01*
X57556Y-25261D01*
X57582Y-25470D01*
X57583Y-25500D01*
X59400Y-22200D02*
X59400Y-21800D01*
X56800Y-22400D02*
X59200Y-22400D01*
X56800Y-21600D02*
X59200Y-21600D01*
X59200Y-22400D02*
X59217Y-22399D01*
X59234Y-22396D01*
X59251Y-22393D01*
X59268Y-22387D01*
X59284Y-22381D01*
X59300Y-22373D01*
X59314Y-22363D01*
X59328Y-22353D01*
X59341Y-22341D01*
X59353Y-22328D01*
X59363Y-22314D01*
X59373Y-22299D01*
X59381Y-22284D01*
X59387Y-22268D01*
X59393Y-22251D01*
X59396Y-22234D01*
X59399Y-22217D01*
X59400Y-22200D01*
X59400Y-21800D02*
X59399Y-21783D01*
X59396Y-21766D01*
X59393Y-21749D01*
X59387Y-21732D01*
X59381Y-21716D01*
X59373Y-21701D01*
X59363Y-21686D01*
X59353Y-21672D01*
X59341Y-21659D01*
X59328Y-21647D01*
X59314Y-21637D01*
X59300Y-21627D01*
X59284Y-21619D01*
X59268Y-21613D01*
X59251Y-21607D01*
X59234Y-21604D01*
X59217Y-21601D01*
X59200Y-21600D01*
X56600Y-22200D02*
X56601Y-22217D01*
X56604Y-22234D01*
X56607Y-22251D01*
X56613Y-22268D01*
X56619Y-22284D01*
X56627Y-22299D01*
X56637Y-22314D01*
X56647Y-22328D01*
X56659Y-22341D01*
X56672Y-22353D01*
X56686Y-22363D01*
X56701Y-22373D01*
X56716Y-22381D01*
X56732Y-22387D01*
X56749Y-22393D01*
X56766Y-22396D01*
X56783Y-22399D01*
X56800Y-22400D01*
X56800Y-21600D02*
X56783Y-21601D01*
X56766Y-21604D01*
X56749Y-21607D01*
X56732Y-21613D01*
X56716Y-21619D01*
X56701Y-21627D01*
X56686Y-21637D01*
X56672Y-21647D01*
X56659Y-21659D01*
X56647Y-21672D01*
X56637Y-21686D01*
X56627Y-21701D01*
X56619Y-21716D01*
X56613Y-21732D01*
X56607Y-21749D01*
X56604Y-21766D01*
X56601Y-21783D01*
X56600Y-21800D01*
X56600Y-22200D02*
X56600Y-21800D01*
X48400Y-28700D02*
X48400Y-28300D01*
X45800Y-28900D02*
X48200Y-28900D01*
X45800Y-28100D02*
X48200Y-28100D01*
X48200Y-28900D02*
X48217Y-28899D01*
X48234Y-28896D01*
X48251Y-28893D01*
X48268Y-28887D01*
X48284Y-28881D01*
X48300Y-28873D01*
X48314Y-28863D01*
X48328Y-28853D01*
X48341Y-28841D01*
X48353Y-28828D01*
X48363Y-28814D01*
X48373Y-28799D01*
X48381Y-28784D01*
X48387Y-28768D01*
X48393Y-28751D01*
X48396Y-28734D01*
X48399Y-28717D01*
X48400Y-28700D01*
X48400Y-28300D02*
X48399Y-28283D01*
X48396Y-28266D01*
X48393Y-28249D01*
X48387Y-28232D01*
X48381Y-28216D01*
X48373Y-28201D01*
X48363Y-28186D01*
X48353Y-28172D01*
X48341Y-28159D01*
X48328Y-28147D01*
X48314Y-28137D01*
X48300Y-28127D01*
X48284Y-28119D01*
X48268Y-28113D01*
X48251Y-28107D01*
X48234Y-28104D01*
X48217Y-28101D01*
X48200Y-28100D01*
X45600Y-28700D02*
X45601Y-28717D01*
X45604Y-28734D01*
X45607Y-28751D01*
X45613Y-28768D01*
X45619Y-28784D01*
X45627Y-28799D01*
X45637Y-28814D01*
X45647Y-28828D01*
X45659Y-28841D01*
X45672Y-28853D01*
X45686Y-28863D01*
X45701Y-28873D01*
X45716Y-28881D01*
X45732Y-28887D01*
X45749Y-28893D01*
X45766Y-28896D01*
X45783Y-28899D01*
X45800Y-28900D01*
X45800Y-28100D02*
X45783Y-28101D01*
X45766Y-28104D01*
X45749Y-28107D01*
X45732Y-28113D01*
X45716Y-28119D01*
X45701Y-28127D01*
X45686Y-28137D01*
X45672Y-28147D01*
X45659Y-28159D01*
X45647Y-28172D01*
X45637Y-28186D01*
X45627Y-28201D01*
X45619Y-28216D01*
X45613Y-28232D01*
X45607Y-28249D01*
X45604Y-28266D01*
X45601Y-28283D01*
X45600Y-28300D01*
X45600Y-28700D02*
X45600Y-28300D01*
X68800Y-29400D02*
X69200Y-29400D01*
X68600Y-26800D02*
X68600Y-29200D01*
X69400Y-26800D02*
X69400Y-29200D01*
X68600Y-29200D02*
X68601Y-29217D01*
X68604Y-29234D01*
X68607Y-29251D01*
X68613Y-29268D01*
X68619Y-29284D01*
X68627Y-29299D01*
X68637Y-29314D01*
X68647Y-29328D01*
X68659Y-29341D01*
X68672Y-29353D01*
X68686Y-29363D01*
X68701Y-29373D01*
X68716Y-29381D01*
X68732Y-29387D01*
X68749Y-29393D01*
X68766Y-29396D01*
X68783Y-29399D01*
X68800Y-29400D01*
X69200Y-29400D02*
X69217Y-29399D01*
X69234Y-29396D01*
X69251Y-29393D01*
X69268Y-29387D01*
X69284Y-29381D01*
X69300Y-29373D01*
X69314Y-29363D01*
X69328Y-29353D01*
X69341Y-29341D01*
X69353Y-29328D01*
X69363Y-29314D01*
X69373Y-29299D01*
X69381Y-29284D01*
X69387Y-29268D01*
X69393Y-29251D01*
X69396Y-29234D01*
X69399Y-29217D01*
X69400Y-29200D01*
X68800Y-26600D02*
X68783Y-26601D01*
X68766Y-26604D01*
X68749Y-26607D01*
X68732Y-26613D01*
X68716Y-26619D01*
X68701Y-26627D01*
X68686Y-26637D01*
X68672Y-26647D01*
X68659Y-26659D01*
X68647Y-26672D01*
X68637Y-26686D01*
X68627Y-26701D01*
X68619Y-26716D01*
X68613Y-26732D01*
X68607Y-26749D01*
X68604Y-26766D01*
X68601Y-26783D01*
X68600Y-26800D01*
X69400Y-26800D02*
X69399Y-26783D01*
X69396Y-26766D01*
X69393Y-26749D01*
X69387Y-26732D01*
X69381Y-26716D01*
X69373Y-26701D01*
X69363Y-26686D01*
X69353Y-26672D01*
X69341Y-26659D01*
X69328Y-26647D01*
X69314Y-26637D01*
X69300Y-26627D01*
X69284Y-26619D01*
X69268Y-26613D01*
X69251Y-26607D01*
X69234Y-26604D01*
X69217Y-26601D01*
X69200Y-26600D01*
X68800Y-26600D02*
X69200Y-26600D01*
X70800Y-29400D02*
X71200Y-29400D01*
X70600Y-26800D02*
X70600Y-29200D01*
X71400Y-26800D02*
X71400Y-29200D01*
X70600Y-29200D02*
X70601Y-29217D01*
X70604Y-29234D01*
X70607Y-29251D01*
X70613Y-29268D01*
X70619Y-29284D01*
X70627Y-29299D01*
X70637Y-29314D01*
X70647Y-29328D01*
X70659Y-29341D01*
X70672Y-29353D01*
X70686Y-29363D01*
X70701Y-29373D01*
X70716Y-29381D01*
X70732Y-29387D01*
X70749Y-29393D01*
X70766Y-29396D01*
X70783Y-29399D01*
X70800Y-29400D01*
X71200Y-29400D02*
X71217Y-29399D01*
X71234Y-29396D01*
X71251Y-29393D01*
X71268Y-29387D01*
X71284Y-29381D01*
X71300Y-29373D01*
X71314Y-29363D01*
X71328Y-29353D01*
X71341Y-29341D01*
X71353Y-29328D01*
X71363Y-29314D01*
X71373Y-29299D01*
X71381Y-29284D01*
X71387Y-29268D01*
X71393Y-29251D01*
X71396Y-29234D01*
X71399Y-29217D01*
X71400Y-29200D01*
X70800Y-26600D02*
X70783Y-26601D01*
X70766Y-26604D01*
X70749Y-26607D01*
X70732Y-26613D01*
X70716Y-26619D01*
X70701Y-26627D01*
X70686Y-26637D01*
X70672Y-26647D01*
X70659Y-26659D01*
X70647Y-26672D01*
X70637Y-26686D01*
X70627Y-26701D01*
X70619Y-26716D01*
X70613Y-26732D01*
X70607Y-26749D01*
X70604Y-26766D01*
X70601Y-26783D01*
X70600Y-26800D01*
X71400Y-26800D02*
X71399Y-26783D01*
X71396Y-26766D01*
X71393Y-26749D01*
X71387Y-26732D01*
X71381Y-26716D01*
X71373Y-26701D01*
X71363Y-26686D01*
X71353Y-26672D01*
X71341Y-26659D01*
X71328Y-26647D01*
X71314Y-26637D01*
X71300Y-26627D01*
X71284Y-26619D01*
X71268Y-26613D01*
X71251Y-26607D01*
X71234Y-26604D01*
X71217Y-26601D01*
X71200Y-26600D01*
X70800Y-26600D02*
X71200Y-26600D01*
X42300Y-42400D02*
X42334Y-42398D01*
X42369Y-42393D01*
X42403Y-42386D01*
X42436Y-42375D01*
X42469Y-42362D01*
X42500Y-42346D01*
X42529Y-42327D01*
X42557Y-42306D01*
X42582Y-42282D01*
X42606Y-42257D01*
X42627Y-42229D01*
X42646Y-42199D01*
X42662Y-42169D01*
X42675Y-42136D01*
X42686Y-42103D01*
X42693Y-42069D01*
X42698Y-42034D01*
X42700Y-42000D01*
X42700Y-42000D02*
X42698Y-41966D01*
X42693Y-41931D01*
X42686Y-41897D01*
X42675Y-41864D01*
X42662Y-41831D01*
X42646Y-41801D01*
X42627Y-41771D01*
X42606Y-41743D01*
X42582Y-41718D01*
X42557Y-41694D01*
X42529Y-41673D01*
X42500Y-41654D01*
X42469Y-41638D01*
X42436Y-41625D01*
X42403Y-41614D01*
X42369Y-41607D01*
X42334Y-41602D01*
X42300Y-41600D01*
X42300Y-41000D02*
X50700Y-41000D01*
X50700Y-41000D02*
X50700Y-43000D01*
X50700Y-43000D02*
X42300Y-43000D01*
X42300Y-43000D02*
X42300Y-41000D01*
X52300Y-42400D02*
X52334Y-42398D01*
X52369Y-42393D01*
X52403Y-42386D01*
X52436Y-42375D01*
X52469Y-42362D01*
X52500Y-42346D01*
X52529Y-42327D01*
X52557Y-42306D01*
X52582Y-42282D01*
X52606Y-42257D01*
X52627Y-42229D01*
X52646Y-42199D01*
X52662Y-42169D01*
X52675Y-42136D01*
X52686Y-42103D01*
X52693Y-42069D01*
X52698Y-42034D01*
X52700Y-42000D01*
X52700Y-42000D02*
X52698Y-41966D01*
X52693Y-41931D01*
X52686Y-41897D01*
X52675Y-41864D01*
X52662Y-41831D01*
X52646Y-41801D01*
X52627Y-41771D01*
X52606Y-41743D01*
X52582Y-41718D01*
X52557Y-41694D01*
X52529Y-41673D01*
X52500Y-41654D01*
X52469Y-41638D01*
X52436Y-41625D01*
X52403Y-41614D01*
X52369Y-41607D01*
X52334Y-41602D01*
X52300Y-41600D01*
X52300Y-41000D02*
X60700Y-41000D01*
X60700Y-41000D02*
X60700Y-43000D01*
X60700Y-43000D02*
X52300Y-43000D01*
X52300Y-43000D02*
X52300Y-41000D01*
X52500Y-35400D02*
X52534Y-35398D01*
X52569Y-35393D01*
X52603Y-35386D01*
X52636Y-35375D01*
X52669Y-35362D01*
X52700Y-35346D01*
X52729Y-35327D01*
X52757Y-35306D01*
X52782Y-35282D01*
X52806Y-35257D01*
X52827Y-35229D01*
X52846Y-35199D01*
X52862Y-35169D01*
X52875Y-35136D01*
X52886Y-35103D01*
X52893Y-35069D01*
X52898Y-35034D01*
X52900Y-35000D01*
X52900Y-35000D02*
X52898Y-34966D01*
X52893Y-34931D01*
X52886Y-34897D01*
X52875Y-34864D01*
X52862Y-34831D01*
X52846Y-34801D01*
X52827Y-34771D01*
X52806Y-34743D01*
X52782Y-34718D01*
X52757Y-34694D01*
X52729Y-34673D01*
X52700Y-34654D01*
X52669Y-34638D01*
X52636Y-34625D01*
X52603Y-34614D01*
X52569Y-34607D01*
X52534Y-34602D01*
X52500Y-34600D01*
X60500Y-34000D02*
X52500Y-34000D01*
X52500Y-34000D02*
X52500Y-36000D01*
X52500Y-36000D02*
X60500Y-36000D01*
X60500Y-36000D02*
X60500Y-34000D01*
X62100Y-35900D02*
X62134Y-35898D01*
X62169Y-35893D01*
X62203Y-35886D01*
X62236Y-35875D01*
X62269Y-35862D01*
X62300Y-35846D01*
X62329Y-35827D01*
X62357Y-35806D01*
X62382Y-35782D01*
X62406Y-35757D01*
X62427Y-35729D01*
X62446Y-35699D01*
X62462Y-35669D01*
X62475Y-35636D01*
X62486Y-35603D01*
X62493Y-35569D01*
X62498Y-35534D01*
X62500Y-35500D01*
X62500Y-35500D02*
X62498Y-35466D01*
X62493Y-35431D01*
X62486Y-35397D01*
X62475Y-35364D01*
X62462Y-35331D01*
X62446Y-35301D01*
X62427Y-35271D01*
X62406Y-35243D01*
X62382Y-35218D01*
X62357Y-35194D01*
X62329Y-35173D01*
X62300Y-35154D01*
X62269Y-35138D01*
X62236Y-35125D01*
X62203Y-35114D01*
X62169Y-35107D01*
X62134Y-35102D01*
X62100Y-35100D01*
X62100Y-33000D02*
X74900Y-33000D01*
X74900Y-33000D02*
X74900Y-38000D01*
X74900Y-38000D02*
X62100Y-38000D01*
X62100Y-38000D02*
X62100Y-33000D01*
X61500Y-29400D02*
X61534Y-29398D01*
X61569Y-29393D01*
X61603Y-29386D01*
X61636Y-29375D01*
X61669Y-29362D01*
X61700Y-29346D01*
X61729Y-29327D01*
X61757Y-29306D01*
X61782Y-29282D01*
X61806Y-29257D01*
X61827Y-29229D01*
X61846Y-29199D01*
X61862Y-29169D01*
X61875Y-29136D01*
X61886Y-29103D01*
X61893Y-29069D01*
X61898Y-29034D01*
X61900Y-29000D01*
X61900Y-29000D02*
X61898Y-28966D01*
X61893Y-28931D01*
X61886Y-28897D01*
X61875Y-28864D01*
X61862Y-28831D01*
X61846Y-28801D01*
X61827Y-28771D01*
X61806Y-28743D01*
X61782Y-28718D01*
X61757Y-28694D01*
X61729Y-28673D01*
X61700Y-28654D01*
X61669Y-28638D01*
X61636Y-28625D01*
X61603Y-28614D01*
X61569Y-28607D01*
X61534Y-28602D01*
X61500Y-28600D01*
X61500Y-30000D02*
X61500Y-28000D01*
X61500Y-28000D02*
X65500Y-28000D01*
X65500Y-28000D02*
X65500Y-30000D01*
X65500Y-30000D02*
X61500Y-30000D01*
X49500Y-29400D02*
X49534Y-29398D01*
X49569Y-29393D01*
X49603Y-29386D01*
X49636Y-29375D01*
X49669Y-29362D01*
X49700Y-29346D01*
X49729Y-29327D01*
X49757Y-29306D01*
X49782Y-29282D01*
X49806Y-29257D01*
X49827Y-29229D01*
X49846Y-29199D01*
X49862Y-29169D01*
X49875Y-29136D01*
X49886Y-29103D01*
X49893Y-29069D01*
X49898Y-29034D01*
X49900Y-29000D01*
X49900Y-29000D02*
X49898Y-28966D01*
X49893Y-28931D01*
X49886Y-28897D01*
X49875Y-28864D01*
X49862Y-28831D01*
X49846Y-28801D01*
X49827Y-28771D01*
X49806Y-28743D01*
X49782Y-28718D01*
X49757Y-28694D01*
X49729Y-28673D01*
X49700Y-28654D01*
X49669Y-28638D01*
X49636Y-28625D01*
X49603Y-28614D01*
X49569Y-28607D01*
X49534Y-28602D01*
X49500Y-28600D01*
X57500Y-28000D02*
X49500Y-28000D01*
X49500Y-28000D02*
X49500Y-30000D01*
X49500Y-30000D02*
X57500Y-30000D01*
X57500Y-30000D02*
X57500Y-28000D01*
X61500Y-23900D02*
X61534Y-23898D01*
X61569Y-23893D01*
X61603Y-23886D01*
X61636Y-23875D01*
X61669Y-23862D01*
X61700Y-23846D01*
X61729Y-23827D01*
X61757Y-23806D01*
X61782Y-23782D01*
X61806Y-23757D01*
X61827Y-23729D01*
X61846Y-23699D01*
X61862Y-23669D01*
X61875Y-23636D01*
X61886Y-23603D01*
X61893Y-23569D01*
X61898Y-23534D01*
X61900Y-23500D01*
X61900Y-23500D02*
X61898Y-23466D01*
X61893Y-23431D01*
X61886Y-23397D01*
X61875Y-23364D01*
X61862Y-23331D01*
X61846Y-23301D01*
X61827Y-23271D01*
X61806Y-23243D01*
X61782Y-23218D01*
X61757Y-23194D01*
X61729Y-23173D01*
X61700Y-23154D01*
X61669Y-23138D01*
X61636Y-23125D01*
X61603Y-23114D01*
X61569Y-23107D01*
X61534Y-23102D01*
X61500Y-23100D01*
X61500Y-24500D02*
X61500Y-22500D01*
X61500Y-22500D02*
X65500Y-22500D01*
X65500Y-22500D02*
X65500Y-24500D01*
X65500Y-24500D02*
X61500Y-24500D01*
X53001Y-20499D02*
X53010Y-20508D01*
X53020Y-20515D01*
X53030Y-20522D01*
X53041Y-20527D01*
X53052Y-20532D01*
X53064Y-20536D01*
X53076Y-20538D01*
X53088Y-20540D01*
X53100Y-20541D01*
X53112Y-20540D01*
X53124Y-20538D01*
X53136Y-20536D01*
X53148Y-20532D01*
X53159Y-20527D01*
X53170Y-20522D01*
X53180Y-20515D01*
X53190Y-20508D01*
X53199Y-20499D01*
X53000Y-20500D02*
X52999Y-20492D01*
X52998Y-20483D01*
X52996Y-20475D01*
X52993Y-20466D01*
X52990Y-20458D01*
X52986Y-20451D01*
X52981Y-20443D01*
X52976Y-20436D01*
X52970Y-20430D01*
X52964Y-20424D01*
X52957Y-20419D01*
X52950Y-20414D01*
X52942Y-20410D01*
X52934Y-20407D01*
X52925Y-20404D01*
X52917Y-20402D01*
X52908Y-20401D01*
X52900Y-20400D01*
X53300Y-20400D02*
X53292Y-20401D01*
X53283Y-20402D01*
X53275Y-20404D01*
X53266Y-20407D01*
X53258Y-20410D01*
X53251Y-20414D01*
X53243Y-20419D01*
X53236Y-20424D01*
X53230Y-20430D01*
X53224Y-20436D01*
X53219Y-20443D01*
X53214Y-20451D01*
X53210Y-20458D01*
X53207Y-20466D01*
X53204Y-20475D01*
X53202Y-20483D01*
X53201Y-20492D01*
X53200Y-20500D01*
X52900Y-23600D02*
X52908Y-23599D01*
X52917Y-23598D01*
X52925Y-23596D01*
X52934Y-23593D01*
X52942Y-23590D01*
X52950Y-23586D01*
X52957Y-23581D01*
X52964Y-23576D01*
X52970Y-23570D01*
X52976Y-23564D01*
X52981Y-23557D01*
X52986Y-23549D01*
X52990Y-23542D01*
X52993Y-23534D01*
X52996Y-23525D01*
X52998Y-23517D01*
X52999Y-23508D01*
X53000Y-23500D01*
X53199Y-23501D02*
X53190Y-23492D01*
X53180Y-23485D01*
X53170Y-23478D01*
X53159Y-23473D01*
X53148Y-23468D01*
X53136Y-23464D01*
X53124Y-23462D01*
X53112Y-23460D01*
X53100Y-23459D01*
X53088Y-23460D01*
X53076Y-23462D01*
X53064Y-23464D01*
X53052Y-23468D01*
X53041Y-23473D01*
X53030Y-23478D01*
X53020Y-23485D01*
X53010Y-23492D01*
X53001Y-23501D01*
X53200Y-23500D02*
X53201Y-23508D01*
X53202Y-23517D01*
X53204Y-23525D01*
X53207Y-23534D01*
X53210Y-23542D01*
X53214Y-23549D01*
X53219Y-23557D01*
X53224Y-23564D01*
X53230Y-23570D01*
X53236Y-23576D01*
X53243Y-23581D01*
X53251Y-23586D01*
X53258Y-23590D01*
X53266Y-23593D01*
X53275Y-23596D01*
X53283Y-23598D01*
X53292Y-23599D01*
X53300Y-23600D01*
X53700Y-22000D02*
X55500Y-22000D01*
X45500Y-22000D02*
X47100Y-22000D01*
X52900Y-23600D02*
X47400Y-23600D01*
X53600Y-23600D02*
X53300Y-23600D01*
X53700Y-20500D02*
X53700Y-23500D01*
X53300Y-20400D02*
X53600Y-20400D01*
X47400Y-20400D02*
X52900Y-20400D01*
X47300Y-21800D02*
X47300Y-20500D01*
X47300Y-23500D02*
X47300Y-22200D01*
X53600Y-23600D02*
X53608Y-23599D01*
X53617Y-23598D01*
X53625Y-23596D01*
X53634Y-23593D01*
X53642Y-23590D01*
X53650Y-23586D01*
X53657Y-23581D01*
X53664Y-23576D01*
X53670Y-23570D01*
X53676Y-23564D01*
X53681Y-23557D01*
X53686Y-23549D01*
X53690Y-23542D01*
X53693Y-23534D01*
X53696Y-23525D01*
X53698Y-23517D01*
X53699Y-23508D01*
X53700Y-23500D01*
X53700Y-20500D02*
X53699Y-20492D01*
X53698Y-20483D01*
X53696Y-20475D01*
X53693Y-20466D01*
X53690Y-20458D01*
X53686Y-20451D01*
X53681Y-20443D01*
X53676Y-20436D01*
X53670Y-20430D01*
X53664Y-20424D01*
X53657Y-20419D01*
X53650Y-20414D01*
X53642Y-20410D01*
X53634Y-20407D01*
X53625Y-20404D01*
X53617Y-20402D01*
X53608Y-20401D01*
X53600Y-20400D01*
X47400Y-20400D02*
X47392Y-20401D01*
X47383Y-20402D01*
X47375Y-20404D01*
X47366Y-20407D01*
X47358Y-20410D01*
X47351Y-20414D01*
X47343Y-20419D01*
X47336Y-20424D01*
X47330Y-20430D01*
X47324Y-20436D01*
X47319Y-20443D01*
X47314Y-20451D01*
X47310Y-20458D01*
X47307Y-20466D01*
X47304Y-20475D01*
X47302Y-20483D01*
X47301Y-20492D01*
X47300Y-20500D01*
X47300Y-23500D02*
X47301Y-23508D01*
X47302Y-23517D01*
X47304Y-23525D01*
X47307Y-23534D01*
X47310Y-23542D01*
X47314Y-23549D01*
X47319Y-23557D01*
X47324Y-23564D01*
X47330Y-23570D01*
X47336Y-23576D01*
X47343Y-23581D01*
X47351Y-23586D01*
X47358Y-23590D01*
X47366Y-23593D01*
X47375Y-23596D01*
X47383Y-23598D01*
X47392Y-23599D01*
X47400Y-23600D01*
X47300Y-21800D02*
X47283Y-21801D01*
X47266Y-21804D01*
X47249Y-21807D01*
X47232Y-21813D01*
X47216Y-21819D01*
X47201Y-21827D01*
X47186Y-21837D01*
X47172Y-21847D01*
X47159Y-21859D01*
X47147Y-21872D01*
X47137Y-21886D01*
X47127Y-21901D01*
X47119Y-21916D01*
X47113Y-21932D01*
X47107Y-21949D01*
X47104Y-21966D01*
X47101Y-21983D01*
X47100Y-22000D01*
X47100Y-22000D02*
X47101Y-22017D01*
X47104Y-22034D01*
X47107Y-22051D01*
X47113Y-22068D01*
X47119Y-22084D01*
X47127Y-22099D01*
X47137Y-22114D01*
X47147Y-22128D01*
X47159Y-22141D01*
X47172Y-22153D01*
X47186Y-22163D01*
X47201Y-22173D01*
X47216Y-22181D01*
X47232Y-22187D01*
X47249Y-22193D01*
X47266Y-22196D01*
X47283Y-22199D01*
X47300Y-22200D01*
X46600Y-24100D02*
X46600Y-24900D01*
X46500Y-24100D02*
X46500Y-24900D01*
X46300Y-24100D02*
X46292Y-24101D01*
X46283Y-24102D01*
X46275Y-24104D01*
X46266Y-24107D01*
X46258Y-24110D01*
X46251Y-24114D01*
X46243Y-24119D01*
X46236Y-24124D01*
X46230Y-24130D01*
X46224Y-24136D01*
X46219Y-24143D01*
X46214Y-24151D01*
X46210Y-24158D01*
X46207Y-24166D01*
X46204Y-24175D01*
X46202Y-24183D01*
X46201Y-24192D01*
X46200Y-24200D01*
X46200Y-24800D02*
X46201Y-24808D01*
X46202Y-24817D01*
X46204Y-24825D01*
X46207Y-24834D01*
X46210Y-24842D01*
X46214Y-24849D01*
X46219Y-24857D01*
X46224Y-24864D01*
X46230Y-24870D01*
X46236Y-24876D01*
X46243Y-24881D01*
X46251Y-24886D01*
X46258Y-24890D01*
X46266Y-24893D01*
X46275Y-24896D01*
X46283Y-24898D01*
X46292Y-24899D01*
X46300Y-24900D01*
X47800Y-24200D02*
X47799Y-24192D01*
X47798Y-24183D01*
X47796Y-24175D01*
X47793Y-24166D01*
X47790Y-24158D01*
X47786Y-24151D01*
X47781Y-24143D01*
X47776Y-24136D01*
X47770Y-24130D01*
X47764Y-24124D01*
X47757Y-24119D01*
X47750Y-24114D01*
X47742Y-24110D01*
X47734Y-24107D01*
X47725Y-24104D01*
X47717Y-24102D01*
X47708Y-24101D01*
X47700Y-24100D01*
X47700Y-24900D02*
X47708Y-24899D01*
X47717Y-24898D01*
X47725Y-24896D01*
X47734Y-24893D01*
X47742Y-24890D01*
X47750Y-24886D01*
X47757Y-24881D01*
X47764Y-24876D01*
X47770Y-24870D01*
X47776Y-24864D01*
X47781Y-24857D01*
X47786Y-24849D01*
X47790Y-24842D01*
X47793Y-24834D01*
X47796Y-24825D01*
X47798Y-24817D01*
X47799Y-24808D01*
X47800Y-24800D01*
X46200Y-24800D02*
X46200Y-24200D01*
X47800Y-24200D02*
X47800Y-24800D01*
X47700Y-24900D02*
X46300Y-24900D01*
X46300Y-24100D02*
X47700Y-24100D01*
X46200Y-24500D02*
X45500Y-24500D01*
X48400Y-24500D02*
X47800Y-24500D01*
X48000Y-30900D02*
X46000Y-30900D01*
X48100Y-30200D02*
X48100Y-30800D01*
X46000Y-30100D02*
X48000Y-30100D01*
X45900Y-30800D02*
X45900Y-30200D01*
X48000Y-30900D02*
X48008Y-30899D01*
X48017Y-30898D01*
X48025Y-30896D01*
X48034Y-30893D01*
X48042Y-30890D01*
X48050Y-30886D01*
X48057Y-30881D01*
X48064Y-30876D01*
X48070Y-30870D01*
X48076Y-30864D01*
X48081Y-30857D01*
X48086Y-30849D01*
X48090Y-30842D01*
X48093Y-30834D01*
X48096Y-30825D01*
X48098Y-30817D01*
X48099Y-30808D01*
X48100Y-30800D01*
X48100Y-30200D02*
X48099Y-30192D01*
X48098Y-30183D01*
X48096Y-30175D01*
X48093Y-30166D01*
X48090Y-30158D01*
X48086Y-30151D01*
X48081Y-30143D01*
X48076Y-30136D01*
X48070Y-30130D01*
X48064Y-30124D01*
X48057Y-30119D01*
X48050Y-30114D01*
X48042Y-30110D01*
X48034Y-30107D01*
X48025Y-30104D01*
X48017Y-30102D01*
X48008Y-30101D01*
X48000Y-30100D01*
X45900Y-30800D02*
X45901Y-30808D01*
X45902Y-30817D01*
X45904Y-30825D01*
X45907Y-30834D01*
X45910Y-30842D01*
X45914Y-30849D01*
X45919Y-30857D01*
X45924Y-30864D01*
X45930Y-30870D01*
X45936Y-30876D01*
X45943Y-30881D01*
X45951Y-30886D01*
X45958Y-30890D01*
X45966Y-30893D01*
X45975Y-30896D01*
X45983Y-30898D01*
X45992Y-30899D01*
X46000Y-30900D01*
X46000Y-30100D02*
X45992Y-30101D01*
X45983Y-30102D01*
X45975Y-30104D01*
X45966Y-30107D01*
X45958Y-30110D01*
X45951Y-30114D01*
X45943Y-30119D01*
X45936Y-30124D01*
X45930Y-30130D01*
X45924Y-30136D01*
X45919Y-30143D01*
X45914Y-30151D01*
X45910Y-30158D01*
X45907Y-30166D01*
X45904Y-30175D01*
X45902Y-30183D01*
X45901Y-30192D01*
X45900Y-30200D01*
X48100Y-30500D02*
X48500Y-30500D01*
X45500Y-30500D02*
X45900Y-30500D01*
X48000Y-29900D02*
X46000Y-29900D01*
X48100Y-29200D02*
X48100Y-29800D01*
X46000Y-29100D02*
X48000Y-29100D01*
X45900Y-29800D02*
X45900Y-29200D01*
X48000Y-29900D02*
X48008Y-29899D01*
X48017Y-29898D01*
X48025Y-29896D01*
X48034Y-29893D01*
X48042Y-29890D01*
X48050Y-29886D01*
X48057Y-29881D01*
X48064Y-29876D01*
X48070Y-29870D01*
X48076Y-29864D01*
X48081Y-29857D01*
X48086Y-29849D01*
X48090Y-29842D01*
X48093Y-29834D01*
X48096Y-29825D01*
X48098Y-29817D01*
X48099Y-29808D01*
X48100Y-29800D01*
X48100Y-29200D02*
X48099Y-29192D01*
X48098Y-29183D01*
X48096Y-29175D01*
X48093Y-29166D01*
X48090Y-29158D01*
X48086Y-29151D01*
X48081Y-29143D01*
X48076Y-29136D01*
X48070Y-29130D01*
X48064Y-29124D01*
X48057Y-29119D01*
X48050Y-29114D01*
X48042Y-29110D01*
X48034Y-29107D01*
X48025Y-29104D01*
X48017Y-29102D01*
X48008Y-29101D01*
X48000Y-29100D01*
X45900Y-29800D02*
X45901Y-29808D01*
X45902Y-29817D01*
X45904Y-29825D01*
X45907Y-29834D01*
X45910Y-29842D01*
X45914Y-29849D01*
X45919Y-29857D01*
X45924Y-29864D01*
X45930Y-29870D01*
X45936Y-29876D01*
X45943Y-29881D01*
X45951Y-29886D01*
X45958Y-29890D01*
X45966Y-29893D01*
X45975Y-29896D01*
X45983Y-29898D01*
X45992Y-29899D01*
X46000Y-29900D01*
X46000Y-29100D02*
X45992Y-29101D01*
X45983Y-29102D01*
X45975Y-29104D01*
X45966Y-29107D01*
X45958Y-29110D01*
X45951Y-29114D01*
X45943Y-29119D01*
X45936Y-29124D01*
X45930Y-29130D01*
X45924Y-29136D01*
X45919Y-29143D01*
X45914Y-29151D01*
X45910Y-29158D01*
X45907Y-29166D01*
X45904Y-29175D01*
X45902Y-29183D01*
X45901Y-29192D01*
X45900Y-29200D01*
X48100Y-29500D02*
X48500Y-29500D01*
X45500Y-29500D02*
X45900Y-29500D01*
X48000Y-26900D02*
X46000Y-26900D01*
X48100Y-26200D02*
X48100Y-26800D01*
X46000Y-26100D02*
X48000Y-26100D01*
X45900Y-26800D02*
X45900Y-26200D01*
X48000Y-26900D02*
X48008Y-26899D01*
X48017Y-26898D01*
X48025Y-26896D01*
X48034Y-26893D01*
X48042Y-26890D01*
X48050Y-26886D01*
X48057Y-26881D01*
X48064Y-26876D01*
X48070Y-26870D01*
X48076Y-26864D01*
X48081Y-26857D01*
X48086Y-26849D01*
X48090Y-26842D01*
X48093Y-26834D01*
X48096Y-26825D01*
X48098Y-26817D01*
X48099Y-26808D01*
X48100Y-26800D01*
X48100Y-26200D02*
X48099Y-26192D01*
X48098Y-26183D01*
X48096Y-26175D01*
X48093Y-26166D01*
X48090Y-26158D01*
X48086Y-26151D01*
X48081Y-26143D01*
X48076Y-26136D01*
X48070Y-26130D01*
X48064Y-26124D01*
X48057Y-26119D01*
X48050Y-26114D01*
X48042Y-26110D01*
X48034Y-26107D01*
X48025Y-26104D01*
X48017Y-26102D01*
X48008Y-26101D01*
X48000Y-26100D01*
X45900Y-26800D02*
X45901Y-26808D01*
X45902Y-26817D01*
X45904Y-26825D01*
X45907Y-26834D01*
X45910Y-26842D01*
X45914Y-26849D01*
X45919Y-26857D01*
X45924Y-26864D01*
X45930Y-26870D01*
X45936Y-26876D01*
X45943Y-26881D01*
X45951Y-26886D01*
X45958Y-26890D01*
X45966Y-26893D01*
X45975Y-26896D01*
X45983Y-26898D01*
X45992Y-26899D01*
X46000Y-26900D01*
X46000Y-26100D02*
X45992Y-26101D01*
X45983Y-26102D01*
X45975Y-26104D01*
X45966Y-26107D01*
X45958Y-26110D01*
X45951Y-26114D01*
X45943Y-26119D01*
X45936Y-26124D01*
X45930Y-26130D01*
X45924Y-26136D01*
X45919Y-26143D01*
X45914Y-26151D01*
X45910Y-26158D01*
X45907Y-26166D01*
X45904Y-26175D01*
X45902Y-26183D01*
X45901Y-26192D01*
X45900Y-26200D01*
X48100Y-26500D02*
X48500Y-26500D01*
X45500Y-26500D02*
X45900Y-26500D01*
X66600Y-29000D02*
X66600Y-27000D01*
X67300Y-29100D02*
X66700Y-29100D01*
X67400Y-27000D02*
X67400Y-29000D01*
X66700Y-26900D02*
X67300Y-26900D01*
X66600Y-29000D02*
X66601Y-29008D01*
X66602Y-29017D01*
X66604Y-29025D01*
X66607Y-29034D01*
X66610Y-29042D01*
X66614Y-29049D01*
X66619Y-29057D01*
X66624Y-29064D01*
X66630Y-29070D01*
X66636Y-29076D01*
X66643Y-29081D01*
X66651Y-29086D01*
X66658Y-29090D01*
X66666Y-29093D01*
X66675Y-29096D01*
X66683Y-29098D01*
X66692Y-29099D01*
X66700Y-29100D01*
X67300Y-29100D02*
X67308Y-29099D01*
X67317Y-29098D01*
X67325Y-29096D01*
X67334Y-29093D01*
X67342Y-29090D01*
X67350Y-29086D01*
X67357Y-29081D01*
X67364Y-29076D01*
X67370Y-29070D01*
X67376Y-29064D01*
X67381Y-29057D01*
X67386Y-29049D01*
X67390Y-29042D01*
X67393Y-29034D01*
X67396Y-29025D01*
X67398Y-29017D01*
X67399Y-29008D01*
X67400Y-29000D01*
X66700Y-26900D02*
X66692Y-26901D01*
X66683Y-26902D01*
X66675Y-26904D01*
X66666Y-26907D01*
X66658Y-26910D01*
X66651Y-26914D01*
X66643Y-26919D01*
X66636Y-26924D01*
X66630Y-26930D01*
X66624Y-26936D01*
X66619Y-26943D01*
X66614Y-26951D01*
X66610Y-26958D01*
X66607Y-26966D01*
X66604Y-26975D01*
X66602Y-26983D01*
X66601Y-26992D01*
X66600Y-27000D01*
X67400Y-27000D02*
X67399Y-26992D01*
X67398Y-26983D01*
X67396Y-26975D01*
X67393Y-26966D01*
X67390Y-26958D01*
X67386Y-26951D01*
X67381Y-26943D01*
X67376Y-26936D01*
X67370Y-26930D01*
X67364Y-26924D01*
X67357Y-26919D01*
X67350Y-26914D01*
X67342Y-26910D01*
X67334Y-26907D01*
X67325Y-26904D01*
X67317Y-26902D01*
X67308Y-26901D01*
X67300Y-26900D01*
X67000Y-29100D02*
X67000Y-29500D01*
X67000Y-26500D02*
X67000Y-26900D01*
X73500Y-23400D02*
X71500Y-23400D01*
X73600Y-22700D02*
X73600Y-23300D01*
X71500Y-22600D02*
X73500Y-22600D01*
X71400Y-23300D02*
X71400Y-22700D01*
X73500Y-23400D02*
X73508Y-23399D01*
X73517Y-23398D01*
X73525Y-23396D01*
X73534Y-23393D01*
X73542Y-23390D01*
X73550Y-23386D01*
X73557Y-23381D01*
X73564Y-23376D01*
X73570Y-23370D01*
X73576Y-23364D01*
X73581Y-23357D01*
X73586Y-23349D01*
X73590Y-23342D01*
X73593Y-23334D01*
X73596Y-23325D01*
X73598Y-23317D01*
X73599Y-23308D01*
X73600Y-23300D01*
X73600Y-22700D02*
X73599Y-22692D01*
X73598Y-22683D01*
X73596Y-22675D01*
X73593Y-22666D01*
X73590Y-22658D01*
X73586Y-22651D01*
X73581Y-22643D01*
X73576Y-22636D01*
X73570Y-22630D01*
X73564Y-22624D01*
X73557Y-22619D01*
X73550Y-22614D01*
X73542Y-22610D01*
X73534Y-22607D01*
X73525Y-22604D01*
X73517Y-22602D01*
X73508Y-22601D01*
X73500Y-22600D01*
X71400Y-23300D02*
X71401Y-23308D01*
X71402Y-23317D01*
X71404Y-23325D01*
X71407Y-23334D01*
X71410Y-23342D01*
X71414Y-23349D01*
X71419Y-23357D01*
X71424Y-23364D01*
X71430Y-23370D01*
X71436Y-23376D01*
X71443Y-23381D01*
X71451Y-23386D01*
X71458Y-23390D01*
X71466Y-23393D01*
X71475Y-23396D01*
X71483Y-23398D01*
X71492Y-23399D01*
X71500Y-23400D01*
X71500Y-22600D02*
X71492Y-22601D01*
X71483Y-22602D01*
X71475Y-22604D01*
X71466Y-22607D01*
X71458Y-22610D01*
X71451Y-22614D01*
X71443Y-22619D01*
X71436Y-22624D01*
X71430Y-22630D01*
X71424Y-22636D01*
X71419Y-22643D01*
X71414Y-22651D01*
X71410Y-22658D01*
X71407Y-22666D01*
X71404Y-22675D01*
X71402Y-22683D01*
X71401Y-22692D01*
X71400Y-22700D01*
X73600Y-23000D02*
X74000Y-23000D01*
X71000Y-23000D02*
X71400Y-23000D01*
X69600Y-29000D02*
X69600Y-27000D01*
X70300Y-29100D02*
X69700Y-29100D01*
X70400Y-27000D02*
X70400Y-29000D01*
X69700Y-26900D02*
X70300Y-26900D01*
X69600Y-29000D02*
X69601Y-29008D01*
X69602Y-29017D01*
X69604Y-29025D01*
X69607Y-29034D01*
X69610Y-29042D01*
X69614Y-29049D01*
X69619Y-29057D01*
X69624Y-29064D01*
X69630Y-29070D01*
X69636Y-29076D01*
X69643Y-29081D01*
X69651Y-29086D01*
X69658Y-29090D01*
X69666Y-29093D01*
X69675Y-29096D01*
X69683Y-29098D01*
X69692Y-29099D01*
X69700Y-29100D01*
X70300Y-29100D02*
X70308Y-29099D01*
X70317Y-29098D01*
X70325Y-29096D01*
X70334Y-29093D01*
X70342Y-29090D01*
X70350Y-29086D01*
X70357Y-29081D01*
X70364Y-29076D01*
X70370Y-29070D01*
X70376Y-29064D01*
X70381Y-29057D01*
X70386Y-29049D01*
X70390Y-29042D01*
X70393Y-29034D01*
X70396Y-29025D01*
X70398Y-29017D01*
X70399Y-29008D01*
X70400Y-29000D01*
X69700Y-26900D02*
X69692Y-26901D01*
X69683Y-26902D01*
X69675Y-26904D01*
X69666Y-26907D01*
X69658Y-26910D01*
X69651Y-26914D01*
X69643Y-26919D01*
X69636Y-26924D01*
X69630Y-26930D01*
X69624Y-26936D01*
X69619Y-26943D01*
X69614Y-26951D01*
X69610Y-26958D01*
X69607Y-26966D01*
X69604Y-26975D01*
X69602Y-26983D01*
X69601Y-26992D01*
X69600Y-27000D01*
X70400Y-27000D02*
X70399Y-26992D01*
X70398Y-26983D01*
X70396Y-26975D01*
X70393Y-26966D01*
X70390Y-26958D01*
X70386Y-26951D01*
X70381Y-26943D01*
X70376Y-26936D01*
X70370Y-26930D01*
X70364Y-26924D01*
X70357Y-26919D01*
X70350Y-26914D01*
X70342Y-26910D01*
X70334Y-26907D01*
X70325Y-26904D01*
X70317Y-26902D01*
X70308Y-26901D01*
X70300Y-26900D01*
X70000Y-29100D02*
X70000Y-29500D01*
X70000Y-26500D02*
X70000Y-26900D01*
X54000Y-38900D02*
X52000Y-38900D01*
X54100Y-38200D02*
X54100Y-38800D01*
X52000Y-38100D02*
X54000Y-38100D01*
X51900Y-38800D02*
X51900Y-38200D01*
X54000Y-38900D02*
X54008Y-38899D01*
X54017Y-38898D01*
X54025Y-38896D01*
X54034Y-38893D01*
X54042Y-38890D01*
X54050Y-38886D01*
X54057Y-38881D01*
X54064Y-38876D01*
X54070Y-38870D01*
X54076Y-38864D01*
X54081Y-38857D01*
X54086Y-38849D01*
X54090Y-38842D01*
X54093Y-38834D01*
X54096Y-38825D01*
X54098Y-38817D01*
X54099Y-38808D01*
X54100Y-38800D01*
X54100Y-38200D02*
X54099Y-38192D01*
X54098Y-38183D01*
X54096Y-38175D01*
X54093Y-38166D01*
X54090Y-38158D01*
X54086Y-38151D01*
X54081Y-38143D01*
X54076Y-38136D01*
X54070Y-38130D01*
X54064Y-38124D01*
X54057Y-38119D01*
X54050Y-38114D01*
X54042Y-38110D01*
X54034Y-38107D01*
X54025Y-38104D01*
X54017Y-38102D01*
X54008Y-38101D01*
X54000Y-38100D01*
X51900Y-38800D02*
X51901Y-38808D01*
X51902Y-38817D01*
X51904Y-38825D01*
X51907Y-38834D01*
X51910Y-38842D01*
X51914Y-38849D01*
X51919Y-38857D01*
X51924Y-38864D01*
X51930Y-38870D01*
X51936Y-38876D01*
X51943Y-38881D01*
X51951Y-38886D01*
X51958Y-38890D01*
X51966Y-38893D01*
X51975Y-38896D01*
X51983Y-38898D01*
X51992Y-38899D01*
X52000Y-38900D01*
X52000Y-38100D02*
X51992Y-38101D01*
X51983Y-38102D01*
X51975Y-38104D01*
X51966Y-38107D01*
X51958Y-38110D01*
X51951Y-38114D01*
X51943Y-38119D01*
X51936Y-38124D01*
X51930Y-38130D01*
X51924Y-38136D01*
X51919Y-38143D01*
X51914Y-38151D01*
X51910Y-38158D01*
X51907Y-38166D01*
X51904Y-38175D01*
X51902Y-38183D01*
X51901Y-38192D01*
X51900Y-38200D01*
X54100Y-38500D02*
X54500Y-38500D01*
X51500Y-38500D02*
X51900Y-38500D01*
X44000Y-29900D02*
X42000Y-29900D01*
X44100Y-29200D02*
X44100Y-29800D01*
X42000Y-29100D02*
X44000Y-29100D01*
X41900Y-29800D02*
X41900Y-29200D01*
X44000Y-29900D02*
X44008Y-29899D01*
X44017Y-29898D01*
X44025Y-29896D01*
X44034Y-29893D01*
X44042Y-29890D01*
X44050Y-29886D01*
X44057Y-29881D01*
X44064Y-29876D01*
X44070Y-29870D01*
X44076Y-29864D01*
X44081Y-29857D01*
X44086Y-29849D01*
X44090Y-29842D01*
X44093Y-29834D01*
X44096Y-29825D01*
X44098Y-29817D01*
X44099Y-29808D01*
X44100Y-29800D01*
X44100Y-29200D02*
X44099Y-29192D01*
X44098Y-29183D01*
X44096Y-29175D01*
X44093Y-29166D01*
X44090Y-29158D01*
X44086Y-29151D01*
X44081Y-29143D01*
X44076Y-29136D01*
X44070Y-29130D01*
X44064Y-29124D01*
X44057Y-29119D01*
X44050Y-29114D01*
X44042Y-29110D01*
X44034Y-29107D01*
X44025Y-29104D01*
X44017Y-29102D01*
X44008Y-29101D01*
X44000Y-29100D01*
X41900Y-29800D02*
X41901Y-29808D01*
X41902Y-29817D01*
X41904Y-29825D01*
X41907Y-29834D01*
X41910Y-29842D01*
X41914Y-29849D01*
X41919Y-29857D01*
X41924Y-29864D01*
X41930Y-29870D01*
X41936Y-29876D01*
X41943Y-29881D01*
X41951Y-29886D01*
X41958Y-29890D01*
X41966Y-29893D01*
X41975Y-29896D01*
X41983Y-29898D01*
X41992Y-29899D01*
X42000Y-29900D01*
X42000Y-29100D02*
X41992Y-29101D01*
X41983Y-29102D01*
X41975Y-29104D01*
X41966Y-29107D01*
X41958Y-29110D01*
X41951Y-29114D01*
X41943Y-29119D01*
X41936Y-29124D01*
X41930Y-29130D01*
X41924Y-29136D01*
X41919Y-29143D01*
X41914Y-29151D01*
X41910Y-29158D01*
X41907Y-29166D01*
X41904Y-29175D01*
X41902Y-29183D01*
X41901Y-29192D01*
X41900Y-29200D01*
X44100Y-29500D02*
X44500Y-29500D01*
X41500Y-29500D02*
X41900Y-29500D01*
X42000Y-30100D02*
X44000Y-30100D01*
X41900Y-30800D02*
X41900Y-30200D01*
X44000Y-30900D02*
X42000Y-30900D01*
X44100Y-30200D02*
X44100Y-30800D01*
X42000Y-30100D02*
X41992Y-30101D01*
X41983Y-30102D01*
X41975Y-30104D01*
X41966Y-30107D01*
X41958Y-30110D01*
X41951Y-30114D01*
X41943Y-30119D01*
X41936Y-30124D01*
X41930Y-30130D01*
X41924Y-30136D01*
X41919Y-30143D01*
X41914Y-30151D01*
X41910Y-30158D01*
X41907Y-30166D01*
X41904Y-30175D01*
X41902Y-30183D01*
X41901Y-30192D01*
X41900Y-30200D01*
X41900Y-30800D02*
X41901Y-30808D01*
X41902Y-30817D01*
X41904Y-30825D01*
X41907Y-30834D01*
X41910Y-30842D01*
X41914Y-30849D01*
X41919Y-30857D01*
X41924Y-30864D01*
X41930Y-30870D01*
X41936Y-30876D01*
X41943Y-30881D01*
X41951Y-30886D01*
X41958Y-30890D01*
X41966Y-30893D01*
X41975Y-30896D01*
X41983Y-30898D01*
X41992Y-30899D01*
X42000Y-30900D01*
X44100Y-30200D02*
X44099Y-30192D01*
X44098Y-30183D01*
X44096Y-30175D01*
X44093Y-30166D01*
X44090Y-30158D01*
X44086Y-30151D01*
X44081Y-30143D01*
X44076Y-30136D01*
X44070Y-30130D01*
X44064Y-30124D01*
X44057Y-30119D01*
X44050Y-30114D01*
X44042Y-30110D01*
X44034Y-30107D01*
X44025Y-30104D01*
X44017Y-30102D01*
X44008Y-30101D01*
X44000Y-30100D01*
X44000Y-30900D02*
X44008Y-30899D01*
X44017Y-30898D01*
X44025Y-30896D01*
X44034Y-30893D01*
X44042Y-30890D01*
X44050Y-30886D01*
X44057Y-30881D01*
X44064Y-30876D01*
X44070Y-30870D01*
X44076Y-30864D01*
X44081Y-30857D01*
X44086Y-30849D01*
X44090Y-30842D01*
X44093Y-30834D01*
X44096Y-30825D01*
X44098Y-30817D01*
X44099Y-30808D01*
X44100Y-30800D01*
X41900Y-30500D02*
X41500Y-30500D01*
X44500Y-30500D02*
X44100Y-30500D01*
X44000Y-26900D02*
X42000Y-26900D01*
X44100Y-26200D02*
X44100Y-26800D01*
X42000Y-26100D02*
X44000Y-26100D01*
X41900Y-26800D02*
X41900Y-26200D01*
X44000Y-26900D02*
X44008Y-26899D01*
X44017Y-26898D01*
X44025Y-26896D01*
X44034Y-26893D01*
X44042Y-26890D01*
X44050Y-26886D01*
X44057Y-26881D01*
X44064Y-26876D01*
X44070Y-26870D01*
X44076Y-26864D01*
X44081Y-26857D01*
X44086Y-26849D01*
X44090Y-26842D01*
X44093Y-26834D01*
X44096Y-26825D01*
X44098Y-26817D01*
X44099Y-26808D01*
X44100Y-26800D01*
X44100Y-26200D02*
X44099Y-26192D01*
X44098Y-26183D01*
X44096Y-26175D01*
X44093Y-26166D01*
X44090Y-26158D01*
X44086Y-26151D01*
X44081Y-26143D01*
X44076Y-26136D01*
X44070Y-26130D01*
X44064Y-26124D01*
X44057Y-26119D01*
X44050Y-26114D01*
X44042Y-26110D01*
X44034Y-26107D01*
X44025Y-26104D01*
X44017Y-26102D01*
X44008Y-26101D01*
X44000Y-26100D01*
X41900Y-26800D02*
X41901Y-26808D01*
X41902Y-26817D01*
X41904Y-26825D01*
X41907Y-26834D01*
X41910Y-26842D01*
X41914Y-26849D01*
X41919Y-26857D01*
X41924Y-26864D01*
X41930Y-26870D01*
X41936Y-26876D01*
X41943Y-26881D01*
X41951Y-26886D01*
X41958Y-26890D01*
X41966Y-26893D01*
X41975Y-26896D01*
X41983Y-26898D01*
X41992Y-26899D01*
X42000Y-26900D01*
X42000Y-26100D02*
X41992Y-26101D01*
X41983Y-26102D01*
X41975Y-26104D01*
X41966Y-26107D01*
X41958Y-26110D01*
X41951Y-26114D01*
X41943Y-26119D01*
X41936Y-26124D01*
X41930Y-26130D01*
X41924Y-26136D01*
X41919Y-26143D01*
X41914Y-26151D01*
X41910Y-26158D01*
X41907Y-26166D01*
X41904Y-26175D01*
X41902Y-26183D01*
X41901Y-26192D01*
X41900Y-26200D01*
X44100Y-26500D02*
X44500Y-26500D01*
X41500Y-26500D02*
X41900Y-26500D01*
X42000Y-27100D02*
X44000Y-27100D01*
X41900Y-27800D02*
X41900Y-27200D01*
X44000Y-27900D02*
X42000Y-27900D01*
X44100Y-27200D02*
X44100Y-27800D01*
X42000Y-27100D02*
X41992Y-27101D01*
X41983Y-27102D01*
X41975Y-27104D01*
X41966Y-27107D01*
X41958Y-27110D01*
X41951Y-27114D01*
X41943Y-27119D01*
X41936Y-27124D01*
X41930Y-27130D01*
X41924Y-27136D01*
X41919Y-27143D01*
X41914Y-27151D01*
X41910Y-27158D01*
X41907Y-27166D01*
X41904Y-27175D01*
X41902Y-27183D01*
X41901Y-27192D01*
X41900Y-27200D01*
X41900Y-27800D02*
X41901Y-27808D01*
X41902Y-27817D01*
X41904Y-27825D01*
X41907Y-27834D01*
X41910Y-27842D01*
X41914Y-27849D01*
X41919Y-27857D01*
X41924Y-27864D01*
X41930Y-27870D01*
X41936Y-27876D01*
X41943Y-27881D01*
X41951Y-27886D01*
X41958Y-27890D01*
X41966Y-27893D01*
X41975Y-27896D01*
X41983Y-27898D01*
X41992Y-27899D01*
X42000Y-27900D01*
X44100Y-27200D02*
X44099Y-27192D01*
X44098Y-27183D01*
X44096Y-27175D01*
X44093Y-27166D01*
X44090Y-27158D01*
X44086Y-27151D01*
X44081Y-27143D01*
X44076Y-27136D01*
X44070Y-27130D01*
X44064Y-27124D01*
X44057Y-27119D01*
X44050Y-27114D01*
X44042Y-27110D01*
X44034Y-27107D01*
X44025Y-27104D01*
X44017Y-27102D01*
X44008Y-27101D01*
X44000Y-27100D01*
X44000Y-27900D02*
X44008Y-27899D01*
X44017Y-27898D01*
X44025Y-27896D01*
X44034Y-27893D01*
X44042Y-27890D01*
X44050Y-27886D01*
X44057Y-27881D01*
X44064Y-27876D01*
X44070Y-27870D01*
X44076Y-27864D01*
X44081Y-27857D01*
X44086Y-27849D01*
X44090Y-27842D01*
X44093Y-27834D01*
X44096Y-27825D01*
X44098Y-27817D01*
X44099Y-27808D01*
X44100Y-27800D01*
X41900Y-27500D02*
X41500Y-27500D01*
X44500Y-27500D02*
X44100Y-27500D01*
X46000Y-25100D02*
X48000Y-25100D01*
X45900Y-25800D02*
X45900Y-25200D01*
X48000Y-25900D02*
X46000Y-25900D01*
X48100Y-25200D02*
X48100Y-25800D01*
X46000Y-25100D02*
X45992Y-25101D01*
X45983Y-25102D01*
X45975Y-25104D01*
X45966Y-25107D01*
X45958Y-25110D01*
X45951Y-25114D01*
X45943Y-25119D01*
X45936Y-25124D01*
X45930Y-25130D01*
X45924Y-25136D01*
X45919Y-25143D01*
X45914Y-25151D01*
X45910Y-25158D01*
X45907Y-25166D01*
X45904Y-25175D01*
X45902Y-25183D01*
X45901Y-25192D01*
X45900Y-25200D01*
X45900Y-25800D02*
X45901Y-25808D01*
X45902Y-25817D01*
X45904Y-25825D01*
X45907Y-25834D01*
X45910Y-25842D01*
X45914Y-25849D01*
X45919Y-25857D01*
X45924Y-25864D01*
X45930Y-25870D01*
X45936Y-25876D01*
X45943Y-25881D01*
X45951Y-25886D01*
X45958Y-25890D01*
X45966Y-25893D01*
X45975Y-25896D01*
X45983Y-25898D01*
X45992Y-25899D01*
X46000Y-25900D01*
X48100Y-25200D02*
X48099Y-25192D01*
X48098Y-25183D01*
X48096Y-25175D01*
X48093Y-25166D01*
X48090Y-25158D01*
X48086Y-25151D01*
X48081Y-25143D01*
X48076Y-25136D01*
X48070Y-25130D01*
X48064Y-25124D01*
X48057Y-25119D01*
X48050Y-25114D01*
X48042Y-25110D01*
X48034Y-25107D01*
X48025Y-25104D01*
X48017Y-25102D01*
X48008Y-25101D01*
X48000Y-25100D01*
X48000Y-25900D02*
X48008Y-25899D01*
X48017Y-25898D01*
X48025Y-25896D01*
X48034Y-25893D01*
X48042Y-25890D01*
X48050Y-25886D01*
X48057Y-25881D01*
X48064Y-25876D01*
X48070Y-25870D01*
X48076Y-25864D01*
X48081Y-25857D01*
X48086Y-25849D01*
X48090Y-25842D01*
X48093Y-25834D01*
X48096Y-25825D01*
X48098Y-25817D01*
X48099Y-25808D01*
X48100Y-25800D01*
X45900Y-25500D02*
X45500Y-25500D01*
X48500Y-25500D02*
X48100Y-25500D01*
X68400Y-27000D02*
X68400Y-29000D01*
X67700Y-26900D02*
X68300Y-26900D01*
X67600Y-29000D02*
X67600Y-27000D01*
X68300Y-29100D02*
X67700Y-29100D01*
X68400Y-27000D02*
X68399Y-26992D01*
X68398Y-26983D01*
X68396Y-26975D01*
X68393Y-26966D01*
X68390Y-26958D01*
X68386Y-26951D01*
X68381Y-26943D01*
X68376Y-26936D01*
X68370Y-26930D01*
X68364Y-26924D01*
X68357Y-26919D01*
X68350Y-26914D01*
X68342Y-26910D01*
X68334Y-26907D01*
X68325Y-26904D01*
X68317Y-26902D01*
X68308Y-26901D01*
X68300Y-26900D01*
X67700Y-26900D02*
X67692Y-26901D01*
X67683Y-26902D01*
X67675Y-26904D01*
X67666Y-26907D01*
X67658Y-26910D01*
X67651Y-26914D01*
X67643Y-26919D01*
X67636Y-26924D01*
X67630Y-26930D01*
X67624Y-26936D01*
X67619Y-26943D01*
X67614Y-26951D01*
X67610Y-26958D01*
X67607Y-26966D01*
X67604Y-26975D01*
X67602Y-26983D01*
X67601Y-26992D01*
X67600Y-27000D01*
X68300Y-29100D02*
X68308Y-29099D01*
X68317Y-29098D01*
X68325Y-29096D01*
X68334Y-29093D01*
X68342Y-29090D01*
X68350Y-29086D01*
X68357Y-29081D01*
X68364Y-29076D01*
X68370Y-29070D01*
X68376Y-29064D01*
X68381Y-29057D01*
X68386Y-29049D01*
X68390Y-29042D01*
X68393Y-29034D01*
X68396Y-29025D01*
X68398Y-29017D01*
X68399Y-29008D01*
X68400Y-29000D01*
X67600Y-29000D02*
X67601Y-29008D01*
X67602Y-29017D01*
X67604Y-29025D01*
X67607Y-29034D01*
X67610Y-29042D01*
X67614Y-29049D01*
X67619Y-29057D01*
X67624Y-29064D01*
X67630Y-29070D01*
X67636Y-29076D01*
X67643Y-29081D01*
X67651Y-29086D01*
X67658Y-29090D01*
X67666Y-29093D01*
X67675Y-29096D01*
X67683Y-29098D01*
X67692Y-29099D01*
X67700Y-29100D01*
X68000Y-26900D02*
X68000Y-26500D01*
X68000Y-29500D02*
X68000Y-29100D01*
X57000Y-22600D02*
X59000Y-22600D01*
X56900Y-23300D02*
X56900Y-22700D01*
X59000Y-23400D02*
X57000Y-23400D01*
X59100Y-22700D02*
X59100Y-23300D01*
X57000Y-22600D02*
X56992Y-22601D01*
X56983Y-22602D01*
X56975Y-22604D01*
X56966Y-22607D01*
X56958Y-22610D01*
X56951Y-22614D01*
X56943Y-22619D01*
X56936Y-22624D01*
X56930Y-22630D01*
X56924Y-22636D01*
X56919Y-22643D01*
X56914Y-22651D01*
X56910Y-22658D01*
X56907Y-22666D01*
X56904Y-22675D01*
X56902Y-22683D01*
X56901Y-22692D01*
X56900Y-22700D01*
X56900Y-23300D02*
X56901Y-23308D01*
X56902Y-23317D01*
X56904Y-23325D01*
X56907Y-23334D01*
X56910Y-23342D01*
X56914Y-23349D01*
X56919Y-23357D01*
X56924Y-23364D01*
X56930Y-23370D01*
X56936Y-23376D01*
X56943Y-23381D01*
X56951Y-23386D01*
X56958Y-23390D01*
X56966Y-23393D01*
X56975Y-23396D01*
X56983Y-23398D01*
X56992Y-23399D01*
X57000Y-23400D01*
X59100Y-22700D02*
X59099Y-22692D01*
X59098Y-22683D01*
X59096Y-22675D01*
X59093Y-22666D01*
X59090Y-22658D01*
X59086Y-22651D01*
X59081Y-22643D01*
X59076Y-22636D01*
X59070Y-22630D01*
X59064Y-22624D01*
X59057Y-22619D01*
X59050Y-22614D01*
X59042Y-22610D01*
X59034Y-22607D01*
X59025Y-22604D01*
X59017Y-22602D01*
X59008Y-22601D01*
X59000Y-22600D01*
X59000Y-23400D02*
X59008Y-23399D01*
X59017Y-23398D01*
X59025Y-23396D01*
X59034Y-23393D01*
X59042Y-23390D01*
X59050Y-23386D01*
X59057Y-23381D01*
X59064Y-23376D01*
X59070Y-23370D01*
X59076Y-23364D01*
X59081Y-23357D01*
X59086Y-23349D01*
X59090Y-23342D01*
X59093Y-23334D01*
X59096Y-23325D01*
X59098Y-23317D01*
X59099Y-23308D01*
X59100Y-23300D01*
X56900Y-23000D02*
X56500Y-23000D01*
X59500Y-23000D02*
X59100Y-23000D01*
X71500Y-21600D02*
X73500Y-21600D01*
X71400Y-22300D02*
X71400Y-21700D01*
X73500Y-22400D02*
X71500Y-22400D01*
X73600Y-21700D02*
X73600Y-22300D01*
X71500Y-21600D02*
X71492Y-21601D01*
X71483Y-21602D01*
X71475Y-21604D01*
X71466Y-21607D01*
X71458Y-21610D01*
X71451Y-21614D01*
X71443Y-21619D01*
X71436Y-21624D01*
X71430Y-21630D01*
X71424Y-21636D01*
X71419Y-21643D01*
X71414Y-21651D01*
X71410Y-21658D01*
X71407Y-21666D01*
X71404Y-21675D01*
X71402Y-21683D01*
X71401Y-21692D01*
X71400Y-21700D01*
X71400Y-22300D02*
X71401Y-22308D01*
X71402Y-22317D01*
X71404Y-22325D01*
X71407Y-22334D01*
X71410Y-22342D01*
X71414Y-22349D01*
X71419Y-22357D01*
X71424Y-22364D01*
X71430Y-22370D01*
X71436Y-22376D01*
X71443Y-22381D01*
X71451Y-22386D01*
X71458Y-22390D01*
X71466Y-22393D01*
X71475Y-22396D01*
X71483Y-22398D01*
X71492Y-22399D01*
X71500Y-22400D01*
X73600Y-21700D02*
X73599Y-21692D01*
X73598Y-21683D01*
X73596Y-21675D01*
X73593Y-21666D01*
X73590Y-21658D01*
X73586Y-21651D01*
X73581Y-21643D01*
X73576Y-21636D01*
X73570Y-21630D01*
X73564Y-21624D01*
X73557Y-21619D01*
X73550Y-21614D01*
X73542Y-21610D01*
X73534Y-21607D01*
X73525Y-21604D01*
X73517Y-21602D01*
X73508Y-21601D01*
X73500Y-21600D01*
X73500Y-22400D02*
X73508Y-22399D01*
X73517Y-22398D01*
X73525Y-22396D01*
X73534Y-22393D01*
X73542Y-22390D01*
X73550Y-22386D01*
X73557Y-22381D01*
X73564Y-22376D01*
X73570Y-22370D01*
X73576Y-22364D01*
X73581Y-22357D01*
X73586Y-22349D01*
X73590Y-22342D01*
X73593Y-22334D01*
X73596Y-22325D01*
X73598Y-22317D01*
X73599Y-22308D01*
X73600Y-22300D01*
X71400Y-22000D02*
X71000Y-22000D01*
X74000Y-22000D02*
X73600Y-22000D01*
X55500Y-37500D02*
X59500Y-37500D01*
X59500Y-37500D02*
X59500Y-39500D01*
X59500Y-39500D02*
X55500Y-39500D01*
X55500Y-39500D02*
X55500Y-37500D01*
X47500Y-39500D02*
X47500Y-37500D01*
X47500Y-37500D02*
X50500Y-37500D01*
X50500Y-37500D02*
X50500Y-39500D01*
X50500Y-39500D02*
X47500Y-39500D01*
X50500Y-26450D02*
X49850Y-26450D01*
X49850Y-24550D02*
X50500Y-24550D01*
X50500Y-26450D02*
X50582Y-26446D01*
X50664Y-26435D01*
X50745Y-26417D01*
X50824Y-26392D01*
X50901Y-26360D01*
X50975Y-26322D01*
X51044Y-26278D01*
X51110Y-26227D01*
X51171Y-26171D01*
X51227Y-26110D01*
X51278Y-26044D01*
X51322Y-25974D01*
X51360Y-25901D01*
X51392Y-25824D01*
X51417Y-25745D01*
X51435Y-25664D01*
X51446Y-25582D01*
X51450Y-25500D01*
X51450Y-25500D02*
X51446Y-25418D01*
X51435Y-25336D01*
X51417Y-25255D01*
X51392Y-25176D01*
X51360Y-25099D01*
X51322Y-25026D01*
X51278Y-24956D01*
X51227Y-24890D01*
X51171Y-24829D01*
X51110Y-24773D01*
X51044Y-24722D01*
X50975Y-24678D01*
X50901Y-24640D01*
X50824Y-24608D01*
X50745Y-24583D01*
X50664Y-24565D01*
X50582Y-24554D01*
X50500Y-24550D01*
X49850Y-24550D02*
X49850Y-26450D01*
X71500Y-20600D02*
X73500Y-20600D01*
X71400Y-21300D02*
X71400Y-20700D01*
X73500Y-21400D02*
X71500Y-21400D01*
X73600Y-20700D02*
X73600Y-21300D01*
X71500Y-20600D02*
X71492Y-20601D01*
X71483Y-20602D01*
X71475Y-20604D01*
X71466Y-20607D01*
X71458Y-20610D01*
X71451Y-20614D01*
X71443Y-20619D01*
X71436Y-20624D01*
X71430Y-20630D01*
X71424Y-20636D01*
X71419Y-20643D01*
X71414Y-20651D01*
X71410Y-20658D01*
X71407Y-20666D01*
X71404Y-20675D01*
X71402Y-20683D01*
X71401Y-20692D01*
X71400Y-20700D01*
X71400Y-21300D02*
X71401Y-21308D01*
X71402Y-21317D01*
X71404Y-21325D01*
X71407Y-21334D01*
X71410Y-21342D01*
X71414Y-21349D01*
X71419Y-21357D01*
X71424Y-21364D01*
X71430Y-21370D01*
X71436Y-21376D01*
X71443Y-21381D01*
X71451Y-21386D01*
X71458Y-21390D01*
X71466Y-21393D01*
X71475Y-21396D01*
X71483Y-21398D01*
X71492Y-21399D01*
X71500Y-21400D01*
X73600Y-20700D02*
X73599Y-20692D01*
X73598Y-20683D01*
X73596Y-20675D01*
X73593Y-20666D01*
X73590Y-20658D01*
X73586Y-20651D01*
X73581Y-20643D01*
X73576Y-20636D01*
X73570Y-20630D01*
X73564Y-20624D01*
X73557Y-20619D01*
X73550Y-20614D01*
X73542Y-20610D01*
X73534Y-20607D01*
X73525Y-20604D01*
X73517Y-20602D01*
X73508Y-20601D01*
X73500Y-20600D01*
X73500Y-21400D02*
X73508Y-21399D01*
X73517Y-21398D01*
X73525Y-21396D01*
X73534Y-21393D01*
X73542Y-21390D01*
X73550Y-21386D01*
X73557Y-21381D01*
X73564Y-21376D01*
X73570Y-21370D01*
X73576Y-21364D01*
X73581Y-21357D01*
X73586Y-21349D01*
X73590Y-21342D01*
X73593Y-21334D01*
X73596Y-21325D01*
X73598Y-21317D01*
X73599Y-21308D01*
X73600Y-21300D01*
X71400Y-21000D02*
X71000Y-21000D01*
X74000Y-21000D02*
X73600Y-21000D01*
X81000Y-25125D02*
X81000Y-28875D01*
X81000Y-28875D02*
X77250Y-28875D01*
X77250Y-25125D02*
X81000Y-25125D01*
X77250Y-28875D02*
X77250Y-30150D01*
X72250Y-30150D02*
X72250Y-23850D01*
X77250Y-30150D02*
X72250Y-30150D01*
X77250Y-25125D02*
X77250Y-23850D01*
X72250Y-23850D02*
X77250Y-23850D01*
X48000Y-27900D02*
X46000Y-27900D01*
X48100Y-27200D02*
X48100Y-27800D01*
X46000Y-27100D02*
X48000Y-27100D01*
X45900Y-27800D02*
X45900Y-27200D01*
X48000Y-27900D02*
X48008Y-27899D01*
X48017Y-27898D01*
X48025Y-27896D01*
X48034Y-27893D01*
X48042Y-27890D01*
X48050Y-27886D01*
X48057Y-27881D01*
X48064Y-27876D01*
X48070Y-27870D01*
X48076Y-27864D01*
X48081Y-27857D01*
X48086Y-27849D01*
X48090Y-27842D01*
X48093Y-27834D01*
X48096Y-27825D01*
X48098Y-27817D01*
X48099Y-27808D01*
X48100Y-27800D01*
X48100Y-27200D02*
X48099Y-27192D01*
X48098Y-27183D01*
X48096Y-27175D01*
X48093Y-27166D01*
X48090Y-27158D01*
X48086Y-27151D01*
X48081Y-27143D01*
X48076Y-27136D01*
X48070Y-27130D01*
X48064Y-27124D01*
X48057Y-27119D01*
X48050Y-27114D01*
X48042Y-27110D01*
X48034Y-27107D01*
X48025Y-27104D01*
X48017Y-27102D01*
X48008Y-27101D01*
X48000Y-27100D01*
X45900Y-27800D02*
X45901Y-27808D01*
X45902Y-27817D01*
X45904Y-27825D01*
X45907Y-27834D01*
X45910Y-27842D01*
X45914Y-27849D01*
X45919Y-27857D01*
X45924Y-27864D01*
X45930Y-27870D01*
X45936Y-27876D01*
X45943Y-27881D01*
X45951Y-27886D01*
X45958Y-27890D01*
X45966Y-27893D01*
X45975Y-27896D01*
X45983Y-27898D01*
X45992Y-27899D01*
X46000Y-27900D01*
X46000Y-27100D02*
X45992Y-27101D01*
X45983Y-27102D01*
X45975Y-27104D01*
X45966Y-27107D01*
X45958Y-27110D01*
X45951Y-27114D01*
X45943Y-27119D01*
X45936Y-27124D01*
X45930Y-27130D01*
X45924Y-27136D01*
X45919Y-27143D01*
X45914Y-27151D01*
X45910Y-27158D01*
X45907Y-27166D01*
X45904Y-27175D01*
X45902Y-27183D01*
X45901Y-27192D01*
X45900Y-27200D01*
X48100Y-27500D02*
X48500Y-27500D01*
X45500Y-27500D02*
X45900Y-27500D01*
X62200Y-42400D02*
X62234Y-42398D01*
X62269Y-42393D01*
X62303Y-42386D01*
X62336Y-42375D01*
X62369Y-42362D01*
X62400Y-42346D01*
X62429Y-42327D01*
X62457Y-42306D01*
X62482Y-42282D01*
X62506Y-42257D01*
X62527Y-42229D01*
X62546Y-42199D01*
X62562Y-42169D01*
X62575Y-42136D01*
X62586Y-42103D01*
X62593Y-42069D01*
X62598Y-42034D01*
X62600Y-42000D01*
X62600Y-42000D02*
X62598Y-41966D01*
X62593Y-41931D01*
X62586Y-41897D01*
X62575Y-41864D01*
X62562Y-41831D01*
X62546Y-41801D01*
X62527Y-41771D01*
X62506Y-41743D01*
X62482Y-41718D01*
X62457Y-41694D01*
X62429Y-41673D01*
X62400Y-41654D01*
X62369Y-41638D01*
X62336Y-41625D01*
X62303Y-41614D01*
X62269Y-41607D01*
X62234Y-41602D01*
X62200Y-41600D01*
X62200Y-41000D02*
X72800Y-41000D01*
X72800Y-41000D02*
X72800Y-43000D01*
X72800Y-43000D02*
X62200Y-43000D01*
X62200Y-43000D02*
X62200Y-41000D01*
X42500Y-35400D02*
X42534Y-35398D01*
X42569Y-35393D01*
X42603Y-35386D01*
X42636Y-35375D01*
X42669Y-35362D01*
X42700Y-35346D01*
X42729Y-35327D01*
X42757Y-35306D01*
X42782Y-35282D01*
X42806Y-35257D01*
X42827Y-35229D01*
X42846Y-35199D01*
X42862Y-35169D01*
X42875Y-35136D01*
X42886Y-35103D01*
X42893Y-35069D01*
X42898Y-35034D01*
X42900Y-35000D01*
X42900Y-35000D02*
X42898Y-34966D01*
X42893Y-34931D01*
X42886Y-34897D01*
X42875Y-34864D01*
X42862Y-34831D01*
X42846Y-34801D01*
X42827Y-34771D01*
X42806Y-34743D01*
X42782Y-34718D01*
X42757Y-34694D01*
X42729Y-34673D01*
X42700Y-34654D01*
X42669Y-34638D01*
X42636Y-34625D01*
X42603Y-34614D01*
X42569Y-34607D01*
X42534Y-34602D01*
X42500Y-34600D01*
X50500Y-34000D02*
X42500Y-34000D01*
X42500Y-34000D02*
X42500Y-36000D01*
X42500Y-36000D02*
X50500Y-36000D01*
X50500Y-36000D02*
X50500Y-34000D01*
X51300Y-43400D02*
X51700Y-43400D01*
X51100Y-40800D02*
X51100Y-43200D01*
X51900Y-40800D02*
X51900Y-43200D01*
X51100Y-43200D02*
X51101Y-43217D01*
X51104Y-43234D01*
X51107Y-43251D01*
X51113Y-43268D01*
X51119Y-43284D01*
X51127Y-43299D01*
X51137Y-43314D01*
X51147Y-43328D01*
X51159Y-43341D01*
X51172Y-43353D01*
X51186Y-43363D01*
X51201Y-43373D01*
X51216Y-43381D01*
X51232Y-43387D01*
X51249Y-43393D01*
X51266Y-43396D01*
X51283Y-43399D01*
X51300Y-43400D01*
X51700Y-43400D02*
X51717Y-43399D01*
X51734Y-43396D01*
X51751Y-43393D01*
X51768Y-43387D01*
X51784Y-43381D01*
X51800Y-43373D01*
X51814Y-43363D01*
X51828Y-43353D01*
X51841Y-43341D01*
X51853Y-43328D01*
X51863Y-43314D01*
X51873Y-43299D01*
X51881Y-43284D01*
X51887Y-43268D01*
X51893Y-43251D01*
X51896Y-43234D01*
X51899Y-43217D01*
X51900Y-43200D01*
X51300Y-40600D02*
X51283Y-40601D01*
X51266Y-40604D01*
X51249Y-40607D01*
X51232Y-40613D01*
X51216Y-40619D01*
X51201Y-40627D01*
X51186Y-40637D01*
X51172Y-40647D01*
X51159Y-40659D01*
X51147Y-40672D01*
X51137Y-40686D01*
X51127Y-40701D01*
X51119Y-40716D01*
X51113Y-40732D01*
X51107Y-40749D01*
X51104Y-40766D01*
X51101Y-40783D01*
X51100Y-40800D01*
X51900Y-40800D02*
X51899Y-40783D01*
X51896Y-40766D01*
X51893Y-40749D01*
X51887Y-40732D01*
X51881Y-40716D01*
X51873Y-40701D01*
X51863Y-40686D01*
X51853Y-40672D01*
X51841Y-40659D01*
X51828Y-40647D01*
X51814Y-40637D01*
X51800Y-40627D01*
X51784Y-40619D01*
X51768Y-40613D01*
X51751Y-40607D01*
X51734Y-40604D01*
X51717Y-40601D01*
X51700Y-40600D01*
X51300Y-40600D02*
X51700Y-40600D01*
X58300Y-30400D02*
X58700Y-30400D01*
X58100Y-27800D02*
X58100Y-30200D01*
X58900Y-27800D02*
X58900Y-30200D01*
X58100Y-30200D02*
X58101Y-30217D01*
X58104Y-30234D01*
X58107Y-30251D01*
X58113Y-30268D01*
X58119Y-30284D01*
X58127Y-30299D01*
X58137Y-30314D01*
X58147Y-30328D01*
X58159Y-30341D01*
X58172Y-30353D01*
X58186Y-30363D01*
X58201Y-30373D01*
X58216Y-30381D01*
X58232Y-30387D01*
X58249Y-30393D01*
X58266Y-30396D01*
X58283Y-30399D01*
X58300Y-30400D01*
X58700Y-30400D02*
X58717Y-30399D01*
X58734Y-30396D01*
X58751Y-30393D01*
X58768Y-30387D01*
X58784Y-30381D01*
X58800Y-30373D01*
X58814Y-30363D01*
X58828Y-30353D01*
X58841Y-30341D01*
X58853Y-30328D01*
X58863Y-30314D01*
X58873Y-30299D01*
X58881Y-30284D01*
X58887Y-30268D01*
X58893Y-30251D01*
X58896Y-30234D01*
X58899Y-30217D01*
X58900Y-30200D01*
X58300Y-27600D02*
X58283Y-27601D01*
X58266Y-27604D01*
X58249Y-27607D01*
X58232Y-27613D01*
X58216Y-27619D01*
X58201Y-27627D01*
X58186Y-27637D01*
X58172Y-27647D01*
X58159Y-27659D01*
X58147Y-27672D01*
X58137Y-27686D01*
X58127Y-27701D01*
X58119Y-27716D01*
X58113Y-27732D01*
X58107Y-27749D01*
X58104Y-27766D01*
X58101Y-27783D01*
X58100Y-27800D01*
X58900Y-27800D02*
X58899Y-27783D01*
X58896Y-27766D01*
X58893Y-27749D01*
X58887Y-27732D01*
X58881Y-27716D01*
X58873Y-27701D01*
X58863Y-27686D01*
X58853Y-27672D01*
X58841Y-27659D01*
X58828Y-27647D01*
X58814Y-27637D01*
X58800Y-27627D01*
X58784Y-27619D01*
X58768Y-27613D01*
X58751Y-27607D01*
X58734Y-27604D01*
X58717Y-27601D01*
X58700Y-27600D01*
X58300Y-27600D02*
X58700Y-27600D01*
X65400Y-26450D02*
X65400Y-26050D01*
X62800Y-26650D02*
X65200Y-26650D01*
X62800Y-25850D02*
X65200Y-25850D01*
X65200Y-26650D02*
X65217Y-26649D01*
X65234Y-26646D01*
X65251Y-26643D01*
X65268Y-26637D01*
X65284Y-26631D01*
X65300Y-26623D01*
X65314Y-26613D01*
X65328Y-26603D01*
X65341Y-26591D01*
X65353Y-26578D01*
X65363Y-26564D01*
X65373Y-26549D01*
X65381Y-26534D01*
X65387Y-26518D01*
X65393Y-26501D01*
X65396Y-26484D01*
X65399Y-26467D01*
X65400Y-26450D01*
X65400Y-26050D02*
X65399Y-26033D01*
X65396Y-26016D01*
X65393Y-25999D01*
X65387Y-25982D01*
X65381Y-25966D01*
X65373Y-25951D01*
X65363Y-25936D01*
X65353Y-25922D01*
X65341Y-25909D01*
X65328Y-25897D01*
X65314Y-25887D01*
X65300Y-25877D01*
X65284Y-25869D01*
X65268Y-25863D01*
X65251Y-25857D01*
X65234Y-25854D01*
X65217Y-25851D01*
X65200Y-25850D01*
X62600Y-26450D02*
X62601Y-26467D01*
X62604Y-26484D01*
X62607Y-26501D01*
X62613Y-26518D01*
X62619Y-26534D01*
X62627Y-26549D01*
X62637Y-26564D01*
X62647Y-26578D01*
X62659Y-26591D01*
X62672Y-26603D01*
X62686Y-26613D01*
X62701Y-26623D01*
X62716Y-26631D01*
X62732Y-26637D01*
X62749Y-26643D01*
X62766Y-26646D01*
X62783Y-26649D01*
X62800Y-26650D01*
X62800Y-25850D02*
X62783Y-25851D01*
X62766Y-25854D01*
X62749Y-25857D01*
X62732Y-25863D01*
X62716Y-25869D01*
X62701Y-25877D01*
X62686Y-25887D01*
X62672Y-25897D01*
X62659Y-25909D01*
X62647Y-25922D01*
X62637Y-25936D01*
X62627Y-25951D01*
X62619Y-25966D01*
X62613Y-25982D01*
X62607Y-25999D01*
X62604Y-26016D01*
X62601Y-26033D01*
X62600Y-26050D01*
X62600Y-26450D02*
X62600Y-26050D01*
X77083Y-42500D02*
X77062Y-42710D01*
X77001Y-42912D01*
X76902Y-43099D01*
X76768Y-43263D01*
X76605Y-43397D01*
X76419Y-43498D01*
X76217Y-43560D01*
X76007Y-43582D01*
X75798Y-43563D01*
X75595Y-43504D01*
X75407Y-43406D01*
X75243Y-43273D01*
X75107Y-43111D01*
X75005Y-42926D01*
X74941Y-42725D01*
X74918Y-42515D01*
X74935Y-42305D01*
X74994Y-42102D01*
X75090Y-41914D01*
X75221Y-41748D01*
X75382Y-41611D01*
X75567Y-41508D01*
X75768Y-41443D01*
X75978Y-41418D01*
X76188Y-41434D01*
X76391Y-41491D01*
X76580Y-41586D01*
X76746Y-41716D01*
X76884Y-41876D01*
X76989Y-42060D01*
X77056Y-42261D01*
X77082Y-42470D01*
X77083Y-42500D01*
X77083Y-39500D02*
X77062Y-39710D01*
X77001Y-39912D01*
X76902Y-40099D01*
X76768Y-40263D01*
X76605Y-40397D01*
X76419Y-40498D01*
X76217Y-40560D01*
X76007Y-40582D01*
X75798Y-40563D01*
X75595Y-40504D01*
X75407Y-40406D01*
X75243Y-40273D01*
X75107Y-40111D01*
X75005Y-39926D01*
X74941Y-39725D01*
X74918Y-39515D01*
X74935Y-39305D01*
X74994Y-39102D01*
X75090Y-38914D01*
X75221Y-38748D01*
X75382Y-38611D01*
X75567Y-38508D01*
X75768Y-38443D01*
X75978Y-38418D01*
X76188Y-38434D01*
X76391Y-38491D01*
X76580Y-38586D01*
X76746Y-38716D01*
X76884Y-38876D01*
X76989Y-39060D01*
X77056Y-39261D01*
X77082Y-39470D01*
X77083Y-39500D01*
X79583Y-39500D02*
X79562Y-39710D01*
X79501Y-39912D01*
X79402Y-40099D01*
X79268Y-40263D01*
X79105Y-40397D01*
X78919Y-40498D01*
X78717Y-40560D01*
X78507Y-40582D01*
X78298Y-40563D01*
X78095Y-40504D01*
X77907Y-40406D01*
X77743Y-40273D01*
X77607Y-40111D01*
X77505Y-39926D01*
X77441Y-39725D01*
X77418Y-39515D01*
X77435Y-39305D01*
X77494Y-39102D01*
X77590Y-38914D01*
X77721Y-38748D01*
X77882Y-38611D01*
X78067Y-38508D01*
X78268Y-38443D01*
X78478Y-38418D01*
X78688Y-38434D01*
X78891Y-38491D01*
X79080Y-38586D01*
X79246Y-38716D01*
X79384Y-38876D01*
X79489Y-39060D01*
X79556Y-39261D01*
X79582Y-39470D01*
X79583Y-39500D01*
X44083Y-24500D02*
X44062Y-24710D01*
X44001Y-24912D01*
X43902Y-25099D01*
X43768Y-25263D01*
X43605Y-25397D01*
X43419Y-25498D01*
X43217Y-25560D01*
X43007Y-25582D01*
X42798Y-25563D01*
X42595Y-25504D01*
X42407Y-25406D01*
X42243Y-25273D01*
X42107Y-25111D01*
X42005Y-24926D01*
X41941Y-24725D01*
X41918Y-24515D01*
X41935Y-24305D01*
X41994Y-24102D01*
X42090Y-23914D01*
X42221Y-23748D01*
X42382Y-23611D01*
X42567Y-23508D01*
X42768Y-23443D01*
X42978Y-23418D01*
X43188Y-23434D01*
X43391Y-23491D01*
X43580Y-23586D01*
X43746Y-23716D01*
X43884Y-23876D01*
X43989Y-24060D01*
X44056Y-24261D01*
X44082Y-24470D01*
X44083Y-24500D01*
X60583Y-25500D02*
X60562Y-25710D01*
X60501Y-25912D01*
X60402Y-26099D01*
X60268Y-26263D01*
X60105Y-26397D01*
X59919Y-26498D01*
X59717Y-26560D01*
X59507Y-26582D01*
X59298Y-26563D01*
X59095Y-26504D01*
X58907Y-26406D01*
X58743Y-26273D01*
X58607Y-26111D01*
X58505Y-25926D01*
X58441Y-25725D01*
X58418Y-25515D01*
X58435Y-25305D01*
X58494Y-25102D01*
X58590Y-24914D01*
X58721Y-24748D01*
X58882Y-24611D01*
X59067Y-24508D01*
X59268Y-24443D01*
X59478Y-24418D01*
X59688Y-24434D01*
X59891Y-24491D01*
X60080Y-24586D01*
X60246Y-24716D01*
X60384Y-24876D01*
X60489Y-25060D01*
X60556Y-25261D01*
X60582Y-25470D01*
X60583Y-25500D01*
X54583Y-25500D02*
X54562Y-25710D01*
X54501Y-25912D01*
X54402Y-26099D01*
X54268Y-26263D01*
X54105Y-26397D01*
X53919Y-26498D01*
X53717Y-26560D01*
X53507Y-26582D01*
X53298Y-26563D01*
X53095Y-26504D01*
X52907Y-26406D01*
X52743Y-26273D01*
X52607Y-26111D01*
X52505Y-25926D01*
X52441Y-25725D01*
X52418Y-25515D01*
X52435Y-25305D01*
X52494Y-25102D01*
X52590Y-24914D01*
X52721Y-24748D01*
X52882Y-24611D01*
X53067Y-24508D01*
X53268Y-24443D01*
X53478Y-24418D01*
X53688Y-24434D01*
X53891Y-24491D01*
X54080Y-24586D01*
X54246Y-24716D01*
X54384Y-24876D01*
X54489Y-25060D01*
X54556Y-25261D01*
X54582Y-25470D01*
X54583Y-25500D01*
X44400Y-31700D02*
X44400Y-31300D01*
X41800Y-31900D02*
X44200Y-31900D01*
X41800Y-31100D02*
X44200Y-31100D01*
X44200Y-31900D02*
X44217Y-31899D01*
X44234Y-31896D01*
X44251Y-31893D01*
X44268Y-31887D01*
X44284Y-31881D01*
X44300Y-31873D01*
X44314Y-31863D01*
X44328Y-31853D01*
X44341Y-31841D01*
X44353Y-31828D01*
X44363Y-31814D01*
X44373Y-31799D01*
X44381Y-31784D01*
X44387Y-31768D01*
X44393Y-31751D01*
X44396Y-31734D01*
X44399Y-31717D01*
X44400Y-31700D01*
X44400Y-31300D02*
X44399Y-31283D01*
X44396Y-31266D01*
X44393Y-31249D01*
X44387Y-31232D01*
X44381Y-31216D01*
X44373Y-31201D01*
X44363Y-31186D01*
X44353Y-31172D01*
X44341Y-31159D01*
X44328Y-31147D01*
X44314Y-31137D01*
X44300Y-31127D01*
X44284Y-31119D01*
X44268Y-31113D01*
X44251Y-31107D01*
X44234Y-31104D01*
X44217Y-31101D01*
X44200Y-31100D01*
X41600Y-31700D02*
X41601Y-31717D01*
X41604Y-31734D01*
X41607Y-31751D01*
X41613Y-31768D01*
X41619Y-31784D01*
X41627Y-31799D01*
X41637Y-31814D01*
X41647Y-31828D01*
X41659Y-31841D01*
X41672Y-31853D01*
X41686Y-31863D01*
X41701Y-31873D01*
X41716Y-31881D01*
X41732Y-31887D01*
X41749Y-31893D01*
X41766Y-31896D01*
X41783Y-31899D01*
X41800Y-31900D01*
X41800Y-31100D02*
X41783Y-31101D01*
X41766Y-31104D01*
X41749Y-31107D01*
X41732Y-31113D01*
X41716Y-31119D01*
X41701Y-31127D01*
X41686Y-31137D01*
X41672Y-31147D01*
X41659Y-31159D01*
X41647Y-31172D01*
X41637Y-31186D01*
X41627Y-31201D01*
X41619Y-31216D01*
X41613Y-31232D01*
X41607Y-31249D01*
X41604Y-31266D01*
X41601Y-31283D01*
X41600Y-31300D01*
X41600Y-31700D02*
X41600Y-31300D01*
X48400Y-31700D02*
X48400Y-31300D01*
X45800Y-31900D02*
X48200Y-31900D01*
X45800Y-31100D02*
X48200Y-31100D01*
X48200Y-31900D02*
X48217Y-31899D01*
X48234Y-31896D01*
X48251Y-31893D01*
X48268Y-31887D01*
X48284Y-31881D01*
X48300Y-31873D01*
X48314Y-31863D01*
X48328Y-31853D01*
X48341Y-31841D01*
X48353Y-31828D01*
X48363Y-31814D01*
X48373Y-31799D01*
X48381Y-31784D01*
X48387Y-31768D01*
X48393Y-31751D01*
X48396Y-31734D01*
X48399Y-31717D01*
X48400Y-31700D01*
X48400Y-31300D02*
X48399Y-31283D01*
X48396Y-31266D01*
X48393Y-31249D01*
X48387Y-31232D01*
X48381Y-31216D01*
X48373Y-31201D01*
X48363Y-31186D01*
X48353Y-31172D01*
X48341Y-31159D01*
X48328Y-31147D01*
X48314Y-31137D01*
X48300Y-31127D01*
X48284Y-31119D01*
X48268Y-31113D01*
X48251Y-31107D01*
X48234Y-31104D01*
X48217Y-31101D01*
X48200Y-31100D01*
X45600Y-31700D02*
X45601Y-31717D01*
X45604Y-31734D01*
X45607Y-31751D01*
X45613Y-31768D01*
X45619Y-31784D01*
X45627Y-31799D01*
X45637Y-31814D01*
X45647Y-31828D01*
X45659Y-31841D01*
X45672Y-31853D01*
X45686Y-31863D01*
X45701Y-31873D01*
X45716Y-31881D01*
X45732Y-31887D01*
X45749Y-31893D01*
X45766Y-31896D01*
X45783Y-31899D01*
X45800Y-31900D01*
X45800Y-31100D02*
X45783Y-31101D01*
X45766Y-31104D01*
X45749Y-31107D01*
X45732Y-31113D01*
X45716Y-31119D01*
X45701Y-31127D01*
X45686Y-31137D01*
X45672Y-31147D01*
X45659Y-31159D01*
X45647Y-31172D01*
X45637Y-31186D01*
X45627Y-31201D01*
X45619Y-31216D01*
X45613Y-31232D01*
X45607Y-31249D01*
X45604Y-31266D01*
X45601Y-31283D01*
X45600Y-31300D01*
X45600Y-31700D02*
X45600Y-31300D01*
X44400Y-28700D02*
X44400Y-28300D01*
X41800Y-28900D02*
X44200Y-28900D01*
X41800Y-28100D02*
X44200Y-28100D01*
X44200Y-28900D02*
X44217Y-28899D01*
X44234Y-28896D01*
X44251Y-28893D01*
X44268Y-28887D01*
X44284Y-28881D01*
X44300Y-28873D01*
X44314Y-28863D01*
X44328Y-28853D01*
X44341Y-28841D01*
X44353Y-28828D01*
X44363Y-28814D01*
X44373Y-28799D01*
X44381Y-28784D01*
X44387Y-28768D01*
X44393Y-28751D01*
X44396Y-28734D01*
X44399Y-28717D01*
X44400Y-28700D01*
X44400Y-28300D02*
X44399Y-28283D01*
X44396Y-28266D01*
X44393Y-28249D01*
X44387Y-28232D01*
X44381Y-28216D01*
X44373Y-28201D01*
X44363Y-28186D01*
X44353Y-28172D01*
X44341Y-28159D01*
X44328Y-28147D01*
X44314Y-28137D01*
X44300Y-28127D01*
X44284Y-28119D01*
X44268Y-28113D01*
X44251Y-28107D01*
X44234Y-28104D01*
X44217Y-28101D01*
X44200Y-28100D01*
X41600Y-28700D02*
X41601Y-28717D01*
X41604Y-28734D01*
X41607Y-28751D01*
X41613Y-28768D01*
X41619Y-28784D01*
X41627Y-28799D01*
X41637Y-28814D01*
X41647Y-28828D01*
X41659Y-28841D01*
X41672Y-28853D01*
X41686Y-28863D01*
X41701Y-28873D01*
X41716Y-28881D01*
X41732Y-28887D01*
X41749Y-28893D01*
X41766Y-28896D01*
X41783Y-28899D01*
X41800Y-28900D01*
X41800Y-28100D02*
X41783Y-28101D01*
X41766Y-28104D01*
X41749Y-28107D01*
X41732Y-28113D01*
X41716Y-28119D01*
X41701Y-28127D01*
X41686Y-28137D01*
X41672Y-28147D01*
X41659Y-28159D01*
X41647Y-28172D01*
X41637Y-28186D01*
X41627Y-28201D01*
X41619Y-28216D01*
X41613Y-28232D01*
X41607Y-28249D01*
X41604Y-28266D01*
X41601Y-28283D01*
X41600Y-28300D01*
X41600Y-28700D02*
X41600Y-28300D01*
G54D11*
X75887Y-36883D02*
X76173Y-36883D01*
X76230Y-36903D01*
X76268Y-36941D01*
X76287Y-36998D01*
X76287Y-37036D01*
X76287Y-36483D02*
X76287Y-36712D01*
X76287Y-36598D02*
X75887Y-36598D01*
X75944Y-36636D01*
X75982Y-36674D01*
X76001Y-36712D01*
G54D10*
X76173Y-35275D02*
X76173Y-35132D01*
X76287Y-35317D02*
X75887Y-35167D01*
X76287Y-35117D01*
X75887Y-34968D02*
X76211Y-35009D01*
X76249Y-34998D01*
X76268Y-34987D01*
X76287Y-34960D01*
X76287Y-34903D01*
X76268Y-34873D01*
X76249Y-34855D01*
X76211Y-34837D01*
X75887Y-34796D01*
X76287Y-34704D02*
X75887Y-34654D01*
X75887Y-34582D01*
X75906Y-34542D01*
X75944Y-34518D01*
X75982Y-34508D01*
X76058Y-34504D01*
X76115Y-34511D01*
X76192Y-34534D01*
X76230Y-34554D01*
X76268Y-34587D01*
X76287Y-34632D01*
X76287Y-34704D01*
X76287Y-34404D02*
X75887Y-34354D01*
X75887Y-34153D02*
X75887Y-34096D01*
X75906Y-34071D01*
X75944Y-34046D01*
X76020Y-34042D01*
X76154Y-34059D01*
X76230Y-34082D01*
X76268Y-34116D01*
X76287Y-34146D01*
X76287Y-34203D01*
X76268Y-34230D01*
X76230Y-34254D01*
X76154Y-34259D01*
X76020Y-34242D01*
X75944Y-34218D01*
X75906Y-34185D01*
X75887Y-34153D01*
X76325Y-34023D02*
X76325Y-33794D01*
X75887Y-33610D02*
X75887Y-33553D01*
X75906Y-33528D01*
X75944Y-33503D01*
X76020Y-33499D01*
X76154Y-33516D01*
X76230Y-33539D01*
X76268Y-33573D01*
X76287Y-33603D01*
X76287Y-33660D01*
X76268Y-33687D01*
X76230Y-33711D01*
X76154Y-33716D01*
X76020Y-33699D01*
X75944Y-33675D01*
X75906Y-33642D01*
X75887Y-33610D01*
X75887Y-33354D02*
X76211Y-33395D01*
X76249Y-33384D01*
X76268Y-33373D01*
X76287Y-33346D01*
X76287Y-33289D01*
X76268Y-33259D01*
X76249Y-33241D01*
X76211Y-33223D01*
X75887Y-33182D01*
X75887Y-33082D02*
X75887Y-32911D01*
X76287Y-33047D02*
X75887Y-32997D01*
G54D11*
X61624Y-43941D02*
X61643Y-43960D01*
X61662Y-44017D01*
X61662Y-44055D01*
X61643Y-44113D01*
X61605Y-44151D01*
X61567Y-44170D01*
X61490Y-44189D01*
X61433Y-44189D01*
X61357Y-44170D01*
X61319Y-44151D01*
X61281Y-44113D01*
X61262Y-44055D01*
X61262Y-44017D01*
X61281Y-43960D01*
X61300Y-43941D01*
X61662Y-43560D02*
X61662Y-43789D01*
X61662Y-43675D02*
X61262Y-43675D01*
X61319Y-43713D01*
X61357Y-43751D01*
X61376Y-43789D01*
G54D10*
X61262Y-42456D02*
X61262Y-42428D01*
X61281Y-42402D01*
X61300Y-42390D01*
X61338Y-42381D01*
X61414Y-42375D01*
X61510Y-42387D01*
X61586Y-42412D01*
X61624Y-42430D01*
X61643Y-42447D01*
X61662Y-42478D01*
X61662Y-42506D01*
X61643Y-42533D01*
X61624Y-42544D01*
X61586Y-42555D01*
X61510Y-42559D01*
X61414Y-42547D01*
X61338Y-42524D01*
X61300Y-42504D01*
X61281Y-42488D01*
X61262Y-42456D01*
X61624Y-42273D02*
X61643Y-42261D01*
X61662Y-42278D01*
X61643Y-42290D01*
X61624Y-42273D01*
X61662Y-42278D01*
X61662Y-41977D02*
X61662Y-42149D01*
X61662Y-42063D02*
X61262Y-42013D01*
X61319Y-42049D01*
X61357Y-42082D01*
X61376Y-42113D01*
X61395Y-41687D02*
X61662Y-41720D01*
X61395Y-41816D02*
X61605Y-41842D01*
X61643Y-41832D01*
X61662Y-41806D01*
X61662Y-41763D01*
X61643Y-41732D01*
X61624Y-41715D01*
X61452Y-41452D02*
X61452Y-41552D01*
X61662Y-41578D02*
X61262Y-41528D01*
X61262Y-41385D01*
G54D11*
X41624Y-43941D02*
X41643Y-43960D01*
X41662Y-44017D01*
X41662Y-44055D01*
X41643Y-44113D01*
X41605Y-44151D01*
X41567Y-44170D01*
X41490Y-44189D01*
X41433Y-44189D01*
X41357Y-44170D01*
X41319Y-44151D01*
X41281Y-44113D01*
X41262Y-44055D01*
X41262Y-44017D01*
X41281Y-43960D01*
X41300Y-43941D01*
X41300Y-43789D02*
X41281Y-43770D01*
X41262Y-43732D01*
X41262Y-43636D01*
X41281Y-43598D01*
X41300Y-43579D01*
X41338Y-43560D01*
X41376Y-43560D01*
X41433Y-43579D01*
X41662Y-43808D01*
X41662Y-43560D01*
G54D10*
X41262Y-42456D02*
X41262Y-42428D01*
X41281Y-42402D01*
X41300Y-42390D01*
X41338Y-42381D01*
X41414Y-42375D01*
X41510Y-42387D01*
X41586Y-42412D01*
X41624Y-42430D01*
X41643Y-42447D01*
X41662Y-42478D01*
X41662Y-42506D01*
X41643Y-42533D01*
X41624Y-42544D01*
X41586Y-42555D01*
X41510Y-42559D01*
X41414Y-42547D01*
X41338Y-42524D01*
X41300Y-42504D01*
X41281Y-42488D01*
X41262Y-42456D01*
X41624Y-42273D02*
X41643Y-42261D01*
X41662Y-42278D01*
X41643Y-42290D01*
X41624Y-42273D01*
X41662Y-42278D01*
X41662Y-41977D02*
X41662Y-42149D01*
X41662Y-42063D02*
X41262Y-42013D01*
X41319Y-42049D01*
X41357Y-42082D01*
X41376Y-42113D01*
X41395Y-41687D02*
X41662Y-41720D01*
X41395Y-41816D02*
X41605Y-41842D01*
X41643Y-41832D01*
X41662Y-41806D01*
X41662Y-41763D01*
X41643Y-41732D01*
X41624Y-41715D01*
X41452Y-41452D02*
X41452Y-41552D01*
X41662Y-41578D02*
X41262Y-41528D01*
X41262Y-41385D01*
G54D11*
X41624Y-36941D02*
X41643Y-36960D01*
X41662Y-37017D01*
X41662Y-37055D01*
X41643Y-37113D01*
X41605Y-37151D01*
X41567Y-37170D01*
X41490Y-37189D01*
X41433Y-37189D01*
X41357Y-37170D01*
X41319Y-37151D01*
X41281Y-37113D01*
X41262Y-37055D01*
X41262Y-37017D01*
X41281Y-36960D01*
X41300Y-36941D01*
X41395Y-36598D02*
X41662Y-36598D01*
X41243Y-36694D02*
X41529Y-36789D01*
X41529Y-36541D01*
G54D10*
X41262Y-35456D02*
X41262Y-35428D01*
X41281Y-35402D01*
X41300Y-35390D01*
X41338Y-35381D01*
X41414Y-35375D01*
X41510Y-35387D01*
X41586Y-35412D01*
X41624Y-35430D01*
X41643Y-35447D01*
X41662Y-35478D01*
X41662Y-35506D01*
X41643Y-35533D01*
X41624Y-35544D01*
X41586Y-35555D01*
X41510Y-35559D01*
X41414Y-35547D01*
X41338Y-35524D01*
X41300Y-35504D01*
X41281Y-35488D01*
X41262Y-35456D01*
X41624Y-35273D02*
X41643Y-35261D01*
X41662Y-35278D01*
X41643Y-35290D01*
X41624Y-35273D01*
X41662Y-35278D01*
X41662Y-34977D02*
X41662Y-35149D01*
X41662Y-35063D02*
X41262Y-35013D01*
X41319Y-35049D01*
X41357Y-35082D01*
X41376Y-35113D01*
X41395Y-34687D02*
X41662Y-34720D01*
X41395Y-34816D02*
X41605Y-34842D01*
X41643Y-34832D01*
X41662Y-34806D01*
X41662Y-34763D01*
X41643Y-34732D01*
X41624Y-34715D01*
X41452Y-34452D02*
X41452Y-34552D01*
X41662Y-34578D02*
X41262Y-34528D01*
X41262Y-34385D01*
G54D11*
X51624Y-36941D02*
X51643Y-36960D01*
X51662Y-37017D01*
X51662Y-37055D01*
X51643Y-37113D01*
X51605Y-37151D01*
X51567Y-37170D01*
X51490Y-37189D01*
X51433Y-37189D01*
X51357Y-37170D01*
X51319Y-37151D01*
X51281Y-37113D01*
X51262Y-37055D01*
X51262Y-37017D01*
X51281Y-36960D01*
X51300Y-36941D01*
X51262Y-36579D02*
X51262Y-36770D01*
X51452Y-36789D01*
X51433Y-36770D01*
X51414Y-36732D01*
X51414Y-36636D01*
X51433Y-36598D01*
X51452Y-36579D01*
X51490Y-36560D01*
X51586Y-36560D01*
X51624Y-36579D01*
X51643Y-36598D01*
X51662Y-36636D01*
X51662Y-36732D01*
X51643Y-36770D01*
X51624Y-36789D01*
G54D10*
X51262Y-35456D02*
X51262Y-35428D01*
X51281Y-35402D01*
X51300Y-35390D01*
X51338Y-35381D01*
X51414Y-35375D01*
X51510Y-35387D01*
X51586Y-35412D01*
X51624Y-35430D01*
X51643Y-35447D01*
X51662Y-35478D01*
X51662Y-35506D01*
X51643Y-35533D01*
X51624Y-35544D01*
X51586Y-35555D01*
X51510Y-35559D01*
X51414Y-35547D01*
X51338Y-35524D01*
X51300Y-35504D01*
X51281Y-35488D01*
X51262Y-35456D01*
X51624Y-35273D02*
X51643Y-35261D01*
X51662Y-35278D01*
X51643Y-35290D01*
X51624Y-35273D01*
X51662Y-35278D01*
X51662Y-34977D02*
X51662Y-35149D01*
X51662Y-35063D02*
X51262Y-35013D01*
X51319Y-35049D01*
X51357Y-35082D01*
X51376Y-35113D01*
X51395Y-34687D02*
X51662Y-34720D01*
X51395Y-34816D02*
X51605Y-34842D01*
X51643Y-34832D01*
X51662Y-34806D01*
X51662Y-34763D01*
X51643Y-34732D01*
X51624Y-34715D01*
X51452Y-34452D02*
X51452Y-34552D01*
X51662Y-34578D02*
X51262Y-34528D01*
X51262Y-34385D01*
G54D11*
X61624Y-37441D02*
X61643Y-37460D01*
X61662Y-37517D01*
X61662Y-37555D01*
X61643Y-37613D01*
X61605Y-37651D01*
X61567Y-37670D01*
X61490Y-37689D01*
X61433Y-37689D01*
X61357Y-37670D01*
X61319Y-37651D01*
X61281Y-37613D01*
X61262Y-37555D01*
X61262Y-37517D01*
X61281Y-37460D01*
X61300Y-37441D01*
X61262Y-37098D02*
X61262Y-37175D01*
X61281Y-37213D01*
X61300Y-37232D01*
X61357Y-37270D01*
X61433Y-37289D01*
X61586Y-37289D01*
X61624Y-37270D01*
X61643Y-37251D01*
X61662Y-37213D01*
X61662Y-37136D01*
X61643Y-37098D01*
X61624Y-37079D01*
X61586Y-37060D01*
X61490Y-37060D01*
X61452Y-37079D01*
X61433Y-37098D01*
X61414Y-37136D01*
X61414Y-37213D01*
X61433Y-37251D01*
X61452Y-37270D01*
X61490Y-37289D01*
G54D10*
X61262Y-35956D02*
X61262Y-35928D01*
X61281Y-35902D01*
X61300Y-35890D01*
X61338Y-35881D01*
X61414Y-35875D01*
X61510Y-35887D01*
X61586Y-35912D01*
X61624Y-35930D01*
X61643Y-35947D01*
X61662Y-35978D01*
X61662Y-36006D01*
X61643Y-36033D01*
X61624Y-36044D01*
X61586Y-36055D01*
X61510Y-36059D01*
X61414Y-36047D01*
X61338Y-36024D01*
X61300Y-36004D01*
X61281Y-35988D01*
X61262Y-35956D01*
X61624Y-35773D02*
X61643Y-35761D01*
X61662Y-35778D01*
X61643Y-35790D01*
X61624Y-35773D01*
X61662Y-35778D01*
X61662Y-35477D02*
X61662Y-35649D01*
X61662Y-35563D02*
X61262Y-35513D01*
X61319Y-35549D01*
X61357Y-35582D01*
X61376Y-35613D01*
X61395Y-35187D02*
X61662Y-35220D01*
X61395Y-35316D02*
X61605Y-35342D01*
X61643Y-35332D01*
X61662Y-35306D01*
X61662Y-35263D01*
X61643Y-35232D01*
X61624Y-35215D01*
X61452Y-34952D02*
X61452Y-35052D01*
X61662Y-35078D02*
X61262Y-35028D01*
X61262Y-34885D01*
G54D11*
X60624Y-31066D02*
X60643Y-31085D01*
X60662Y-31142D01*
X60662Y-31180D01*
X60643Y-31238D01*
X60605Y-31276D01*
X60567Y-31295D01*
X60490Y-31314D01*
X60433Y-31314D01*
X60357Y-31295D01*
X60319Y-31276D01*
X60281Y-31238D01*
X60262Y-31180D01*
X60262Y-31142D01*
X60281Y-31085D01*
X60300Y-31066D01*
X60262Y-30933D02*
X60262Y-30666D01*
X60662Y-30838D01*
G54D10*
X60262Y-29456D02*
X60262Y-29428D01*
X60281Y-29402D01*
X60300Y-29390D01*
X60338Y-29381D01*
X60414Y-29375D01*
X60510Y-29387D01*
X60586Y-29412D01*
X60624Y-29430D01*
X60643Y-29447D01*
X60662Y-29478D01*
X60662Y-29506D01*
X60643Y-29533D01*
X60624Y-29544D01*
X60586Y-29555D01*
X60510Y-29559D01*
X60414Y-29547D01*
X60338Y-29524D01*
X60300Y-29504D01*
X60281Y-29488D01*
X60262Y-29456D01*
X60624Y-29273D02*
X60643Y-29261D01*
X60662Y-29278D01*
X60643Y-29290D01*
X60624Y-29273D01*
X60662Y-29278D01*
X60662Y-28977D02*
X60662Y-29149D01*
X60662Y-29063D02*
X60262Y-29013D01*
X60319Y-29049D01*
X60357Y-29082D01*
X60376Y-29113D01*
X60395Y-28687D02*
X60662Y-28720D01*
X60395Y-28816D02*
X60605Y-28842D01*
X60643Y-28832D01*
X60662Y-28806D01*
X60662Y-28763D01*
X60643Y-28732D01*
X60624Y-28715D01*
X60452Y-28452D02*
X60452Y-28552D01*
X60662Y-28578D02*
X60262Y-28528D01*
X60262Y-28385D01*
G54D11*
X59624Y-31066D02*
X59643Y-31085D01*
X59662Y-31142D01*
X59662Y-31180D01*
X59643Y-31238D01*
X59605Y-31276D01*
X59567Y-31295D01*
X59490Y-31314D01*
X59433Y-31314D01*
X59357Y-31295D01*
X59319Y-31276D01*
X59281Y-31238D01*
X59262Y-31180D01*
X59262Y-31142D01*
X59281Y-31085D01*
X59300Y-31066D01*
X59433Y-30838D02*
X59414Y-30876D01*
X59395Y-30895D01*
X59357Y-30914D01*
X59338Y-30914D01*
X59300Y-30895D01*
X59281Y-30876D01*
X59262Y-30838D01*
X59262Y-30761D01*
X59281Y-30723D01*
X59300Y-30704D01*
X59338Y-30685D01*
X59357Y-30685D01*
X59395Y-30704D01*
X59414Y-30723D01*
X59433Y-30761D01*
X59433Y-30838D01*
X59452Y-30876D01*
X59471Y-30895D01*
X59510Y-30914D01*
X59586Y-30914D01*
X59624Y-30895D01*
X59643Y-30876D01*
X59662Y-30838D01*
X59662Y-30761D01*
X59643Y-30723D01*
X59624Y-30704D01*
X59586Y-30685D01*
X59510Y-30685D01*
X59471Y-30704D01*
X59452Y-30723D01*
X59433Y-30761D01*
G54D10*
X59262Y-29456D02*
X59262Y-29428D01*
X59281Y-29402D01*
X59300Y-29390D01*
X59338Y-29381D01*
X59414Y-29375D01*
X59510Y-29387D01*
X59586Y-29412D01*
X59624Y-29430D01*
X59643Y-29447D01*
X59662Y-29478D01*
X59662Y-29506D01*
X59643Y-29533D01*
X59624Y-29544D01*
X59586Y-29555D01*
X59510Y-29559D01*
X59414Y-29547D01*
X59338Y-29524D01*
X59300Y-29504D01*
X59281Y-29488D01*
X59262Y-29456D01*
X59624Y-29273D02*
X59643Y-29261D01*
X59662Y-29278D01*
X59643Y-29290D01*
X59624Y-29273D01*
X59662Y-29278D01*
X59662Y-28977D02*
X59662Y-29149D01*
X59662Y-29063D02*
X59262Y-29013D01*
X59319Y-29049D01*
X59357Y-29082D01*
X59376Y-29113D01*
X59395Y-28687D02*
X59662Y-28720D01*
X59395Y-28816D02*
X59605Y-28842D01*
X59643Y-28832D01*
X59662Y-28806D01*
X59662Y-28763D01*
X59643Y-28732D01*
X59624Y-28715D01*
X59452Y-28452D02*
X59452Y-28552D01*
X59662Y-28578D02*
X59262Y-28528D01*
X59262Y-28385D01*
G54D11*
X66624Y-25441D02*
X66643Y-25460D01*
X66662Y-25517D01*
X66662Y-25555D01*
X66643Y-25613D01*
X66605Y-25651D01*
X66567Y-25670D01*
X66490Y-25689D01*
X66433Y-25689D01*
X66357Y-25670D01*
X66319Y-25651D01*
X66281Y-25613D01*
X66262Y-25555D01*
X66262Y-25517D01*
X66281Y-25460D01*
X66300Y-25441D01*
X66662Y-25251D02*
X66662Y-25175D01*
X66643Y-25136D01*
X66624Y-25117D01*
X66567Y-25079D01*
X66490Y-25060D01*
X66338Y-25060D01*
X66300Y-25079D01*
X66281Y-25098D01*
X66262Y-25136D01*
X66262Y-25213D01*
X66281Y-25251D01*
X66300Y-25270D01*
X66338Y-25289D01*
X66433Y-25289D01*
X66471Y-25270D01*
X66490Y-25251D01*
X66510Y-25213D01*
X66510Y-25136D01*
X66490Y-25098D01*
X66471Y-25079D01*
X66433Y-25060D01*
G54D10*
X66262Y-23956D02*
X66262Y-23928D01*
X66281Y-23902D01*
X66300Y-23890D01*
X66338Y-23881D01*
X66414Y-23875D01*
X66510Y-23887D01*
X66586Y-23912D01*
X66624Y-23930D01*
X66643Y-23947D01*
X66662Y-23978D01*
X66662Y-24006D01*
X66643Y-24033D01*
X66624Y-24044D01*
X66586Y-24055D01*
X66510Y-24059D01*
X66414Y-24047D01*
X66338Y-24024D01*
X66300Y-24004D01*
X66281Y-23988D01*
X66262Y-23956D01*
X66624Y-23773D02*
X66643Y-23761D01*
X66662Y-23778D01*
X66643Y-23790D01*
X66624Y-23773D01*
X66662Y-23778D01*
X66662Y-23477D02*
X66662Y-23649D01*
X66662Y-23563D02*
X66262Y-23513D01*
X66319Y-23549D01*
X66357Y-23582D01*
X66376Y-23613D01*
X66395Y-23187D02*
X66662Y-23220D01*
X66395Y-23316D02*
X66605Y-23342D01*
X66643Y-23332D01*
X66662Y-23306D01*
X66662Y-23263D01*
X66643Y-23232D01*
X66624Y-23215D01*
X66452Y-22952D02*
X66452Y-23052D01*
X66662Y-23078D02*
X66262Y-23028D01*
X66262Y-22885D01*
G54D11*
X55124Y-26757D02*
X55143Y-26776D01*
X55162Y-26833D01*
X55162Y-26871D01*
X55143Y-26929D01*
X55105Y-26967D01*
X55067Y-26986D01*
X54990Y-27005D01*
X54933Y-27005D01*
X54857Y-26986D01*
X54819Y-26967D01*
X54781Y-26929D01*
X54762Y-26871D01*
X54762Y-26833D01*
X54781Y-26776D01*
X54800Y-26757D01*
X55162Y-26376D02*
X55162Y-26605D01*
X55162Y-26491D02*
X54762Y-26491D01*
X54819Y-26529D01*
X54857Y-26567D01*
X54876Y-26605D01*
X54762Y-26014D02*
X54762Y-26205D01*
X54952Y-26224D01*
X54933Y-26205D01*
X54914Y-26167D01*
X54914Y-26071D01*
X54933Y-26033D01*
X54952Y-26014D01*
X54990Y-25995D01*
X55086Y-25995D01*
X55124Y-26014D01*
X55143Y-26033D01*
X55162Y-26071D01*
X55162Y-26167D01*
X55143Y-26205D01*
X55124Y-26224D01*
G54D10*
X56662Y-25835D02*
X56662Y-26007D01*
X56662Y-25921D02*
X56262Y-25871D01*
X56319Y-25907D01*
X56357Y-25940D01*
X56376Y-25971D01*
X56262Y-25599D02*
X56262Y-25571D01*
X56281Y-25545D01*
X56300Y-25533D01*
X56338Y-25524D01*
X56414Y-25518D01*
X56510Y-25530D01*
X56586Y-25555D01*
X56624Y-25573D01*
X56643Y-25590D01*
X56662Y-25621D01*
X56662Y-25649D01*
X56643Y-25676D01*
X56624Y-25687D01*
X56586Y-25698D01*
X56510Y-25702D01*
X56414Y-25690D01*
X56338Y-25667D01*
X56300Y-25647D01*
X56281Y-25631D01*
X56262Y-25599D01*
X56395Y-25259D02*
X56662Y-25292D01*
X56395Y-25388D02*
X56605Y-25414D01*
X56643Y-25404D01*
X56662Y-25378D01*
X56662Y-25335D01*
X56643Y-25304D01*
X56624Y-25287D01*
X56452Y-25024D02*
X56452Y-25124D01*
X56662Y-25150D02*
X56262Y-25100D01*
X56262Y-24957D01*
G54D11*
X55510Y-26652D02*
X55510Y-26347D01*
X55662Y-26499D02*
X55357Y-26499D01*
X59993Y-22124D02*
X59974Y-22143D01*
X59917Y-22162D01*
X59879Y-22162D01*
X59821Y-22143D01*
X59783Y-22105D01*
X59764Y-22067D01*
X59745Y-21990D01*
X59745Y-21933D01*
X59764Y-21857D01*
X59783Y-21819D01*
X59821Y-21781D01*
X59879Y-21762D01*
X59917Y-21762D01*
X59974Y-21781D01*
X59993Y-21800D01*
X60145Y-21800D02*
X60164Y-21781D01*
X60202Y-21762D01*
X60298Y-21762D01*
X60336Y-21781D01*
X60355Y-21800D01*
X60374Y-21838D01*
X60374Y-21876D01*
X60355Y-21933D01*
X60126Y-22162D01*
X60374Y-22162D01*
X60621Y-21762D02*
X60660Y-21762D01*
X60698Y-21781D01*
X60717Y-21800D01*
X60736Y-21838D01*
X60755Y-21914D01*
X60755Y-22010D01*
X60736Y-22086D01*
X60717Y-22124D01*
X60698Y-22143D01*
X60660Y-22162D01*
X60621Y-22162D01*
X60583Y-22143D01*
X60564Y-22124D01*
X60545Y-22086D01*
X60526Y-22010D01*
X60526Y-21914D01*
X60545Y-21838D01*
X60564Y-21800D01*
X60583Y-21781D01*
X60621Y-21762D01*
G54D10*
X57669Y-21895D02*
X57636Y-22162D01*
X57617Y-21743D02*
X57509Y-22029D01*
X57695Y-22029D01*
X57815Y-21762D02*
X58015Y-21762D01*
X57836Y-22162D01*
X58112Y-21895D02*
X58079Y-22162D01*
X58107Y-21933D02*
X58125Y-21914D01*
X58155Y-21895D01*
X58198Y-21895D01*
X58225Y-21914D01*
X58234Y-21952D01*
X58208Y-22162D01*
X58476Y-21952D02*
X58376Y-21952D01*
X58350Y-22162D02*
X58400Y-21762D01*
X58543Y-21762D01*
G54D11*
X44743Y-28624D02*
X44724Y-28643D01*
X44667Y-28662D01*
X44629Y-28662D01*
X44571Y-28643D01*
X44533Y-28605D01*
X44514Y-28567D01*
X44495Y-28490D01*
X44495Y-28433D01*
X44514Y-28357D01*
X44533Y-28319D01*
X44571Y-28281D01*
X44629Y-28262D01*
X44667Y-28262D01*
X44724Y-28281D01*
X44743Y-28300D01*
X44895Y-28300D02*
X44914Y-28281D01*
X44952Y-28262D01*
X45048Y-28262D01*
X45086Y-28281D01*
X45105Y-28300D01*
X45124Y-28338D01*
X45124Y-28376D01*
X45105Y-28433D01*
X44876Y-28662D01*
X45124Y-28662D01*
X45467Y-28395D02*
X45467Y-28662D01*
X45371Y-28243D02*
X45276Y-28529D01*
X45524Y-28529D01*
G54D10*
X46598Y-28395D02*
X46565Y-28662D01*
X46546Y-28243D02*
X46438Y-28529D01*
X46624Y-28529D01*
X46727Y-28624D02*
X46739Y-28643D01*
X46722Y-28662D01*
X46710Y-28643D01*
X46727Y-28624D01*
X46722Y-28662D01*
X46887Y-28262D02*
X47087Y-28262D01*
X46908Y-28662D01*
X47184Y-28395D02*
X47151Y-28662D01*
X47179Y-28433D02*
X47197Y-28414D01*
X47227Y-28395D01*
X47270Y-28395D01*
X47297Y-28414D01*
X47306Y-28452D01*
X47280Y-28662D01*
X47548Y-28452D02*
X47448Y-28452D01*
X47422Y-28662D02*
X47472Y-28262D01*
X47615Y-28262D01*
G54D11*
X69124Y-30757D02*
X69143Y-30776D01*
X69162Y-30833D01*
X69162Y-30871D01*
X69143Y-30929D01*
X69105Y-30967D01*
X69067Y-30986D01*
X68990Y-31005D01*
X68933Y-31005D01*
X68857Y-30986D01*
X68819Y-30967D01*
X68781Y-30929D01*
X68762Y-30871D01*
X68762Y-30833D01*
X68781Y-30776D01*
X68800Y-30757D01*
X68800Y-30605D02*
X68781Y-30586D01*
X68762Y-30548D01*
X68762Y-30452D01*
X68781Y-30414D01*
X68800Y-30395D01*
X68838Y-30376D01*
X68876Y-30376D01*
X68933Y-30395D01*
X69162Y-30624D01*
X69162Y-30376D01*
X68762Y-30014D02*
X68762Y-30205D01*
X68952Y-30224D01*
X68933Y-30205D01*
X68914Y-30167D01*
X68914Y-30071D01*
X68933Y-30033D01*
X68952Y-30014D01*
X68990Y-29995D01*
X69086Y-29995D01*
X69124Y-30014D01*
X69143Y-30033D01*
X69162Y-30071D01*
X69162Y-30167D01*
X69143Y-30205D01*
X69124Y-30224D01*
G54D10*
X69162Y-28192D02*
X69162Y-28364D01*
X69162Y-28278D02*
X68762Y-28228D01*
X68819Y-28264D01*
X68857Y-28297D01*
X68876Y-28328D01*
X68895Y-28031D02*
X69162Y-28064D01*
X68933Y-28036D02*
X68914Y-28018D01*
X68895Y-27988D01*
X68895Y-27945D01*
X68914Y-27918D01*
X68952Y-27909D01*
X69162Y-27935D01*
X68952Y-27667D02*
X68952Y-27767D01*
X69162Y-27793D02*
X68762Y-27743D01*
X68762Y-27600D01*
G54D11*
X71124Y-30757D02*
X71143Y-30776D01*
X71162Y-30833D01*
X71162Y-30871D01*
X71143Y-30929D01*
X71105Y-30967D01*
X71067Y-30986D01*
X70990Y-31005D01*
X70933Y-31005D01*
X70857Y-30986D01*
X70819Y-30967D01*
X70781Y-30929D01*
X70762Y-30871D01*
X70762Y-30833D01*
X70781Y-30776D01*
X70800Y-30757D01*
X70800Y-30605D02*
X70781Y-30586D01*
X70762Y-30548D01*
X70762Y-30452D01*
X70781Y-30414D01*
X70800Y-30395D01*
X70838Y-30376D01*
X70876Y-30376D01*
X70933Y-30395D01*
X71162Y-30624D01*
X71162Y-30376D01*
X70762Y-30033D02*
X70762Y-30110D01*
X70781Y-30148D01*
X70800Y-30167D01*
X70857Y-30205D01*
X70933Y-30224D01*
X71086Y-30224D01*
X71124Y-30205D01*
X71143Y-30186D01*
X71162Y-30148D01*
X71162Y-30071D01*
X71143Y-30033D01*
X71124Y-30014D01*
X71086Y-29995D01*
X70990Y-29995D01*
X70952Y-30014D01*
X70933Y-30033D01*
X70914Y-30071D01*
X70914Y-30148D01*
X70933Y-30186D01*
X70952Y-30205D01*
X70990Y-30224D01*
G54D10*
X70800Y-28605D02*
X70781Y-28589D01*
X70762Y-28557D01*
X70762Y-28486D01*
X70781Y-28460D01*
X70800Y-28448D01*
X70838Y-28438D01*
X70876Y-28442D01*
X70933Y-28465D01*
X71162Y-28664D01*
X71162Y-28478D01*
X70762Y-28328D02*
X70762Y-28128D01*
X71162Y-28307D01*
X70762Y-27956D02*
X70762Y-27928D01*
X70781Y-27902D01*
X70800Y-27890D01*
X70838Y-27881D01*
X70914Y-27875D01*
X71010Y-27887D01*
X71086Y-27912D01*
X71124Y-27930D01*
X71143Y-27947D01*
X71162Y-27978D01*
X71162Y-28006D01*
X71143Y-28033D01*
X71124Y-28044D01*
X71086Y-28055D01*
X71010Y-28059D01*
X70914Y-28047D01*
X70838Y-28024D01*
X70800Y-28004D01*
X70781Y-27988D01*
X70762Y-27956D01*
X70895Y-27745D02*
X71295Y-27795D01*
X70914Y-27747D02*
X70895Y-27716D01*
X70895Y-27659D01*
X70914Y-27632D01*
X70933Y-27621D01*
X70971Y-27611D01*
X71086Y-27626D01*
X71124Y-27644D01*
X71143Y-27661D01*
X71162Y-27692D01*
X71162Y-27749D01*
X71143Y-27776D01*
X70952Y-27381D02*
X70952Y-27481D01*
X71162Y-27507D02*
X70762Y-27457D01*
X70762Y-27314D01*
G54D12*
X43119Y-44077D02*
X43119Y-44482D01*
X43143Y-44530D01*
X43167Y-44554D01*
X43214Y-44577D01*
X43310Y-44577D01*
X43357Y-44554D01*
X43381Y-44530D01*
X43405Y-44482D01*
X43405Y-44077D01*
X43619Y-44125D02*
X43643Y-44101D01*
X43691Y-44077D01*
X43810Y-44077D01*
X43857Y-44101D01*
X43881Y-44125D01*
X43905Y-44173D01*
X43905Y-44220D01*
X43881Y-44292D01*
X43595Y-44577D01*
X43905Y-44577D01*
G54D11*
X47546Y-44077D02*
X47813Y-44077D01*
X47578Y-44577D01*
X48116Y-44244D02*
X48074Y-44577D01*
X48043Y-44054D02*
X47904Y-44411D01*
X48152Y-44411D01*
X48474Y-44577D02*
X48283Y-44577D01*
X48346Y-44077D01*
X48591Y-44554D02*
X48645Y-44577D01*
X48741Y-44577D01*
X48782Y-44554D01*
X48804Y-44530D01*
X48829Y-44482D01*
X48835Y-44435D01*
X48822Y-44387D01*
X48806Y-44363D01*
X48771Y-44339D01*
X48697Y-44315D01*
X48662Y-44292D01*
X48646Y-44268D01*
X48633Y-44220D01*
X48639Y-44173D01*
X48664Y-44125D01*
X48686Y-44101D01*
X48727Y-44077D01*
X48823Y-44077D01*
X48877Y-44101D01*
X49198Y-44577D02*
X48969Y-44577D01*
X49083Y-44577D02*
X49146Y-44077D01*
X49099Y-44149D01*
X49055Y-44196D01*
X49014Y-44220D01*
X49394Y-44077D02*
X49642Y-44077D01*
X49484Y-44268D01*
X49542Y-44268D01*
X49577Y-44292D01*
X49593Y-44315D01*
X49606Y-44363D01*
X49591Y-44482D01*
X49566Y-44530D01*
X49544Y-44554D01*
X49503Y-44577D01*
X49388Y-44577D01*
X49353Y-44554D01*
X49337Y-44530D01*
X49843Y-44292D02*
X49808Y-44268D01*
X49792Y-44244D01*
X49779Y-44196D01*
X49782Y-44173D01*
X49807Y-44125D01*
X49829Y-44101D01*
X49870Y-44077D01*
X49947Y-44077D01*
X49982Y-44101D01*
X49998Y-44125D01*
X50011Y-44173D01*
X50008Y-44196D01*
X49983Y-44244D01*
X49961Y-44268D01*
X49920Y-44292D01*
X49843Y-44292D01*
X49802Y-44315D01*
X49780Y-44339D01*
X49755Y-44387D01*
X49743Y-44482D01*
X49756Y-44530D01*
X49772Y-44554D01*
X49807Y-44577D01*
X49884Y-44577D01*
X49925Y-44554D01*
X49947Y-44530D01*
X49972Y-44482D01*
X49984Y-44387D01*
X49971Y-44339D01*
X49955Y-44315D01*
X49920Y-44292D01*
G54D12*
X53119Y-44077D02*
X53119Y-44482D01*
X53143Y-44530D01*
X53167Y-44554D01*
X53214Y-44577D01*
X53310Y-44577D01*
X53357Y-44554D01*
X53381Y-44530D01*
X53405Y-44482D01*
X53405Y-44077D01*
X53595Y-44077D02*
X53905Y-44077D01*
X53738Y-44268D01*
X53810Y-44268D01*
X53857Y-44292D01*
X53881Y-44315D01*
X53905Y-44363D01*
X53905Y-44482D01*
X53881Y-44530D01*
X53857Y-44554D01*
X53810Y-44577D01*
X53667Y-44577D01*
X53619Y-44554D01*
X53595Y-44530D01*
G54D11*
X57546Y-44077D02*
X57813Y-44077D01*
X57578Y-44577D01*
X58116Y-44244D02*
X58074Y-44577D01*
X58043Y-44054D02*
X57904Y-44411D01*
X58152Y-44411D01*
X58474Y-44577D02*
X58283Y-44577D01*
X58346Y-44077D01*
X58591Y-44554D02*
X58645Y-44577D01*
X58741Y-44577D01*
X58782Y-44554D01*
X58804Y-44530D01*
X58829Y-44482D01*
X58835Y-44435D01*
X58822Y-44387D01*
X58806Y-44363D01*
X58771Y-44339D01*
X58697Y-44315D01*
X58662Y-44292D01*
X58646Y-44268D01*
X58633Y-44220D01*
X58639Y-44173D01*
X58664Y-44125D01*
X58686Y-44101D01*
X58727Y-44077D01*
X58823Y-44077D01*
X58877Y-44101D01*
X59198Y-44577D02*
X58969Y-44577D01*
X59083Y-44577D02*
X59146Y-44077D01*
X59099Y-44149D01*
X59055Y-44196D01*
X59014Y-44220D01*
X59394Y-44077D02*
X59642Y-44077D01*
X59484Y-44268D01*
X59542Y-44268D01*
X59577Y-44292D01*
X59593Y-44315D01*
X59606Y-44363D01*
X59591Y-44482D01*
X59566Y-44530D01*
X59544Y-44554D01*
X59503Y-44577D01*
X59388Y-44577D01*
X59353Y-44554D01*
X59337Y-44530D01*
X59843Y-44292D02*
X59808Y-44268D01*
X59792Y-44244D01*
X59779Y-44196D01*
X59782Y-44173D01*
X59807Y-44125D01*
X59829Y-44101D01*
X59870Y-44077D01*
X59947Y-44077D01*
X59982Y-44101D01*
X59998Y-44125D01*
X60011Y-44173D01*
X60008Y-44196D01*
X59983Y-44244D01*
X59961Y-44268D01*
X59920Y-44292D01*
X59843Y-44292D01*
X59802Y-44315D01*
X59780Y-44339D01*
X59755Y-44387D01*
X59743Y-44482D01*
X59756Y-44530D01*
X59772Y-44554D01*
X59807Y-44577D01*
X59884Y-44577D01*
X59925Y-44554D01*
X59947Y-44530D01*
X59972Y-44482D01*
X59984Y-44387D01*
X59971Y-44339D01*
X59955Y-44315D01*
X59920Y-44292D01*
G54D12*
X53619Y-37077D02*
X53619Y-37482D01*
X53643Y-37530D01*
X53667Y-37554D01*
X53714Y-37577D01*
X53810Y-37577D01*
X53857Y-37554D01*
X53881Y-37530D01*
X53905Y-37482D01*
X53905Y-37077D01*
X54381Y-37077D02*
X54143Y-37077D01*
X54119Y-37315D01*
X54143Y-37292D01*
X54191Y-37268D01*
X54310Y-37268D01*
X54357Y-37292D01*
X54381Y-37315D01*
X54405Y-37363D01*
X54405Y-37482D01*
X54381Y-37530D01*
X54357Y-37554D01*
X54310Y-37577D01*
X54191Y-37577D01*
X54143Y-37554D01*
X54119Y-37530D01*
G54D11*
X57487Y-32452D02*
X57754Y-32452D01*
X57519Y-32952D01*
X58057Y-32619D02*
X58015Y-32952D01*
X57984Y-32429D02*
X57845Y-32786D01*
X58093Y-32786D01*
X58415Y-32952D02*
X58224Y-32952D01*
X58287Y-32452D01*
X58532Y-32929D02*
X58586Y-32952D01*
X58682Y-32952D01*
X58723Y-32929D01*
X58745Y-32905D01*
X58770Y-32857D01*
X58776Y-32810D01*
X58763Y-32762D01*
X58747Y-32738D01*
X58712Y-32714D01*
X58638Y-32690D01*
X58603Y-32667D01*
X58587Y-32643D01*
X58574Y-32595D01*
X58580Y-32548D01*
X58605Y-32500D01*
X58627Y-32476D01*
X58668Y-32452D01*
X58764Y-32452D01*
X58818Y-32476D01*
X59068Y-32452D02*
X59107Y-32452D01*
X59142Y-32476D01*
X59158Y-32500D01*
X59171Y-32548D01*
X59178Y-32643D01*
X59163Y-32762D01*
X59132Y-32857D01*
X59107Y-32905D01*
X59085Y-32929D01*
X59044Y-32952D01*
X59005Y-32952D01*
X58970Y-32929D01*
X58954Y-32905D01*
X58941Y-32857D01*
X58934Y-32762D01*
X58949Y-32643D01*
X58980Y-32548D01*
X59005Y-32500D01*
X59027Y-32476D01*
X59068Y-32452D01*
X59524Y-32619D02*
X59482Y-32952D01*
X59451Y-32429D02*
X59312Y-32786D01*
X59560Y-32786D01*
G54D12*
X63119Y-39077D02*
X63119Y-39482D01*
X63143Y-39530D01*
X63167Y-39554D01*
X63214Y-39577D01*
X63310Y-39577D01*
X63357Y-39554D01*
X63381Y-39530D01*
X63405Y-39482D01*
X63405Y-39077D01*
X63857Y-39077D02*
X63762Y-39077D01*
X63714Y-39101D01*
X63691Y-39125D01*
X63643Y-39196D01*
X63619Y-39292D01*
X63619Y-39482D01*
X63643Y-39530D01*
X63667Y-39554D01*
X63714Y-39577D01*
X63810Y-39577D01*
X63857Y-39554D01*
X63881Y-39530D01*
X63905Y-39482D01*
X63905Y-39363D01*
X63881Y-39315D01*
X63857Y-39292D01*
X63810Y-39268D01*
X63714Y-39268D01*
X63667Y-39292D01*
X63643Y-39315D01*
X63619Y-39363D01*
G54D11*
X72020Y-39339D02*
X71990Y-39577D01*
X71920Y-39077D02*
X72020Y-39339D01*
X72187Y-39077D01*
X72257Y-39577D02*
X72320Y-39077D01*
X72409Y-39435D01*
X72587Y-39077D01*
X72524Y-39577D01*
X72739Y-39077D02*
X72987Y-39077D01*
X72829Y-39268D01*
X72887Y-39268D01*
X72922Y-39292D01*
X72938Y-39315D01*
X72951Y-39363D01*
X72936Y-39482D01*
X72911Y-39530D01*
X72889Y-39554D01*
X72848Y-39577D01*
X72733Y-39577D01*
X72698Y-39554D01*
X72682Y-39530D01*
X73188Y-39292D02*
X73153Y-39268D01*
X73137Y-39244D01*
X73124Y-39196D01*
X73127Y-39173D01*
X73152Y-39125D01*
X73174Y-39101D01*
X73215Y-39077D01*
X73292Y-39077D01*
X73327Y-39101D01*
X73343Y-39125D01*
X73356Y-39173D01*
X73353Y-39196D01*
X73328Y-39244D01*
X73306Y-39268D01*
X73265Y-39292D01*
X73188Y-39292D01*
X73147Y-39315D01*
X73125Y-39339D01*
X73100Y-39387D01*
X73088Y-39482D01*
X73101Y-39530D01*
X73117Y-39554D01*
X73152Y-39577D01*
X73229Y-39577D01*
X73270Y-39554D01*
X73292Y-39530D01*
X73317Y-39482D01*
X73329Y-39387D01*
X73316Y-39339D01*
X73300Y-39315D01*
X73265Y-39292D01*
X73686Y-39577D02*
X73457Y-39577D01*
X73571Y-39577D02*
X73634Y-39077D01*
X73587Y-39149D01*
X73543Y-39196D01*
X73502Y-39220D01*
X73895Y-39125D02*
X73917Y-39101D01*
X73958Y-39077D01*
X74054Y-39077D01*
X74089Y-39101D01*
X74105Y-39125D01*
X74118Y-39173D01*
X74112Y-39220D01*
X74084Y-39292D01*
X73819Y-39577D01*
X74067Y-39577D01*
G54D12*
X61744Y-31077D02*
X61744Y-31482D01*
X61768Y-31530D01*
X61792Y-31554D01*
X61839Y-31577D01*
X61935Y-31577D01*
X61982Y-31554D01*
X62006Y-31530D01*
X62030Y-31482D01*
X62030Y-31077D01*
X62220Y-31077D02*
X62554Y-31077D01*
X62339Y-31577D01*
G54D11*
X63299Y-31339D02*
X63269Y-31577D01*
X63199Y-31077D02*
X63299Y-31339D01*
X63466Y-31077D01*
X63561Y-31077D02*
X63809Y-31077D01*
X63651Y-31268D01*
X63709Y-31268D01*
X63744Y-31292D01*
X63760Y-31315D01*
X63773Y-31363D01*
X63758Y-31482D01*
X63733Y-31530D01*
X63711Y-31554D01*
X63670Y-31577D01*
X63555Y-31577D01*
X63520Y-31554D01*
X63504Y-31530D01*
X64056Y-31077D02*
X64095Y-31077D01*
X64130Y-31101D01*
X64146Y-31125D01*
X64159Y-31173D01*
X64166Y-31268D01*
X64151Y-31387D01*
X64120Y-31482D01*
X64095Y-31530D01*
X64073Y-31554D01*
X64032Y-31577D01*
X63993Y-31577D01*
X63958Y-31554D01*
X63942Y-31530D01*
X63929Y-31482D01*
X63922Y-31387D01*
X63937Y-31268D01*
X63968Y-31173D01*
X63993Y-31125D01*
X64015Y-31101D01*
X64056Y-31077D01*
X64508Y-31577D02*
X64279Y-31577D01*
X64393Y-31577D02*
X64456Y-31077D01*
X64409Y-31149D01*
X64365Y-31196D01*
X64324Y-31220D01*
X64893Y-31244D02*
X64851Y-31577D01*
X64820Y-31054D02*
X64681Y-31411D01*
X64929Y-31411D01*
X65227Y-31315D02*
X65281Y-31339D01*
X65297Y-31363D01*
X65310Y-31411D01*
X65301Y-31482D01*
X65276Y-31530D01*
X65254Y-31554D01*
X65213Y-31577D01*
X65060Y-31577D01*
X65123Y-31077D01*
X65257Y-31077D01*
X65292Y-31101D01*
X65308Y-31125D01*
X65321Y-31173D01*
X65315Y-31220D01*
X65290Y-31268D01*
X65268Y-31292D01*
X65227Y-31315D01*
X65093Y-31315D01*
G54D12*
X50494Y-31077D02*
X50494Y-31482D01*
X50518Y-31530D01*
X50542Y-31554D01*
X50589Y-31577D01*
X50685Y-31577D01*
X50732Y-31554D01*
X50756Y-31530D01*
X50780Y-31482D01*
X50780Y-31077D01*
X51089Y-31292D02*
X51042Y-31268D01*
X51018Y-31244D01*
X50994Y-31196D01*
X50994Y-31173D01*
X51018Y-31125D01*
X51042Y-31101D01*
X51089Y-31077D01*
X51185Y-31077D01*
X51232Y-31101D01*
X51256Y-31125D01*
X51280Y-31173D01*
X51280Y-31196D01*
X51256Y-31244D01*
X51232Y-31268D01*
X51185Y-31292D01*
X51089Y-31292D01*
X51042Y-31315D01*
X51018Y-31339D01*
X50994Y-31387D01*
X50994Y-31482D01*
X51018Y-31530D01*
X51042Y-31554D01*
X51089Y-31577D01*
X51185Y-31577D01*
X51232Y-31554D01*
X51256Y-31530D01*
X51280Y-31482D01*
X51280Y-31387D01*
X51256Y-31339D01*
X51232Y-31315D01*
X51185Y-31292D01*
G54D11*
X54518Y-31577D02*
X54414Y-31339D01*
X54289Y-31577D02*
X54352Y-31077D01*
X54505Y-31077D01*
X54540Y-31101D01*
X54556Y-31125D01*
X54569Y-31173D01*
X54560Y-31244D01*
X54535Y-31292D01*
X54513Y-31315D01*
X54472Y-31339D01*
X54319Y-31339D01*
X54924Y-31530D02*
X54902Y-31554D01*
X54842Y-31577D01*
X54804Y-31577D01*
X54749Y-31554D01*
X54717Y-31506D01*
X54704Y-31458D01*
X54697Y-31363D01*
X54706Y-31292D01*
X54737Y-31196D01*
X54762Y-31149D01*
X54806Y-31101D01*
X54867Y-31077D01*
X54905Y-31077D01*
X54959Y-31101D01*
X54975Y-31125D01*
X55303Y-31244D02*
X55261Y-31577D01*
X55230Y-31054D02*
X55091Y-31411D01*
X55339Y-31411D01*
X55680Y-31577D02*
X55451Y-31577D01*
X55565Y-31577D02*
X55628Y-31077D01*
X55581Y-31149D01*
X55537Y-31196D01*
X55496Y-31220D01*
X55876Y-31077D02*
X56124Y-31077D01*
X55966Y-31268D01*
X56024Y-31268D01*
X56059Y-31292D01*
X56075Y-31315D01*
X56088Y-31363D01*
X56073Y-31482D01*
X56048Y-31530D01*
X56026Y-31554D01*
X55985Y-31577D01*
X55870Y-31577D01*
X55835Y-31554D01*
X55819Y-31530D01*
X56467Y-31077D02*
X56390Y-31077D01*
X56349Y-31101D01*
X56327Y-31125D01*
X56280Y-31196D01*
X56249Y-31292D01*
X56225Y-31482D01*
X56238Y-31530D01*
X56254Y-31554D01*
X56289Y-31577D01*
X56366Y-31577D01*
X56407Y-31554D01*
X56429Y-31530D01*
X56454Y-31482D01*
X56469Y-31363D01*
X56456Y-31315D01*
X56440Y-31292D01*
X56405Y-31268D01*
X56328Y-31268D01*
X56287Y-31292D01*
X56265Y-31315D01*
X56240Y-31363D01*
G54D12*
X61744Y-20952D02*
X61744Y-21357D01*
X61768Y-21405D01*
X61792Y-21429D01*
X61839Y-21452D01*
X61935Y-21452D01*
X61982Y-21429D01*
X62006Y-21405D01*
X62030Y-21357D01*
X62030Y-20952D01*
X62292Y-21452D02*
X62387Y-21452D01*
X62435Y-21429D01*
X62459Y-21405D01*
X62506Y-21333D01*
X62530Y-21238D01*
X62530Y-21048D01*
X62506Y-21000D01*
X62482Y-20976D01*
X62435Y-20952D01*
X62339Y-20952D01*
X62292Y-20976D01*
X62268Y-21000D01*
X62244Y-21048D01*
X62244Y-21167D01*
X62268Y-21214D01*
X62292Y-21238D01*
X62339Y-21262D01*
X62435Y-21262D01*
X62482Y-21238D01*
X62506Y-21214D01*
X62530Y-21167D01*
G54D11*
X63555Y-21452D02*
X63364Y-21452D01*
X63427Y-20952D01*
X63688Y-21452D02*
X63751Y-20952D01*
X63840Y-21310D01*
X64018Y-20952D01*
X63955Y-21452D01*
X64170Y-20952D02*
X64418Y-20952D01*
X64260Y-21143D01*
X64318Y-21143D01*
X64353Y-21167D01*
X64369Y-21190D01*
X64382Y-21238D01*
X64367Y-21357D01*
X64342Y-21405D01*
X64320Y-21429D01*
X64279Y-21452D01*
X64164Y-21452D01*
X64129Y-21429D01*
X64113Y-21405D01*
X64619Y-21167D02*
X64584Y-21143D01*
X64568Y-21119D01*
X64555Y-21071D01*
X64558Y-21048D01*
X64583Y-21000D01*
X64605Y-20976D01*
X64646Y-20952D01*
X64723Y-20952D01*
X64758Y-20976D01*
X64774Y-21000D01*
X64787Y-21048D01*
X64784Y-21071D01*
X64759Y-21119D01*
X64737Y-21143D01*
X64696Y-21167D01*
X64619Y-21167D01*
X64578Y-21190D01*
X64556Y-21214D01*
X64531Y-21262D01*
X64519Y-21357D01*
X64532Y-21405D01*
X64548Y-21429D01*
X64583Y-21452D01*
X64660Y-21452D01*
X64701Y-21429D01*
X64723Y-21405D01*
X64748Y-21357D01*
X64760Y-21262D01*
X64747Y-21214D01*
X64731Y-21190D01*
X64696Y-21167D01*
X65142Y-20952D02*
X65065Y-20952D01*
X65024Y-20976D01*
X65002Y-21000D01*
X64955Y-21071D01*
X64924Y-21167D01*
X64900Y-21357D01*
X64913Y-21405D01*
X64929Y-21429D01*
X64964Y-21452D01*
X65041Y-21452D01*
X65082Y-21429D01*
X65104Y-21405D01*
X65129Y-21357D01*
X65144Y-21238D01*
X65131Y-21190D01*
X65115Y-21167D01*
X65080Y-21143D01*
X65003Y-21143D01*
X64962Y-21167D01*
X64940Y-21190D01*
X64915Y-21238D01*
G54D12*
X45554Y-21280D02*
X45530Y-21304D01*
X45459Y-21327D01*
X45411Y-21327D01*
X45339Y-21304D01*
X45292Y-21256D01*
X45268Y-21208D01*
X45244Y-21113D01*
X45244Y-21042D01*
X45268Y-20946D01*
X45292Y-20899D01*
X45339Y-20851D01*
X45411Y-20827D01*
X45459Y-20827D01*
X45530Y-20851D01*
X45554Y-20875D01*
X46030Y-21327D02*
X45744Y-21327D01*
X45887Y-21327D02*
X45887Y-20827D01*
X45839Y-20899D01*
X45792Y-20946D01*
X45744Y-20970D01*
X46315Y-21042D02*
X46268Y-21018D01*
X46244Y-20994D01*
X46220Y-20946D01*
X46220Y-20923D01*
X46244Y-20875D01*
X46268Y-20851D01*
X46315Y-20827D01*
X46411Y-20827D01*
X46458Y-20851D01*
X46482Y-20875D01*
X46506Y-20923D01*
X46506Y-20946D01*
X46482Y-20994D01*
X46458Y-21018D01*
X46411Y-21042D01*
X46315Y-21042D01*
X46268Y-21065D01*
X46244Y-21089D01*
X46220Y-21137D01*
X46220Y-21232D01*
X46244Y-21280D01*
X46268Y-21304D01*
X46315Y-21327D01*
X46411Y-21327D01*
X46458Y-21304D01*
X46482Y-21280D01*
X46506Y-21232D01*
X46506Y-21137D01*
X46482Y-21089D01*
X46458Y-21065D01*
X46411Y-21042D01*
G54D11*
X49815Y-21750D02*
X49837Y-21726D01*
X49878Y-21702D01*
X49974Y-21702D01*
X50009Y-21726D01*
X50025Y-21750D01*
X50038Y-21798D01*
X50032Y-21845D01*
X50004Y-21917D01*
X49739Y-22202D01*
X49987Y-22202D01*
X50196Y-21750D02*
X50218Y-21726D01*
X50259Y-21702D01*
X50355Y-21702D01*
X50390Y-21726D01*
X50406Y-21750D01*
X50419Y-21798D01*
X50413Y-21845D01*
X50385Y-21917D01*
X50120Y-22202D01*
X50368Y-22202D01*
X50678Y-21702D02*
X50717Y-21702D01*
X50752Y-21726D01*
X50768Y-21750D01*
X50781Y-21798D01*
X50788Y-21893D01*
X50773Y-22012D01*
X50742Y-22107D01*
X50717Y-22155D01*
X50695Y-22179D01*
X50654Y-22202D01*
X50615Y-22202D01*
X50580Y-22179D01*
X50564Y-22155D01*
X50551Y-22107D01*
X50544Y-22012D01*
X50559Y-21893D01*
X50590Y-21798D01*
X50615Y-21750D01*
X50637Y-21726D01*
X50678Y-21702D01*
X51134Y-21869D02*
X51092Y-22202D01*
X50962Y-21869D02*
X50929Y-22131D01*
X50942Y-22179D01*
X50977Y-22202D01*
X51035Y-22202D01*
X51076Y-22179D01*
X51098Y-22155D01*
X51449Y-21940D02*
X51315Y-21940D01*
X51282Y-22202D02*
X51345Y-21702D01*
X51536Y-21702D01*
G54D13*
X54272Y-22814D02*
X54729Y-22814D01*
X54500Y-23043D02*
X54500Y-22586D01*
G54D11*
X44330Y-24662D02*
X44330Y-24262D01*
X44425Y-24262D01*
X44483Y-24281D01*
X44521Y-24319D01*
X44540Y-24357D01*
X44559Y-24433D01*
X44559Y-24490D01*
X44540Y-24567D01*
X44521Y-24605D01*
X44483Y-24643D01*
X44425Y-24662D01*
X44330Y-24662D01*
X44940Y-24662D02*
X44711Y-24662D01*
X44825Y-24662D02*
X44825Y-24262D01*
X44787Y-24319D01*
X44749Y-24357D01*
X44711Y-24376D01*
G54D10*
X45468Y-23912D02*
X45296Y-23912D01*
X45382Y-23912D02*
X45432Y-23512D01*
X45396Y-23569D01*
X45363Y-23607D01*
X45332Y-23626D01*
X45596Y-23912D02*
X45646Y-23512D01*
X45768Y-23912D01*
X45818Y-23512D01*
X46072Y-23645D02*
X46039Y-23912D01*
X46020Y-23493D02*
X45912Y-23779D01*
X46098Y-23779D01*
X46354Y-23912D02*
X46182Y-23912D01*
X46268Y-23912D02*
X46318Y-23512D01*
X46282Y-23569D01*
X46249Y-23607D01*
X46218Y-23626D01*
X46644Y-23645D02*
X46611Y-23912D01*
X46592Y-23493D02*
X46484Y-23779D01*
X46670Y-23779D01*
X46839Y-23683D02*
X46814Y-23664D01*
X46801Y-23645D01*
X46792Y-23607D01*
X46794Y-23588D01*
X46813Y-23550D01*
X46830Y-23531D01*
X46861Y-23512D01*
X46918Y-23512D01*
X46944Y-23531D01*
X46956Y-23550D01*
X46966Y-23588D01*
X46964Y-23607D01*
X46944Y-23645D01*
X46928Y-23664D01*
X46896Y-23683D01*
X46839Y-23683D01*
X46809Y-23702D01*
X46792Y-23721D01*
X46773Y-23760D01*
X46763Y-23836D01*
X46773Y-23874D01*
X46785Y-23893D01*
X46811Y-23912D01*
X46868Y-23912D01*
X46899Y-23893D01*
X46916Y-23874D01*
X46935Y-23836D01*
X46945Y-23760D01*
X46935Y-23721D01*
X46923Y-23702D01*
X46896Y-23683D01*
G54D11*
X49184Y-30662D02*
X49050Y-30471D01*
X48955Y-30662D02*
X48955Y-30262D01*
X49108Y-30262D01*
X49146Y-30281D01*
X49165Y-30300D01*
X49184Y-30338D01*
X49184Y-30395D01*
X49165Y-30433D01*
X49146Y-30452D01*
X49108Y-30471D01*
X48955Y-30471D01*
X49565Y-30662D02*
X49336Y-30662D01*
X49450Y-30662D02*
X49450Y-30262D01*
X49412Y-30319D01*
X49374Y-30357D01*
X49336Y-30376D01*
G54D10*
X46808Y-30662D02*
X46636Y-30662D01*
X46722Y-30662D02*
X46772Y-30262D01*
X46736Y-30319D01*
X46703Y-30357D01*
X46672Y-30376D01*
X46967Y-30300D02*
X46983Y-30281D01*
X47015Y-30262D01*
X47086Y-30262D01*
X47112Y-30281D01*
X47124Y-30300D01*
X47134Y-30338D01*
X47130Y-30376D01*
X47107Y-30433D01*
X46908Y-30662D01*
X47094Y-30662D01*
X47222Y-30662D02*
X47272Y-30262D01*
X47270Y-30510D02*
X47337Y-30662D01*
X47370Y-30395D02*
X47236Y-30548D01*
G54D11*
X48934Y-29037D02*
X48800Y-28846D01*
X48705Y-29037D02*
X48705Y-28637D01*
X48858Y-28637D01*
X48896Y-28656D01*
X48915Y-28675D01*
X48934Y-28713D01*
X48934Y-28770D01*
X48915Y-28808D01*
X48896Y-28827D01*
X48858Y-28846D01*
X48705Y-28846D01*
X49086Y-28675D02*
X49105Y-28656D01*
X49143Y-28637D01*
X49239Y-28637D01*
X49277Y-28656D01*
X49296Y-28675D01*
X49315Y-28713D01*
X49315Y-28751D01*
X49296Y-28808D01*
X49067Y-29037D01*
X49315Y-29037D01*
G54D10*
X46808Y-29662D02*
X46636Y-29662D01*
X46722Y-29662D02*
X46772Y-29262D01*
X46736Y-29319D01*
X46703Y-29357D01*
X46672Y-29376D01*
X47044Y-29262D02*
X47072Y-29262D01*
X47098Y-29281D01*
X47110Y-29300D01*
X47119Y-29338D01*
X47125Y-29414D01*
X47113Y-29510D01*
X47088Y-29586D01*
X47070Y-29624D01*
X47053Y-29643D01*
X47022Y-29662D01*
X46994Y-29662D01*
X46967Y-29643D01*
X46956Y-29624D01*
X46945Y-29586D01*
X46941Y-29510D01*
X46953Y-29414D01*
X46976Y-29338D01*
X46996Y-29300D01*
X47012Y-29281D01*
X47044Y-29262D01*
X47222Y-29662D02*
X47272Y-29262D01*
X47270Y-29510D02*
X47337Y-29662D01*
X47370Y-29395D02*
X47236Y-29548D01*
G54D11*
X49184Y-26662D02*
X49050Y-26471D01*
X48955Y-26662D02*
X48955Y-26262D01*
X49108Y-26262D01*
X49146Y-26281D01*
X49165Y-26300D01*
X49184Y-26338D01*
X49184Y-26395D01*
X49165Y-26433D01*
X49146Y-26452D01*
X49108Y-26471D01*
X48955Y-26471D01*
X49317Y-26262D02*
X49565Y-26262D01*
X49431Y-26414D01*
X49489Y-26414D01*
X49527Y-26433D01*
X49546Y-26452D01*
X49565Y-26490D01*
X49565Y-26586D01*
X49546Y-26624D01*
X49527Y-26643D01*
X49489Y-26662D01*
X49374Y-26662D01*
X49336Y-26643D01*
X49317Y-26624D01*
G54D10*
X46808Y-26662D02*
X46636Y-26662D01*
X46722Y-26662D02*
X46772Y-26262D01*
X46736Y-26319D01*
X46703Y-26357D01*
X46672Y-26376D01*
X47044Y-26262D02*
X47072Y-26262D01*
X47098Y-26281D01*
X47110Y-26300D01*
X47119Y-26338D01*
X47125Y-26414D01*
X47113Y-26510D01*
X47088Y-26586D01*
X47070Y-26624D01*
X47053Y-26643D01*
X47022Y-26662D01*
X46994Y-26662D01*
X46967Y-26643D01*
X46956Y-26624D01*
X46945Y-26586D01*
X46941Y-26510D01*
X46953Y-26414D01*
X46976Y-26338D01*
X46996Y-26300D01*
X47012Y-26281D01*
X47044Y-26262D01*
X47222Y-26662D02*
X47272Y-26262D01*
X47270Y-26510D02*
X47337Y-26662D01*
X47370Y-26395D02*
X47236Y-26548D01*
G54D11*
X68162Y-30566D02*
X67971Y-30700D01*
X68162Y-30795D02*
X67762Y-30795D01*
X67762Y-30642D01*
X67781Y-30604D01*
X67800Y-30585D01*
X67838Y-30566D01*
X67895Y-30566D01*
X67933Y-30585D01*
X67952Y-30604D01*
X67971Y-30642D01*
X67971Y-30795D01*
X67895Y-30223D02*
X68162Y-30223D01*
X67743Y-30319D02*
X68029Y-30414D01*
X68029Y-30166D01*
G54D10*
X67162Y-28192D02*
X67162Y-28364D01*
X67162Y-28278D02*
X66762Y-28228D01*
X66819Y-28264D01*
X66857Y-28297D01*
X66876Y-28328D01*
X66762Y-27956D02*
X66762Y-27928D01*
X66781Y-27902D01*
X66800Y-27890D01*
X66838Y-27881D01*
X66914Y-27875D01*
X67010Y-27887D01*
X67086Y-27912D01*
X67124Y-27930D01*
X67143Y-27947D01*
X67162Y-27978D01*
X67162Y-28006D01*
X67143Y-28033D01*
X67124Y-28044D01*
X67086Y-28055D01*
X67010Y-28059D01*
X66914Y-28047D01*
X66838Y-28024D01*
X66800Y-28004D01*
X66781Y-27988D01*
X66762Y-27956D01*
X67162Y-27778D02*
X66762Y-27728D01*
X67010Y-27730D02*
X67162Y-27663D01*
X66895Y-27630D02*
X67048Y-27764D01*
G54D11*
X69809Y-23162D02*
X69675Y-22971D01*
X69580Y-23162D02*
X69580Y-22762D01*
X69733Y-22762D01*
X69771Y-22781D01*
X69790Y-22800D01*
X69809Y-22838D01*
X69809Y-22895D01*
X69790Y-22933D01*
X69771Y-22952D01*
X69733Y-22971D01*
X69580Y-22971D01*
X70171Y-22762D02*
X69980Y-22762D01*
X69961Y-22952D01*
X69980Y-22933D01*
X70018Y-22914D01*
X70114Y-22914D01*
X70152Y-22933D01*
X70171Y-22952D01*
X70190Y-22990D01*
X70190Y-23086D01*
X70171Y-23124D01*
X70152Y-23143D01*
X70114Y-23162D01*
X70018Y-23162D01*
X69980Y-23143D01*
X69961Y-23124D01*
G54D10*
X72308Y-23162D02*
X72136Y-23162D01*
X72222Y-23162D02*
X72272Y-22762D01*
X72236Y-22819D01*
X72203Y-22857D01*
X72172Y-22876D01*
X72544Y-22762D02*
X72572Y-22762D01*
X72598Y-22781D01*
X72610Y-22800D01*
X72619Y-22838D01*
X72625Y-22914D01*
X72613Y-23010D01*
X72588Y-23086D01*
X72570Y-23124D01*
X72553Y-23143D01*
X72522Y-23162D01*
X72494Y-23162D01*
X72467Y-23143D01*
X72456Y-23124D01*
X72445Y-23086D01*
X72441Y-23010D01*
X72453Y-22914D01*
X72476Y-22838D01*
X72496Y-22800D01*
X72512Y-22781D01*
X72544Y-22762D01*
X72722Y-23162D02*
X72772Y-22762D01*
X72770Y-23010D02*
X72837Y-23162D01*
X72870Y-22895D02*
X72736Y-23048D01*
G54D11*
X70162Y-30566D02*
X69971Y-30700D01*
X70162Y-30795D02*
X69762Y-30795D01*
X69762Y-30642D01*
X69781Y-30604D01*
X69800Y-30585D01*
X69838Y-30566D01*
X69895Y-30566D01*
X69933Y-30585D01*
X69952Y-30604D01*
X69971Y-30642D01*
X69971Y-30795D01*
X69762Y-30223D02*
X69762Y-30300D01*
X69781Y-30338D01*
X69800Y-30357D01*
X69857Y-30395D01*
X69933Y-30414D01*
X70086Y-30414D01*
X70124Y-30395D01*
X70143Y-30376D01*
X70162Y-30338D01*
X70162Y-30261D01*
X70143Y-30223D01*
X70124Y-30204D01*
X70086Y-30185D01*
X69990Y-30185D01*
X69952Y-30204D01*
X69933Y-30223D01*
X69914Y-30261D01*
X69914Y-30338D01*
X69933Y-30376D01*
X69952Y-30395D01*
X69990Y-30414D01*
G54D10*
X69933Y-28351D02*
X69914Y-28376D01*
X69895Y-28389D01*
X69857Y-28398D01*
X69838Y-28396D01*
X69800Y-28377D01*
X69781Y-28360D01*
X69762Y-28329D01*
X69762Y-28272D01*
X69781Y-28246D01*
X69800Y-28234D01*
X69838Y-28224D01*
X69857Y-28226D01*
X69895Y-28246D01*
X69914Y-28262D01*
X69933Y-28294D01*
X69933Y-28351D01*
X69952Y-28381D01*
X69971Y-28398D01*
X70010Y-28417D01*
X70086Y-28427D01*
X70124Y-28417D01*
X70143Y-28405D01*
X70162Y-28379D01*
X70162Y-28322D01*
X70143Y-28291D01*
X70124Y-28274D01*
X70086Y-28255D01*
X70010Y-28245D01*
X69971Y-28255D01*
X69952Y-28267D01*
X69933Y-28294D01*
X70124Y-28131D02*
X70143Y-28119D01*
X70162Y-28136D01*
X70143Y-28148D01*
X70124Y-28131D01*
X70162Y-28136D01*
X69800Y-27962D02*
X69781Y-27946D01*
X69762Y-27914D01*
X69762Y-27843D01*
X69781Y-27817D01*
X69800Y-27805D01*
X69838Y-27795D01*
X69876Y-27799D01*
X69933Y-27822D01*
X70162Y-28021D01*
X70162Y-27835D01*
X70162Y-27707D02*
X69762Y-27657D01*
X70010Y-27659D02*
X70162Y-27592D01*
X69895Y-27559D02*
X70048Y-27693D01*
G54D11*
X52934Y-39412D02*
X52800Y-39221D01*
X52705Y-39412D02*
X52705Y-39012D01*
X52858Y-39012D01*
X52896Y-39031D01*
X52915Y-39050D01*
X52934Y-39088D01*
X52934Y-39145D01*
X52915Y-39183D01*
X52896Y-39202D01*
X52858Y-39221D01*
X52705Y-39221D01*
X53067Y-39012D02*
X53334Y-39012D01*
X53162Y-39412D01*
G54D10*
X52609Y-38300D02*
X52625Y-38281D01*
X52657Y-38262D01*
X52728Y-38262D01*
X52754Y-38281D01*
X52766Y-38300D01*
X52776Y-38338D01*
X52772Y-38376D01*
X52749Y-38433D01*
X52550Y-38662D01*
X52736Y-38662D01*
X52869Y-38624D02*
X52881Y-38643D01*
X52864Y-38662D01*
X52852Y-38643D01*
X52869Y-38624D01*
X52864Y-38662D01*
X53038Y-38300D02*
X53054Y-38281D01*
X53086Y-38262D01*
X53157Y-38262D01*
X53183Y-38281D01*
X53195Y-38300D01*
X53205Y-38338D01*
X53201Y-38376D01*
X53178Y-38433D01*
X52979Y-38662D01*
X53165Y-38662D01*
X53293Y-38662D02*
X53343Y-38262D01*
X53341Y-38510D02*
X53408Y-38662D01*
X53441Y-38395D02*
X53307Y-38548D01*
G54D11*
X40559Y-29662D02*
X40425Y-29471D01*
X40330Y-29662D02*
X40330Y-29262D01*
X40483Y-29262D01*
X40521Y-29281D01*
X40540Y-29300D01*
X40559Y-29338D01*
X40559Y-29395D01*
X40540Y-29433D01*
X40521Y-29452D01*
X40483Y-29471D01*
X40330Y-29471D01*
X40787Y-29433D02*
X40749Y-29414D01*
X40730Y-29395D01*
X40711Y-29357D01*
X40711Y-29338D01*
X40730Y-29300D01*
X40749Y-29281D01*
X40787Y-29262D01*
X40864Y-29262D01*
X40902Y-29281D01*
X40921Y-29300D01*
X40940Y-29338D01*
X40940Y-29357D01*
X40921Y-29395D01*
X40902Y-29414D01*
X40864Y-29433D01*
X40787Y-29433D01*
X40749Y-29452D01*
X40730Y-29471D01*
X40711Y-29510D01*
X40711Y-29586D01*
X40730Y-29624D01*
X40749Y-29643D01*
X40787Y-29662D01*
X40864Y-29662D01*
X40902Y-29643D01*
X40921Y-29624D01*
X40940Y-29586D01*
X40940Y-29510D01*
X40921Y-29471D01*
X40902Y-29452D01*
X40864Y-29433D01*
G54D10*
X42609Y-30300D02*
X42625Y-30281D01*
X42657Y-30262D01*
X42728Y-30262D01*
X42754Y-30281D01*
X42766Y-30300D01*
X42776Y-30338D01*
X42772Y-30376D01*
X42749Y-30433D01*
X42550Y-30662D01*
X42736Y-30662D01*
X42869Y-30624D02*
X42881Y-30643D01*
X42864Y-30662D01*
X42852Y-30643D01*
X42869Y-30624D01*
X42864Y-30662D01*
X43038Y-30300D02*
X43054Y-30281D01*
X43086Y-30262D01*
X43157Y-30262D01*
X43183Y-30281D01*
X43195Y-30300D01*
X43205Y-30338D01*
X43201Y-30376D01*
X43178Y-30433D01*
X42979Y-30662D01*
X43165Y-30662D01*
X43293Y-30662D02*
X43343Y-30262D01*
X43341Y-30510D02*
X43408Y-30662D01*
X43441Y-30395D02*
X43307Y-30548D01*
G54D11*
X40559Y-30662D02*
X40425Y-30471D01*
X40330Y-30662D02*
X40330Y-30262D01*
X40483Y-30262D01*
X40521Y-30281D01*
X40540Y-30300D01*
X40559Y-30338D01*
X40559Y-30395D01*
X40540Y-30433D01*
X40521Y-30452D01*
X40483Y-30471D01*
X40330Y-30471D01*
X40749Y-30662D02*
X40825Y-30662D01*
X40864Y-30643D01*
X40883Y-30624D01*
X40921Y-30567D01*
X40940Y-30490D01*
X40940Y-30338D01*
X40921Y-30300D01*
X40902Y-30281D01*
X40864Y-30262D01*
X40787Y-30262D01*
X40749Y-30281D01*
X40730Y-30300D01*
X40711Y-30338D01*
X40711Y-30433D01*
X40730Y-30471D01*
X40749Y-30490D01*
X40787Y-30510D01*
X40864Y-30510D01*
X40902Y-30490D01*
X40921Y-30471D01*
X40940Y-30433D01*
G54D10*
X42609Y-29300D02*
X42625Y-29281D01*
X42657Y-29262D01*
X42728Y-29262D01*
X42754Y-29281D01*
X42766Y-29300D01*
X42776Y-29338D01*
X42772Y-29376D01*
X42749Y-29433D01*
X42550Y-29662D01*
X42736Y-29662D01*
X42869Y-29624D02*
X42881Y-29643D01*
X42864Y-29662D01*
X42852Y-29643D01*
X42869Y-29624D01*
X42864Y-29662D01*
X43038Y-29300D02*
X43054Y-29281D01*
X43086Y-29262D01*
X43157Y-29262D01*
X43183Y-29281D01*
X43195Y-29300D01*
X43205Y-29338D01*
X43201Y-29376D01*
X43178Y-29433D01*
X42979Y-29662D01*
X43165Y-29662D01*
X43293Y-29662D02*
X43343Y-29262D01*
X43341Y-29510D02*
X43408Y-29662D01*
X43441Y-29395D02*
X43307Y-29548D01*
G54D11*
X40368Y-26662D02*
X40234Y-26471D01*
X40139Y-26662D02*
X40139Y-26262D01*
X40292Y-26262D01*
X40330Y-26281D01*
X40349Y-26300D01*
X40368Y-26338D01*
X40368Y-26395D01*
X40349Y-26433D01*
X40330Y-26452D01*
X40292Y-26471D01*
X40139Y-26471D01*
X40749Y-26662D02*
X40520Y-26662D01*
X40634Y-26662D02*
X40634Y-26262D01*
X40596Y-26319D01*
X40558Y-26357D01*
X40520Y-26376D01*
X40996Y-26262D02*
X41035Y-26262D01*
X41073Y-26281D01*
X41092Y-26300D01*
X41111Y-26338D01*
X41130Y-26414D01*
X41130Y-26510D01*
X41111Y-26586D01*
X41092Y-26624D01*
X41073Y-26643D01*
X41035Y-26662D01*
X40996Y-26662D01*
X40958Y-26643D01*
X40939Y-26624D01*
X40920Y-26586D01*
X40901Y-26510D01*
X40901Y-26414D01*
X40920Y-26338D01*
X40939Y-26300D01*
X40958Y-26281D01*
X40996Y-26262D01*
G54D10*
X42609Y-26300D02*
X42625Y-26281D01*
X42657Y-26262D01*
X42728Y-26262D01*
X42754Y-26281D01*
X42766Y-26300D01*
X42776Y-26338D01*
X42772Y-26376D01*
X42749Y-26433D01*
X42550Y-26662D01*
X42736Y-26662D01*
X42869Y-26624D02*
X42881Y-26643D01*
X42864Y-26662D01*
X42852Y-26643D01*
X42869Y-26624D01*
X42864Y-26662D01*
X43038Y-26300D02*
X43054Y-26281D01*
X43086Y-26262D01*
X43157Y-26262D01*
X43183Y-26281D01*
X43195Y-26300D01*
X43205Y-26338D01*
X43201Y-26376D01*
X43178Y-26433D01*
X42979Y-26662D01*
X43165Y-26662D01*
X43293Y-26662D02*
X43343Y-26262D01*
X43341Y-26510D02*
X43408Y-26662D01*
X43441Y-26395D02*
X43307Y-26548D01*
G54D11*
X40368Y-27662D02*
X40234Y-27471D01*
X40139Y-27662D02*
X40139Y-27262D01*
X40292Y-27262D01*
X40330Y-27281D01*
X40349Y-27300D01*
X40368Y-27338D01*
X40368Y-27395D01*
X40349Y-27433D01*
X40330Y-27452D01*
X40292Y-27471D01*
X40139Y-27471D01*
X40749Y-27662D02*
X40520Y-27662D01*
X40634Y-27662D02*
X40634Y-27262D01*
X40596Y-27319D01*
X40558Y-27357D01*
X40520Y-27376D01*
X41130Y-27662D02*
X40901Y-27662D01*
X41015Y-27662D02*
X41015Y-27262D01*
X40977Y-27319D01*
X40939Y-27357D01*
X40901Y-27376D01*
G54D10*
X42609Y-27300D02*
X42625Y-27281D01*
X42657Y-27262D01*
X42728Y-27262D01*
X42754Y-27281D01*
X42766Y-27300D01*
X42776Y-27338D01*
X42772Y-27376D01*
X42749Y-27433D01*
X42550Y-27662D01*
X42736Y-27662D01*
X42869Y-27624D02*
X42881Y-27643D01*
X42864Y-27662D01*
X42852Y-27643D01*
X42869Y-27624D01*
X42864Y-27662D01*
X43038Y-27300D02*
X43054Y-27281D01*
X43086Y-27262D01*
X43157Y-27262D01*
X43183Y-27281D01*
X43195Y-27300D01*
X43205Y-27338D01*
X43201Y-27376D01*
X43178Y-27433D01*
X42979Y-27662D01*
X43165Y-27662D01*
X43293Y-27662D02*
X43343Y-27262D01*
X43341Y-27510D02*
X43408Y-27662D01*
X43441Y-27395D02*
X43307Y-27548D01*
G54D11*
X44243Y-25662D02*
X44109Y-25471D01*
X44014Y-25662D02*
X44014Y-25262D01*
X44167Y-25262D01*
X44205Y-25281D01*
X44224Y-25300D01*
X44243Y-25338D01*
X44243Y-25395D01*
X44224Y-25433D01*
X44205Y-25452D01*
X44167Y-25471D01*
X44014Y-25471D01*
X44624Y-25662D02*
X44395Y-25662D01*
X44509Y-25662D02*
X44509Y-25262D01*
X44471Y-25319D01*
X44433Y-25357D01*
X44395Y-25376D01*
X44776Y-25300D02*
X44795Y-25281D01*
X44833Y-25262D01*
X44929Y-25262D01*
X44967Y-25281D01*
X44986Y-25300D01*
X45005Y-25338D01*
X45005Y-25376D01*
X44986Y-25433D01*
X44757Y-25662D01*
X45005Y-25662D01*
G54D10*
X46609Y-25300D02*
X46625Y-25281D01*
X46657Y-25262D01*
X46728Y-25262D01*
X46754Y-25281D01*
X46766Y-25300D01*
X46776Y-25338D01*
X46772Y-25376D01*
X46749Y-25433D01*
X46550Y-25662D01*
X46736Y-25662D01*
X46869Y-25624D02*
X46881Y-25643D01*
X46864Y-25662D01*
X46852Y-25643D01*
X46869Y-25624D01*
X46864Y-25662D01*
X47038Y-25300D02*
X47054Y-25281D01*
X47086Y-25262D01*
X47157Y-25262D01*
X47183Y-25281D01*
X47195Y-25300D01*
X47205Y-25338D01*
X47201Y-25376D01*
X47178Y-25433D01*
X46979Y-25662D01*
X47165Y-25662D01*
X47293Y-25662D02*
X47343Y-25262D01*
X47341Y-25510D02*
X47408Y-25662D01*
X47441Y-25395D02*
X47307Y-25548D01*
G54D11*
X67162Y-30757D02*
X66971Y-30891D01*
X67162Y-30986D02*
X66762Y-30986D01*
X66762Y-30833D01*
X66781Y-30795D01*
X66800Y-30776D01*
X66838Y-30757D01*
X66895Y-30757D01*
X66933Y-30776D01*
X66952Y-30795D01*
X66971Y-30833D01*
X66971Y-30986D01*
X67162Y-30376D02*
X67162Y-30605D01*
X67162Y-30491D02*
X66762Y-30491D01*
X66819Y-30529D01*
X66857Y-30567D01*
X66876Y-30605D01*
X66762Y-30243D02*
X66762Y-29995D01*
X66914Y-30129D01*
X66914Y-30071D01*
X66933Y-30033D01*
X66952Y-30014D01*
X66990Y-29995D01*
X67086Y-29995D01*
X67124Y-30014D01*
X67143Y-30033D01*
X67162Y-30071D01*
X67162Y-30186D01*
X67143Y-30224D01*
X67124Y-30243D01*
G54D10*
X67800Y-28391D02*
X67781Y-28375D01*
X67762Y-28343D01*
X67762Y-28272D01*
X67781Y-28246D01*
X67800Y-28234D01*
X67838Y-28224D01*
X67876Y-28228D01*
X67933Y-28251D01*
X68162Y-28450D01*
X68162Y-28264D01*
X68124Y-28131D02*
X68143Y-28119D01*
X68162Y-28136D01*
X68143Y-28148D01*
X68124Y-28131D01*
X68162Y-28136D01*
X67800Y-27962D02*
X67781Y-27946D01*
X67762Y-27914D01*
X67762Y-27843D01*
X67781Y-27817D01*
X67800Y-27805D01*
X67838Y-27795D01*
X67876Y-27799D01*
X67933Y-27822D01*
X68162Y-28021D01*
X68162Y-27835D01*
X68162Y-27707D02*
X67762Y-27657D01*
X68010Y-27659D02*
X68162Y-27592D01*
X67895Y-27559D02*
X68048Y-27693D01*
G54D11*
X60243Y-23162D02*
X60109Y-22971D01*
X60014Y-23162D02*
X60014Y-22762D01*
X60167Y-22762D01*
X60205Y-22781D01*
X60224Y-22800D01*
X60243Y-22838D01*
X60243Y-22895D01*
X60224Y-22933D01*
X60205Y-22952D01*
X60167Y-22971D01*
X60014Y-22971D01*
X60624Y-23162D02*
X60395Y-23162D01*
X60509Y-23162D02*
X60509Y-22762D01*
X60471Y-22819D01*
X60433Y-22857D01*
X60395Y-22876D01*
X60986Y-22762D02*
X60795Y-22762D01*
X60776Y-22952D01*
X60795Y-22933D01*
X60833Y-22914D01*
X60929Y-22914D01*
X60967Y-22933D01*
X60986Y-22952D01*
X61005Y-22990D01*
X61005Y-23086D01*
X60986Y-23124D01*
X60967Y-23143D01*
X60929Y-23162D01*
X60833Y-23162D01*
X60795Y-23143D01*
X60776Y-23124D01*
G54D10*
X57929Y-23162D02*
X57757Y-23162D01*
X57843Y-23162D02*
X57893Y-22762D01*
X57857Y-22819D01*
X57824Y-22857D01*
X57793Y-22876D01*
X58165Y-22762D02*
X58193Y-22762D01*
X58219Y-22781D01*
X58231Y-22800D01*
X58240Y-22838D01*
X58246Y-22914D01*
X58234Y-23010D01*
X58209Y-23086D01*
X58191Y-23124D01*
X58174Y-23143D01*
X58143Y-23162D01*
X58115Y-23162D01*
X58088Y-23143D01*
X58077Y-23124D01*
X58066Y-23086D01*
X58062Y-23010D01*
X58074Y-22914D01*
X58097Y-22838D01*
X58117Y-22800D01*
X58133Y-22781D01*
X58165Y-22762D01*
G54D11*
X69618Y-22162D02*
X69484Y-21971D01*
X69389Y-22162D02*
X69389Y-21762D01*
X69542Y-21762D01*
X69580Y-21781D01*
X69599Y-21800D01*
X69618Y-21838D01*
X69618Y-21895D01*
X69599Y-21933D01*
X69580Y-21952D01*
X69542Y-21971D01*
X69389Y-21971D01*
X69999Y-22162D02*
X69770Y-22162D01*
X69884Y-22162D02*
X69884Y-21762D01*
X69846Y-21819D01*
X69808Y-21857D01*
X69770Y-21876D01*
X70342Y-21762D02*
X70265Y-21762D01*
X70227Y-21781D01*
X70208Y-21800D01*
X70170Y-21857D01*
X70151Y-21933D01*
X70151Y-22086D01*
X70170Y-22124D01*
X70189Y-22143D01*
X70227Y-22162D01*
X70304Y-22162D01*
X70342Y-22143D01*
X70361Y-22124D01*
X70380Y-22086D01*
X70380Y-21990D01*
X70361Y-21952D01*
X70342Y-21933D01*
X70304Y-21914D01*
X70227Y-21914D01*
X70189Y-21933D01*
X70170Y-21952D01*
X70151Y-21990D01*
G54D10*
X72429Y-22162D02*
X72257Y-22162D01*
X72343Y-22162D02*
X72393Y-21762D01*
X72357Y-21819D01*
X72324Y-21857D01*
X72293Y-21876D01*
X72665Y-21762D02*
X72693Y-21762D01*
X72719Y-21781D01*
X72731Y-21800D01*
X72740Y-21838D01*
X72746Y-21914D01*
X72734Y-22010D01*
X72709Y-22086D01*
X72691Y-22124D01*
X72674Y-22143D01*
X72643Y-22162D01*
X72615Y-22162D01*
X72588Y-22143D01*
X72577Y-22124D01*
X72566Y-22086D01*
X72562Y-22010D01*
X72574Y-21914D01*
X72597Y-21838D01*
X72617Y-21800D01*
X72633Y-21781D01*
X72665Y-21762D01*
G54D11*
X59705Y-38412D02*
X59705Y-38012D01*
X59858Y-38012D01*
X59896Y-38031D01*
X59915Y-38050D01*
X59934Y-38088D01*
X59934Y-38145D01*
X59915Y-38183D01*
X59896Y-38202D01*
X59858Y-38221D01*
X59705Y-38221D01*
X60086Y-38050D02*
X60105Y-38031D01*
X60143Y-38012D01*
X60239Y-38012D01*
X60277Y-38031D01*
X60296Y-38050D01*
X60315Y-38088D01*
X60315Y-38126D01*
X60296Y-38183D01*
X60067Y-38412D01*
X60315Y-38412D01*
G54D10*
X59729Y-38923D02*
X59872Y-38923D01*
X59687Y-39037D02*
X59837Y-38637D01*
X59887Y-39037D01*
X59986Y-39037D02*
X60036Y-38637D01*
X60108Y-38637D01*
X60148Y-38656D01*
X60172Y-38694D01*
X60182Y-38732D01*
X60186Y-38808D01*
X60179Y-38865D01*
X60156Y-38942D01*
X60136Y-38980D01*
X60103Y-39018D01*
X60058Y-39037D01*
X59986Y-39037D01*
X60286Y-39037D02*
X60336Y-38637D01*
X60408Y-38637D01*
X60448Y-38656D01*
X60472Y-38694D01*
X60482Y-38732D01*
X60486Y-38808D01*
X60479Y-38865D01*
X60456Y-38942D01*
X60436Y-38980D01*
X60403Y-39018D01*
X60358Y-39037D01*
X60286Y-39037D01*
X60758Y-39037D02*
X60682Y-38846D01*
X60586Y-39037D02*
X60636Y-38637D01*
X60751Y-38637D01*
X60776Y-38656D01*
X60789Y-38675D01*
X60798Y-38713D01*
X60791Y-38770D01*
X60772Y-38808D01*
X60755Y-38827D01*
X60725Y-38846D01*
X60610Y-38846D01*
G54D11*
X46580Y-38412D02*
X46580Y-38012D01*
X46733Y-38012D01*
X46771Y-38031D01*
X46790Y-38050D01*
X46809Y-38088D01*
X46809Y-38145D01*
X46790Y-38183D01*
X46771Y-38202D01*
X46733Y-38221D01*
X46580Y-38221D01*
X47190Y-38412D02*
X46961Y-38412D01*
X47075Y-38412D02*
X47075Y-38012D01*
X47037Y-38069D01*
X46999Y-38107D01*
X46961Y-38126D01*
G54D10*
X46554Y-39037D02*
X46604Y-38637D01*
X46869Y-39037D02*
X46793Y-38846D01*
X46697Y-39037D02*
X46747Y-38637D01*
X46862Y-38637D01*
X46887Y-38656D01*
X46900Y-38675D01*
X46909Y-38713D01*
X46902Y-38770D01*
X46883Y-38808D01*
X46866Y-38827D01*
X46836Y-38846D01*
X46721Y-38846D01*
X47192Y-39075D02*
X47166Y-39056D01*
X47142Y-39018D01*
X47106Y-38961D01*
X47081Y-38942D01*
X47052Y-38942D01*
X47055Y-39037D02*
X47028Y-39018D01*
X47004Y-38980D01*
X46999Y-38904D01*
X47016Y-38770D01*
X47040Y-38694D01*
X47073Y-38656D01*
X47105Y-38637D01*
X47162Y-38637D01*
X47187Y-38656D01*
X47212Y-38694D01*
X47216Y-38770D01*
X47199Y-38904D01*
X47176Y-38980D01*
X47142Y-39018D01*
X47112Y-39037D01*
X47055Y-39037D01*
G54D11*
X51575Y-24288D02*
X51556Y-24326D01*
X51518Y-24364D01*
X51461Y-24421D01*
X51442Y-24460D01*
X51442Y-24498D01*
X51537Y-24479D02*
X51518Y-24517D01*
X51480Y-24555D01*
X51404Y-24574D01*
X51270Y-24574D01*
X51194Y-24555D01*
X51156Y-24517D01*
X51137Y-24479D01*
X51137Y-24402D01*
X51156Y-24364D01*
X51194Y-24326D01*
X51270Y-24307D01*
X51404Y-24307D01*
X51480Y-24326D01*
X51518Y-24364D01*
X51537Y-24402D01*
X51537Y-24479D01*
X51537Y-23926D02*
X51537Y-24155D01*
X51537Y-24041D02*
X51137Y-24041D01*
X51194Y-24079D01*
X51232Y-24117D01*
X51251Y-24155D01*
G54D10*
X49300Y-25409D02*
X49281Y-25393D01*
X49262Y-25361D01*
X49262Y-25290D01*
X49281Y-25264D01*
X49300Y-25252D01*
X49338Y-25242D01*
X49376Y-25246D01*
X49433Y-25269D01*
X49662Y-25468D01*
X49662Y-25282D01*
X49662Y-25154D02*
X49262Y-25104D01*
X49662Y-24982D01*
X49262Y-24932D01*
X49262Y-24818D02*
X49262Y-24632D01*
X49414Y-24751D01*
X49414Y-24709D01*
X49433Y-24683D01*
X49452Y-24671D01*
X49490Y-24661D01*
X49586Y-24673D01*
X49624Y-24692D01*
X49643Y-24709D01*
X49662Y-24740D01*
X49662Y-24825D01*
X49643Y-24852D01*
X49624Y-24863D01*
X49662Y-24539D02*
X49662Y-24482D01*
X49643Y-24452D01*
X49624Y-24434D01*
X49567Y-24399D01*
X49490Y-24375D01*
X49338Y-24356D01*
X49300Y-24366D01*
X49281Y-24378D01*
X49262Y-24404D01*
X49262Y-24461D01*
X49281Y-24492D01*
X49300Y-24509D01*
X49338Y-24528D01*
X49433Y-24540D01*
X49471Y-24530D01*
X49490Y-24518D01*
X49510Y-24492D01*
X49510Y-24435D01*
X49490Y-24404D01*
X49471Y-24387D01*
X49433Y-24368D01*
X49262Y-24160D02*
X49262Y-24132D01*
X49281Y-24106D01*
X49300Y-24094D01*
X49338Y-24085D01*
X49414Y-24079D01*
X49510Y-24091D01*
X49586Y-24116D01*
X49624Y-24134D01*
X49643Y-24151D01*
X49662Y-24182D01*
X49662Y-24210D01*
X49643Y-24237D01*
X49624Y-24248D01*
X49586Y-24259D01*
X49510Y-24263D01*
X49414Y-24251D01*
X49338Y-24228D01*
X49300Y-24208D01*
X49281Y-24192D01*
X49262Y-24160D01*
X49395Y-23820D02*
X49662Y-23853D01*
X49243Y-23872D02*
X49529Y-23980D01*
X49529Y-23794D01*
G54D11*
X69618Y-21162D02*
X69484Y-20971D01*
X69389Y-21162D02*
X69389Y-20762D01*
X69542Y-20762D01*
X69580Y-20781D01*
X69599Y-20800D01*
X69618Y-20838D01*
X69618Y-20895D01*
X69599Y-20933D01*
X69580Y-20952D01*
X69542Y-20971D01*
X69389Y-20971D01*
X69999Y-21162D02*
X69770Y-21162D01*
X69884Y-21162D02*
X69884Y-20762D01*
X69846Y-20819D01*
X69808Y-20857D01*
X69770Y-20876D01*
X70132Y-20762D02*
X70399Y-20762D01*
X70227Y-21162D01*
G54D10*
X72429Y-21162D02*
X72257Y-21162D01*
X72343Y-21162D02*
X72393Y-20762D01*
X72357Y-20819D01*
X72324Y-20857D01*
X72293Y-20876D01*
X72665Y-20762D02*
X72693Y-20762D01*
X72719Y-20781D01*
X72731Y-20800D01*
X72740Y-20838D01*
X72746Y-20914D01*
X72734Y-21010D01*
X72709Y-21086D01*
X72691Y-21124D01*
X72674Y-21143D01*
X72643Y-21162D01*
X72615Y-21162D01*
X72588Y-21143D01*
X72577Y-21124D01*
X72566Y-21086D01*
X72562Y-21010D01*
X72574Y-20914D01*
X72597Y-20838D01*
X72617Y-20800D01*
X72633Y-20781D01*
X72665Y-20762D01*
G54D12*
X73578Y-30952D02*
X73411Y-30714D01*
X73292Y-30952D02*
X73292Y-30452D01*
X73483Y-30452D01*
X73530Y-30476D01*
X73554Y-30500D01*
X73578Y-30548D01*
X73578Y-30619D01*
X73554Y-30667D01*
X73530Y-30690D01*
X73483Y-30714D01*
X73292Y-30714D01*
X73721Y-30452D02*
X73887Y-30952D01*
X74054Y-30452D01*
X74483Y-30952D02*
X74197Y-30952D01*
X74340Y-30952D02*
X74340Y-30452D01*
X74292Y-30524D01*
X74245Y-30571D01*
X74197Y-30595D01*
G54D11*
X75493Y-30952D02*
X75264Y-30952D01*
X75378Y-30952D02*
X75441Y-30452D01*
X75394Y-30524D01*
X75350Y-30571D01*
X75309Y-30595D01*
X75803Y-30452D02*
X75842Y-30452D01*
X75877Y-30476D01*
X75893Y-30500D01*
X75906Y-30548D01*
X75913Y-30643D01*
X75898Y-30762D01*
X75867Y-30857D01*
X75842Y-30905D01*
X75820Y-30929D01*
X75779Y-30952D01*
X75740Y-30952D01*
X75705Y-30929D01*
X75689Y-30905D01*
X75676Y-30857D01*
X75669Y-30762D01*
X75684Y-30643D01*
X75715Y-30548D01*
X75740Y-30500D01*
X75762Y-30476D01*
X75803Y-30452D01*
X76045Y-30952D02*
X76108Y-30452D01*
X76107Y-30762D02*
X76198Y-30952D01*
X76240Y-30619D02*
X76063Y-30810D01*
X49243Y-27662D02*
X49109Y-27471D01*
X49014Y-27662D02*
X49014Y-27262D01*
X49167Y-27262D01*
X49205Y-27281D01*
X49224Y-27300D01*
X49243Y-27338D01*
X49243Y-27395D01*
X49224Y-27433D01*
X49205Y-27452D01*
X49167Y-27471D01*
X49014Y-27471D01*
X49624Y-27662D02*
X49395Y-27662D01*
X49509Y-27662D02*
X49509Y-27262D01*
X49471Y-27319D01*
X49433Y-27357D01*
X49395Y-27376D01*
X49967Y-27395D02*
X49967Y-27662D01*
X49871Y-27243D02*
X49776Y-27529D01*
X50024Y-27529D01*
G54D10*
X46736Y-27662D02*
X46564Y-27662D01*
X46650Y-27662D02*
X46700Y-27262D01*
X46664Y-27319D01*
X46631Y-27357D01*
X46600Y-27376D01*
X46869Y-27624D02*
X46881Y-27643D01*
X46864Y-27662D01*
X46852Y-27643D01*
X46869Y-27624D01*
X46864Y-27662D01*
X47200Y-27262D02*
X47057Y-27262D01*
X47019Y-27452D01*
X47035Y-27433D01*
X47067Y-27414D01*
X47138Y-27414D01*
X47164Y-27433D01*
X47176Y-27452D01*
X47186Y-27490D01*
X47174Y-27586D01*
X47155Y-27624D01*
X47138Y-27643D01*
X47107Y-27662D01*
X47036Y-27662D01*
X47009Y-27643D01*
X46998Y-27624D01*
X47293Y-27662D02*
X47343Y-27262D01*
X47341Y-27510D02*
X47408Y-27662D01*
X47441Y-27395D02*
X47307Y-27548D01*
G54D12*
X63119Y-44077D02*
X63119Y-44482D01*
X63143Y-44530D01*
X63167Y-44554D01*
X63214Y-44577D01*
X63310Y-44577D01*
X63357Y-44554D01*
X63381Y-44530D01*
X63405Y-44482D01*
X63405Y-44077D01*
X63905Y-44577D02*
X63619Y-44577D01*
X63762Y-44577D02*
X63762Y-44077D01*
X63714Y-44149D01*
X63667Y-44196D01*
X63619Y-44220D01*
G54D11*
X69546Y-44077D02*
X69813Y-44077D01*
X69578Y-44577D01*
X70116Y-44244D02*
X70074Y-44577D01*
X70043Y-44054D02*
X69904Y-44411D01*
X70152Y-44411D01*
X70474Y-44577D02*
X70283Y-44577D01*
X70346Y-44077D01*
X70591Y-44554D02*
X70645Y-44577D01*
X70741Y-44577D01*
X70782Y-44554D01*
X70804Y-44530D01*
X70829Y-44482D01*
X70835Y-44435D01*
X70822Y-44387D01*
X70806Y-44363D01*
X70771Y-44339D01*
X70697Y-44315D01*
X70662Y-44292D01*
X70646Y-44268D01*
X70633Y-44220D01*
X70639Y-44173D01*
X70664Y-44125D01*
X70686Y-44101D01*
X70727Y-44077D01*
X70823Y-44077D01*
X70877Y-44101D01*
X71026Y-44125D02*
X71048Y-44101D01*
X71089Y-44077D01*
X71185Y-44077D01*
X71220Y-44101D01*
X71236Y-44125D01*
X71249Y-44173D01*
X71243Y-44220D01*
X71215Y-44292D01*
X70950Y-44577D01*
X71198Y-44577D01*
X71583Y-44244D02*
X71541Y-44577D01*
X71510Y-44054D02*
X71371Y-44411D01*
X71619Y-44411D01*
X72004Y-44077D02*
X71813Y-44077D01*
X71764Y-44315D01*
X71786Y-44292D01*
X71827Y-44268D01*
X71923Y-44268D01*
X71958Y-44292D01*
X71974Y-44315D01*
X71987Y-44363D01*
X71972Y-44482D01*
X71947Y-44530D01*
X71925Y-44554D01*
X71884Y-44577D01*
X71788Y-44577D01*
X71753Y-44554D01*
X71737Y-44530D01*
G54D12*
X43619Y-37077D02*
X43619Y-37482D01*
X43643Y-37530D01*
X43667Y-37554D01*
X43714Y-37577D01*
X43810Y-37577D01*
X43857Y-37554D01*
X43881Y-37530D01*
X43905Y-37482D01*
X43905Y-37077D01*
X44357Y-37244D02*
X44357Y-37577D01*
X44238Y-37054D02*
X44119Y-37411D01*
X44429Y-37411D01*
G54D11*
X45237Y-37077D02*
X45504Y-37077D01*
X45269Y-37577D01*
X45807Y-37244D02*
X45765Y-37577D01*
X45734Y-37054D02*
X45595Y-37411D01*
X45843Y-37411D01*
X46165Y-37577D02*
X45974Y-37577D01*
X46037Y-37077D01*
X46282Y-37554D02*
X46336Y-37577D01*
X46432Y-37577D01*
X46473Y-37554D01*
X46495Y-37530D01*
X46520Y-37482D01*
X46526Y-37435D01*
X46513Y-37387D01*
X46497Y-37363D01*
X46462Y-37339D01*
X46388Y-37315D01*
X46353Y-37292D01*
X46337Y-37268D01*
X46324Y-37220D01*
X46330Y-37173D01*
X46355Y-37125D01*
X46377Y-37101D01*
X46418Y-37077D01*
X46514Y-37077D01*
X46568Y-37101D01*
X46704Y-37077D02*
X46971Y-37077D01*
X46736Y-37577D01*
X47274Y-37244D02*
X47232Y-37577D01*
X47201Y-37054D02*
X47062Y-37411D01*
X47310Y-37411D01*
X51624Y-43941D02*
X51643Y-43960D01*
X51662Y-44017D01*
X51662Y-44055D01*
X51643Y-44113D01*
X51605Y-44151D01*
X51567Y-44170D01*
X51490Y-44189D01*
X51433Y-44189D01*
X51357Y-44170D01*
X51319Y-44151D01*
X51281Y-44113D01*
X51262Y-44055D01*
X51262Y-44017D01*
X51281Y-43960D01*
X51300Y-43941D01*
X51262Y-43808D02*
X51262Y-43560D01*
X51414Y-43694D01*
X51414Y-43636D01*
X51433Y-43598D01*
X51452Y-43579D01*
X51490Y-43560D01*
X51586Y-43560D01*
X51624Y-43579D01*
X51643Y-43598D01*
X51662Y-43636D01*
X51662Y-43751D01*
X51643Y-43789D01*
X51624Y-43808D01*
G54D10*
X51262Y-42456D02*
X51262Y-42428D01*
X51281Y-42402D01*
X51300Y-42390D01*
X51338Y-42381D01*
X51414Y-42375D01*
X51510Y-42387D01*
X51586Y-42412D01*
X51624Y-42430D01*
X51643Y-42447D01*
X51662Y-42478D01*
X51662Y-42506D01*
X51643Y-42533D01*
X51624Y-42544D01*
X51586Y-42555D01*
X51510Y-42559D01*
X51414Y-42547D01*
X51338Y-42524D01*
X51300Y-42504D01*
X51281Y-42488D01*
X51262Y-42456D01*
X51624Y-42273D02*
X51643Y-42261D01*
X51662Y-42278D01*
X51643Y-42290D01*
X51624Y-42273D01*
X51662Y-42278D01*
X51662Y-41977D02*
X51662Y-42149D01*
X51662Y-42063D02*
X51262Y-42013D01*
X51319Y-42049D01*
X51357Y-42082D01*
X51376Y-42113D01*
X51395Y-41687D02*
X51662Y-41720D01*
X51395Y-41816D02*
X51605Y-41842D01*
X51643Y-41832D01*
X51662Y-41806D01*
X51662Y-41763D01*
X51643Y-41732D01*
X51624Y-41715D01*
X51452Y-41452D02*
X51452Y-41552D01*
X51662Y-41578D02*
X51262Y-41528D01*
X51262Y-41385D01*
G54D11*
X58624Y-31382D02*
X58643Y-31401D01*
X58662Y-31458D01*
X58662Y-31496D01*
X58643Y-31554D01*
X58605Y-31592D01*
X58567Y-31611D01*
X58490Y-31630D01*
X58433Y-31630D01*
X58357Y-31611D01*
X58319Y-31592D01*
X58281Y-31554D01*
X58262Y-31496D01*
X58262Y-31458D01*
X58281Y-31401D01*
X58300Y-31382D01*
X58662Y-31001D02*
X58662Y-31230D01*
X58662Y-31116D02*
X58262Y-31116D01*
X58319Y-31154D01*
X58357Y-31192D01*
X58376Y-31230D01*
X58262Y-30754D02*
X58262Y-30715D01*
X58281Y-30677D01*
X58300Y-30658D01*
X58338Y-30639D01*
X58414Y-30620D01*
X58510Y-30620D01*
X58586Y-30639D01*
X58624Y-30658D01*
X58643Y-30677D01*
X58662Y-30715D01*
X58662Y-30754D01*
X58643Y-30792D01*
X58624Y-30811D01*
X58586Y-30830D01*
X58510Y-30849D01*
X58414Y-30849D01*
X58338Y-30830D01*
X58300Y-30811D01*
X58281Y-30792D01*
X58262Y-30754D01*
G54D10*
X58262Y-29456D02*
X58262Y-29428D01*
X58281Y-29402D01*
X58300Y-29390D01*
X58338Y-29381D01*
X58414Y-29375D01*
X58510Y-29387D01*
X58586Y-29412D01*
X58624Y-29430D01*
X58643Y-29447D01*
X58662Y-29478D01*
X58662Y-29506D01*
X58643Y-29533D01*
X58624Y-29544D01*
X58586Y-29555D01*
X58510Y-29559D01*
X58414Y-29547D01*
X58338Y-29524D01*
X58300Y-29504D01*
X58281Y-29488D01*
X58262Y-29456D01*
X58624Y-29273D02*
X58643Y-29261D01*
X58662Y-29278D01*
X58643Y-29290D01*
X58624Y-29273D01*
X58662Y-29278D01*
X58662Y-28977D02*
X58662Y-29149D01*
X58662Y-29063D02*
X58262Y-29013D01*
X58319Y-29049D01*
X58357Y-29082D01*
X58376Y-29113D01*
X58395Y-28687D02*
X58662Y-28720D01*
X58395Y-28816D02*
X58605Y-28842D01*
X58643Y-28832D01*
X58662Y-28806D01*
X58662Y-28763D01*
X58643Y-28732D01*
X58624Y-28715D01*
X58452Y-28452D02*
X58452Y-28552D01*
X58662Y-28578D02*
X58262Y-28528D01*
X58262Y-28385D01*
G54D11*
X61618Y-26374D02*
X61599Y-26393D01*
X61542Y-26412D01*
X61504Y-26412D01*
X61446Y-26393D01*
X61408Y-26355D01*
X61389Y-26317D01*
X61370Y-26240D01*
X61370Y-26183D01*
X61389Y-26107D01*
X61408Y-26069D01*
X61446Y-26031D01*
X61504Y-26012D01*
X61542Y-26012D01*
X61599Y-26031D01*
X61618Y-26050D01*
X61999Y-26412D02*
X61770Y-26412D01*
X61884Y-26412D02*
X61884Y-26012D01*
X61846Y-26069D01*
X61808Y-26107D01*
X61770Y-26126D01*
X62380Y-26412D02*
X62151Y-26412D01*
X62265Y-26412D02*
X62265Y-26012D01*
X62227Y-26069D01*
X62189Y-26107D01*
X62151Y-26126D01*
G54D10*
X63544Y-26012D02*
X63572Y-26012D01*
X63598Y-26031D01*
X63610Y-26050D01*
X63619Y-26088D01*
X63625Y-26164D01*
X63613Y-26260D01*
X63588Y-26336D01*
X63570Y-26374D01*
X63553Y-26393D01*
X63522Y-26412D01*
X63494Y-26412D01*
X63467Y-26393D01*
X63456Y-26374D01*
X63445Y-26336D01*
X63441Y-26260D01*
X63453Y-26164D01*
X63476Y-26088D01*
X63496Y-26050D01*
X63512Y-26031D01*
X63544Y-26012D01*
X63727Y-26374D02*
X63739Y-26393D01*
X63722Y-26412D01*
X63710Y-26393D01*
X63727Y-26374D01*
X63722Y-26412D01*
X64023Y-26412D02*
X63851Y-26412D01*
X63937Y-26412D02*
X63987Y-26012D01*
X63951Y-26069D01*
X63918Y-26107D01*
X63887Y-26126D01*
X64313Y-26145D02*
X64280Y-26412D01*
X64184Y-26145D02*
X64158Y-26355D01*
X64168Y-26393D01*
X64194Y-26412D01*
X64237Y-26412D01*
X64268Y-26393D01*
X64285Y-26374D01*
X64548Y-26202D02*
X64448Y-26202D01*
X64422Y-26412D02*
X64472Y-26012D01*
X64615Y-26012D01*
G54D11*
X74624Y-43757D02*
X74643Y-43776D01*
X74662Y-43833D01*
X74662Y-43871D01*
X74643Y-43929D01*
X74605Y-43967D01*
X74567Y-43986D01*
X74490Y-44005D01*
X74433Y-44005D01*
X74357Y-43986D01*
X74319Y-43967D01*
X74281Y-43929D01*
X74262Y-43871D01*
X74262Y-43833D01*
X74281Y-43776D01*
X74300Y-43757D01*
X74662Y-43376D02*
X74662Y-43605D01*
X74662Y-43491D02*
X74262Y-43491D01*
X74319Y-43529D01*
X74357Y-43567D01*
X74376Y-43605D01*
X74300Y-43224D02*
X74281Y-43205D01*
X74262Y-43167D01*
X74262Y-43071D01*
X74281Y-43033D01*
X74300Y-43014D01*
X74338Y-42995D01*
X74376Y-42995D01*
X74433Y-43014D01*
X74662Y-43243D01*
X74662Y-42995D01*
G54D10*
X76162Y-42835D02*
X76162Y-43007D01*
X76162Y-42921D02*
X75762Y-42871D01*
X75819Y-42907D01*
X75857Y-42940D01*
X75876Y-42971D01*
X75762Y-42599D02*
X75762Y-42571D01*
X75781Y-42545D01*
X75800Y-42533D01*
X75838Y-42524D01*
X75914Y-42518D01*
X76010Y-42530D01*
X76086Y-42555D01*
X76124Y-42573D01*
X76143Y-42590D01*
X76162Y-42621D01*
X76162Y-42649D01*
X76143Y-42676D01*
X76124Y-42687D01*
X76086Y-42698D01*
X76010Y-42702D01*
X75914Y-42690D01*
X75838Y-42667D01*
X75800Y-42647D01*
X75781Y-42631D01*
X75762Y-42599D01*
X75895Y-42259D02*
X76162Y-42292D01*
X75895Y-42388D02*
X76105Y-42414D01*
X76143Y-42404D01*
X76162Y-42378D01*
X76162Y-42335D01*
X76143Y-42304D01*
X76124Y-42287D01*
X75952Y-42024D02*
X75952Y-42124D01*
X76162Y-42150D02*
X75762Y-42100D01*
X75762Y-41957D01*
G54D11*
X75010Y-43652D02*
X75010Y-43347D01*
X75162Y-43499D02*
X74857Y-43499D01*
X74624Y-40757D02*
X74643Y-40776D01*
X74662Y-40833D01*
X74662Y-40871D01*
X74643Y-40929D01*
X74605Y-40967D01*
X74567Y-40986D01*
X74490Y-41005D01*
X74433Y-41005D01*
X74357Y-40986D01*
X74319Y-40967D01*
X74281Y-40929D01*
X74262Y-40871D01*
X74262Y-40833D01*
X74281Y-40776D01*
X74300Y-40757D01*
X74662Y-40376D02*
X74662Y-40605D01*
X74662Y-40491D02*
X74262Y-40491D01*
X74319Y-40529D01*
X74357Y-40567D01*
X74376Y-40605D01*
X74262Y-40243D02*
X74262Y-39995D01*
X74414Y-40129D01*
X74414Y-40071D01*
X74433Y-40033D01*
X74452Y-40014D01*
X74490Y-39995D01*
X74586Y-39995D01*
X74624Y-40014D01*
X74643Y-40033D01*
X74662Y-40071D01*
X74662Y-40186D01*
X74643Y-40224D01*
X74624Y-40243D01*
G54D10*
X76162Y-39835D02*
X76162Y-40007D01*
X76162Y-39921D02*
X75762Y-39871D01*
X75819Y-39907D01*
X75857Y-39940D01*
X75876Y-39971D01*
X75762Y-39599D02*
X75762Y-39571D01*
X75781Y-39545D01*
X75800Y-39533D01*
X75838Y-39524D01*
X75914Y-39518D01*
X76010Y-39530D01*
X76086Y-39555D01*
X76124Y-39573D01*
X76143Y-39590D01*
X76162Y-39621D01*
X76162Y-39649D01*
X76143Y-39676D01*
X76124Y-39687D01*
X76086Y-39698D01*
X76010Y-39702D01*
X75914Y-39690D01*
X75838Y-39667D01*
X75800Y-39647D01*
X75781Y-39631D01*
X75762Y-39599D01*
X75895Y-39259D02*
X76162Y-39292D01*
X75895Y-39388D02*
X76105Y-39414D01*
X76143Y-39404D01*
X76162Y-39378D01*
X76162Y-39335D01*
X76143Y-39304D01*
X76124Y-39287D01*
X75952Y-39024D02*
X75952Y-39124D01*
X76162Y-39150D02*
X75762Y-39100D01*
X75762Y-38957D01*
G54D11*
X75010Y-40652D02*
X75010Y-40347D01*
X75162Y-40499D02*
X74857Y-40499D01*
X79999Y-40757D02*
X80018Y-40776D01*
X80037Y-40833D01*
X80037Y-40871D01*
X80018Y-40929D01*
X79980Y-40967D01*
X79942Y-40986D01*
X79865Y-41005D01*
X79808Y-41005D01*
X79732Y-40986D01*
X79694Y-40967D01*
X79656Y-40929D01*
X79637Y-40871D01*
X79637Y-40833D01*
X79656Y-40776D01*
X79675Y-40757D01*
X80037Y-40376D02*
X80037Y-40605D01*
X80037Y-40491D02*
X79637Y-40491D01*
X79694Y-40529D01*
X79732Y-40567D01*
X79751Y-40605D01*
X79770Y-40033D02*
X80037Y-40033D01*
X79618Y-40129D02*
X79904Y-40224D01*
X79904Y-39976D01*
G54D10*
X78662Y-39835D02*
X78662Y-40007D01*
X78662Y-39921D02*
X78262Y-39871D01*
X78319Y-39907D01*
X78357Y-39940D01*
X78376Y-39971D01*
X78262Y-39599D02*
X78262Y-39571D01*
X78281Y-39545D01*
X78300Y-39533D01*
X78338Y-39524D01*
X78414Y-39518D01*
X78510Y-39530D01*
X78586Y-39555D01*
X78624Y-39573D01*
X78643Y-39590D01*
X78662Y-39621D01*
X78662Y-39649D01*
X78643Y-39676D01*
X78624Y-39687D01*
X78586Y-39698D01*
X78510Y-39702D01*
X78414Y-39690D01*
X78338Y-39667D01*
X78300Y-39647D01*
X78281Y-39631D01*
X78262Y-39599D01*
X78395Y-39259D02*
X78662Y-39292D01*
X78395Y-39388D02*
X78605Y-39414D01*
X78643Y-39404D01*
X78662Y-39378D01*
X78662Y-39335D01*
X78643Y-39304D01*
X78624Y-39287D01*
X78452Y-39024D02*
X78452Y-39124D01*
X78662Y-39150D02*
X78262Y-39100D01*
X78262Y-38957D01*
G54D11*
X77510Y-40652D02*
X77510Y-40347D01*
X77662Y-40499D02*
X77357Y-40499D01*
X41624Y-25632D02*
X41643Y-25651D01*
X41662Y-25708D01*
X41662Y-25746D01*
X41643Y-25804D01*
X41605Y-25842D01*
X41567Y-25861D01*
X41490Y-25880D01*
X41433Y-25880D01*
X41357Y-25861D01*
X41319Y-25842D01*
X41281Y-25804D01*
X41262Y-25746D01*
X41262Y-25708D01*
X41281Y-25651D01*
X41300Y-25632D01*
X41662Y-25251D02*
X41662Y-25480D01*
X41662Y-25366D02*
X41262Y-25366D01*
X41319Y-25404D01*
X41357Y-25442D01*
X41376Y-25480D01*
X41262Y-24908D02*
X41262Y-24985D01*
X41281Y-25023D01*
X41300Y-25042D01*
X41357Y-25080D01*
X41433Y-25099D01*
X41586Y-25099D01*
X41624Y-25080D01*
X41643Y-25061D01*
X41662Y-25023D01*
X41662Y-24946D01*
X41643Y-24908D01*
X41624Y-24889D01*
X41586Y-24870D01*
X41490Y-24870D01*
X41452Y-24889D01*
X41433Y-24908D01*
X41414Y-24946D01*
X41414Y-25023D01*
X41433Y-25061D01*
X41452Y-25080D01*
X41490Y-25099D01*
G54D10*
X43162Y-24835D02*
X43162Y-25007D01*
X43162Y-24921D02*
X42762Y-24871D01*
X42819Y-24907D01*
X42857Y-24940D01*
X42876Y-24971D01*
X42762Y-24599D02*
X42762Y-24571D01*
X42781Y-24545D01*
X42800Y-24533D01*
X42838Y-24524D01*
X42914Y-24518D01*
X43010Y-24530D01*
X43086Y-24555D01*
X43124Y-24573D01*
X43143Y-24590D01*
X43162Y-24621D01*
X43162Y-24649D01*
X43143Y-24676D01*
X43124Y-24687D01*
X43086Y-24698D01*
X43010Y-24702D01*
X42914Y-24690D01*
X42838Y-24667D01*
X42800Y-24647D01*
X42781Y-24631D01*
X42762Y-24599D01*
X42895Y-24259D02*
X43162Y-24292D01*
X42895Y-24388D02*
X43105Y-24414D01*
X43143Y-24404D01*
X43162Y-24378D01*
X43162Y-24335D01*
X43143Y-24304D01*
X43124Y-24287D01*
X42952Y-24024D02*
X42952Y-24124D01*
X43162Y-24150D02*
X42762Y-24100D01*
X42762Y-23957D01*
G54D11*
X42010Y-25652D02*
X42010Y-25347D01*
X42162Y-25499D02*
X41857Y-25499D01*
X58124Y-26757D02*
X58143Y-26776D01*
X58162Y-26833D01*
X58162Y-26871D01*
X58143Y-26929D01*
X58105Y-26967D01*
X58067Y-26986D01*
X57990Y-27005D01*
X57933Y-27005D01*
X57857Y-26986D01*
X57819Y-26967D01*
X57781Y-26929D01*
X57762Y-26871D01*
X57762Y-26833D01*
X57781Y-26776D01*
X57800Y-26757D01*
X58162Y-26376D02*
X58162Y-26605D01*
X58162Y-26491D02*
X57762Y-26491D01*
X57819Y-26529D01*
X57857Y-26567D01*
X57876Y-26605D01*
X57762Y-26243D02*
X57762Y-25976D01*
X58162Y-26148D01*
G54D10*
X59662Y-25835D02*
X59662Y-26007D01*
X59662Y-25921D02*
X59262Y-25871D01*
X59319Y-25907D01*
X59357Y-25940D01*
X59376Y-25971D01*
X59262Y-25599D02*
X59262Y-25571D01*
X59281Y-25545D01*
X59300Y-25533D01*
X59338Y-25524D01*
X59414Y-25518D01*
X59510Y-25530D01*
X59586Y-25555D01*
X59624Y-25573D01*
X59643Y-25590D01*
X59662Y-25621D01*
X59662Y-25649D01*
X59643Y-25676D01*
X59624Y-25687D01*
X59586Y-25698D01*
X59510Y-25702D01*
X59414Y-25690D01*
X59338Y-25667D01*
X59300Y-25647D01*
X59281Y-25631D01*
X59262Y-25599D01*
X59395Y-25259D02*
X59662Y-25292D01*
X59395Y-25388D02*
X59605Y-25414D01*
X59643Y-25404D01*
X59662Y-25378D01*
X59662Y-25335D01*
X59643Y-25304D01*
X59624Y-25287D01*
X59452Y-25024D02*
X59452Y-25124D01*
X59662Y-25150D02*
X59262Y-25100D01*
X59262Y-24957D01*
G54D11*
X58510Y-26652D02*
X58510Y-26347D01*
X58662Y-26499D02*
X58357Y-26499D01*
X52124Y-26632D02*
X52143Y-26651D01*
X52162Y-26708D01*
X52162Y-26746D01*
X52143Y-26804D01*
X52105Y-26842D01*
X52067Y-26861D01*
X51990Y-26880D01*
X51933Y-26880D01*
X51857Y-26861D01*
X51819Y-26842D01*
X51781Y-26804D01*
X51762Y-26746D01*
X51762Y-26708D01*
X51781Y-26651D01*
X51800Y-26632D01*
X52162Y-26251D02*
X52162Y-26480D01*
X52162Y-26366D02*
X51762Y-26366D01*
X51819Y-26404D01*
X51857Y-26442D01*
X51876Y-26480D01*
X52162Y-26061D02*
X52162Y-25985D01*
X52143Y-25946D01*
X52124Y-25927D01*
X52067Y-25889D01*
X51990Y-25870D01*
X51838Y-25870D01*
X51800Y-25889D01*
X51781Y-25908D01*
X51762Y-25946D01*
X51762Y-26023D01*
X51781Y-26061D01*
X51800Y-26080D01*
X51838Y-26099D01*
X51933Y-26099D01*
X51971Y-26080D01*
X51990Y-26061D01*
X52010Y-26023D01*
X52010Y-25946D01*
X51990Y-25908D01*
X51971Y-25889D01*
X51933Y-25870D01*
G54D10*
X53395Y-25902D02*
X53662Y-25935D01*
X53243Y-25954D02*
X53529Y-26062D01*
X53529Y-25876D01*
X53624Y-25773D02*
X53643Y-25761D01*
X53662Y-25778D01*
X53643Y-25790D01*
X53624Y-25773D01*
X53662Y-25778D01*
X53262Y-25613D02*
X53262Y-25413D01*
X53662Y-25592D01*
X53395Y-25187D02*
X53662Y-25220D01*
X53395Y-25316D02*
X53605Y-25342D01*
X53643Y-25332D01*
X53662Y-25306D01*
X53662Y-25263D01*
X53643Y-25232D01*
X53624Y-25215D01*
X53452Y-24952D02*
X53452Y-25052D01*
X53662Y-25078D02*
X53262Y-25028D01*
X53262Y-24885D01*
G54D11*
X52510Y-26652D02*
X52510Y-26347D01*
X52662Y-26499D02*
X52357Y-26499D01*
X40493Y-31499D02*
X40474Y-31518D01*
X40417Y-31537D01*
X40379Y-31537D01*
X40321Y-31518D01*
X40283Y-31480D01*
X40264Y-31442D01*
X40245Y-31365D01*
X40245Y-31308D01*
X40264Y-31232D01*
X40283Y-31194D01*
X40321Y-31156D01*
X40379Y-31137D01*
X40417Y-31137D01*
X40474Y-31156D01*
X40493Y-31175D01*
X40645Y-31175D02*
X40664Y-31156D01*
X40702Y-31137D01*
X40798Y-31137D01*
X40836Y-31156D01*
X40855Y-31175D01*
X40874Y-31213D01*
X40874Y-31251D01*
X40855Y-31308D01*
X40626Y-31537D01*
X40874Y-31537D01*
X41255Y-31537D02*
X41026Y-31537D01*
X41140Y-31537D02*
X41140Y-31137D01*
X41102Y-31194D01*
X41064Y-31232D01*
X41026Y-31251D01*
G54D10*
X42598Y-31395D02*
X42565Y-31662D01*
X42546Y-31243D02*
X42438Y-31529D01*
X42624Y-31529D01*
X42727Y-31624D02*
X42739Y-31643D01*
X42722Y-31662D01*
X42710Y-31643D01*
X42727Y-31624D01*
X42722Y-31662D01*
X42887Y-31262D02*
X43087Y-31262D01*
X42908Y-31662D01*
X43184Y-31395D02*
X43151Y-31662D01*
X43179Y-31433D02*
X43197Y-31414D01*
X43227Y-31395D01*
X43270Y-31395D01*
X43297Y-31414D01*
X43306Y-31452D01*
X43280Y-31662D01*
X43548Y-31452D02*
X43448Y-31452D01*
X43422Y-31662D02*
X43472Y-31262D01*
X43615Y-31262D01*
G54D11*
X48868Y-31624D02*
X48849Y-31643D01*
X48792Y-31662D01*
X48754Y-31662D01*
X48696Y-31643D01*
X48658Y-31605D01*
X48639Y-31567D01*
X48620Y-31490D01*
X48620Y-31433D01*
X48639Y-31357D01*
X48658Y-31319D01*
X48696Y-31281D01*
X48754Y-31262D01*
X48792Y-31262D01*
X48849Y-31281D01*
X48868Y-31300D01*
X49020Y-31300D02*
X49039Y-31281D01*
X49077Y-31262D01*
X49173Y-31262D01*
X49211Y-31281D01*
X49230Y-31300D01*
X49249Y-31338D01*
X49249Y-31376D01*
X49230Y-31433D01*
X49001Y-31662D01*
X49249Y-31662D01*
X49401Y-31300D02*
X49420Y-31281D01*
X49458Y-31262D01*
X49554Y-31262D01*
X49592Y-31281D01*
X49611Y-31300D01*
X49630Y-31338D01*
X49630Y-31376D01*
X49611Y-31433D01*
X49382Y-31662D01*
X49630Y-31662D01*
G54D10*
X46598Y-31395D02*
X46565Y-31662D01*
X46546Y-31243D02*
X46438Y-31529D01*
X46624Y-31529D01*
X46727Y-31624D02*
X46739Y-31643D01*
X46722Y-31662D01*
X46710Y-31643D01*
X46727Y-31624D01*
X46722Y-31662D01*
X46887Y-31262D02*
X47087Y-31262D01*
X46908Y-31662D01*
X47184Y-31395D02*
X47151Y-31662D01*
X47179Y-31433D02*
X47197Y-31414D01*
X47227Y-31395D01*
X47270Y-31395D01*
X47297Y-31414D01*
X47306Y-31452D01*
X47280Y-31662D01*
X47548Y-31452D02*
X47448Y-31452D01*
X47422Y-31662D02*
X47472Y-31262D01*
X47615Y-31262D01*
G54D11*
X40493Y-28624D02*
X40474Y-28643D01*
X40417Y-28662D01*
X40379Y-28662D01*
X40321Y-28643D01*
X40283Y-28605D01*
X40264Y-28567D01*
X40245Y-28490D01*
X40245Y-28433D01*
X40264Y-28357D01*
X40283Y-28319D01*
X40321Y-28281D01*
X40379Y-28262D01*
X40417Y-28262D01*
X40474Y-28281D01*
X40493Y-28300D01*
X40645Y-28300D02*
X40664Y-28281D01*
X40702Y-28262D01*
X40798Y-28262D01*
X40836Y-28281D01*
X40855Y-28300D01*
X40874Y-28338D01*
X40874Y-28376D01*
X40855Y-28433D01*
X40626Y-28662D01*
X40874Y-28662D01*
X41007Y-28262D02*
X41255Y-28262D01*
X41121Y-28414D01*
X41179Y-28414D01*
X41217Y-28433D01*
X41236Y-28452D01*
X41255Y-28490D01*
X41255Y-28586D01*
X41236Y-28624D01*
X41217Y-28643D01*
X41179Y-28662D01*
X41064Y-28662D01*
X41026Y-28643D01*
X41007Y-28624D01*
G54D10*
X42598Y-28395D02*
X42565Y-28662D01*
X42546Y-28243D02*
X42438Y-28529D01*
X42624Y-28529D01*
X42727Y-28624D02*
X42739Y-28643D01*
X42722Y-28662D01*
X42710Y-28643D01*
X42727Y-28624D01*
X42722Y-28662D01*
X42887Y-28262D02*
X43087Y-28262D01*
X42908Y-28662D01*
X43184Y-28395D02*
X43151Y-28662D01*
X43179Y-28433D02*
X43197Y-28414D01*
X43227Y-28395D01*
X43270Y-28395D01*
X43297Y-28414D01*
X43306Y-28452D01*
X43280Y-28662D01*
X43548Y-28452D02*
X43448Y-28452D01*
X43422Y-28662D02*
X43472Y-28262D01*
X43615Y-28262D01*
M02*
