G04 (created by PCBNEW-RS274X (2012-01-19 BZR 3256)-stable) date 9/26/2012 11:25:36 PM*
G01*
G70*
G90*
%MOIN*%
G04 Gerber Fmt 3.4, Leading zero omitted, Abs format*
%FSLAX34Y34*%
G04 APERTURE LIST*
%ADD10C,0.006000*%
%ADD11R,0.090000X0.320000*%
%ADD12C,0.180000*%
%ADD13C,0.090900*%
%ADD14C,0.083000*%
%ADD15C,0.075000*%
%ADD16R,0.075000X0.075000*%
%ADD17C,0.090000*%
%ADD18R,0.090000X0.090000*%
%ADD19R,0.080000X0.080000*%
%ADD20C,0.080000*%
G04 APERTURE END LIST*
G54D10*
G54D11*
X71000Y-47375D03*
X70000Y-47375D03*
X69000Y-47375D03*
X68000Y-47375D03*
X65000Y-47375D03*
X63000Y-47375D03*
X62000Y-47375D03*
X59000Y-47375D03*
X58000Y-47375D03*
X49000Y-47375D03*
X47000Y-47375D03*
X43000Y-47375D03*
X42000Y-47375D03*
X41000Y-47375D03*
G54D12*
X79500Y-22500D03*
X79500Y-44750D03*
G54D13*
X79819Y-35000D03*
X77850Y-33031D03*
X77850Y-34016D03*
X77850Y-35984D03*
X77850Y-36969D03*
G54D14*
X77850Y-35000D03*
X79819Y-33031D03*
X79819Y-36969D03*
G54D15*
X61500Y-41000D03*
X61500Y-43000D03*
X41500Y-41000D03*
X41500Y-43000D03*
X41500Y-34000D03*
X41500Y-36000D03*
X51500Y-34000D03*
X51500Y-36000D03*
X61500Y-34500D03*
X61500Y-36500D03*
X60500Y-30000D03*
X60500Y-28000D03*
X59500Y-28000D03*
X59500Y-30000D03*
X66500Y-22500D03*
X66500Y-24500D03*
G54D16*
X56500Y-26500D03*
G54D15*
X56500Y-24500D03*
X57000Y-22000D03*
X59000Y-22000D03*
X46000Y-28500D03*
X48000Y-28500D03*
X69000Y-27000D03*
X69000Y-29000D03*
X71000Y-27000D03*
X71000Y-29000D03*
G54D16*
X43000Y-43500D03*
G54D15*
X44000Y-43500D03*
X45000Y-43500D03*
X46000Y-43500D03*
X47000Y-43500D03*
X48000Y-43500D03*
X49000Y-43500D03*
X50000Y-43500D03*
X50000Y-40500D03*
X49000Y-40500D03*
X48000Y-40500D03*
X47000Y-40500D03*
X46000Y-40500D03*
X45000Y-40500D03*
X44000Y-40500D03*
X43000Y-40500D03*
G54D16*
X53000Y-43500D03*
G54D15*
X54000Y-43500D03*
X55000Y-43500D03*
X56000Y-43500D03*
X57000Y-43500D03*
X58000Y-43500D03*
X59000Y-43500D03*
X60000Y-43500D03*
X60000Y-40500D03*
X59000Y-40500D03*
X58000Y-40500D03*
X57000Y-40500D03*
X56000Y-40500D03*
X55000Y-40500D03*
X54000Y-40500D03*
X53000Y-40500D03*
G54D16*
X53500Y-36500D03*
G54D15*
X54500Y-36500D03*
X55500Y-36500D03*
X56500Y-36500D03*
X57500Y-36500D03*
X58500Y-36500D03*
X59500Y-36500D03*
X59500Y-33500D03*
X58500Y-33500D03*
X57500Y-33500D03*
X56500Y-33500D03*
X55500Y-33500D03*
X54500Y-33500D03*
X53500Y-33500D03*
G54D16*
X63000Y-38500D03*
G54D15*
X64000Y-38500D03*
X65000Y-38500D03*
X66000Y-38500D03*
X67000Y-38500D03*
X68000Y-38500D03*
X69000Y-38500D03*
X70000Y-38500D03*
X71000Y-38500D03*
X72000Y-38500D03*
X73000Y-38500D03*
X74000Y-38500D03*
X74000Y-32500D03*
X73000Y-32500D03*
X72000Y-32500D03*
X71000Y-32500D03*
X70000Y-32500D03*
X69000Y-32500D03*
X68000Y-32500D03*
X67000Y-32500D03*
X66000Y-32500D03*
X65000Y-32500D03*
X64000Y-32500D03*
X63000Y-32500D03*
G54D16*
X62000Y-30500D03*
G54D15*
X63000Y-30500D03*
X64000Y-30500D03*
X65000Y-30500D03*
X65000Y-27500D03*
X64000Y-27500D03*
X63000Y-27500D03*
X62000Y-27500D03*
G54D16*
X50500Y-30500D03*
G54D15*
X51500Y-30500D03*
X52500Y-30500D03*
X53500Y-30500D03*
X54500Y-30500D03*
X55500Y-30500D03*
X56500Y-30500D03*
X56500Y-27500D03*
X55500Y-27500D03*
X54500Y-27500D03*
X53500Y-27500D03*
X52500Y-27500D03*
X51500Y-27500D03*
X50500Y-27500D03*
G54D16*
X62000Y-25000D03*
G54D15*
X63000Y-25000D03*
X64000Y-25000D03*
X65000Y-25000D03*
X65000Y-22000D03*
X64000Y-22000D03*
X63000Y-22000D03*
X62000Y-22000D03*
G54D17*
X45500Y-22000D03*
G54D18*
X55500Y-22000D03*
G54D15*
X45500Y-24500D03*
G54D16*
X48500Y-24500D03*
G54D15*
X45500Y-30500D03*
X48500Y-30500D03*
X45500Y-29500D03*
X48500Y-29500D03*
X45500Y-26500D03*
X48500Y-26500D03*
X67000Y-26500D03*
X67000Y-29500D03*
X71000Y-23000D03*
X74000Y-23000D03*
X70000Y-26500D03*
X70000Y-29500D03*
X51500Y-38500D03*
X54500Y-38500D03*
X41500Y-29500D03*
X44500Y-29500D03*
X44500Y-30500D03*
X41500Y-30500D03*
X41500Y-26500D03*
X44500Y-26500D03*
X44500Y-27500D03*
X41500Y-27500D03*
X48500Y-25500D03*
X45500Y-25500D03*
X68000Y-29500D03*
X68000Y-26500D03*
X59500Y-23000D03*
X56500Y-23000D03*
X74000Y-22000D03*
X71000Y-22000D03*
G54D19*
X56000Y-39000D03*
G54D20*
X56000Y-38000D03*
X57000Y-39000D03*
X57000Y-38000D03*
X58000Y-39000D03*
X58000Y-38000D03*
X59000Y-39000D03*
X59000Y-38000D03*
G54D19*
X48000Y-39000D03*
G54D20*
X48000Y-38000D03*
X49000Y-39000D03*
X49000Y-38000D03*
X50000Y-39000D03*
X50000Y-38000D03*
G54D16*
X50500Y-24500D03*
G54D15*
X50500Y-25500D03*
X50500Y-26500D03*
X74000Y-21000D03*
X71000Y-21000D03*
G54D20*
X72900Y-28000D03*
X72900Y-27000D03*
X72900Y-26000D03*
G54D15*
X45500Y-27500D03*
X48500Y-27500D03*
G54D16*
X63000Y-43500D03*
G54D15*
X64000Y-43500D03*
X65000Y-43500D03*
X66000Y-43500D03*
X67000Y-43500D03*
X68000Y-43500D03*
X69000Y-43500D03*
X70000Y-43500D03*
X71000Y-43500D03*
X72000Y-43500D03*
X72000Y-40500D03*
X71000Y-40500D03*
X70000Y-40500D03*
X69000Y-40500D03*
X68000Y-40500D03*
X67000Y-40500D03*
X66000Y-40500D03*
X65000Y-40500D03*
X64000Y-40500D03*
X63000Y-40500D03*
G54D16*
X43500Y-36500D03*
G54D15*
X44500Y-36500D03*
X45500Y-36500D03*
X46500Y-36500D03*
X47500Y-36500D03*
X48500Y-36500D03*
X49500Y-36500D03*
X49500Y-33500D03*
X48500Y-33500D03*
X47500Y-33500D03*
X46500Y-33500D03*
X45500Y-33500D03*
X44500Y-33500D03*
X43500Y-33500D03*
X51500Y-41000D03*
X51500Y-43000D03*
X58500Y-28000D03*
X58500Y-30000D03*
X63000Y-26250D03*
X65000Y-26250D03*
G54D16*
X76000Y-43500D03*
G54D15*
X76000Y-41500D03*
G54D16*
X76000Y-40500D03*
G54D15*
X76000Y-38500D03*
G54D16*
X78500Y-40500D03*
G54D15*
X78500Y-38500D03*
G54D16*
X43000Y-25500D03*
G54D15*
X43000Y-23500D03*
G54D16*
X59500Y-26500D03*
G54D15*
X59500Y-24500D03*
G54D16*
X53500Y-26500D03*
G54D15*
X53500Y-24500D03*
X42000Y-31500D03*
X44000Y-31500D03*
X46000Y-31500D03*
X48000Y-31500D03*
X42000Y-28500D03*
X44000Y-28500D03*
M02*
