M48
; DRILL file {KiCad (5.1.8)-1} date 01/14/21 09:05:46
; FORMAT={-:-/ absolute / inch / decimal}
; #@! TF.CreationDate,2021-01-14T09:05:46-08:00
; #@! TF.GenerationSoftware,Kicad,Pcbnew,(5.1.8)-1
FMAT,2
INCH
T1C0.0250
T2C0.0320
T3C0.0400
T4C0.0512
T5C0.0630
T6C0.1200
%
G90
G05
T1
X4.075Y-3.175
X4.15Y-3.85
X4.1875Y-4.475
X4.25Y-4.425
X4.5Y-4.5
X4.75Y-4.5
X4.9Y-4.45
X5.5Y-3.95
X5.8Y-4.525
X5.9Y-4.525
X6.1Y-4.525
X6.35Y-4.025
X6.4Y-2.925
X6.4Y-3.975
X6.75Y-4.5
X6.95Y-4.55
X7.375Y-4.125
X7.55Y-4.5
T2
X4.65Y-2.55
X4.95Y-2.55
X4.55Y-2.75
X4.85Y-2.75
X5.4Y-2.55
X5.6Y-2.55
X6.2Y-2.75
X6.2Y-3.05
X6.3Y-2.75
X6.3Y-3.05
X6.4Y-2.75
X6.4Y-3.05
X6.5Y-2.75
X6.5Y-3.05
X5.35Y-3.35
X5.35Y-3.65
X5.45Y-3.35
X5.45Y-3.65
X5.55Y-3.35
X5.55Y-3.65
X5.65Y-3.35
X5.65Y-3.65
X5.75Y-3.35
X5.75Y-3.65
X5.85Y-3.35
X5.85Y-3.65
X5.95Y-3.35
X5.95Y-3.65
X4.15Y-4.1
X4.15Y-4.3
X5.15Y-3.4
X5.15Y-3.6
X4.15Y-2.75
X4.45Y-2.75
X4.15Y-2.85
X4.45Y-2.85
X4.55Y-3.05
X4.85Y-3.05
X4.6Y-2.85
X4.8Y-2.85
X4.55Y-2.65
X4.85Y-2.65
X6.65Y-2.8
X6.65Y-3.0
X4.6Y-3.15
X4.8Y-3.15
X6.15Y-4.1
X6.15Y-4.3
X4.15Y-2.95
X4.45Y-2.95
X4.65Y-2.35
X4.95Y-2.35
X5.15Y-2.35
X5.15Y-2.45
X5.15Y-2.55
X5.3Y-4.05
X5.3Y-4.35
X5.4Y-4.05
X5.4Y-4.35
X5.5Y-4.05
X5.5Y-4.35
X5.6Y-4.05
X5.6Y-4.35
X5.7Y-4.05
X5.7Y-4.35
X5.8Y-4.05
X5.8Y-4.35
X5.9Y-4.05
X5.9Y-4.35
X6.0Y-4.05
X6.0Y-4.35
X6.8Y-2.45
X7.0Y-2.45
X4.55Y-2.95
X4.85Y-2.95
X7.85Y-3.85
X7.85Y-4.05
X4.45Y-2.35
X4.45Y-2.55
X5.35Y-2.45
X5.65Y-2.45
X5.15Y-3.85
X5.45Y-3.85
X4.65Y-2.25
X4.95Y-2.25
X5.05Y-2.75
X5.05Y-3.05
X5.15Y-2.75
X5.15Y-3.05
X5.25Y-2.75
X5.25Y-3.05
X5.35Y-2.75
X5.35Y-3.05
X5.45Y-2.75
X5.45Y-3.05
X5.55Y-2.75
X5.55Y-3.05
X5.65Y-2.75
X5.65Y-3.05
X5.4Y-2.35
X5.6Y-2.35
X4.35Y-3.35
X4.35Y-3.65
X4.45Y-3.35
X4.45Y-3.65
X4.55Y-3.35
X4.55Y-3.65
X4.65Y-3.35
X4.65Y-3.65
X4.75Y-3.35
X4.75Y-3.65
X4.85Y-3.35
X4.85Y-3.65
X4.95Y-3.35
X4.95Y-3.65
X7.6Y-4.15
X7.6Y-4.35
X6.8Y-2.65
X7.0Y-2.65
X4.15Y-3.4
X4.15Y-3.6
X6.1Y-2.45
X6.4Y-2.45
X7.1Y-2.1
X7.4Y-2.1
X4.3Y-4.05
X4.3Y-4.35
X4.4Y-4.05
X4.4Y-4.35
X4.5Y-4.05
X4.5Y-4.35
X4.6Y-4.05
X4.6Y-4.35
X4.7Y-4.05
X4.7Y-4.35
X4.8Y-4.05
X4.8Y-4.35
X4.9Y-4.05
X4.9Y-4.35
X5.0Y-4.05
X5.0Y-4.35
X6.3Y-3.25
X6.3Y-3.85
X6.4Y-3.25
X6.4Y-3.85
X6.5Y-3.25
X6.5Y-3.85
X6.6Y-3.25
X6.6Y-3.85
X6.7Y-3.25
X6.7Y-3.85
X6.8Y-3.25
X6.8Y-3.85
X6.9Y-3.25
X6.9Y-3.85
X7.0Y-3.25
X7.0Y-3.85
X7.1Y-3.25
X7.1Y-3.85
X7.2Y-3.25
X7.2Y-3.85
X7.3Y-3.25
X7.3Y-3.85
X7.4Y-3.25
X7.4Y-3.85
X5.85Y-2.8
X5.85Y-3.0
X6.6Y-2.45
X6.6Y-2.65
X5.95Y-2.8
X5.95Y-3.0
X7.1Y-2.3
X7.4Y-2.3
X4.15Y-3.05
X4.45Y-3.05
X5.9Y-2.2
X6.9Y-2.2
X5.85Y-2.45
X5.85Y-2.65
X4.2Y-2.65
X4.4Y-2.65
X4.15Y-2.35
X4.15Y-2.55
X5.15Y-4.1
X5.15Y-4.3
X6.05Y-2.8
X6.05Y-3.0
X7.1Y-2.2
X7.4Y-2.2
X6.3Y-4.05
X6.3Y-4.35
X6.4Y-4.05
X6.4Y-4.35
X6.5Y-4.05
X6.5Y-4.35
X6.6Y-4.05
X6.6Y-4.35
X6.7Y-4.05
X6.7Y-4.35
X6.8Y-4.05
X6.8Y-4.35
X6.9Y-4.05
X6.9Y-4.35
X7.0Y-4.05
X7.0Y-4.35
X7.1Y-4.05
X7.1Y-4.35
X7.2Y-4.05
X7.2Y-4.35
X6.8Y-2.75
X6.8Y-3.05
X6.9Y-2.75
X6.9Y-3.05
X7.0Y-2.75
X7.0Y-3.05
X7.1Y-2.75
X7.1Y-3.05
X4.65Y-2.45
X4.95Y-2.45
X4.2Y-3.15
X4.4Y-3.15
X7.6Y-3.85
X7.6Y-4.05
X6.15Y-3.45
X6.15Y-3.65
T3
X7.29Y-2.6
X7.29Y-2.7
X7.29Y-2.8
X4.8Y-3.8
X4.8Y-3.9
X4.9Y-3.8
X4.9Y-3.9
X5.0Y-3.8
X5.0Y-3.9
X5.6Y-3.8
X5.6Y-3.9
X5.7Y-3.8
X5.7Y-3.9
X5.8Y-3.8
X5.8Y-3.9
X5.9Y-3.8
X5.9Y-3.9
T4
X7.785Y-3.3031
X7.785Y-3.4016
X7.785Y-3.5984
X7.785Y-3.6969
X7.9819Y-3.5
T5
X7.785Y-3.5
X7.9819Y-3.3031
X7.9819Y-3.6969
T6
X7.915Y-4.425
X7.915Y-2.2
T0
M30
