G04 #@! TF.GenerationSoftware,KiCad,Pcbnew,(5.1.8)-1*
G04 #@! TF.CreationDate,2021-01-14T09:05:43-08:00*
G04 #@! TF.ProjectId,isa_opl2,6973615f-6f70-46c3-922e-6b696361645f,rev?*
G04 #@! TF.SameCoordinates,Original*
G04 #@! TF.FileFunction,Legend,Top*
G04 #@! TF.FilePolarity,Positive*
%FSLAX46Y46*%
G04 Gerber Fmt 4.6, Leading zero omitted, Abs format (unit mm)*
G04 Created by KiCad (PCBNEW (5.1.8)-1) date 2021-01-14 09:05:43*
%MOMM*%
%LPD*%
G01*
G04 APERTURE LIST*
%ADD10C,0.203200*%
%ADD11C,0.254000*%
%ADD12C,0.152400*%
%ADD13C,0.304800*%
%ADD14C,0.381000*%
G04 APERTURE END LIST*
D10*
X133241142Y-56242857D02*
X133434666Y-57089523D01*
X133628190Y-56484761D01*
X133821714Y-57089523D01*
X134015238Y-56242857D01*
X134305523Y-56242857D02*
X134499047Y-57089523D01*
X134692571Y-56484761D01*
X134886095Y-57089523D01*
X135079619Y-56242857D01*
X135369904Y-56242857D02*
X135563428Y-57089523D01*
X135756952Y-56484761D01*
X135950476Y-57089523D01*
X136144000Y-56242857D01*
X136531047Y-56968571D02*
X136579428Y-57029047D01*
X136531047Y-57089523D01*
X136482666Y-57029047D01*
X136531047Y-56968571D01*
X136531047Y-57089523D01*
X137014857Y-57089523D02*
X137014857Y-56242857D01*
X137014857Y-56363809D02*
X137063238Y-56303333D01*
X137160000Y-56242857D01*
X137305142Y-56242857D01*
X137401904Y-56303333D01*
X137450285Y-56424285D01*
X137450285Y-57089523D01*
X137450285Y-56424285D02*
X137498666Y-56303333D01*
X137595428Y-56242857D01*
X137740571Y-56242857D01*
X137837333Y-56303333D01*
X137885714Y-56424285D01*
X137885714Y-57089523D01*
X138804952Y-57089523D02*
X138804952Y-56424285D01*
X138756571Y-56303333D01*
X138659809Y-56242857D01*
X138466285Y-56242857D01*
X138369523Y-56303333D01*
X138804952Y-57029047D02*
X138708190Y-57089523D01*
X138466285Y-57089523D01*
X138369523Y-57029047D01*
X138321142Y-56908095D01*
X138321142Y-56787142D01*
X138369523Y-56666190D01*
X138466285Y-56605714D01*
X138708190Y-56605714D01*
X138804952Y-56545238D01*
X139433904Y-57089523D02*
X139337142Y-57029047D01*
X139288761Y-56908095D01*
X139288761Y-55819523D01*
X139820952Y-57089523D02*
X139820952Y-56242857D01*
X139820952Y-55819523D02*
X139772571Y-55880000D01*
X139820952Y-55940476D01*
X139869333Y-55880000D01*
X139820952Y-55819523D01*
X139820952Y-55940476D01*
X140304761Y-56242857D02*
X140304761Y-57089523D01*
X140304761Y-56363809D02*
X140353142Y-56303333D01*
X140449904Y-56242857D01*
X140595047Y-56242857D01*
X140691809Y-56303333D01*
X140740190Y-56424285D01*
X140740190Y-57089523D01*
X141369142Y-57089523D02*
X141272380Y-57029047D01*
X141224000Y-56968571D01*
X141175619Y-56847619D01*
X141175619Y-56484761D01*
X141224000Y-56363809D01*
X141272380Y-56303333D01*
X141369142Y-56242857D01*
X141514285Y-56242857D01*
X141611047Y-56303333D01*
X141659428Y-56363809D01*
X141707809Y-56484761D01*
X141707809Y-56847619D01*
X141659428Y-56968571D01*
X141611047Y-57029047D01*
X141514285Y-57089523D01*
X141369142Y-57089523D01*
X142046476Y-56242857D02*
X142288380Y-57089523D01*
X142530285Y-56242857D01*
X142917333Y-56968571D02*
X142965714Y-57029047D01*
X142917333Y-57089523D01*
X142868952Y-57029047D01*
X142917333Y-56968571D01*
X142917333Y-57089523D01*
X143836571Y-57029047D02*
X143739809Y-57089523D01*
X143546285Y-57089523D01*
X143449523Y-57029047D01*
X143401142Y-56968571D01*
X143352761Y-56847619D01*
X143352761Y-56484761D01*
X143401142Y-56363809D01*
X143449523Y-56303333D01*
X143546285Y-56242857D01*
X143739809Y-56242857D01*
X143836571Y-56303333D01*
X144417142Y-57089523D02*
X144320380Y-57029047D01*
X144272000Y-56968571D01*
X144223619Y-56847619D01*
X144223619Y-56484761D01*
X144272000Y-56363809D01*
X144320380Y-56303333D01*
X144417142Y-56242857D01*
X144562285Y-56242857D01*
X144659047Y-56303333D01*
X144707428Y-56363809D01*
X144755809Y-56484761D01*
X144755809Y-56847619D01*
X144707428Y-56968571D01*
X144659047Y-57029047D01*
X144562285Y-57089523D01*
X144417142Y-57089523D01*
X145191238Y-57089523D02*
X145191238Y-56242857D01*
X145191238Y-56363809D02*
X145239619Y-56303333D01*
X145336380Y-56242857D01*
X145481523Y-56242857D01*
X145578285Y-56303333D01*
X145626666Y-56424285D01*
X145626666Y-57089523D01*
X145626666Y-56424285D02*
X145675047Y-56303333D01*
X145771809Y-56242857D01*
X145916952Y-56242857D01*
X146013714Y-56303333D01*
X146062095Y-56424285D01*
X146062095Y-57089523D01*
D11*
X104611714Y-54029428D02*
X104611714Y-52505428D01*
X105264857Y-53956857D02*
X105482571Y-54029428D01*
X105845428Y-54029428D01*
X105990571Y-53956857D01*
X106063142Y-53884285D01*
X106135714Y-53739142D01*
X106135714Y-53594000D01*
X106063142Y-53448857D01*
X105990571Y-53376285D01*
X105845428Y-53303714D01*
X105555142Y-53231142D01*
X105409999Y-53158571D01*
X105337428Y-53086000D01*
X105264857Y-52940857D01*
X105264857Y-52795714D01*
X105337428Y-52650571D01*
X105409999Y-52578000D01*
X105555142Y-52505428D01*
X105917999Y-52505428D01*
X106135714Y-52578000D01*
X106716285Y-53594000D02*
X107441999Y-53594000D01*
X106571142Y-54029428D02*
X107079142Y-52505428D01*
X107587142Y-54029428D01*
X109546571Y-52505428D02*
X109836857Y-52505428D01*
X109981999Y-52578000D01*
X110127142Y-52723142D01*
X110199714Y-53013428D01*
X110199714Y-53521428D01*
X110127142Y-53811714D01*
X109981999Y-53956857D01*
X109836857Y-54029428D01*
X109546571Y-54029428D01*
X109401428Y-53956857D01*
X109256285Y-53811714D01*
X109183714Y-53521428D01*
X109183714Y-53013428D01*
X109256285Y-52723142D01*
X109401428Y-52578000D01*
X109546571Y-52505428D01*
X110852857Y-54029428D02*
X110852857Y-52505428D01*
X111433428Y-52505428D01*
X111578571Y-52578000D01*
X111651142Y-52650571D01*
X111723714Y-52795714D01*
X111723714Y-53013428D01*
X111651142Y-53158571D01*
X111578571Y-53231142D01*
X111433428Y-53303714D01*
X110852857Y-53303714D01*
X113102571Y-54029428D02*
X112376857Y-54029428D01*
X112376857Y-52505428D01*
X113538000Y-52650571D02*
X113610571Y-52578000D01*
X113755714Y-52505428D01*
X114118571Y-52505428D01*
X114263714Y-52578000D01*
X114336285Y-52650571D01*
X114408857Y-52795714D01*
X114408857Y-52940857D01*
X114336285Y-53158571D01*
X113465428Y-54029428D01*
X114408857Y-54029428D01*
X116223142Y-53448857D02*
X117384285Y-53448857D01*
X119053428Y-52505428D02*
X119561428Y-54029428D01*
X120069428Y-52505428D01*
X121158000Y-53956857D02*
X121012857Y-54029428D01*
X120722571Y-54029428D01*
X120577428Y-53956857D01*
X120504857Y-53811714D01*
X120504857Y-53231142D01*
X120577428Y-53086000D01*
X120722571Y-53013428D01*
X121012857Y-53013428D01*
X121158000Y-53086000D01*
X121230571Y-53231142D01*
X121230571Y-53376285D01*
X120504857Y-53521428D01*
X121883714Y-54029428D02*
X121883714Y-53013428D01*
X121883714Y-53303714D02*
X121956285Y-53158571D01*
X122028857Y-53086000D01*
X122174000Y-53013428D01*
X122319142Y-53013428D01*
X122754571Y-53956857D02*
X122899714Y-54029428D01*
X123190000Y-54029428D01*
X123335142Y-53956857D01*
X123407714Y-53811714D01*
X123407714Y-53739142D01*
X123335142Y-53594000D01*
X123190000Y-53521428D01*
X122972285Y-53521428D01*
X122827142Y-53448857D01*
X122754571Y-53303714D01*
X122754571Y-53231142D01*
X122827142Y-53086000D01*
X122972285Y-53013428D01*
X123190000Y-53013428D01*
X123335142Y-53086000D01*
X124060857Y-54029428D02*
X124060857Y-53013428D01*
X124060857Y-52505428D02*
X123988285Y-52578000D01*
X124060857Y-52650571D01*
X124133428Y-52578000D01*
X124060857Y-52505428D01*
X124060857Y-52650571D01*
X125004285Y-54029428D02*
X124859142Y-53956857D01*
X124786571Y-53884285D01*
X124714000Y-53739142D01*
X124714000Y-53303714D01*
X124786571Y-53158571D01*
X124859142Y-53086000D01*
X125004285Y-53013428D01*
X125222000Y-53013428D01*
X125367142Y-53086000D01*
X125439714Y-53158571D01*
X125512285Y-53303714D01*
X125512285Y-53739142D01*
X125439714Y-53884285D01*
X125367142Y-53956857D01*
X125222000Y-54029428D01*
X125004285Y-54029428D01*
X126165428Y-53013428D02*
X126165428Y-54029428D01*
X126165428Y-53158571D02*
X126238000Y-53086000D01*
X126383142Y-53013428D01*
X126600857Y-53013428D01*
X126746000Y-53086000D01*
X126818571Y-53231142D01*
X126818571Y-54029428D01*
X129503714Y-54029428D02*
X128632857Y-54029428D01*
X129068285Y-54029428D02*
X129068285Y-52505428D01*
X128923142Y-52723142D01*
X128778000Y-52868285D01*
X128632857Y-52940857D01*
X130156857Y-53884285D02*
X130229428Y-53956857D01*
X130156857Y-54029428D01*
X130084285Y-53956857D01*
X130156857Y-53884285D01*
X130156857Y-54029428D01*
X130810000Y-52650571D02*
X130882571Y-52578000D01*
X131027714Y-52505428D01*
X131390571Y-52505428D01*
X131535714Y-52578000D01*
X131608285Y-52650571D01*
X131680857Y-52795714D01*
X131680857Y-52940857D01*
X131608285Y-53158571D01*
X130737428Y-54029428D01*
X131680857Y-54029428D01*
X140970000Y-53657500D02*
X142240000Y-54927500D01*
X139065000Y-53022500D02*
X140335000Y-54292500D01*
X140970000Y-54292500D02*
X140970000Y-53022500D01*
X140335000Y-53657500D02*
X140335000Y-54927500D01*
X139065000Y-53657500D02*
X139065000Y-52387500D01*
X137795000Y-54927500D02*
X136525000Y-54927500D01*
X139065000Y-53657500D02*
X137795000Y-54927500D01*
X140335000Y-54927500D02*
X139065000Y-53657500D01*
X140970000Y-54292500D02*
X140335000Y-54927500D01*
X141605000Y-54927500D02*
X140970000Y-54292500D01*
X142875000Y-54927500D02*
X141605000Y-54927500D01*
X140970000Y-53022500D02*
X142875000Y-54927500D01*
X140335000Y-53657500D02*
X140970000Y-53022500D01*
X139065000Y-52387500D02*
X140335000Y-53657500D01*
X136525000Y-54927500D02*
X139065000Y-52387500D01*
D12*
X148907500Y-93741119D02*
X149379214Y-93741119D01*
X149125214Y-94128166D01*
X149234071Y-94128166D01*
X149306642Y-94176547D01*
X149342928Y-94224928D01*
X149379214Y-94321690D01*
X149379214Y-94563595D01*
X149342928Y-94660357D01*
X149306642Y-94708738D01*
X149234071Y-94757119D01*
X149016357Y-94757119D01*
X148943785Y-94708738D01*
X148907500Y-94660357D01*
X149814642Y-94176547D02*
X149742071Y-94128166D01*
X149705785Y-94079785D01*
X149669500Y-93983023D01*
X149669500Y-93934642D01*
X149705785Y-93837880D01*
X149742071Y-93789500D01*
X149814642Y-93741119D01*
X149959785Y-93741119D01*
X150032357Y-93789500D01*
X150068642Y-93837880D01*
X150104928Y-93934642D01*
X150104928Y-93983023D01*
X150068642Y-94079785D01*
X150032357Y-94128166D01*
X149959785Y-94176547D01*
X149814642Y-94176547D01*
X149742071Y-94224928D01*
X149705785Y-94273309D01*
X149669500Y-94370071D01*
X149669500Y-94563595D01*
X149705785Y-94660357D01*
X149742071Y-94708738D01*
X149814642Y-94757119D01*
X149959785Y-94757119D01*
X150032357Y-94708738D01*
X150068642Y-94660357D01*
X150104928Y-94563595D01*
X150104928Y-94370071D01*
X150068642Y-94273309D01*
X150032357Y-94224928D01*
X149959785Y-94176547D01*
X150540357Y-94176547D02*
X150467785Y-94128166D01*
X150431500Y-94079785D01*
X150395214Y-93983023D01*
X150395214Y-93934642D01*
X150431500Y-93837880D01*
X150467785Y-93789500D01*
X150540357Y-93741119D01*
X150685500Y-93741119D01*
X150758071Y-93789500D01*
X150794357Y-93837880D01*
X150830642Y-93934642D01*
X150830642Y-93983023D01*
X150794357Y-94079785D01*
X150758071Y-94128166D01*
X150685500Y-94176547D01*
X150540357Y-94176547D01*
X150467785Y-94224928D01*
X150431500Y-94273309D01*
X150395214Y-94370071D01*
X150395214Y-94563595D01*
X150431500Y-94660357D01*
X150467785Y-94708738D01*
X150540357Y-94757119D01*
X150685500Y-94757119D01*
X150758071Y-94708738D01*
X150794357Y-94660357D01*
X150830642Y-94563595D01*
X150830642Y-94370071D01*
X150794357Y-94273309D01*
X150758071Y-94224928D01*
X150685500Y-94176547D01*
X151266071Y-93741119D02*
X151266071Y-93983023D01*
X151084642Y-93886261D02*
X151266071Y-93983023D01*
X151447500Y-93886261D01*
X151157214Y-94176547D02*
X151266071Y-93983023D01*
X151374928Y-94176547D01*
X146340285Y-93741119D02*
X146812000Y-93741119D01*
X146558000Y-94128166D01*
X146666857Y-94128166D01*
X146739428Y-94176547D01*
X146775714Y-94224928D01*
X146812000Y-94321690D01*
X146812000Y-94563595D01*
X146775714Y-94660357D01*
X146739428Y-94708738D01*
X146666857Y-94757119D01*
X146449142Y-94757119D01*
X146376571Y-94708738D01*
X146340285Y-94660357D01*
X147537714Y-94757119D02*
X147102285Y-94757119D01*
X147320000Y-94757119D02*
X147320000Y-93741119D01*
X147247428Y-93886261D01*
X147174857Y-93983023D01*
X147102285Y-94031404D01*
X147973142Y-94176547D02*
X147900571Y-94128166D01*
X147864285Y-94079785D01*
X147828000Y-93983023D01*
X147828000Y-93934642D01*
X147864285Y-93837880D01*
X147900571Y-93789500D01*
X147973142Y-93741119D01*
X148118285Y-93741119D01*
X148190857Y-93789500D01*
X148227142Y-93837880D01*
X148263428Y-93934642D01*
X148263428Y-93983023D01*
X148227142Y-94079785D01*
X148190857Y-94128166D01*
X148118285Y-94176547D01*
X147973142Y-94176547D01*
X147900571Y-94224928D01*
X147864285Y-94273309D01*
X147828000Y-94370071D01*
X147828000Y-94563595D01*
X147864285Y-94660357D01*
X147900571Y-94708738D01*
X147973142Y-94757119D01*
X148118285Y-94757119D01*
X148190857Y-94708738D01*
X148227142Y-94660357D01*
X148263428Y-94563595D01*
X148263428Y-94370071D01*
X148227142Y-94273309D01*
X148190857Y-94224928D01*
X148118285Y-94176547D01*
X143836571Y-93837880D02*
X143872857Y-93789500D01*
X143945428Y-93741119D01*
X144126857Y-93741119D01*
X144199428Y-93789500D01*
X144235714Y-93837880D01*
X144272000Y-93934642D01*
X144272000Y-94031404D01*
X144235714Y-94176547D01*
X143800285Y-94757119D01*
X144272000Y-94757119D01*
X144707428Y-94176547D02*
X144634857Y-94128166D01*
X144598571Y-94079785D01*
X144562285Y-93983023D01*
X144562285Y-93934642D01*
X144598571Y-93837880D01*
X144634857Y-93789500D01*
X144707428Y-93741119D01*
X144852571Y-93741119D01*
X144925142Y-93789500D01*
X144961428Y-93837880D01*
X144997714Y-93934642D01*
X144997714Y-93983023D01*
X144961428Y-94079785D01*
X144925142Y-94128166D01*
X144852571Y-94176547D01*
X144707428Y-94176547D01*
X144634857Y-94224928D01*
X144598571Y-94273309D01*
X144562285Y-94370071D01*
X144562285Y-94563595D01*
X144598571Y-94660357D01*
X144634857Y-94708738D01*
X144707428Y-94757119D01*
X144852571Y-94757119D01*
X144925142Y-94708738D01*
X144961428Y-94660357D01*
X144997714Y-94563595D01*
X144997714Y-94370071D01*
X144961428Y-94273309D01*
X144925142Y-94224928D01*
X144852571Y-94176547D01*
X145433142Y-94176547D02*
X145360571Y-94128166D01*
X145324285Y-94079785D01*
X145288000Y-93983023D01*
X145288000Y-93934642D01*
X145324285Y-93837880D01*
X145360571Y-93789500D01*
X145433142Y-93741119D01*
X145578285Y-93741119D01*
X145650857Y-93789500D01*
X145687142Y-93837880D01*
X145723428Y-93934642D01*
X145723428Y-93983023D01*
X145687142Y-94079785D01*
X145650857Y-94128166D01*
X145578285Y-94176547D01*
X145433142Y-94176547D01*
X145360571Y-94224928D01*
X145324285Y-94273309D01*
X145288000Y-94370071D01*
X145288000Y-94563595D01*
X145324285Y-94660357D01*
X145360571Y-94708738D01*
X145433142Y-94757119D01*
X145578285Y-94757119D01*
X145650857Y-94708738D01*
X145687142Y-94660357D01*
X145723428Y-94563595D01*
X145723428Y-94370071D01*
X145687142Y-94273309D01*
X145650857Y-94224928D01*
X145578285Y-94176547D01*
X141296571Y-93837880D02*
X141332857Y-93789500D01*
X141405428Y-93741119D01*
X141586857Y-93741119D01*
X141659428Y-93789500D01*
X141695714Y-93837880D01*
X141732000Y-93934642D01*
X141732000Y-94031404D01*
X141695714Y-94176547D01*
X141260285Y-94757119D01*
X141732000Y-94757119D01*
X142457714Y-94757119D02*
X142022285Y-94757119D01*
X142240000Y-94757119D02*
X142240000Y-93741119D01*
X142167428Y-93886261D01*
X142094857Y-93983023D01*
X142022285Y-94031404D01*
X142893142Y-94176547D02*
X142820571Y-94128166D01*
X142784285Y-94079785D01*
X142748000Y-93983023D01*
X142748000Y-93934642D01*
X142784285Y-93837880D01*
X142820571Y-93789500D01*
X142893142Y-93741119D01*
X143038285Y-93741119D01*
X143110857Y-93789500D01*
X143147142Y-93837880D01*
X143183428Y-93934642D01*
X143183428Y-93983023D01*
X143147142Y-94079785D01*
X143110857Y-94128166D01*
X143038285Y-94176547D01*
X142893142Y-94176547D01*
X142820571Y-94224928D01*
X142784285Y-94273309D01*
X142748000Y-94370071D01*
X142748000Y-94563595D01*
X142784285Y-94660357D01*
X142820571Y-94708738D01*
X142893142Y-94757119D01*
X143038285Y-94757119D01*
X143110857Y-94708738D01*
X143147142Y-94660357D01*
X143183428Y-94563595D01*
X143183428Y-94370071D01*
X143147142Y-94273309D01*
X143110857Y-94224928D01*
X143038285Y-94176547D01*
D10*
X126709714Y-93837880D02*
X126758095Y-93789500D01*
X126854857Y-93741119D01*
X127096761Y-93741119D01*
X127193523Y-93789500D01*
X127241904Y-93837880D01*
X127290285Y-93934642D01*
X127290285Y-94031404D01*
X127241904Y-94176547D01*
X126661333Y-94757119D01*
X127290285Y-94757119D01*
X124701904Y-93741119D02*
X124218095Y-93741119D01*
X124169714Y-94224928D01*
X124218095Y-94176547D01*
X124314857Y-94128166D01*
X124556761Y-94128166D01*
X124653523Y-94176547D01*
X124701904Y-94224928D01*
X124750285Y-94321690D01*
X124750285Y-94563595D01*
X124701904Y-94660357D01*
X124653523Y-94708738D01*
X124556761Y-94757119D01*
X124314857Y-94757119D01*
X124218095Y-94708738D01*
X124169714Y-94660357D01*
X121581333Y-93741119D02*
X122210285Y-93741119D01*
X121871619Y-94128166D01*
X122016761Y-94128166D01*
X122113523Y-94176547D01*
X122161904Y-94224928D01*
X122210285Y-94321690D01*
X122210285Y-94563595D01*
X122161904Y-94660357D01*
X122113523Y-94708738D01*
X122016761Y-94757119D01*
X121726476Y-94757119D01*
X121629714Y-94708738D01*
X121581333Y-94660357D01*
D11*
X182880000Y-115252500D02*
X182880000Y-124142500D01*
D13*
X182880000Y-124142500D02*
X101600000Y-124142500D01*
D11*
X182880000Y-115252500D02*
X101600000Y-115252500D01*
X101600000Y-124142500D02*
X101600000Y-115252500D01*
D14*
X203327000Y-55880000D02*
G75*
G03*
X203327000Y-55880000I-2286000J0D01*
G01*
X203327000Y-112395000D02*
G75*
G03*
X203327000Y-112395000I-2286000J0D01*
G01*
D11*
X209240120Y-92400120D02*
X205740000Y-92400120D01*
X209240120Y-85399880D02*
X209240120Y-92400120D01*
X205740000Y-85399880D02*
X209240120Y-85399880D01*
X205740000Y-82900520D02*
X205740000Y-85399880D01*
X194238880Y-82900520D02*
X205740000Y-82900520D01*
X194238880Y-94899480D02*
X194238880Y-82900520D01*
X205740000Y-94899480D02*
X194238880Y-94899480D01*
X205740000Y-92400120D02*
X205740000Y-94899480D01*
X205740000Y-85399880D02*
X205740000Y-92400120D01*
X155702000Y-103124000D02*
X156718000Y-103124000D01*
X157226000Y-103632000D02*
X157226000Y-109728000D01*
X155194000Y-103632000D02*
X155194000Y-109728000D01*
X155702000Y-110236000D02*
X156718000Y-110236000D01*
X155194000Y-109728000D02*
G75*
G03*
X155702000Y-110236000I508000J0D01*
G01*
X156718000Y-110236000D02*
G75*
G03*
X157226000Y-109728000I0J508000D01*
G01*
X155702000Y-103124000D02*
G75*
G03*
X155194000Y-103632000I0J-508000D01*
G01*
X157226000Y-103632000D02*
G75*
G03*
X156718000Y-103124000I-508000J0D01*
G01*
X104902000Y-103124000D02*
X105918000Y-103124000D01*
X106426000Y-103632000D02*
X106426000Y-109728000D01*
X104394000Y-103632000D02*
X104394000Y-109728000D01*
X104902000Y-110236000D02*
X105918000Y-110236000D01*
X104394000Y-109728000D02*
G75*
G03*
X104902000Y-110236000I508000J0D01*
G01*
X105918000Y-110236000D02*
G75*
G03*
X106426000Y-109728000I0J508000D01*
G01*
X104902000Y-103124000D02*
G75*
G03*
X104394000Y-103632000I0J-508000D01*
G01*
X106426000Y-103632000D02*
G75*
G03*
X105918000Y-103124000I-508000J0D01*
G01*
X104902000Y-85344000D02*
X105918000Y-85344000D01*
X106426000Y-85852000D02*
X106426000Y-91948000D01*
X104394000Y-85852000D02*
X104394000Y-91948000D01*
X104902000Y-92456000D02*
X105918000Y-92456000D01*
X104394000Y-91948000D02*
G75*
G03*
X104902000Y-92456000I508000J0D01*
G01*
X105918000Y-92456000D02*
G75*
G03*
X106426000Y-91948000I0J508000D01*
G01*
X104902000Y-85344000D02*
G75*
G03*
X104394000Y-85852000I0J-508000D01*
G01*
X106426000Y-85852000D02*
G75*
G03*
X105918000Y-85344000I-508000J0D01*
G01*
X130302000Y-85344000D02*
X131318000Y-85344000D01*
X131826000Y-85852000D02*
X131826000Y-91948000D01*
X129794000Y-85852000D02*
X129794000Y-91948000D01*
X130302000Y-92456000D02*
X131318000Y-92456000D01*
X129794000Y-91948000D02*
G75*
G03*
X130302000Y-92456000I508000J0D01*
G01*
X131318000Y-92456000D02*
G75*
G03*
X131826000Y-91948000I0J508000D01*
G01*
X130302000Y-85344000D02*
G75*
G03*
X129794000Y-85852000I0J-508000D01*
G01*
X131826000Y-85852000D02*
G75*
G03*
X131318000Y-85344000I-508000J0D01*
G01*
X155702000Y-86614000D02*
X156718000Y-86614000D01*
X157226000Y-87122000D02*
X157226000Y-93218000D01*
X155194000Y-87122000D02*
X155194000Y-93218000D01*
X155702000Y-93726000D02*
X156718000Y-93726000D01*
X155194000Y-93218000D02*
G75*
G03*
X155702000Y-93726000I508000J0D01*
G01*
X156718000Y-93726000D02*
G75*
G03*
X157226000Y-93218000I0J508000D01*
G01*
X155702000Y-86614000D02*
G75*
G03*
X155194000Y-87122000I0J-508000D01*
G01*
X157226000Y-87122000D02*
G75*
G03*
X156718000Y-86614000I-508000J0D01*
G01*
X154178000Y-77216000D02*
X153162000Y-77216000D01*
X152654000Y-76708000D02*
X152654000Y-70612000D01*
X154686000Y-76708000D02*
X154686000Y-70612000D01*
X154178000Y-70104000D02*
X153162000Y-70104000D01*
X154686000Y-70612000D02*
G75*
G03*
X154178000Y-70104000I-508000J0D01*
G01*
X153162000Y-70104000D02*
G75*
G03*
X152654000Y-70612000I0J-508000D01*
G01*
X154178000Y-77216000D02*
G75*
G03*
X154686000Y-76708000I0J508000D01*
G01*
X152654000Y-76708000D02*
G75*
G03*
X153162000Y-77216000I508000J0D01*
G01*
X150622000Y-70104000D02*
X151638000Y-70104000D01*
X152146000Y-70612000D02*
X152146000Y-76708000D01*
X150114000Y-70612000D02*
X150114000Y-76708000D01*
X150622000Y-77216000D02*
X151638000Y-77216000D01*
X150114000Y-76708000D02*
G75*
G03*
X150622000Y-77216000I508000J0D01*
G01*
X151638000Y-77216000D02*
G75*
G03*
X152146000Y-76708000I0J508000D01*
G01*
X150622000Y-70104000D02*
G75*
G03*
X150114000Y-70612000I0J-508000D01*
G01*
X152146000Y-70612000D02*
G75*
G03*
X151638000Y-70104000I-508000J0D01*
G01*
X178816000Y-66802000D02*
X178816000Y-67818000D01*
X178308000Y-68326000D02*
X172212000Y-68326000D01*
X178308000Y-66294000D02*
X172212000Y-66294000D01*
X171704000Y-66802000D02*
X171704000Y-67818000D01*
X172212000Y-66294000D02*
G75*
G03*
X171704000Y-66802000I0J-508000D01*
G01*
X171704000Y-67818000D02*
G75*
G03*
X172212000Y-68326000I508000J0D01*
G01*
X178816000Y-66802000D02*
G75*
G03*
X178308000Y-66294000I-508000J0D01*
G01*
X178308000Y-68326000D02*
G75*
G03*
X178816000Y-67818000I0J508000D01*
G01*
X151340820Y-64770000D02*
G75*
G03*
X151340820Y-64770000I-2750820J0D01*
G01*
X178816000Y-61722000D02*
X178816000Y-62738000D01*
X178308000Y-63246000D02*
X172212000Y-63246000D01*
X178308000Y-61214000D02*
X172212000Y-61214000D01*
X171704000Y-61722000D02*
X171704000Y-62738000D01*
X172212000Y-61214000D02*
G75*
G03*
X171704000Y-61722000I0J-508000D01*
G01*
X171704000Y-62738000D02*
G75*
G03*
X172212000Y-63246000I508000J0D01*
G01*
X178816000Y-61722000D02*
G75*
G03*
X178308000Y-61214000I-508000J0D01*
G01*
X178308000Y-63246000D02*
G75*
G03*
X178816000Y-62738000I0J508000D01*
G01*
X115824000Y-72898000D02*
X115824000Y-71882000D01*
X116332000Y-71374000D02*
X122428000Y-71374000D01*
X116332000Y-73406000D02*
X122428000Y-73406000D01*
X122936000Y-72898000D02*
X122936000Y-71882000D01*
X122428000Y-73406000D02*
G75*
G03*
X122936000Y-72898000I0J508000D01*
G01*
X122936000Y-71882000D02*
G75*
G03*
X122428000Y-71374000I-508000J0D01*
G01*
X115824000Y-72898000D02*
G75*
G03*
X116332000Y-73406000I508000J0D01*
G01*
X116332000Y-71374000D02*
G75*
G03*
X115824000Y-71882000I0J-508000D01*
G01*
X143256000Y-64262000D02*
X143256000Y-65278000D01*
X142748000Y-65786000D02*
X136652000Y-65786000D01*
X142748000Y-63754000D02*
X136652000Y-63754000D01*
X136144000Y-64262000D02*
X136144000Y-65278000D01*
X136652000Y-63754000D02*
G75*
G03*
X136144000Y-64262000I0J-508000D01*
G01*
X136144000Y-65278000D02*
G75*
G03*
X136652000Y-65786000I508000J0D01*
G01*
X143256000Y-64262000D02*
G75*
G03*
X142748000Y-63754000I-508000J0D01*
G01*
X142748000Y-65786000D02*
G75*
G03*
X143256000Y-65278000I0J508000D01*
G01*
X143256000Y-59182000D02*
X143256000Y-60198000D01*
X142748000Y-60706000D02*
X136652000Y-60706000D01*
X142748000Y-58674000D02*
X136652000Y-58674000D01*
X136144000Y-59182000D02*
X136144000Y-60198000D01*
X136652000Y-58674000D02*
G75*
G03*
X136144000Y-59182000I0J-508000D01*
G01*
X136144000Y-60198000D02*
G75*
G03*
X136652000Y-60706000I508000J0D01*
G01*
X143256000Y-59182000D02*
G75*
G03*
X142748000Y-58674000I-508000J0D01*
G01*
X142748000Y-60706000D02*
G75*
G03*
X143256000Y-60198000I0J508000D01*
G01*
X107442000Y-109220000D02*
X107442000Y-104140000D01*
X128778000Y-109220000D02*
X107442000Y-109220000D01*
X128778000Y-104140000D02*
X128778000Y-109220000D01*
X107442000Y-104140000D02*
X128778000Y-104140000D01*
X107442000Y-107696000D02*
G75*
G03*
X108458000Y-106680000I0J1016000D01*
G01*
X108458000Y-106680000D02*
G75*
G03*
X107442000Y-105664000I-1016000J0D01*
G01*
X132842000Y-109220000D02*
X132842000Y-104140000D01*
X154178000Y-109220000D02*
X132842000Y-109220000D01*
X154178000Y-104140000D02*
X154178000Y-109220000D01*
X132842000Y-104140000D02*
X154178000Y-104140000D01*
X132842000Y-107696000D02*
G75*
G03*
X133858000Y-106680000I0J1016000D01*
G01*
X133858000Y-106680000D02*
G75*
G03*
X132842000Y-105664000I-1016000J0D01*
G01*
X153670000Y-91440000D02*
X153670000Y-86360000D01*
X133350000Y-91440000D02*
X153670000Y-91440000D01*
X133350000Y-86360000D02*
X133350000Y-91440000D01*
X153670000Y-86360000D02*
X133350000Y-86360000D01*
X133350000Y-89916000D02*
G75*
G03*
X134366000Y-88900000I0J1016000D01*
G01*
X134366000Y-88900000D02*
G75*
G03*
X133350000Y-87884000I-1016000J0D01*
G01*
X157734000Y-96520000D02*
X157734000Y-83820000D01*
X190246000Y-96520000D02*
X157734000Y-96520000D01*
X190246000Y-83820000D02*
X190246000Y-96520000D01*
X157734000Y-83820000D02*
X190246000Y-83820000D01*
X157734000Y-91186000D02*
G75*
G03*
X158750000Y-90170000I0J1016000D01*
G01*
X158750000Y-90170000D02*
G75*
G03*
X157734000Y-89154000I-1016000J0D01*
G01*
X166370000Y-76200000D02*
X156210000Y-76200000D01*
X166370000Y-71120000D02*
X166370000Y-76200000D01*
X156210000Y-71120000D02*
X166370000Y-71120000D01*
X156210000Y-76200000D02*
X156210000Y-71120000D01*
X156210000Y-74676000D02*
G75*
G03*
X157226000Y-73660000I0J1016000D01*
G01*
X157226000Y-73660000D02*
G75*
G03*
X156210000Y-72644000I-1016000J0D01*
G01*
X146050000Y-76200000D02*
X146050000Y-71120000D01*
X125730000Y-76200000D02*
X146050000Y-76200000D01*
X125730000Y-71120000D02*
X125730000Y-76200000D01*
X146050000Y-71120000D02*
X125730000Y-71120000D01*
X125730000Y-74676000D02*
G75*
G03*
X126746000Y-73660000I0J1016000D01*
G01*
X126746000Y-73660000D02*
G75*
G03*
X125730000Y-72644000I-1016000J0D01*
G01*
X181610000Y-76200000D02*
X171450000Y-76200000D01*
X181610000Y-71120000D02*
X181610000Y-76200000D01*
X171450000Y-71120000D02*
X181610000Y-71120000D01*
X171450000Y-76200000D02*
X171450000Y-71120000D01*
X171450000Y-74676000D02*
G75*
G03*
X172466000Y-73660000I0J1016000D01*
G01*
X172466000Y-73660000D02*
G75*
G03*
X171450000Y-72644000I-1016000J0D01*
G01*
X170688000Y-52070000D02*
X170688000Y-55372000D01*
X170688000Y-56388000D02*
X170688000Y-59690000D01*
X170434000Y-59944000D02*
X156464000Y-59944000D01*
X155448000Y-59944000D02*
X154686000Y-59944000D01*
X154432000Y-59690000D02*
X154432000Y-52070000D01*
X154686000Y-51816000D02*
X155448000Y-51816000D01*
X156464000Y-51816000D02*
X170434000Y-51816000D01*
X175260000Y-55880000D02*
X171196000Y-55880000D01*
X154432000Y-55880000D02*
X149860000Y-55880000D01*
X156210000Y-59690000D02*
G75*
G03*
X155702000Y-59690000I-254000J-254000D01*
G01*
X156210000Y-59690000D02*
G75*
G03*
X156464000Y-59944000I254000J0D01*
G01*
X155448000Y-59944000D02*
G75*
G03*
X155702000Y-59690000I0J254000D01*
G01*
X156464000Y-51816000D02*
G75*
G03*
X156210000Y-52070000I0J-254000D01*
G01*
X155702000Y-52070000D02*
G75*
G03*
X156210000Y-52070000I254000J254000D01*
G01*
X155702000Y-52070000D02*
G75*
G03*
X155448000Y-51816000I-254000J0D01*
G01*
X154686000Y-51816000D02*
G75*
G03*
X154432000Y-52070000I0J-254000D01*
G01*
X154432000Y-59690000D02*
G75*
G03*
X154686000Y-59944000I254000J0D01*
G01*
X170434000Y-59944000D02*
G75*
G03*
X170688000Y-59690000I0J254000D01*
G01*
X170688000Y-52070000D02*
G75*
G03*
X170434000Y-51816000I-254000J0D01*
G01*
X170688000Y-56388000D02*
G75*
G03*
X171196000Y-55880000I0J508000D01*
G01*
X171196000Y-55880000D02*
G75*
G03*
X170688000Y-55372000I-508000J0D01*
G01*
X125476000Y-57150000D02*
X123952000Y-57150000D01*
X119888000Y-57150000D02*
X118110000Y-57150000D01*
X120142000Y-56134000D02*
X123698000Y-56134000D01*
X123698000Y-58166000D02*
X120142000Y-58166000D01*
X123952000Y-56388000D02*
X123952000Y-57912000D01*
X119888000Y-57912000D02*
X119888000Y-56388000D01*
X120650000Y-56134000D02*
X120650000Y-58166000D01*
X120904000Y-56134000D02*
X120904000Y-58166000D01*
X120142000Y-56134000D02*
G75*
G03*
X119888000Y-56388000I0J-254000D01*
G01*
X119888000Y-57912000D02*
G75*
G03*
X120142000Y-58166000I254000J0D01*
G01*
X123952000Y-56388000D02*
G75*
G03*
X123698000Y-56134000I-254000J0D01*
G01*
X123698000Y-58166000D02*
G75*
G03*
X123952000Y-57912000I0J254000D01*
G01*
X115570000Y-77470000D02*
X116586000Y-77470000D01*
X122174000Y-77470000D02*
X123190000Y-77470000D01*
X116586000Y-78232000D02*
X116586000Y-76708000D01*
X116840000Y-76454000D02*
X121920000Y-76454000D01*
X122174000Y-76708000D02*
X122174000Y-78232000D01*
X121920000Y-78486000D02*
X116840000Y-78486000D01*
X121920000Y-78486000D02*
G75*
G03*
X122174000Y-78232000I0J254000D01*
G01*
X122174000Y-76708000D02*
G75*
G03*
X121920000Y-76454000I-254000J0D01*
G01*
X116586000Y-78232000D02*
G75*
G03*
X116840000Y-78486000I254000J0D01*
G01*
X116840000Y-76454000D02*
G75*
G03*
X116586000Y-76708000I0J-254000D01*
G01*
X115570000Y-74930000D02*
X116586000Y-74930000D01*
X122174000Y-74930000D02*
X123190000Y-74930000D01*
X116586000Y-75692000D02*
X116586000Y-74168000D01*
X116840000Y-73914000D02*
X121920000Y-73914000D01*
X122174000Y-74168000D02*
X122174000Y-75692000D01*
X121920000Y-75946000D02*
X116840000Y-75946000D01*
X121920000Y-75946000D02*
G75*
G03*
X122174000Y-75692000I0J254000D01*
G01*
X122174000Y-74168000D02*
G75*
G03*
X121920000Y-73914000I-254000J0D01*
G01*
X116586000Y-75692000D02*
G75*
G03*
X116840000Y-75946000I254000J0D01*
G01*
X116840000Y-73914000D02*
G75*
G03*
X116586000Y-74168000I0J-254000D01*
G01*
X115570000Y-67310000D02*
X116586000Y-67310000D01*
X122174000Y-67310000D02*
X123190000Y-67310000D01*
X116586000Y-68072000D02*
X116586000Y-66548000D01*
X116840000Y-66294000D02*
X121920000Y-66294000D01*
X122174000Y-66548000D02*
X122174000Y-68072000D01*
X121920000Y-68326000D02*
X116840000Y-68326000D01*
X121920000Y-68326000D02*
G75*
G03*
X122174000Y-68072000I0J254000D01*
G01*
X122174000Y-66548000D02*
G75*
G03*
X121920000Y-66294000I-254000J0D01*
G01*
X116586000Y-68072000D02*
G75*
G03*
X116840000Y-68326000I254000J0D01*
G01*
X116840000Y-66294000D02*
G75*
G03*
X116586000Y-66548000I0J-254000D01*
G01*
X118110000Y-62230000D02*
X119126000Y-62230000D01*
X124714000Y-62230000D02*
X125730000Y-62230000D01*
X119126000Y-62992000D02*
X119126000Y-61468000D01*
X119380000Y-61214000D02*
X124460000Y-61214000D01*
X124714000Y-61468000D02*
X124714000Y-62992000D01*
X124460000Y-63246000D02*
X119380000Y-63246000D01*
X124460000Y-63246000D02*
G75*
G03*
X124714000Y-62992000I0J254000D01*
G01*
X124714000Y-61468000D02*
G75*
G03*
X124460000Y-61214000I-254000J0D01*
G01*
X119126000Y-62992000D02*
G75*
G03*
X119380000Y-63246000I254000J0D01*
G01*
X119380000Y-61214000D02*
G75*
G03*
X119126000Y-61468000I0J-254000D01*
G01*
X180340000Y-58420000D02*
X181356000Y-58420000D01*
X186944000Y-58420000D02*
X187960000Y-58420000D01*
X181356000Y-59182000D02*
X181356000Y-57658000D01*
X181610000Y-57404000D02*
X186690000Y-57404000D01*
X186944000Y-57658000D02*
X186944000Y-59182000D01*
X186690000Y-59436000D02*
X181610000Y-59436000D01*
X186690000Y-59436000D02*
G75*
G03*
X186944000Y-59182000I0J254000D01*
G01*
X186944000Y-57658000D02*
G75*
G03*
X186690000Y-57404000I-254000J0D01*
G01*
X181356000Y-59182000D02*
G75*
G03*
X181610000Y-59436000I254000J0D01*
G01*
X181610000Y-57404000D02*
G75*
G03*
X181356000Y-57658000I0J-254000D01*
G01*
X143510000Y-62230000D02*
X142494000Y-62230000D01*
X136906000Y-62230000D02*
X135890000Y-62230000D01*
X142494000Y-61468000D02*
X142494000Y-62992000D01*
X142240000Y-63246000D02*
X137160000Y-63246000D01*
X136906000Y-62992000D02*
X136906000Y-61468000D01*
X137160000Y-61214000D02*
X142240000Y-61214000D01*
X137160000Y-61214000D02*
G75*
G03*
X136906000Y-61468000I0J-254000D01*
G01*
X136906000Y-62992000D02*
G75*
G03*
X137160000Y-63246000I254000J0D01*
G01*
X142494000Y-61468000D02*
G75*
G03*
X142240000Y-61214000I-254000J0D01*
G01*
X142240000Y-63246000D02*
G75*
G03*
X142494000Y-62992000I0J254000D01*
G01*
X130810000Y-97790000D02*
X131826000Y-97790000D01*
X137414000Y-97790000D02*
X138430000Y-97790000D01*
X131826000Y-98552000D02*
X131826000Y-97028000D01*
X132080000Y-96774000D02*
X137160000Y-96774000D01*
X137414000Y-97028000D02*
X137414000Y-98552000D01*
X137160000Y-98806000D02*
X132080000Y-98806000D01*
X137160000Y-98806000D02*
G75*
G03*
X137414000Y-98552000I0J254000D01*
G01*
X137414000Y-97028000D02*
G75*
G03*
X137160000Y-96774000I-254000J0D01*
G01*
X131826000Y-98552000D02*
G75*
G03*
X132080000Y-98806000I254000J0D01*
G01*
X132080000Y-96774000D02*
G75*
G03*
X131826000Y-97028000I0J-254000D01*
G01*
X105410000Y-74930000D02*
X106426000Y-74930000D01*
X112014000Y-74930000D02*
X113030000Y-74930000D01*
X106426000Y-75692000D02*
X106426000Y-74168000D01*
X106680000Y-73914000D02*
X111760000Y-73914000D01*
X112014000Y-74168000D02*
X112014000Y-75692000D01*
X111760000Y-75946000D02*
X106680000Y-75946000D01*
X111760000Y-75946000D02*
G75*
G03*
X112014000Y-75692000I0J254000D01*
G01*
X112014000Y-74168000D02*
G75*
G03*
X111760000Y-73914000I-254000J0D01*
G01*
X106426000Y-75692000D02*
G75*
G03*
X106680000Y-75946000I254000J0D01*
G01*
X106680000Y-73914000D02*
G75*
G03*
X106426000Y-74168000I0J-254000D01*
G01*
X113030000Y-77470000D02*
X112014000Y-77470000D01*
X106426000Y-77470000D02*
X105410000Y-77470000D01*
X112014000Y-76708000D02*
X112014000Y-78232000D01*
X111760000Y-78486000D02*
X106680000Y-78486000D01*
X106426000Y-78232000D02*
X106426000Y-76708000D01*
X106680000Y-76454000D02*
X111760000Y-76454000D01*
X106680000Y-76454000D02*
G75*
G03*
X106426000Y-76708000I0J-254000D01*
G01*
X106426000Y-78232000D02*
G75*
G03*
X106680000Y-78486000I254000J0D01*
G01*
X112014000Y-76708000D02*
G75*
G03*
X111760000Y-76454000I-254000J0D01*
G01*
X111760000Y-78486000D02*
G75*
G03*
X112014000Y-78232000I0J254000D01*
G01*
X105410000Y-72390000D02*
X106426000Y-72390000D01*
X112014000Y-72390000D02*
X113030000Y-72390000D01*
X106426000Y-73152000D02*
X106426000Y-71628000D01*
X106680000Y-71374000D02*
X111760000Y-71374000D01*
X112014000Y-71628000D02*
X112014000Y-73152000D01*
X111760000Y-73406000D02*
X106680000Y-73406000D01*
X111760000Y-73406000D02*
G75*
G03*
X112014000Y-73152000I0J254000D01*
G01*
X112014000Y-71628000D02*
G75*
G03*
X111760000Y-71374000I-254000J0D01*
G01*
X106426000Y-73152000D02*
G75*
G03*
X106680000Y-73406000I254000J0D01*
G01*
X106680000Y-71374000D02*
G75*
G03*
X106426000Y-71628000I0J-254000D01*
G01*
X113030000Y-69850000D02*
X112014000Y-69850000D01*
X106426000Y-69850000D02*
X105410000Y-69850000D01*
X112014000Y-69088000D02*
X112014000Y-70612000D01*
X111760000Y-70866000D02*
X106680000Y-70866000D01*
X106426000Y-70612000D02*
X106426000Y-69088000D01*
X106680000Y-68834000D02*
X111760000Y-68834000D01*
X106680000Y-68834000D02*
G75*
G03*
X106426000Y-69088000I0J-254000D01*
G01*
X106426000Y-70612000D02*
G75*
G03*
X106680000Y-70866000I254000J0D01*
G01*
X112014000Y-69088000D02*
G75*
G03*
X111760000Y-68834000I-254000J0D01*
G01*
X111760000Y-70866000D02*
G75*
G03*
X112014000Y-70612000I0J254000D01*
G01*
X125730000Y-59690000D02*
X124714000Y-59690000D01*
X119126000Y-59690000D02*
X118110000Y-59690000D01*
X124714000Y-58928000D02*
X124714000Y-60452000D01*
X124460000Y-60706000D02*
X119380000Y-60706000D01*
X119126000Y-60452000D02*
X119126000Y-58928000D01*
X119380000Y-58674000D02*
X124460000Y-58674000D01*
X119380000Y-58674000D02*
G75*
G03*
X119126000Y-58928000I0J-254000D01*
G01*
X119126000Y-60452000D02*
G75*
G03*
X119380000Y-60706000I254000J0D01*
G01*
X124714000Y-58928000D02*
G75*
G03*
X124460000Y-58674000I-254000J0D01*
G01*
X124460000Y-60706000D02*
G75*
G03*
X124714000Y-60452000I0J254000D01*
G01*
X125730000Y-64770000D02*
X124714000Y-64770000D01*
X119126000Y-64770000D02*
X118110000Y-64770000D01*
X124714000Y-64008000D02*
X124714000Y-65532000D01*
X124460000Y-65786000D02*
X119380000Y-65786000D01*
X119126000Y-65532000D02*
X119126000Y-64008000D01*
X119380000Y-63754000D02*
X124460000Y-63754000D01*
X119380000Y-63754000D02*
G75*
G03*
X119126000Y-64008000I0J-254000D01*
G01*
X119126000Y-65532000D02*
G75*
G03*
X119380000Y-65786000I254000J0D01*
G01*
X124714000Y-64008000D02*
G75*
G03*
X124460000Y-63754000I-254000J0D01*
G01*
X124460000Y-65786000D02*
G75*
G03*
X124714000Y-65532000I0J254000D01*
G01*
X162560000Y-62230000D02*
X161544000Y-62230000D01*
X155956000Y-62230000D02*
X154940000Y-62230000D01*
X161544000Y-61468000D02*
X161544000Y-62992000D01*
X161290000Y-63246000D02*
X156210000Y-63246000D01*
X155956000Y-62992000D02*
X155956000Y-61468000D01*
X156210000Y-61214000D02*
X161290000Y-61214000D01*
X156210000Y-61214000D02*
G75*
G03*
X155956000Y-61468000I0J-254000D01*
G01*
X155956000Y-62992000D02*
G75*
G03*
X156210000Y-63246000I254000J0D01*
G01*
X161544000Y-61468000D02*
G75*
G03*
X161290000Y-61214000I-254000J0D01*
G01*
X161290000Y-63246000D02*
G75*
G03*
X161544000Y-62992000I0J254000D01*
G01*
X187960000Y-55880000D02*
X186944000Y-55880000D01*
X181356000Y-55880000D02*
X180340000Y-55880000D01*
X186944000Y-55118000D02*
X186944000Y-56642000D01*
X186690000Y-56896000D02*
X181610000Y-56896000D01*
X181356000Y-56642000D02*
X181356000Y-55118000D01*
X181610000Y-54864000D02*
X186690000Y-54864000D01*
X181610000Y-54864000D02*
G75*
G03*
X181356000Y-55118000I0J-254000D01*
G01*
X181356000Y-56642000D02*
G75*
G03*
X181610000Y-56896000I254000J0D01*
G01*
X186944000Y-55118000D02*
G75*
G03*
X186690000Y-54864000I-254000J0D01*
G01*
X186690000Y-56896000D02*
G75*
G03*
X186944000Y-56642000I0J254000D01*
G01*
X140970000Y-100330000D02*
X140970000Y-95250000D01*
X151130000Y-100330000D02*
X140970000Y-100330000D01*
X151130000Y-95250000D02*
X151130000Y-100330000D01*
X140970000Y-95250000D02*
X151130000Y-95250000D01*
X128270000Y-100330000D02*
X120650000Y-100330000D01*
X128270000Y-95250000D02*
X128270000Y-100330000D01*
X120650000Y-95250000D02*
X128270000Y-95250000D01*
X120650000Y-100330000D02*
X120650000Y-95250000D01*
X129159000Y-59817000D02*
X129159000Y-64643000D01*
X129159000Y-59817000D02*
X130810000Y-59817000D01*
X130810000Y-64643000D02*
X129159000Y-64643000D01*
X130810000Y-64643000D02*
G75*
G03*
X133223000Y-62230000I0J2413000D01*
G01*
X133223000Y-62230000D02*
G75*
G03*
X130810000Y-59817000I-2413000J0D01*
G01*
X187960000Y-53340000D02*
X186944000Y-53340000D01*
X181356000Y-53340000D02*
X180340000Y-53340000D01*
X186944000Y-52578000D02*
X186944000Y-54102000D01*
X186690000Y-54356000D02*
X181610000Y-54356000D01*
X181356000Y-54102000D02*
X181356000Y-52578000D01*
X181610000Y-52324000D02*
X186690000Y-52324000D01*
X181610000Y-52324000D02*
G75*
G03*
X181356000Y-52578000I0J-254000D01*
G01*
X181356000Y-54102000D02*
G75*
G03*
X181610000Y-54356000I254000J0D01*
G01*
X186944000Y-52578000D02*
G75*
G03*
X186690000Y-52324000I-254000J0D01*
G01*
X186690000Y-54356000D02*
G75*
G03*
X186944000Y-54102000I0J254000D01*
G01*
X183515000Y-60579000D02*
X196215000Y-60579000D01*
X196215000Y-63817500D02*
X196215000Y-60579000D01*
X196215000Y-76581000D02*
X183515000Y-76581000D01*
X183515000Y-76581000D02*
X183515000Y-60579000D01*
X196215000Y-73342500D02*
X196215000Y-76581000D01*
X196215000Y-63817500D02*
X205740000Y-63817500D01*
X205740000Y-73342500D02*
X196215000Y-73342500D01*
X205740000Y-63817500D02*
X205740000Y-73342500D01*
X115570000Y-69850000D02*
X116586000Y-69850000D01*
X122174000Y-69850000D02*
X123190000Y-69850000D01*
X116586000Y-70612000D02*
X116586000Y-69088000D01*
X116840000Y-68834000D02*
X121920000Y-68834000D01*
X122174000Y-69088000D02*
X122174000Y-70612000D01*
X121920000Y-70866000D02*
X116840000Y-70866000D01*
X121920000Y-70866000D02*
G75*
G03*
X122174000Y-70612000I0J254000D01*
G01*
X122174000Y-69088000D02*
G75*
G03*
X121920000Y-68834000I-254000J0D01*
G01*
X116586000Y-70612000D02*
G75*
G03*
X116840000Y-70866000I254000J0D01*
G01*
X116840000Y-68834000D02*
G75*
G03*
X116586000Y-69088000I0J-254000D01*
G01*
X157988000Y-109220000D02*
X157988000Y-104140000D01*
X184912000Y-109220000D02*
X157988000Y-109220000D01*
X184912000Y-104140000D02*
X184912000Y-109220000D01*
X157988000Y-104140000D02*
X184912000Y-104140000D01*
X157988000Y-107696000D02*
G75*
G03*
X159004000Y-106680000I0J1016000D01*
G01*
X159004000Y-106680000D02*
G75*
G03*
X157988000Y-105664000I-1016000J0D01*
G01*
X128270000Y-91440000D02*
X128270000Y-86360000D01*
X107950000Y-91440000D02*
X128270000Y-91440000D01*
X107950000Y-86360000D02*
X107950000Y-91440000D01*
X128270000Y-86360000D02*
X107950000Y-86360000D01*
X107950000Y-89916000D02*
G75*
G03*
X108966000Y-88900000I0J1016000D01*
G01*
X108966000Y-88900000D02*
G75*
G03*
X107950000Y-87884000I-1016000J0D01*
G01*
X130302000Y-103124000D02*
X131318000Y-103124000D01*
X131826000Y-103632000D02*
X131826000Y-109728000D01*
X129794000Y-103632000D02*
X129794000Y-109728000D01*
X130302000Y-110236000D02*
X131318000Y-110236000D01*
X129794000Y-109728000D02*
G75*
G03*
X130302000Y-110236000I508000J0D01*
G01*
X131318000Y-110236000D02*
G75*
G03*
X131826000Y-109728000I0J508000D01*
G01*
X130302000Y-103124000D02*
G75*
G03*
X129794000Y-103632000I0J-508000D01*
G01*
X131826000Y-103632000D02*
G75*
G03*
X131318000Y-103124000I-508000J0D01*
G01*
X148082000Y-70104000D02*
X149098000Y-70104000D01*
X149606000Y-70612000D02*
X149606000Y-76708000D01*
X147574000Y-70612000D02*
X147574000Y-76708000D01*
X148082000Y-77216000D02*
X149098000Y-77216000D01*
X147574000Y-76708000D02*
G75*
G03*
X148082000Y-77216000I508000J0D01*
G01*
X149098000Y-77216000D02*
G75*
G03*
X149606000Y-76708000I0J508000D01*
G01*
X148082000Y-70104000D02*
G75*
G03*
X147574000Y-70612000I0J-508000D01*
G01*
X149606000Y-70612000D02*
G75*
G03*
X149098000Y-70104000I-508000J0D01*
G01*
X169418000Y-77216000D02*
X168402000Y-77216000D01*
X167894000Y-76708000D02*
X167894000Y-70612000D01*
X169926000Y-76708000D02*
X169926000Y-70612000D01*
X169418000Y-70104000D02*
X168402000Y-70104000D01*
X169926000Y-70612000D02*
G75*
G03*
X169418000Y-70104000I-508000J0D01*
G01*
X168402000Y-70104000D02*
G75*
G03*
X167894000Y-70612000I0J-508000D01*
G01*
X169418000Y-77216000D02*
G75*
G03*
X169926000Y-76708000I0J508000D01*
G01*
X167894000Y-76708000D02*
G75*
G03*
X168402000Y-77216000I508000J0D01*
G01*
X195790820Y-107950000D02*
G75*
G03*
X195790820Y-107950000I-2750820J0D01*
G01*
X195790820Y-100330000D02*
G75*
G03*
X195790820Y-100330000I-2750820J0D01*
G01*
X202140820Y-100330000D02*
G75*
G03*
X202140820Y-100330000I-2750820J0D01*
G01*
X108160820Y-62230000D02*
G75*
G03*
X108160820Y-62230000I-2750820J0D01*
G01*
X170390820Y-64770000D02*
G75*
G03*
X170390820Y-64770000I-2750820J0D01*
G01*
X115780820Y-62230000D02*
G75*
G03*
X115780820Y-62230000I-2750820J0D01*
G01*
X105664000Y-80518000D02*
X105664000Y-79502000D01*
X106172000Y-78994000D02*
X112268000Y-78994000D01*
X106172000Y-81026000D02*
X112268000Y-81026000D01*
X112776000Y-80518000D02*
X112776000Y-79502000D01*
X112268000Y-81026000D02*
G75*
G03*
X112776000Y-80518000I0J508000D01*
G01*
X112776000Y-79502000D02*
G75*
G03*
X112268000Y-78994000I-508000J0D01*
G01*
X105664000Y-80518000D02*
G75*
G03*
X106172000Y-81026000I508000J0D01*
G01*
X106172000Y-78994000D02*
G75*
G03*
X105664000Y-79502000I0J-508000D01*
G01*
X115824000Y-80518000D02*
X115824000Y-79502000D01*
X116332000Y-78994000D02*
X122428000Y-78994000D01*
X116332000Y-81026000D02*
X122428000Y-81026000D01*
X122936000Y-80518000D02*
X122936000Y-79502000D01*
X122428000Y-81026000D02*
G75*
G03*
X122936000Y-80518000I0J508000D01*
G01*
X122936000Y-79502000D02*
G75*
G03*
X122428000Y-78994000I-508000J0D01*
G01*
X115824000Y-80518000D02*
G75*
G03*
X116332000Y-81026000I508000J0D01*
G01*
X116332000Y-78994000D02*
G75*
G03*
X115824000Y-79502000I0J-508000D01*
G01*
X105664000Y-67818000D02*
X105664000Y-66802000D01*
X106172000Y-66294000D02*
X112268000Y-66294000D01*
X106172000Y-68326000D02*
X112268000Y-68326000D01*
X112776000Y-67818000D02*
X112776000Y-66802000D01*
X112268000Y-68326000D02*
G75*
G03*
X112776000Y-67818000I0J508000D01*
G01*
X112776000Y-66802000D02*
G75*
G03*
X112268000Y-66294000I-508000J0D01*
G01*
X105664000Y-67818000D02*
G75*
G03*
X106172000Y-68326000I508000J0D01*
G01*
X106172000Y-66294000D02*
G75*
G03*
X105664000Y-66802000I0J-508000D01*
G01*
D10*
X192801119Y-93683666D02*
X193526833Y-93683666D01*
X193671976Y-93732047D01*
X193768738Y-93828809D01*
X193817119Y-93973952D01*
X193817119Y-94070714D01*
X193817119Y-92667666D02*
X193817119Y-93248238D01*
X193817119Y-92957952D02*
X192801119Y-92957952D01*
X192946261Y-93054714D01*
X193043023Y-93151476D01*
X193091404Y-93248238D01*
D12*
X193526833Y-89663799D02*
X193526833Y-89300942D01*
X193817119Y-89772656D02*
X192801119Y-89391656D01*
X193817119Y-89264656D01*
X192801119Y-88883656D02*
X193623595Y-88986465D01*
X193720357Y-88962275D01*
X193768738Y-88932037D01*
X193817119Y-88865513D01*
X193817119Y-88720370D01*
X193768738Y-88641751D01*
X193720357Y-88599418D01*
X193623595Y-88551037D01*
X192801119Y-88448227D01*
X193817119Y-88212370D02*
X192801119Y-88085370D01*
X192801119Y-87903942D01*
X192849500Y-87801132D01*
X192946261Y-87740656D01*
X193043023Y-87716465D01*
X193236547Y-87704370D01*
X193381690Y-87722513D01*
X193575214Y-87782989D01*
X193671976Y-87831370D01*
X193768738Y-87916037D01*
X193817119Y-88030942D01*
X193817119Y-88212370D01*
X193817119Y-87450370D02*
X192801119Y-87323370D01*
X192801119Y-86815370D02*
X192801119Y-86670227D01*
X192849500Y-86603703D01*
X192946261Y-86543227D01*
X193139785Y-86531132D01*
X193478452Y-86573465D01*
X193671976Y-86633942D01*
X193768738Y-86718608D01*
X193817119Y-86797227D01*
X193817119Y-86942370D01*
X193768738Y-87008894D01*
X193671976Y-87069370D01*
X193478452Y-87081465D01*
X193139785Y-87039132D01*
X192946261Y-86978656D01*
X192849500Y-86893989D01*
X192801119Y-86815370D01*
X193913880Y-86482751D02*
X193913880Y-85902180D01*
X192801119Y-85436513D02*
X192801119Y-85291370D01*
X192849500Y-85224846D01*
X192946261Y-85164370D01*
X193139785Y-85152275D01*
X193478452Y-85194608D01*
X193671976Y-85255084D01*
X193768738Y-85339751D01*
X193817119Y-85418370D01*
X193817119Y-85563513D01*
X193768738Y-85630037D01*
X193671976Y-85690513D01*
X193478452Y-85702608D01*
X193139785Y-85660275D01*
X192946261Y-85599799D01*
X192849500Y-85515132D01*
X192801119Y-85436513D01*
X192801119Y-84783370D02*
X193623595Y-84886180D01*
X193720357Y-84861989D01*
X193768738Y-84831751D01*
X193817119Y-84765227D01*
X193817119Y-84620084D01*
X193768738Y-84541465D01*
X193720357Y-84499132D01*
X193623595Y-84450751D01*
X192801119Y-84347942D01*
X192801119Y-84093942D02*
X192801119Y-83658513D01*
X193817119Y-84003227D02*
X192801119Y-83876227D01*
D10*
X156572857Y-111611833D02*
X156621238Y-111660214D01*
X156669619Y-111805357D01*
X156669619Y-111902119D01*
X156621238Y-112047261D01*
X156524476Y-112144023D01*
X156427714Y-112192404D01*
X156234190Y-112240785D01*
X156089047Y-112240785D01*
X155895523Y-112192404D01*
X155798761Y-112144023D01*
X155702000Y-112047261D01*
X155653619Y-111902119D01*
X155653619Y-111805357D01*
X155702000Y-111660214D01*
X155750380Y-111611833D01*
X156669619Y-110644214D02*
X156669619Y-111224785D01*
X156669619Y-110934500D02*
X155653619Y-110934500D01*
X155798761Y-111031261D01*
X155895523Y-111128023D01*
X155943904Y-111224785D01*
D12*
X155653619Y-107906442D02*
X155653619Y-107833870D01*
X155702000Y-107767346D01*
X155750380Y-107737108D01*
X155847142Y-107712918D01*
X156040666Y-107700822D01*
X156282571Y-107731061D01*
X156476095Y-107791537D01*
X156572857Y-107839918D01*
X156621238Y-107882251D01*
X156669619Y-107960870D01*
X156669619Y-108033442D01*
X156621238Y-108099965D01*
X156572857Y-108130203D01*
X156476095Y-108154394D01*
X156282571Y-108166489D01*
X156040666Y-108136251D01*
X155847142Y-108075775D01*
X155750380Y-108027394D01*
X155702000Y-107985061D01*
X155653619Y-107906442D01*
X156572857Y-107440775D02*
X156621238Y-107410537D01*
X156669619Y-107452870D01*
X156621238Y-107483108D01*
X156572857Y-107440775D01*
X156669619Y-107452870D01*
X156669619Y-106690870D02*
X156669619Y-107126299D01*
X156669619Y-106908584D02*
X155653619Y-106781584D01*
X155798761Y-106872299D01*
X155895523Y-106956965D01*
X155943904Y-107035584D01*
X155992285Y-105953061D02*
X156669619Y-106037727D01*
X155992285Y-106279632D02*
X156524476Y-106346156D01*
X156621238Y-106321965D01*
X156669619Y-106255442D01*
X156669619Y-106146584D01*
X156621238Y-106067965D01*
X156572857Y-106025632D01*
X156137428Y-105354346D02*
X156137428Y-105608346D01*
X156669619Y-105674870D02*
X155653619Y-105547870D01*
X155653619Y-105185013D01*
D10*
X105772857Y-111611833D02*
X105821238Y-111660214D01*
X105869619Y-111805357D01*
X105869619Y-111902119D01*
X105821238Y-112047261D01*
X105724476Y-112144023D01*
X105627714Y-112192404D01*
X105434190Y-112240785D01*
X105289047Y-112240785D01*
X105095523Y-112192404D01*
X104998761Y-112144023D01*
X104902000Y-112047261D01*
X104853619Y-111902119D01*
X104853619Y-111805357D01*
X104902000Y-111660214D01*
X104950380Y-111611833D01*
X104950380Y-111224785D02*
X104902000Y-111176404D01*
X104853619Y-111079642D01*
X104853619Y-110837738D01*
X104902000Y-110740976D01*
X104950380Y-110692595D01*
X105047142Y-110644214D01*
X105143904Y-110644214D01*
X105289047Y-110692595D01*
X105869619Y-111273166D01*
X105869619Y-110644214D01*
D12*
X104853619Y-107906442D02*
X104853619Y-107833870D01*
X104902000Y-107767346D01*
X104950380Y-107737108D01*
X105047142Y-107712918D01*
X105240666Y-107700822D01*
X105482571Y-107731061D01*
X105676095Y-107791537D01*
X105772857Y-107839918D01*
X105821238Y-107882251D01*
X105869619Y-107960870D01*
X105869619Y-108033442D01*
X105821238Y-108099965D01*
X105772857Y-108130203D01*
X105676095Y-108154394D01*
X105482571Y-108166489D01*
X105240666Y-108136251D01*
X105047142Y-108075775D01*
X104950380Y-108027394D01*
X104902000Y-107985061D01*
X104853619Y-107906442D01*
X105772857Y-107440775D02*
X105821238Y-107410537D01*
X105869619Y-107452870D01*
X105821238Y-107483108D01*
X105772857Y-107440775D01*
X105869619Y-107452870D01*
X105869619Y-106690870D02*
X105869619Y-107126299D01*
X105869619Y-106908584D02*
X104853619Y-106781584D01*
X104998761Y-106872299D01*
X105095523Y-106956965D01*
X105143904Y-107035584D01*
X105192285Y-105953061D02*
X105869619Y-106037727D01*
X105192285Y-106279632D02*
X105724476Y-106346156D01*
X105821238Y-106321965D01*
X105869619Y-106255442D01*
X105869619Y-106146584D01*
X105821238Y-106067965D01*
X105772857Y-106025632D01*
X105337428Y-105354346D02*
X105337428Y-105608346D01*
X105869619Y-105674870D02*
X104853619Y-105547870D01*
X104853619Y-105185013D01*
D10*
X105772857Y-93831833D02*
X105821238Y-93880214D01*
X105869619Y-94025357D01*
X105869619Y-94122119D01*
X105821238Y-94267261D01*
X105724476Y-94364023D01*
X105627714Y-94412404D01*
X105434190Y-94460785D01*
X105289047Y-94460785D01*
X105095523Y-94412404D01*
X104998761Y-94364023D01*
X104902000Y-94267261D01*
X104853619Y-94122119D01*
X104853619Y-94025357D01*
X104902000Y-93880214D01*
X104950380Y-93831833D01*
X105192285Y-92960976D02*
X105869619Y-92960976D01*
X104805238Y-93202880D02*
X105530952Y-93444785D01*
X105530952Y-92815833D01*
D12*
X104853619Y-90126442D02*
X104853619Y-90053870D01*
X104902000Y-89987346D01*
X104950380Y-89957108D01*
X105047142Y-89932918D01*
X105240666Y-89920822D01*
X105482571Y-89951061D01*
X105676095Y-90011537D01*
X105772857Y-90059918D01*
X105821238Y-90102251D01*
X105869619Y-90180870D01*
X105869619Y-90253442D01*
X105821238Y-90319965D01*
X105772857Y-90350203D01*
X105676095Y-90374394D01*
X105482571Y-90386489D01*
X105240666Y-90356251D01*
X105047142Y-90295775D01*
X104950380Y-90247394D01*
X104902000Y-90205061D01*
X104853619Y-90126442D01*
X105772857Y-89660775D02*
X105821238Y-89630537D01*
X105869619Y-89672870D01*
X105821238Y-89703108D01*
X105772857Y-89660775D01*
X105869619Y-89672870D01*
X105869619Y-88910870D02*
X105869619Y-89346299D01*
X105869619Y-89128584D02*
X104853619Y-89001584D01*
X104998761Y-89092299D01*
X105095523Y-89176965D01*
X105143904Y-89255584D01*
X105192285Y-88173061D02*
X105869619Y-88257727D01*
X105192285Y-88499632D02*
X105724476Y-88566156D01*
X105821238Y-88541965D01*
X105869619Y-88475442D01*
X105869619Y-88366584D01*
X105821238Y-88287965D01*
X105772857Y-88245632D01*
X105337428Y-87574346D02*
X105337428Y-87828346D01*
X105869619Y-87894870D02*
X104853619Y-87767870D01*
X104853619Y-87405013D01*
D10*
X131172857Y-93831833D02*
X131221238Y-93880214D01*
X131269619Y-94025357D01*
X131269619Y-94122119D01*
X131221238Y-94267261D01*
X131124476Y-94364023D01*
X131027714Y-94412404D01*
X130834190Y-94460785D01*
X130689047Y-94460785D01*
X130495523Y-94412404D01*
X130398761Y-94364023D01*
X130302000Y-94267261D01*
X130253619Y-94122119D01*
X130253619Y-94025357D01*
X130302000Y-93880214D01*
X130350380Y-93831833D01*
X130253619Y-92912595D02*
X130253619Y-93396404D01*
X130737428Y-93444785D01*
X130689047Y-93396404D01*
X130640666Y-93299642D01*
X130640666Y-93057738D01*
X130689047Y-92960976D01*
X130737428Y-92912595D01*
X130834190Y-92864214D01*
X131076095Y-92864214D01*
X131172857Y-92912595D01*
X131221238Y-92960976D01*
X131269619Y-93057738D01*
X131269619Y-93299642D01*
X131221238Y-93396404D01*
X131172857Y-93444785D01*
D12*
X130253619Y-90126442D02*
X130253619Y-90053870D01*
X130302000Y-89987346D01*
X130350380Y-89957108D01*
X130447142Y-89932918D01*
X130640666Y-89920822D01*
X130882571Y-89951061D01*
X131076095Y-90011537D01*
X131172857Y-90059918D01*
X131221238Y-90102251D01*
X131269619Y-90180870D01*
X131269619Y-90253442D01*
X131221238Y-90319965D01*
X131172857Y-90350203D01*
X131076095Y-90374394D01*
X130882571Y-90386489D01*
X130640666Y-90356251D01*
X130447142Y-90295775D01*
X130350380Y-90247394D01*
X130302000Y-90205061D01*
X130253619Y-90126442D01*
X131172857Y-89660775D02*
X131221238Y-89630537D01*
X131269619Y-89672870D01*
X131221238Y-89703108D01*
X131172857Y-89660775D01*
X131269619Y-89672870D01*
X131269619Y-88910870D02*
X131269619Y-89346299D01*
X131269619Y-89128584D02*
X130253619Y-89001584D01*
X130398761Y-89092299D01*
X130495523Y-89176965D01*
X130543904Y-89255584D01*
X130592285Y-88173061D02*
X131269619Y-88257727D01*
X130592285Y-88499632D02*
X131124476Y-88566156D01*
X131221238Y-88541965D01*
X131269619Y-88475442D01*
X131269619Y-88366584D01*
X131221238Y-88287965D01*
X131172857Y-88245632D01*
X130737428Y-87574346D02*
X130737428Y-87828346D01*
X131269619Y-87894870D02*
X130253619Y-87767870D01*
X130253619Y-87405013D01*
D10*
X156572857Y-95101833D02*
X156621238Y-95150214D01*
X156669619Y-95295357D01*
X156669619Y-95392119D01*
X156621238Y-95537261D01*
X156524476Y-95634023D01*
X156427714Y-95682404D01*
X156234190Y-95730785D01*
X156089047Y-95730785D01*
X155895523Y-95682404D01*
X155798761Y-95634023D01*
X155702000Y-95537261D01*
X155653619Y-95392119D01*
X155653619Y-95295357D01*
X155702000Y-95150214D01*
X155750380Y-95101833D01*
X155653619Y-94230976D02*
X155653619Y-94424500D01*
X155702000Y-94521261D01*
X155750380Y-94569642D01*
X155895523Y-94666404D01*
X156089047Y-94714785D01*
X156476095Y-94714785D01*
X156572857Y-94666404D01*
X156621238Y-94618023D01*
X156669619Y-94521261D01*
X156669619Y-94327738D01*
X156621238Y-94230976D01*
X156572857Y-94182595D01*
X156476095Y-94134214D01*
X156234190Y-94134214D01*
X156137428Y-94182595D01*
X156089047Y-94230976D01*
X156040666Y-94327738D01*
X156040666Y-94521261D01*
X156089047Y-94618023D01*
X156137428Y-94666404D01*
X156234190Y-94714785D01*
D12*
X155653619Y-91396442D02*
X155653619Y-91323870D01*
X155702000Y-91257346D01*
X155750380Y-91227108D01*
X155847142Y-91202918D01*
X156040666Y-91190822D01*
X156282571Y-91221061D01*
X156476095Y-91281537D01*
X156572857Y-91329918D01*
X156621238Y-91372251D01*
X156669619Y-91450870D01*
X156669619Y-91523442D01*
X156621238Y-91589965D01*
X156572857Y-91620203D01*
X156476095Y-91644394D01*
X156282571Y-91656489D01*
X156040666Y-91626251D01*
X155847142Y-91565775D01*
X155750380Y-91517394D01*
X155702000Y-91475061D01*
X155653619Y-91396442D01*
X156572857Y-90930775D02*
X156621238Y-90900537D01*
X156669619Y-90942870D01*
X156621238Y-90973108D01*
X156572857Y-90930775D01*
X156669619Y-90942870D01*
X156669619Y-90180870D02*
X156669619Y-90616299D01*
X156669619Y-90398584D02*
X155653619Y-90271584D01*
X155798761Y-90362299D01*
X155895523Y-90446965D01*
X155943904Y-90525584D01*
X155992285Y-89443061D02*
X156669619Y-89527727D01*
X155992285Y-89769632D02*
X156524476Y-89836156D01*
X156621238Y-89811965D01*
X156669619Y-89745442D01*
X156669619Y-89636584D01*
X156621238Y-89557965D01*
X156572857Y-89515632D01*
X156137428Y-88844346D02*
X156137428Y-89098346D01*
X156669619Y-89164870D02*
X155653619Y-89037870D01*
X155653619Y-88675013D01*
D10*
X154032857Y-78909333D02*
X154081238Y-78957714D01*
X154129619Y-79102857D01*
X154129619Y-79199619D01*
X154081238Y-79344761D01*
X153984476Y-79441523D01*
X153887714Y-79489904D01*
X153694190Y-79538285D01*
X153549047Y-79538285D01*
X153355523Y-79489904D01*
X153258761Y-79441523D01*
X153162000Y-79344761D01*
X153113619Y-79199619D01*
X153113619Y-79102857D01*
X153162000Y-78957714D01*
X153210380Y-78909333D01*
X153113619Y-78570666D02*
X153113619Y-77893333D01*
X154129619Y-78328761D01*
D12*
X153113619Y-74886442D02*
X153113619Y-74813870D01*
X153162000Y-74747346D01*
X153210380Y-74717108D01*
X153307142Y-74692918D01*
X153500666Y-74680822D01*
X153742571Y-74711061D01*
X153936095Y-74771537D01*
X154032857Y-74819918D01*
X154081238Y-74862251D01*
X154129619Y-74940870D01*
X154129619Y-75013442D01*
X154081238Y-75079965D01*
X154032857Y-75110203D01*
X153936095Y-75134394D01*
X153742571Y-75146489D01*
X153500666Y-75116251D01*
X153307142Y-75055775D01*
X153210380Y-75007394D01*
X153162000Y-74965061D01*
X153113619Y-74886442D01*
X154032857Y-74420775D02*
X154081238Y-74390537D01*
X154129619Y-74432870D01*
X154081238Y-74463108D01*
X154032857Y-74420775D01*
X154129619Y-74432870D01*
X154129619Y-73670870D02*
X154129619Y-74106299D01*
X154129619Y-73888584D02*
X153113619Y-73761584D01*
X153258761Y-73852299D01*
X153355523Y-73936965D01*
X153403904Y-74015584D01*
X153452285Y-72933061D02*
X154129619Y-73017727D01*
X153452285Y-73259632D02*
X153984476Y-73326156D01*
X154081238Y-73301965D01*
X154129619Y-73235442D01*
X154129619Y-73126584D01*
X154081238Y-73047965D01*
X154032857Y-73005632D01*
X153597428Y-72334346D02*
X153597428Y-72588346D01*
X154129619Y-72654870D02*
X153113619Y-72527870D01*
X153113619Y-72165013D01*
D10*
X151492857Y-78909333D02*
X151541238Y-78957714D01*
X151589619Y-79102857D01*
X151589619Y-79199619D01*
X151541238Y-79344761D01*
X151444476Y-79441523D01*
X151347714Y-79489904D01*
X151154190Y-79538285D01*
X151009047Y-79538285D01*
X150815523Y-79489904D01*
X150718761Y-79441523D01*
X150622000Y-79344761D01*
X150573619Y-79199619D01*
X150573619Y-79102857D01*
X150622000Y-78957714D01*
X150670380Y-78909333D01*
X151009047Y-78328761D02*
X150960666Y-78425523D01*
X150912285Y-78473904D01*
X150815523Y-78522285D01*
X150767142Y-78522285D01*
X150670380Y-78473904D01*
X150622000Y-78425523D01*
X150573619Y-78328761D01*
X150573619Y-78135238D01*
X150622000Y-78038476D01*
X150670380Y-77990095D01*
X150767142Y-77941714D01*
X150815523Y-77941714D01*
X150912285Y-77990095D01*
X150960666Y-78038476D01*
X151009047Y-78135238D01*
X151009047Y-78328761D01*
X151057428Y-78425523D01*
X151105809Y-78473904D01*
X151202571Y-78522285D01*
X151396095Y-78522285D01*
X151492857Y-78473904D01*
X151541238Y-78425523D01*
X151589619Y-78328761D01*
X151589619Y-78135238D01*
X151541238Y-78038476D01*
X151492857Y-77990095D01*
X151396095Y-77941714D01*
X151202571Y-77941714D01*
X151105809Y-77990095D01*
X151057428Y-78038476D01*
X151009047Y-78135238D01*
D12*
X150573619Y-74886442D02*
X150573619Y-74813870D01*
X150622000Y-74747346D01*
X150670380Y-74717108D01*
X150767142Y-74692918D01*
X150960666Y-74680822D01*
X151202571Y-74711061D01*
X151396095Y-74771537D01*
X151492857Y-74819918D01*
X151541238Y-74862251D01*
X151589619Y-74940870D01*
X151589619Y-75013442D01*
X151541238Y-75079965D01*
X151492857Y-75110203D01*
X151396095Y-75134394D01*
X151202571Y-75146489D01*
X150960666Y-75116251D01*
X150767142Y-75055775D01*
X150670380Y-75007394D01*
X150622000Y-74965061D01*
X150573619Y-74886442D01*
X151492857Y-74420775D02*
X151541238Y-74390537D01*
X151589619Y-74432870D01*
X151541238Y-74463108D01*
X151492857Y-74420775D01*
X151589619Y-74432870D01*
X151589619Y-73670870D02*
X151589619Y-74106299D01*
X151589619Y-73888584D02*
X150573619Y-73761584D01*
X150718761Y-73852299D01*
X150815523Y-73936965D01*
X150863904Y-74015584D01*
X150912285Y-72933061D02*
X151589619Y-73017727D01*
X150912285Y-73259632D02*
X151444476Y-73326156D01*
X151541238Y-73301965D01*
X151589619Y-73235442D01*
X151589619Y-73126584D01*
X151541238Y-73047965D01*
X151492857Y-73005632D01*
X151057428Y-72334346D02*
X151057428Y-72588346D01*
X151589619Y-72654870D02*
X150573619Y-72527870D01*
X150573619Y-72165013D01*
D10*
X174773166Y-65767857D02*
X174724785Y-65816238D01*
X174579642Y-65864619D01*
X174482880Y-65864619D01*
X174337738Y-65816238D01*
X174240976Y-65719476D01*
X174192595Y-65622714D01*
X174144214Y-65429190D01*
X174144214Y-65284047D01*
X174192595Y-65090523D01*
X174240976Y-64993761D01*
X174337738Y-64897000D01*
X174482880Y-64848619D01*
X174579642Y-64848619D01*
X174724785Y-64897000D01*
X174773166Y-64945380D01*
X175256976Y-65864619D02*
X175450500Y-65864619D01*
X175547261Y-65816238D01*
X175595642Y-65767857D01*
X175692404Y-65622714D01*
X175740785Y-65429190D01*
X175740785Y-65042142D01*
X175692404Y-64945380D01*
X175644023Y-64897000D01*
X175547261Y-64848619D01*
X175353738Y-64848619D01*
X175256976Y-64897000D01*
X175208595Y-64945380D01*
X175160214Y-65042142D01*
X175160214Y-65284047D01*
X175208595Y-65380809D01*
X175256976Y-65429190D01*
X175353738Y-65477571D01*
X175547261Y-65477571D01*
X175644023Y-65429190D01*
X175692404Y-65380809D01*
X175740785Y-65284047D01*
D12*
X174033557Y-66753619D02*
X174106129Y-66753619D01*
X174172653Y-66802000D01*
X174202891Y-66850380D01*
X174227081Y-66947142D01*
X174239177Y-67140666D01*
X174208938Y-67382571D01*
X174148462Y-67576095D01*
X174100081Y-67672857D01*
X174057748Y-67721238D01*
X173979129Y-67769619D01*
X173906557Y-67769619D01*
X173840034Y-67721238D01*
X173809796Y-67672857D01*
X173785605Y-67576095D01*
X173773510Y-67382571D01*
X173803748Y-67140666D01*
X173864224Y-66947142D01*
X173912605Y-66850380D01*
X173954938Y-66802000D01*
X174033557Y-66753619D01*
X174499224Y-67672857D02*
X174529462Y-67721238D01*
X174487129Y-67769619D01*
X174456891Y-67721238D01*
X174499224Y-67672857D01*
X174487129Y-67769619D01*
X175249129Y-67769619D02*
X174813700Y-67769619D01*
X175031415Y-67769619D02*
X175158415Y-66753619D01*
X175067700Y-66898761D01*
X174983034Y-66995523D01*
X174904415Y-67043904D01*
X175986938Y-67092285D02*
X175902272Y-67769619D01*
X175660367Y-67092285D02*
X175593843Y-67624476D01*
X175618034Y-67721238D01*
X175684557Y-67769619D01*
X175793415Y-67769619D01*
X175872034Y-67721238D01*
X175914367Y-67672857D01*
X176585653Y-67237428D02*
X176331653Y-67237428D01*
X176265129Y-67769619D02*
X176392129Y-66753619D01*
X176754986Y-66753619D01*
D10*
X147936857Y-60687857D02*
X147888476Y-60736238D01*
X147743333Y-60784619D01*
X147646571Y-60784619D01*
X147501428Y-60736238D01*
X147404666Y-60639476D01*
X147356285Y-60542714D01*
X147307904Y-60349190D01*
X147307904Y-60204047D01*
X147356285Y-60010523D01*
X147404666Y-59913761D01*
X147501428Y-59817000D01*
X147646571Y-59768619D01*
X147743333Y-59768619D01*
X147888476Y-59817000D01*
X147936857Y-59865380D01*
X148904476Y-60784619D02*
X148323904Y-60784619D01*
X148614190Y-60784619D02*
X148614190Y-59768619D01*
X148517428Y-59913761D01*
X148420666Y-60010523D01*
X148323904Y-60058904D01*
X149823714Y-59768619D02*
X149339904Y-59768619D01*
X149291523Y-60252428D01*
X149339904Y-60204047D01*
X149436666Y-60155666D01*
X149678571Y-60155666D01*
X149775333Y-60204047D01*
X149823714Y-60252428D01*
X149872095Y-60349190D01*
X149872095Y-60591095D01*
X149823714Y-60687857D01*
X149775333Y-60736238D01*
X149678571Y-60784619D01*
X149436666Y-60784619D01*
X149339904Y-60736238D01*
X149291523Y-60687857D01*
D12*
X147671986Y-65229619D02*
X147236557Y-65229619D01*
X147454272Y-65229619D02*
X147581272Y-64213619D01*
X147490557Y-64358761D01*
X147405891Y-64455523D01*
X147327272Y-64503904D01*
X148270700Y-64213619D02*
X148343272Y-64213619D01*
X148409796Y-64262000D01*
X148440034Y-64310380D01*
X148464224Y-64407142D01*
X148476319Y-64600666D01*
X148446081Y-64842571D01*
X148385605Y-65036095D01*
X148337224Y-65132857D01*
X148294891Y-65181238D01*
X148216272Y-65229619D01*
X148143700Y-65229619D01*
X148077177Y-65181238D01*
X148046938Y-65132857D01*
X148022748Y-65036095D01*
X148010653Y-64842571D01*
X148040891Y-64600666D01*
X148101367Y-64407142D01*
X148149748Y-64310380D01*
X148192081Y-64262000D01*
X148270700Y-64213619D01*
X149135510Y-64552285D02*
X149050843Y-65229619D01*
X148808938Y-64552285D02*
X148742415Y-65084476D01*
X148766605Y-65181238D01*
X148833129Y-65229619D01*
X148941986Y-65229619D01*
X149020605Y-65181238D01*
X149062938Y-65132857D01*
X149734224Y-64697428D02*
X149480224Y-64697428D01*
X149413700Y-65229619D02*
X149540700Y-64213619D01*
X149903557Y-64213619D01*
D10*
X146122571Y-67697047D02*
X146122571Y-66922952D01*
X146509619Y-67310000D02*
X145735523Y-67310000D01*
X174606857Y-60687857D02*
X174558476Y-60736238D01*
X174413333Y-60784619D01*
X174316571Y-60784619D01*
X174171428Y-60736238D01*
X174074666Y-60639476D01*
X174026285Y-60542714D01*
X173977904Y-60349190D01*
X173977904Y-60204047D01*
X174026285Y-60010523D01*
X174074666Y-59913761D01*
X174171428Y-59817000D01*
X174316571Y-59768619D01*
X174413333Y-59768619D01*
X174558476Y-59817000D01*
X174606857Y-59865380D01*
X174993904Y-59865380D02*
X175042285Y-59817000D01*
X175139047Y-59768619D01*
X175380952Y-59768619D01*
X175477714Y-59817000D01*
X175526095Y-59865380D01*
X175574476Y-59962142D01*
X175574476Y-60058904D01*
X175526095Y-60204047D01*
X174945523Y-60784619D01*
X175574476Y-60784619D01*
X176203428Y-59768619D02*
X176300190Y-59768619D01*
X176396952Y-59817000D01*
X176445333Y-59865380D01*
X176493714Y-59962142D01*
X176542095Y-60155666D01*
X176542095Y-60397571D01*
X176493714Y-60591095D01*
X176445333Y-60687857D01*
X176396952Y-60736238D01*
X176300190Y-60784619D01*
X176203428Y-60784619D01*
X176106666Y-60736238D01*
X176058285Y-60687857D01*
X176009904Y-60591095D01*
X175961523Y-60397571D01*
X175961523Y-60155666D01*
X176009904Y-59962142D01*
X176058285Y-59865380D01*
X176106666Y-59817000D01*
X176203428Y-59768619D01*
D12*
X174354081Y-62012285D02*
X174269415Y-62689619D01*
X174221034Y-61625238D02*
X173948891Y-62350952D01*
X174420605Y-62350952D01*
X174722986Y-61673619D02*
X175230986Y-61673619D01*
X174777415Y-62689619D01*
X175478938Y-62012285D02*
X175394272Y-62689619D01*
X175466843Y-62109047D02*
X175509177Y-62060666D01*
X175587796Y-62012285D01*
X175696653Y-62012285D01*
X175763177Y-62060666D01*
X175787367Y-62157428D01*
X175720843Y-62689619D01*
X176404224Y-62157428D02*
X176150224Y-62157428D01*
X176083700Y-62689619D02*
X176210700Y-61673619D01*
X176573557Y-61673619D01*
D10*
X115297857Y-73043142D02*
X115346238Y-73091523D01*
X115394619Y-73236666D01*
X115394619Y-73333428D01*
X115346238Y-73478571D01*
X115249476Y-73575333D01*
X115152714Y-73623714D01*
X114959190Y-73672095D01*
X114814047Y-73672095D01*
X114620523Y-73623714D01*
X114523761Y-73575333D01*
X114427000Y-73478571D01*
X114378619Y-73333428D01*
X114378619Y-73236666D01*
X114427000Y-73091523D01*
X114475380Y-73043142D01*
X114475380Y-72656095D02*
X114427000Y-72607714D01*
X114378619Y-72510952D01*
X114378619Y-72269047D01*
X114427000Y-72172285D01*
X114475380Y-72123904D01*
X114572142Y-72075523D01*
X114668904Y-72075523D01*
X114814047Y-72123904D01*
X115394619Y-72704476D01*
X115394619Y-72075523D01*
X114717285Y-71204666D02*
X115394619Y-71204666D01*
X114330238Y-71446571D02*
X115055952Y-71688476D01*
X115055952Y-71059523D01*
D12*
X118292653Y-72172285D02*
X118207986Y-72849619D01*
X118159605Y-71785238D02*
X117887462Y-72510952D01*
X118359177Y-72510952D01*
X118619224Y-72752857D02*
X118649462Y-72801238D01*
X118607129Y-72849619D01*
X118576891Y-72801238D01*
X118619224Y-72752857D01*
X118607129Y-72849619D01*
X119024415Y-71833619D02*
X119532415Y-71833619D01*
X119078843Y-72849619D01*
X119780367Y-72172285D02*
X119695700Y-72849619D01*
X119768272Y-72269047D02*
X119810605Y-72220666D01*
X119889224Y-72172285D01*
X119998081Y-72172285D01*
X120064605Y-72220666D01*
X120088796Y-72317428D01*
X120022272Y-72849619D01*
X120705653Y-72317428D02*
X120451653Y-72317428D01*
X120385129Y-72849619D02*
X120512129Y-71833619D01*
X120874986Y-71833619D01*
D10*
X133331857Y-65132857D02*
X133283476Y-65181238D01*
X133138333Y-65229619D01*
X133041571Y-65229619D01*
X132896428Y-65181238D01*
X132799666Y-65084476D01*
X132751285Y-64987714D01*
X132702904Y-64794190D01*
X132702904Y-64649047D01*
X132751285Y-64455523D01*
X132799666Y-64358761D01*
X132896428Y-64262000D01*
X133041571Y-64213619D01*
X133138333Y-64213619D01*
X133283476Y-64262000D01*
X133331857Y-64310380D01*
X133718904Y-64310380D02*
X133767285Y-64262000D01*
X133864047Y-64213619D01*
X134105952Y-64213619D01*
X134202714Y-64262000D01*
X134251095Y-64310380D01*
X134299476Y-64407142D01*
X134299476Y-64503904D01*
X134251095Y-64649047D01*
X133670523Y-65229619D01*
X134299476Y-65229619D01*
X135218714Y-64213619D02*
X134734904Y-64213619D01*
X134686523Y-64697428D01*
X134734904Y-64649047D01*
X134831666Y-64600666D01*
X135073571Y-64600666D01*
X135170333Y-64649047D01*
X135218714Y-64697428D01*
X135267095Y-64794190D01*
X135267095Y-65036095D01*
X135218714Y-65132857D01*
X135170333Y-65181238D01*
X135073571Y-65229619D01*
X134831666Y-65229619D01*
X134734904Y-65181238D01*
X134686523Y-65132857D01*
D12*
X139144843Y-65229619D02*
X138709415Y-65229619D01*
X138927129Y-65229619D02*
X139054129Y-64213619D01*
X138963415Y-64358761D01*
X138878748Y-64455523D01*
X138800129Y-64503904D01*
X139556081Y-64552285D02*
X139471415Y-65229619D01*
X139543986Y-64649047D02*
X139586319Y-64600666D01*
X139664938Y-64552285D01*
X139773796Y-64552285D01*
X139840319Y-64600666D01*
X139864510Y-64697428D01*
X139797986Y-65229619D01*
X140481367Y-64697428D02*
X140227367Y-64697428D01*
X140160843Y-65229619D02*
X140287843Y-64213619D01*
X140650700Y-64213619D01*
D10*
X133331857Y-59735357D02*
X133283476Y-59783738D01*
X133138333Y-59832119D01*
X133041571Y-59832119D01*
X132896428Y-59783738D01*
X132799666Y-59686976D01*
X132751285Y-59590214D01*
X132702904Y-59396690D01*
X132702904Y-59251547D01*
X132751285Y-59058023D01*
X132799666Y-58961261D01*
X132896428Y-58864500D01*
X133041571Y-58816119D01*
X133138333Y-58816119D01*
X133283476Y-58864500D01*
X133331857Y-58912880D01*
X133718904Y-58912880D02*
X133767285Y-58864500D01*
X133864047Y-58816119D01*
X134105952Y-58816119D01*
X134202714Y-58864500D01*
X134251095Y-58912880D01*
X134299476Y-59009642D01*
X134299476Y-59106404D01*
X134251095Y-59251547D01*
X133670523Y-59832119D01*
X134299476Y-59832119D01*
X135170333Y-58816119D02*
X134976809Y-58816119D01*
X134880047Y-58864500D01*
X134831666Y-58912880D01*
X134734904Y-59058023D01*
X134686523Y-59251547D01*
X134686523Y-59638595D01*
X134734904Y-59735357D01*
X134783285Y-59783738D01*
X134880047Y-59832119D01*
X135073571Y-59832119D01*
X135170333Y-59783738D01*
X135218714Y-59735357D01*
X135267095Y-59638595D01*
X135267095Y-59396690D01*
X135218714Y-59299928D01*
X135170333Y-59251547D01*
X135073571Y-59203166D01*
X134880047Y-59203166D01*
X134783285Y-59251547D01*
X134734904Y-59299928D01*
X134686523Y-59396690D01*
D12*
X138098605Y-59230380D02*
X138140938Y-59182000D01*
X138219557Y-59133619D01*
X138400986Y-59133619D01*
X138467510Y-59182000D01*
X138497748Y-59230380D01*
X138521938Y-59327142D01*
X138509843Y-59423904D01*
X138455415Y-59569047D01*
X137947415Y-60149619D01*
X138419129Y-60149619D01*
X138800129Y-59133619D02*
X139308129Y-59133619D01*
X138854557Y-60149619D01*
X139743557Y-59133619D02*
X139816129Y-59133619D01*
X139882653Y-59182000D01*
X139912891Y-59230380D01*
X139937081Y-59327142D01*
X139949177Y-59520666D01*
X139918938Y-59762571D01*
X139858462Y-59956095D01*
X139810081Y-60052857D01*
X139767748Y-60101238D01*
X139689129Y-60149619D01*
X139616557Y-60149619D01*
X139550034Y-60101238D01*
X139519796Y-60052857D01*
X139495605Y-59956095D01*
X139483510Y-59762571D01*
X139513748Y-59520666D01*
X139574224Y-59327142D01*
X139622605Y-59230380D01*
X139664938Y-59182000D01*
X139743557Y-59133619D01*
X140281796Y-59472285D02*
X140154796Y-60488285D01*
X140275748Y-59520666D02*
X140354367Y-59472285D01*
X140499510Y-59472285D01*
X140566034Y-59520666D01*
X140596272Y-59569047D01*
X140620462Y-59665809D01*
X140584177Y-59956095D01*
X140535796Y-60052857D01*
X140493462Y-60101238D01*
X140414843Y-60149619D01*
X140269700Y-60149619D01*
X140203177Y-60101238D01*
X141207081Y-59617428D02*
X140953081Y-59617428D01*
X140886557Y-60149619D02*
X141013557Y-59133619D01*
X141376415Y-59133619D01*
D11*
X109522380Y-112017023D02*
X109522380Y-113045119D01*
X109582857Y-113166071D01*
X109643333Y-113226547D01*
X109764285Y-113287023D01*
X110006190Y-113287023D01*
X110127142Y-113226547D01*
X110187619Y-113166071D01*
X110248095Y-113045119D01*
X110248095Y-112017023D01*
X110792380Y-112137976D02*
X110852857Y-112077500D01*
X110973809Y-112017023D01*
X111276190Y-112017023D01*
X111397142Y-112077500D01*
X111457619Y-112137976D01*
X111518095Y-112258928D01*
X111518095Y-112379880D01*
X111457619Y-112561309D01*
X110731904Y-113287023D01*
X111518095Y-113287023D01*
D10*
X120686784Y-112017023D02*
X121364117Y-112017023D01*
X120769939Y-113287023D01*
X122133677Y-112440357D02*
X122027844Y-113287023D01*
X121952248Y-111956547D02*
X121596951Y-112863690D01*
X122225903Y-112863690D01*
X123043844Y-113287023D02*
X122560034Y-113287023D01*
X122718784Y-112017023D01*
X123341689Y-113226547D02*
X123479272Y-113287023D01*
X123721177Y-113287023D01*
X123825498Y-113226547D01*
X123881439Y-113166071D01*
X123944939Y-113045119D01*
X123960058Y-112924166D01*
X123926796Y-112803214D01*
X123885975Y-112742738D01*
X123796772Y-112682261D01*
X123610808Y-112621785D01*
X123521606Y-112561309D01*
X123480784Y-112500833D01*
X123447522Y-112379880D01*
X123462641Y-112258928D01*
X123526141Y-112137976D01*
X123582082Y-112077500D01*
X123686403Y-112017023D01*
X123928308Y-112017023D01*
X124065891Y-112077500D01*
X124882320Y-113287023D02*
X124301748Y-113287023D01*
X124592034Y-113287023D02*
X124750784Y-112017023D01*
X124631344Y-112198452D01*
X124519463Y-112319404D01*
X124415141Y-112379880D01*
X125379737Y-112017023D02*
X126008689Y-112017023D01*
X125609546Y-112500833D01*
X125754689Y-112500833D01*
X125843891Y-112561309D01*
X125884713Y-112621785D01*
X125917975Y-112742738D01*
X125880177Y-113045119D01*
X125816677Y-113166071D01*
X125760737Y-113226547D01*
X125656415Y-113287023D01*
X125366129Y-113287023D01*
X125276927Y-113226547D01*
X125236106Y-113166071D01*
X126521225Y-112561309D02*
X126432022Y-112500833D01*
X126391201Y-112440357D01*
X126357939Y-112319404D01*
X126365498Y-112258928D01*
X126428998Y-112137976D01*
X126484939Y-112077500D01*
X126589260Y-112017023D01*
X126782784Y-112017023D01*
X126871987Y-112077500D01*
X126912808Y-112137976D01*
X126946070Y-112258928D01*
X126938510Y-112319404D01*
X126875010Y-112440357D01*
X126819070Y-112500833D01*
X126714748Y-112561309D01*
X126521225Y-112561309D01*
X126416903Y-112621785D01*
X126360963Y-112682261D01*
X126297463Y-112803214D01*
X126267225Y-113045119D01*
X126300487Y-113166071D01*
X126341308Y-113226547D01*
X126430510Y-113287023D01*
X126624034Y-113287023D01*
X126728356Y-113226547D01*
X126784296Y-113166071D01*
X126847796Y-113045119D01*
X126878034Y-112803214D01*
X126844772Y-112682261D01*
X126803951Y-112621785D01*
X126714748Y-112561309D01*
D11*
X134922380Y-112017023D02*
X134922380Y-113045119D01*
X134982857Y-113166071D01*
X135043333Y-113226547D01*
X135164285Y-113287023D01*
X135406190Y-113287023D01*
X135527142Y-113226547D01*
X135587619Y-113166071D01*
X135648095Y-113045119D01*
X135648095Y-112017023D01*
X136131904Y-112017023D02*
X136918095Y-112017023D01*
X136494761Y-112500833D01*
X136676190Y-112500833D01*
X136797142Y-112561309D01*
X136857619Y-112621785D01*
X136918095Y-112742738D01*
X136918095Y-113045119D01*
X136857619Y-113166071D01*
X136797142Y-113226547D01*
X136676190Y-113287023D01*
X136313333Y-113287023D01*
X136192380Y-113226547D01*
X136131904Y-113166071D01*
D10*
X146086784Y-112017023D02*
X146764117Y-112017023D01*
X146169939Y-113287023D01*
X147533677Y-112440357D02*
X147427844Y-113287023D01*
X147352248Y-111956547D02*
X146996951Y-112863690D01*
X147625903Y-112863690D01*
X148443844Y-113287023D02*
X147960034Y-113287023D01*
X148118784Y-112017023D01*
X148741689Y-113226547D02*
X148879272Y-113287023D01*
X149121177Y-113287023D01*
X149225498Y-113226547D01*
X149281439Y-113166071D01*
X149344939Y-113045119D01*
X149360058Y-112924166D01*
X149326796Y-112803214D01*
X149285975Y-112742738D01*
X149196772Y-112682261D01*
X149010808Y-112621785D01*
X148921606Y-112561309D01*
X148880784Y-112500833D01*
X148847522Y-112379880D01*
X148862641Y-112258928D01*
X148926141Y-112137976D01*
X148982082Y-112077500D01*
X149086403Y-112017023D01*
X149328308Y-112017023D01*
X149465891Y-112077500D01*
X150282320Y-113287023D02*
X149701748Y-113287023D01*
X149992034Y-113287023D02*
X150150784Y-112017023D01*
X150031344Y-112198452D01*
X149919463Y-112319404D01*
X149815141Y-112379880D01*
X150779737Y-112017023D02*
X151408689Y-112017023D01*
X151009546Y-112500833D01*
X151154689Y-112500833D01*
X151243891Y-112561309D01*
X151284713Y-112621785D01*
X151317975Y-112742738D01*
X151280177Y-113045119D01*
X151216677Y-113166071D01*
X151160737Y-113226547D01*
X151056415Y-113287023D01*
X150766129Y-113287023D01*
X150676927Y-113226547D01*
X150636106Y-113166071D01*
X151921225Y-112561309D02*
X151832022Y-112500833D01*
X151791201Y-112440357D01*
X151757939Y-112319404D01*
X151765498Y-112258928D01*
X151828998Y-112137976D01*
X151884939Y-112077500D01*
X151989260Y-112017023D01*
X152182784Y-112017023D01*
X152271987Y-112077500D01*
X152312808Y-112137976D01*
X152346070Y-112258928D01*
X152338510Y-112319404D01*
X152275010Y-112440357D01*
X152219070Y-112500833D01*
X152114748Y-112561309D01*
X151921225Y-112561309D01*
X151816903Y-112621785D01*
X151760963Y-112682261D01*
X151697463Y-112803214D01*
X151667225Y-113045119D01*
X151700487Y-113166071D01*
X151741308Y-113226547D01*
X151830510Y-113287023D01*
X152024034Y-113287023D01*
X152128356Y-113226547D01*
X152184296Y-113166071D01*
X152247796Y-113045119D01*
X152278034Y-112803214D01*
X152244772Y-112682261D01*
X152203951Y-112621785D01*
X152114748Y-112561309D01*
D11*
X136192380Y-94237023D02*
X136192380Y-95265119D01*
X136252857Y-95386071D01*
X136313333Y-95446547D01*
X136434285Y-95507023D01*
X136676190Y-95507023D01*
X136797142Y-95446547D01*
X136857619Y-95386071D01*
X136918095Y-95265119D01*
X136918095Y-94237023D01*
X138127619Y-94237023D02*
X137522857Y-94237023D01*
X137462380Y-94841785D01*
X137522857Y-94781309D01*
X137643809Y-94720833D01*
X137946190Y-94720833D01*
X138067142Y-94781309D01*
X138127619Y-94841785D01*
X138188095Y-94962738D01*
X138188095Y-95265119D01*
X138127619Y-95386071D01*
X138067142Y-95446547D01*
X137946190Y-95507023D01*
X137643809Y-95507023D01*
X137522857Y-95446547D01*
X137462380Y-95386071D01*
D10*
X145935594Y-82489523D02*
X146612927Y-82489523D01*
X146018748Y-83759523D01*
X147382487Y-82912857D02*
X147276653Y-83759523D01*
X147201058Y-82429047D02*
X146845760Y-83336190D01*
X147474713Y-83336190D01*
X148292653Y-83759523D02*
X147808844Y-83759523D01*
X147967594Y-82489523D01*
X148590498Y-83699047D02*
X148728082Y-83759523D01*
X148969987Y-83759523D01*
X149074308Y-83699047D01*
X149130248Y-83638571D01*
X149193748Y-83517619D01*
X149208867Y-83396666D01*
X149175606Y-83275714D01*
X149134784Y-83215238D01*
X149045582Y-83154761D01*
X148859617Y-83094285D01*
X148770415Y-83033809D01*
X148729594Y-82973333D01*
X148696332Y-82852380D01*
X148711451Y-82731428D01*
X148774951Y-82610476D01*
X148830891Y-82550000D01*
X148935213Y-82489523D01*
X149177117Y-82489523D01*
X149314701Y-82550000D01*
X149951213Y-82489523D02*
X150047975Y-82489523D01*
X150137177Y-82550000D01*
X150177998Y-82610476D01*
X150211260Y-82731428D01*
X150229403Y-82973333D01*
X150191606Y-83275714D01*
X150112987Y-83517619D01*
X150049487Y-83638571D01*
X149993546Y-83699047D01*
X149889225Y-83759523D01*
X149792463Y-83759523D01*
X149703260Y-83699047D01*
X149662439Y-83638571D01*
X149629177Y-83517619D01*
X149611034Y-83275714D01*
X149648832Y-82973333D01*
X149727451Y-82731428D01*
X149790951Y-82610476D01*
X149846891Y-82550000D01*
X149951213Y-82489523D01*
X151107820Y-82912857D02*
X151001987Y-83759523D01*
X150926391Y-82429047D02*
X150571094Y-83336190D01*
X151200046Y-83336190D01*
D11*
X160322380Y-99317023D02*
X160322380Y-100345119D01*
X160382857Y-100466071D01*
X160443333Y-100526547D01*
X160564285Y-100587023D01*
X160806190Y-100587023D01*
X160927142Y-100526547D01*
X160987619Y-100466071D01*
X161048095Y-100345119D01*
X161048095Y-99317023D01*
X162197142Y-99317023D02*
X161955238Y-99317023D01*
X161834285Y-99377500D01*
X161773809Y-99437976D01*
X161652857Y-99619404D01*
X161592380Y-99861309D01*
X161592380Y-100345119D01*
X161652857Y-100466071D01*
X161713333Y-100526547D01*
X161834285Y-100587023D01*
X162076190Y-100587023D01*
X162197142Y-100526547D01*
X162257619Y-100466071D01*
X162318095Y-100345119D01*
X162318095Y-100042738D01*
X162257619Y-99921785D01*
X162197142Y-99861309D01*
X162076190Y-99800833D01*
X161834285Y-99800833D01*
X161713333Y-99861309D01*
X161652857Y-99921785D01*
X161592380Y-100042738D01*
D10*
X182851772Y-99982261D02*
X182776177Y-100587023D01*
X182596260Y-99317023D02*
X182851772Y-99982261D01*
X183273594Y-99317023D01*
X183453510Y-100587023D02*
X183612260Y-99317023D01*
X183837534Y-100224166D01*
X184289594Y-99317023D01*
X184130844Y-100587023D01*
X184676641Y-99317023D02*
X185305594Y-99317023D01*
X184906451Y-99800833D01*
X185051594Y-99800833D01*
X185140796Y-99861309D01*
X185181617Y-99921785D01*
X185214879Y-100042738D01*
X185177082Y-100345119D01*
X185113582Y-100466071D01*
X185057641Y-100526547D01*
X184953320Y-100587023D01*
X184663034Y-100587023D01*
X184573832Y-100526547D01*
X184533010Y-100466071D01*
X185818129Y-99861309D02*
X185728927Y-99800833D01*
X185688106Y-99740357D01*
X185654844Y-99619404D01*
X185662403Y-99558928D01*
X185725903Y-99437976D01*
X185781844Y-99377500D01*
X185886165Y-99317023D01*
X186079689Y-99317023D01*
X186168891Y-99377500D01*
X186209713Y-99437976D01*
X186242975Y-99558928D01*
X186235415Y-99619404D01*
X186171915Y-99740357D01*
X186115975Y-99800833D01*
X186011653Y-99861309D01*
X185818129Y-99861309D01*
X185713808Y-99921785D01*
X185657867Y-99982261D01*
X185594367Y-100103214D01*
X185564129Y-100345119D01*
X185597391Y-100466071D01*
X185638213Y-100526547D01*
X185727415Y-100587023D01*
X185920939Y-100587023D01*
X186025260Y-100526547D01*
X186081201Y-100466071D01*
X186144701Y-100345119D01*
X186174939Y-100103214D01*
X186141677Y-99982261D01*
X186100856Y-99921785D01*
X186011653Y-99861309D01*
X187082082Y-100587023D02*
X186501510Y-100587023D01*
X186791796Y-100587023D02*
X186950546Y-99317023D01*
X186831106Y-99498452D01*
X186719225Y-99619404D01*
X186614903Y-99679880D01*
X187612760Y-99437976D02*
X187668701Y-99377500D01*
X187773022Y-99317023D01*
X188014927Y-99317023D01*
X188104129Y-99377500D01*
X188144951Y-99437976D01*
X188178213Y-99558928D01*
X188163094Y-99679880D01*
X188092034Y-99861309D01*
X187420748Y-100587023D01*
X188049701Y-100587023D01*
D11*
X156829880Y-78997023D02*
X156829880Y-80025119D01*
X156890357Y-80146071D01*
X156950833Y-80206547D01*
X157071785Y-80267023D01*
X157313690Y-80267023D01*
X157434642Y-80206547D01*
X157495119Y-80146071D01*
X157555595Y-80025119D01*
X157555595Y-78997023D01*
X158039404Y-78997023D02*
X158886071Y-78997023D01*
X158341785Y-80267023D01*
D10*
X160699344Y-79662261D02*
X160623748Y-80267023D01*
X160443832Y-78997023D02*
X160699344Y-79662261D01*
X161121165Y-78997023D01*
X161363070Y-78997023D02*
X161992022Y-78997023D01*
X161592879Y-79480833D01*
X161738022Y-79480833D01*
X161827225Y-79541309D01*
X161868046Y-79601785D01*
X161901308Y-79722738D01*
X161863510Y-80025119D01*
X161800010Y-80146071D01*
X161744070Y-80206547D01*
X161639748Y-80267023D01*
X161349463Y-80267023D01*
X161260260Y-80206547D01*
X161219439Y-80146071D01*
X162620975Y-78997023D02*
X162717737Y-78997023D01*
X162806939Y-79057500D01*
X162847760Y-79117976D01*
X162881022Y-79238928D01*
X162899165Y-79480833D01*
X162861367Y-79783214D01*
X162782748Y-80025119D01*
X162719248Y-80146071D01*
X162663308Y-80206547D01*
X162558987Y-80267023D01*
X162462225Y-80267023D01*
X162373022Y-80206547D01*
X162332201Y-80146071D01*
X162298939Y-80025119D01*
X162280796Y-79783214D01*
X162318594Y-79480833D01*
X162397213Y-79238928D01*
X162460713Y-79117976D01*
X162516653Y-79057500D01*
X162620975Y-78997023D01*
X163768510Y-80267023D02*
X163187939Y-80267023D01*
X163478225Y-80267023D02*
X163636975Y-78997023D01*
X163517534Y-79178452D01*
X163405653Y-79299404D01*
X163301332Y-79359880D01*
X164745201Y-79420357D02*
X164639367Y-80267023D01*
X164563772Y-78936547D02*
X164208475Y-79843690D01*
X164837427Y-79843690D01*
X165593379Y-79601785D02*
X165730963Y-79662261D01*
X165771784Y-79722738D01*
X165805046Y-79843690D01*
X165782367Y-80025119D01*
X165718867Y-80146071D01*
X165662927Y-80206547D01*
X165558606Y-80267023D01*
X165171558Y-80267023D01*
X165330308Y-78997023D01*
X165668975Y-78997023D01*
X165758177Y-79057500D01*
X165798998Y-79117976D01*
X165832260Y-79238928D01*
X165817141Y-79359880D01*
X165753641Y-79480833D01*
X165697701Y-79541309D01*
X165593379Y-79601785D01*
X165254713Y-79601785D01*
D11*
X128254880Y-78997023D02*
X128254880Y-80025119D01*
X128315357Y-80146071D01*
X128375833Y-80206547D01*
X128496785Y-80267023D01*
X128738690Y-80267023D01*
X128859642Y-80206547D01*
X128920119Y-80146071D01*
X128980595Y-80025119D01*
X128980595Y-78997023D01*
X129766785Y-79541309D02*
X129645833Y-79480833D01*
X129585357Y-79420357D01*
X129524880Y-79299404D01*
X129524880Y-79238928D01*
X129585357Y-79117976D01*
X129645833Y-79057500D01*
X129766785Y-78997023D01*
X130008690Y-78997023D01*
X130129642Y-79057500D01*
X130190119Y-79117976D01*
X130250595Y-79238928D01*
X130250595Y-79299404D01*
X130190119Y-79420357D01*
X130129642Y-79480833D01*
X130008690Y-79541309D01*
X129766785Y-79541309D01*
X129645833Y-79601785D01*
X129585357Y-79662261D01*
X129524880Y-79783214D01*
X129524880Y-80025119D01*
X129585357Y-80146071D01*
X129645833Y-80206547D01*
X129766785Y-80267023D01*
X130008690Y-80267023D01*
X130129642Y-80206547D01*
X130190119Y-80146071D01*
X130250595Y-80025119D01*
X130250595Y-79783214D01*
X130190119Y-79662261D01*
X130129642Y-79601785D01*
X130008690Y-79541309D01*
D10*
X138395725Y-80267023D02*
X138132653Y-79662261D01*
X137815153Y-80267023D02*
X137973903Y-78997023D01*
X138360951Y-78997023D01*
X138450153Y-79057500D01*
X138490975Y-79117976D01*
X138524237Y-79238928D01*
X138501558Y-79420357D01*
X138438058Y-79541309D01*
X138382117Y-79601785D01*
X138277796Y-79662261D01*
X137890748Y-79662261D01*
X139426844Y-80146071D02*
X139370903Y-80206547D01*
X139218201Y-80267023D01*
X139121439Y-80267023D01*
X138983856Y-80206547D01*
X138902213Y-80085595D01*
X138868951Y-79964642D01*
X138850808Y-79722738D01*
X138873487Y-79541309D01*
X138952106Y-79299404D01*
X139015606Y-79178452D01*
X139127487Y-79057500D01*
X139280189Y-78997023D01*
X139376951Y-78997023D01*
X139514534Y-79057500D01*
X139555356Y-79117976D01*
X140388415Y-79420357D02*
X140282582Y-80267023D01*
X140206987Y-78936547D02*
X139851689Y-79843690D01*
X140480641Y-79843690D01*
X141346963Y-80267023D02*
X140766391Y-80267023D01*
X141056677Y-80267023D02*
X141215427Y-78997023D01*
X141095987Y-79178452D01*
X140984106Y-79299404D01*
X140879784Y-79359880D01*
X141844379Y-78997023D02*
X142473332Y-78997023D01*
X142074189Y-79480833D01*
X142219332Y-79480833D01*
X142308534Y-79541309D01*
X142349356Y-79601785D01*
X142382617Y-79722738D01*
X142344820Y-80025119D01*
X142281320Y-80146071D01*
X142225379Y-80206547D01*
X142121058Y-80267023D01*
X141830772Y-80267023D01*
X141741570Y-80206547D01*
X141700748Y-80146071D01*
X143344189Y-78997023D02*
X143150665Y-78997023D01*
X143046344Y-79057500D01*
X142990403Y-79117976D01*
X142870963Y-79299404D01*
X142792344Y-79541309D01*
X142731867Y-80025119D01*
X142765129Y-80146071D01*
X142805951Y-80206547D01*
X142895153Y-80267023D01*
X143088677Y-80267023D01*
X143192998Y-80206547D01*
X143248939Y-80146071D01*
X143312439Y-80025119D01*
X143350237Y-79722738D01*
X143316975Y-79601785D01*
X143276153Y-79541309D01*
X143186951Y-79480833D01*
X142993427Y-79480833D01*
X142889106Y-79541309D01*
X142833165Y-79601785D01*
X142769665Y-79722738D01*
D11*
X172069880Y-78997023D02*
X172069880Y-80025119D01*
X172130357Y-80146071D01*
X172190833Y-80206547D01*
X172311785Y-80267023D01*
X172553690Y-80267023D01*
X172674642Y-80206547D01*
X172735119Y-80146071D01*
X172795595Y-80025119D01*
X172795595Y-78997023D01*
X173460833Y-80267023D02*
X173702738Y-80267023D01*
X173823690Y-80206547D01*
X173884166Y-80146071D01*
X174005119Y-79964642D01*
X174065595Y-79722738D01*
X174065595Y-79238928D01*
X174005119Y-79117976D01*
X173944642Y-79057500D01*
X173823690Y-78997023D01*
X173581785Y-78997023D01*
X173460833Y-79057500D01*
X173400357Y-79117976D01*
X173339880Y-79238928D01*
X173339880Y-79541309D01*
X173400357Y-79662261D01*
X173460833Y-79722738D01*
X173581785Y-79783214D01*
X173823690Y-79783214D01*
X173944642Y-79722738D01*
X174005119Y-79662261D01*
X174065595Y-79541309D01*
D10*
X176906963Y-80267023D02*
X176423153Y-80267023D01*
X176581903Y-78997023D01*
X177245629Y-80267023D02*
X177404379Y-78997023D01*
X177629653Y-79904166D01*
X178081713Y-78997023D01*
X177922963Y-80267023D01*
X178468760Y-78997023D02*
X179097713Y-78997023D01*
X178698570Y-79480833D01*
X178843713Y-79480833D01*
X178932915Y-79541309D01*
X178973737Y-79601785D01*
X179006998Y-79722738D01*
X178969201Y-80025119D01*
X178905701Y-80146071D01*
X178849760Y-80206547D01*
X178745439Y-80267023D01*
X178455153Y-80267023D01*
X178365951Y-80206547D01*
X178325129Y-80146071D01*
X179610248Y-79541309D02*
X179521046Y-79480833D01*
X179480225Y-79420357D01*
X179446963Y-79299404D01*
X179454522Y-79238928D01*
X179518022Y-79117976D01*
X179573963Y-79057500D01*
X179678284Y-78997023D01*
X179871808Y-78997023D01*
X179961010Y-79057500D01*
X180001832Y-79117976D01*
X180035094Y-79238928D01*
X180027534Y-79299404D01*
X179964034Y-79420357D01*
X179908094Y-79480833D01*
X179803772Y-79541309D01*
X179610248Y-79541309D01*
X179505927Y-79601785D01*
X179449987Y-79662261D01*
X179386487Y-79783214D01*
X179356248Y-80025119D01*
X179389510Y-80146071D01*
X179430332Y-80206547D01*
X179519534Y-80267023D01*
X179713058Y-80267023D01*
X179817379Y-80206547D01*
X179873320Y-80146071D01*
X179936820Y-80025119D01*
X179967058Y-79783214D01*
X179933796Y-79662261D01*
X179892975Y-79601785D01*
X179803772Y-79541309D01*
X180936189Y-78997023D02*
X180742665Y-78997023D01*
X180638344Y-79057500D01*
X180582403Y-79117976D01*
X180462963Y-79299404D01*
X180384344Y-79541309D01*
X180323867Y-80025119D01*
X180357129Y-80146071D01*
X180397951Y-80206547D01*
X180487153Y-80267023D01*
X180680677Y-80267023D01*
X180784998Y-80206547D01*
X180840939Y-80146071D01*
X180904439Y-80025119D01*
X180942237Y-79722738D01*
X180908975Y-79601785D01*
X180868153Y-79541309D01*
X180778951Y-79480833D01*
X180585427Y-79480833D01*
X180481106Y-79541309D01*
X180425165Y-79601785D01*
X180361665Y-79722738D01*
D11*
X150631071Y-58873571D02*
X150570595Y-58934047D01*
X150389166Y-58994523D01*
X150268214Y-58994523D01*
X150086785Y-58934047D01*
X149965833Y-58813095D01*
X149905357Y-58692142D01*
X149844880Y-58450238D01*
X149844880Y-58268809D01*
X149905357Y-58026904D01*
X149965833Y-57905952D01*
X150086785Y-57785000D01*
X150268214Y-57724523D01*
X150389166Y-57724523D01*
X150570595Y-57785000D01*
X150631071Y-57845476D01*
X151840595Y-58994523D02*
X151114880Y-58994523D01*
X151477738Y-58994523D02*
X151477738Y-57724523D01*
X151356785Y-57905952D01*
X151235833Y-58026904D01*
X151114880Y-58087380D01*
X152566309Y-58268809D02*
X152445357Y-58208333D01*
X152384880Y-58147857D01*
X152324404Y-58026904D01*
X152324404Y-57966428D01*
X152384880Y-57845476D01*
X152445357Y-57785000D01*
X152566309Y-57724523D01*
X152808214Y-57724523D01*
X152929166Y-57785000D01*
X152989642Y-57845476D01*
X153050119Y-57966428D01*
X153050119Y-58026904D01*
X152989642Y-58147857D01*
X152929166Y-58208333D01*
X152808214Y-58268809D01*
X152566309Y-58268809D01*
X152445357Y-58329285D01*
X152384880Y-58389761D01*
X152324404Y-58510714D01*
X152324404Y-58752619D01*
X152384880Y-58873571D01*
X152445357Y-58934047D01*
X152566309Y-58994523D01*
X152808214Y-58994523D01*
X152929166Y-58934047D01*
X152989642Y-58873571D01*
X153050119Y-58752619D01*
X153050119Y-58510714D01*
X152989642Y-58389761D01*
X152929166Y-58329285D01*
X152808214Y-58268809D01*
D10*
X160422665Y-55305476D02*
X160478606Y-55245000D01*
X160582927Y-55184523D01*
X160824832Y-55184523D01*
X160914034Y-55245000D01*
X160954856Y-55305476D01*
X160988117Y-55426428D01*
X160972998Y-55547380D01*
X160901939Y-55728809D01*
X160230653Y-56454523D01*
X160859606Y-56454523D01*
X161390284Y-55305476D02*
X161446225Y-55245000D01*
X161550546Y-55184523D01*
X161792451Y-55184523D01*
X161881653Y-55245000D01*
X161922475Y-55305476D01*
X161955737Y-55426428D01*
X161940617Y-55547380D01*
X161869558Y-55728809D01*
X161198272Y-56454523D01*
X161827225Y-56454523D01*
X162614927Y-55184523D02*
X162711689Y-55184523D01*
X162800891Y-55245000D01*
X162841713Y-55305476D01*
X162874975Y-55426428D01*
X162893117Y-55668333D01*
X162855320Y-55970714D01*
X162776701Y-56212619D01*
X162713201Y-56333571D01*
X162657260Y-56394047D01*
X162552939Y-56454523D01*
X162456177Y-56454523D01*
X162366975Y-56394047D01*
X162326153Y-56333571D01*
X162292891Y-56212619D01*
X162274748Y-55970714D01*
X162312546Y-55668333D01*
X162391165Y-55426428D01*
X162454665Y-55305476D01*
X162510606Y-55245000D01*
X162614927Y-55184523D01*
X163771534Y-55607857D02*
X163665701Y-56454523D01*
X163336106Y-55607857D02*
X163252951Y-56273095D01*
X163286213Y-56394047D01*
X163375415Y-56454523D01*
X163520558Y-56454523D01*
X163624879Y-56394047D01*
X163680820Y-56333571D01*
X164571332Y-55789285D02*
X164232665Y-55789285D01*
X164149510Y-56454523D02*
X164308260Y-55184523D01*
X164792070Y-55184523D01*
D13*
X151819428Y-53956857D02*
X152980571Y-53956857D01*
X152400000Y-54537428D02*
X152400000Y-53376285D01*
D10*
X115137595Y-57292119D02*
X115137595Y-56276119D01*
X115379500Y-56276119D01*
X115524642Y-56324500D01*
X115621404Y-56421261D01*
X115669785Y-56518023D01*
X115718166Y-56711547D01*
X115718166Y-56856690D01*
X115669785Y-57050214D01*
X115621404Y-57146976D01*
X115524642Y-57243738D01*
X115379500Y-57292119D01*
X115137595Y-57292119D01*
X116685785Y-57292119D02*
X116105214Y-57292119D01*
X116395500Y-57292119D02*
X116395500Y-56276119D01*
X116298738Y-56421261D01*
X116201976Y-56518023D01*
X116105214Y-56566404D01*
D12*
X120185557Y-55704619D02*
X119750129Y-55704619D01*
X119967843Y-55704619D02*
X120094843Y-54688619D01*
X120004129Y-54833761D01*
X119919462Y-54930523D01*
X119840843Y-54978904D01*
X120512129Y-55704619D02*
X120639129Y-54688619D01*
X120947557Y-55704619D01*
X121074557Y-54688619D01*
X121721653Y-55027285D02*
X121636986Y-55704619D01*
X121588605Y-54640238D02*
X121316462Y-55365952D01*
X121788177Y-55365952D01*
X122435272Y-55704619D02*
X121999843Y-55704619D01*
X122217557Y-55704619D02*
X122344557Y-54688619D01*
X122253843Y-54833761D01*
X122169177Y-54930523D01*
X122090557Y-54978904D01*
X123173081Y-55027285D02*
X123088415Y-55704619D01*
X123040034Y-54640238D02*
X122767891Y-55365952D01*
X123239605Y-55365952D01*
X123668986Y-55124047D02*
X123602462Y-55075666D01*
X123572224Y-55027285D01*
X123548034Y-54930523D01*
X123554081Y-54882142D01*
X123602462Y-54785380D01*
X123644796Y-54737000D01*
X123723415Y-54688619D01*
X123868557Y-54688619D01*
X123935081Y-54737000D01*
X123965319Y-54785380D01*
X123989510Y-54882142D01*
X123983462Y-54930523D01*
X123935081Y-55027285D01*
X123892748Y-55075666D01*
X123814129Y-55124047D01*
X123668986Y-55124047D01*
X123590367Y-55172428D01*
X123548034Y-55220809D01*
X123499653Y-55317571D01*
X123475462Y-55511095D01*
X123499653Y-55607857D01*
X123529891Y-55656238D01*
X123596415Y-55704619D01*
X123741557Y-55704619D01*
X123820177Y-55656238D01*
X123862510Y-55607857D01*
X123910891Y-55511095D01*
X123935081Y-55317571D01*
X123910891Y-55220809D01*
X123880653Y-55172428D01*
X123814129Y-55124047D01*
D10*
X124925666Y-77929619D02*
X124587000Y-77445809D01*
X124345095Y-77929619D02*
X124345095Y-76913619D01*
X124732142Y-76913619D01*
X124828904Y-76962000D01*
X124877285Y-77010380D01*
X124925666Y-77107142D01*
X124925666Y-77252285D01*
X124877285Y-77349047D01*
X124828904Y-77397428D01*
X124732142Y-77445809D01*
X124345095Y-77445809D01*
X125893285Y-77929619D02*
X125312714Y-77929619D01*
X125603000Y-77929619D02*
X125603000Y-76913619D01*
X125506238Y-77058761D01*
X125409476Y-77155523D01*
X125312714Y-77203904D01*
D12*
X118824843Y-77929619D02*
X118389415Y-77929619D01*
X118607129Y-77929619D02*
X118734129Y-76913619D01*
X118643415Y-77058761D01*
X118558748Y-77155523D01*
X118480129Y-77203904D01*
X119230034Y-77010380D02*
X119272367Y-76962000D01*
X119350986Y-76913619D01*
X119532415Y-76913619D01*
X119598938Y-76962000D01*
X119629177Y-77010380D01*
X119653367Y-77107142D01*
X119641272Y-77203904D01*
X119586843Y-77349047D01*
X119078843Y-77929619D01*
X119550557Y-77929619D01*
X119877129Y-77929619D02*
X120004129Y-76913619D01*
X119998081Y-77542571D02*
X120167415Y-77929619D01*
X120252081Y-77252285D02*
X119913415Y-77639333D01*
D10*
X124290666Y-73802119D02*
X123952000Y-73318309D01*
X123710095Y-73802119D02*
X123710095Y-72786119D01*
X124097142Y-72786119D01*
X124193904Y-72834500D01*
X124242285Y-72882880D01*
X124290666Y-72979642D01*
X124290666Y-73124785D01*
X124242285Y-73221547D01*
X124193904Y-73269928D01*
X124097142Y-73318309D01*
X123710095Y-73318309D01*
X124677714Y-72882880D02*
X124726095Y-72834500D01*
X124822857Y-72786119D01*
X125064761Y-72786119D01*
X125161523Y-72834500D01*
X125209904Y-72882880D01*
X125258285Y-72979642D01*
X125258285Y-73076404D01*
X125209904Y-73221547D01*
X124629333Y-73802119D01*
X125258285Y-73802119D01*
D12*
X118824843Y-75389619D02*
X118389415Y-75389619D01*
X118607129Y-75389619D02*
X118734129Y-74373619D01*
X118643415Y-74518761D01*
X118558748Y-74615523D01*
X118480129Y-74663904D01*
X119423557Y-74373619D02*
X119496129Y-74373619D01*
X119562653Y-74422000D01*
X119592891Y-74470380D01*
X119617081Y-74567142D01*
X119629177Y-74760666D01*
X119598938Y-75002571D01*
X119538462Y-75196095D01*
X119490081Y-75292857D01*
X119447748Y-75341238D01*
X119369129Y-75389619D01*
X119296557Y-75389619D01*
X119230034Y-75341238D01*
X119199796Y-75292857D01*
X119175605Y-75196095D01*
X119163510Y-75002571D01*
X119193748Y-74760666D01*
X119254224Y-74567142D01*
X119302605Y-74470380D01*
X119344938Y-74422000D01*
X119423557Y-74373619D01*
X119877129Y-75389619D02*
X120004129Y-74373619D01*
X119998081Y-75002571D02*
X120167415Y-75389619D01*
X120252081Y-74712285D02*
X119913415Y-75099333D01*
D10*
X124925666Y-67769619D02*
X124587000Y-67285809D01*
X124345095Y-67769619D02*
X124345095Y-66753619D01*
X124732142Y-66753619D01*
X124828904Y-66802000D01*
X124877285Y-66850380D01*
X124925666Y-66947142D01*
X124925666Y-67092285D01*
X124877285Y-67189047D01*
X124828904Y-67237428D01*
X124732142Y-67285809D01*
X124345095Y-67285809D01*
X125264333Y-66753619D02*
X125893285Y-66753619D01*
X125554619Y-67140666D01*
X125699761Y-67140666D01*
X125796523Y-67189047D01*
X125844904Y-67237428D01*
X125893285Y-67334190D01*
X125893285Y-67576095D01*
X125844904Y-67672857D01*
X125796523Y-67721238D01*
X125699761Y-67769619D01*
X125409476Y-67769619D01*
X125312714Y-67721238D01*
X125264333Y-67672857D01*
D12*
X118824843Y-67769619D02*
X118389415Y-67769619D01*
X118607129Y-67769619D02*
X118734129Y-66753619D01*
X118643415Y-66898761D01*
X118558748Y-66995523D01*
X118480129Y-67043904D01*
X119423557Y-66753619D02*
X119496129Y-66753619D01*
X119562653Y-66802000D01*
X119592891Y-66850380D01*
X119617081Y-66947142D01*
X119629177Y-67140666D01*
X119598938Y-67382571D01*
X119538462Y-67576095D01*
X119490081Y-67672857D01*
X119447748Y-67721238D01*
X119369129Y-67769619D01*
X119296557Y-67769619D01*
X119230034Y-67721238D01*
X119199796Y-67672857D01*
X119175605Y-67576095D01*
X119163510Y-67382571D01*
X119193748Y-67140666D01*
X119254224Y-66947142D01*
X119302605Y-66850380D01*
X119344938Y-66802000D01*
X119423557Y-66753619D01*
X119877129Y-67769619D02*
X120004129Y-66753619D01*
X119998081Y-67382571D02*
X120167415Y-67769619D01*
X120252081Y-67092285D02*
X119913415Y-67479333D01*
D10*
X116670666Y-61419619D02*
X116332000Y-60935809D01*
X116090095Y-61419619D02*
X116090095Y-60403619D01*
X116477142Y-60403619D01*
X116573904Y-60452000D01*
X116622285Y-60500380D01*
X116670666Y-60597142D01*
X116670666Y-60742285D01*
X116622285Y-60839047D01*
X116573904Y-60887428D01*
X116477142Y-60935809D01*
X116090095Y-60935809D01*
X117541523Y-60742285D02*
X117541523Y-61419619D01*
X117299619Y-60355238D02*
X117057714Y-61080952D01*
X117686666Y-61080952D01*
D12*
X121364843Y-62689619D02*
X120929415Y-62689619D01*
X121147129Y-62689619D02*
X121274129Y-61673619D01*
X121183415Y-61818761D01*
X121098748Y-61915523D01*
X121020129Y-61963904D01*
X121963557Y-61673619D02*
X122036129Y-61673619D01*
X122102653Y-61722000D01*
X122132891Y-61770380D01*
X122157081Y-61867142D01*
X122169177Y-62060666D01*
X122138938Y-62302571D01*
X122078462Y-62496095D01*
X122030081Y-62592857D01*
X121987748Y-62641238D01*
X121909129Y-62689619D01*
X121836557Y-62689619D01*
X121770034Y-62641238D01*
X121739796Y-62592857D01*
X121715605Y-62496095D01*
X121703510Y-62302571D01*
X121733748Y-62060666D01*
X121794224Y-61867142D01*
X121842605Y-61770380D01*
X121884938Y-61722000D01*
X121963557Y-61673619D01*
X122417129Y-62689619D02*
X122544129Y-61673619D01*
X122538081Y-62302571D02*
X122707415Y-62689619D01*
X122792081Y-62012285D02*
X122453415Y-62399333D01*
D10*
X177630666Y-58879619D02*
X177292000Y-58395809D01*
X177050095Y-58879619D02*
X177050095Y-57863619D01*
X177437142Y-57863619D01*
X177533904Y-57912000D01*
X177582285Y-57960380D01*
X177630666Y-58057142D01*
X177630666Y-58202285D01*
X177582285Y-58299047D01*
X177533904Y-58347428D01*
X177437142Y-58395809D01*
X177050095Y-58395809D01*
X178549904Y-57863619D02*
X178066095Y-57863619D01*
X178017714Y-58347428D01*
X178066095Y-58299047D01*
X178162857Y-58250666D01*
X178404761Y-58250666D01*
X178501523Y-58299047D01*
X178549904Y-58347428D01*
X178598285Y-58444190D01*
X178598285Y-58686095D01*
X178549904Y-58782857D01*
X178501523Y-58831238D01*
X178404761Y-58879619D01*
X178162857Y-58879619D01*
X178066095Y-58831238D01*
X178017714Y-58782857D01*
D12*
X183594843Y-58879619D02*
X183159415Y-58879619D01*
X183377129Y-58879619D02*
X183504129Y-57863619D01*
X183413415Y-58008761D01*
X183328748Y-58105523D01*
X183250129Y-58153904D01*
X184193557Y-57863619D02*
X184266129Y-57863619D01*
X184332653Y-57912000D01*
X184362891Y-57960380D01*
X184387081Y-58057142D01*
X184399177Y-58250666D01*
X184368938Y-58492571D01*
X184308462Y-58686095D01*
X184260081Y-58782857D01*
X184217748Y-58831238D01*
X184139129Y-58879619D01*
X184066557Y-58879619D01*
X184000034Y-58831238D01*
X183969796Y-58782857D01*
X183945605Y-58686095D01*
X183933510Y-58492571D01*
X183963748Y-58250666D01*
X184024224Y-58057142D01*
X184072605Y-57960380D01*
X184114938Y-57912000D01*
X184193557Y-57863619D01*
X184647129Y-58879619D02*
X184774129Y-57863619D01*
X184768081Y-58492571D02*
X184937415Y-58879619D01*
X185022081Y-58202285D02*
X184683415Y-58589333D01*
D10*
X134133166Y-61419619D02*
X133794500Y-60935809D01*
X133552595Y-61419619D02*
X133552595Y-60403619D01*
X133939642Y-60403619D01*
X134036404Y-60452000D01*
X134084785Y-60500380D01*
X134133166Y-60597142D01*
X134133166Y-60742285D01*
X134084785Y-60839047D01*
X134036404Y-60887428D01*
X133939642Y-60935809D01*
X133552595Y-60935809D01*
X135004023Y-60403619D02*
X134810500Y-60403619D01*
X134713738Y-60452000D01*
X134665357Y-60500380D01*
X134568595Y-60645523D01*
X134520214Y-60839047D01*
X134520214Y-61226095D01*
X134568595Y-61322857D01*
X134616976Y-61371238D01*
X134713738Y-61419619D01*
X134907261Y-61419619D01*
X135004023Y-61371238D01*
X135052404Y-61322857D01*
X135100785Y-61226095D01*
X135100785Y-60984190D01*
X135052404Y-60887428D01*
X135004023Y-60839047D01*
X134907261Y-60790666D01*
X134713738Y-60790666D01*
X134616976Y-60839047D01*
X134568595Y-60887428D01*
X134520214Y-60984190D01*
D12*
X138745700Y-62109047D02*
X138679177Y-62060666D01*
X138648938Y-62012285D01*
X138624748Y-61915523D01*
X138630796Y-61867142D01*
X138679177Y-61770380D01*
X138721510Y-61722000D01*
X138800129Y-61673619D01*
X138945272Y-61673619D01*
X139011796Y-61722000D01*
X139042034Y-61770380D01*
X139066224Y-61867142D01*
X139060177Y-61915523D01*
X139011796Y-62012285D01*
X138969462Y-62060666D01*
X138890843Y-62109047D01*
X138745700Y-62109047D01*
X138667081Y-62157428D01*
X138624748Y-62205809D01*
X138576367Y-62302571D01*
X138552177Y-62496095D01*
X138576367Y-62592857D01*
X138606605Y-62641238D01*
X138673129Y-62689619D01*
X138818272Y-62689619D01*
X138896891Y-62641238D01*
X138939224Y-62592857D01*
X138987605Y-62496095D01*
X139011796Y-62302571D01*
X138987605Y-62205809D01*
X138957367Y-62157428D01*
X138890843Y-62109047D01*
X139302081Y-62592857D02*
X139332319Y-62641238D01*
X139289986Y-62689619D01*
X139259748Y-62641238D01*
X139302081Y-62592857D01*
X139289986Y-62689619D01*
X139731462Y-61770380D02*
X139773796Y-61722000D01*
X139852415Y-61673619D01*
X140033843Y-61673619D01*
X140100367Y-61722000D01*
X140130605Y-61770380D01*
X140154796Y-61867142D01*
X140142700Y-61963904D01*
X140088272Y-62109047D01*
X139580272Y-62689619D01*
X140051986Y-62689619D01*
X140378557Y-62689619D02*
X140505557Y-61673619D01*
X140499510Y-62302571D02*
X140668843Y-62689619D01*
X140753510Y-62012285D02*
X140414843Y-62399333D01*
D10*
X134450666Y-100154619D02*
X134112000Y-99670809D01*
X133870095Y-100154619D02*
X133870095Y-99138619D01*
X134257142Y-99138619D01*
X134353904Y-99187000D01*
X134402285Y-99235380D01*
X134450666Y-99332142D01*
X134450666Y-99477285D01*
X134402285Y-99574047D01*
X134353904Y-99622428D01*
X134257142Y-99670809D01*
X133870095Y-99670809D01*
X134789333Y-99138619D02*
X135466666Y-99138619D01*
X135031238Y-100154619D01*
D12*
X133562891Y-97330380D02*
X133605224Y-97282000D01*
X133683843Y-97233619D01*
X133865272Y-97233619D01*
X133931796Y-97282000D01*
X133962034Y-97330380D01*
X133986224Y-97427142D01*
X133974129Y-97523904D01*
X133919700Y-97669047D01*
X133411700Y-98249619D01*
X133883415Y-98249619D01*
X134222081Y-98152857D02*
X134252319Y-98201238D01*
X134209986Y-98249619D01*
X134179748Y-98201238D01*
X134222081Y-98152857D01*
X134209986Y-98249619D01*
X134651462Y-97330380D02*
X134693796Y-97282000D01*
X134772415Y-97233619D01*
X134953843Y-97233619D01*
X135020367Y-97282000D01*
X135050605Y-97330380D01*
X135074796Y-97427142D01*
X135062700Y-97523904D01*
X135008272Y-97669047D01*
X134500272Y-98249619D01*
X134971986Y-98249619D01*
X135298557Y-98249619D02*
X135425557Y-97233619D01*
X135419510Y-97862571D02*
X135588843Y-98249619D01*
X135673510Y-97572285D02*
X135334843Y-97959333D01*
D10*
X103018166Y-75389619D02*
X102679500Y-74905809D01*
X102437595Y-75389619D02*
X102437595Y-74373619D01*
X102824642Y-74373619D01*
X102921404Y-74422000D01*
X102969785Y-74470380D01*
X103018166Y-74567142D01*
X103018166Y-74712285D01*
X102969785Y-74809047D01*
X102921404Y-74857428D01*
X102824642Y-74905809D01*
X102437595Y-74905809D01*
X103598738Y-74809047D02*
X103501976Y-74760666D01*
X103453595Y-74712285D01*
X103405214Y-74615523D01*
X103405214Y-74567142D01*
X103453595Y-74470380D01*
X103501976Y-74422000D01*
X103598738Y-74373619D01*
X103792261Y-74373619D01*
X103889023Y-74422000D01*
X103937404Y-74470380D01*
X103985785Y-74567142D01*
X103985785Y-74615523D01*
X103937404Y-74712285D01*
X103889023Y-74760666D01*
X103792261Y-74809047D01*
X103598738Y-74809047D01*
X103501976Y-74857428D01*
X103453595Y-74905809D01*
X103405214Y-75002571D01*
X103405214Y-75196095D01*
X103453595Y-75292857D01*
X103501976Y-75341238D01*
X103598738Y-75389619D01*
X103792261Y-75389619D01*
X103889023Y-75341238D01*
X103937404Y-75292857D01*
X103985785Y-75196095D01*
X103985785Y-75002571D01*
X103937404Y-74905809D01*
X103889023Y-74857428D01*
X103792261Y-74809047D01*
D12*
X108162891Y-77010380D02*
X108205224Y-76962000D01*
X108283843Y-76913619D01*
X108465272Y-76913619D01*
X108531796Y-76962000D01*
X108562034Y-77010380D01*
X108586224Y-77107142D01*
X108574129Y-77203904D01*
X108519700Y-77349047D01*
X108011700Y-77929619D01*
X108483415Y-77929619D01*
X108822081Y-77832857D02*
X108852319Y-77881238D01*
X108809986Y-77929619D01*
X108779748Y-77881238D01*
X108822081Y-77832857D01*
X108809986Y-77929619D01*
X109251462Y-77010380D02*
X109293796Y-76962000D01*
X109372415Y-76913619D01*
X109553843Y-76913619D01*
X109620367Y-76962000D01*
X109650605Y-77010380D01*
X109674796Y-77107142D01*
X109662700Y-77203904D01*
X109608272Y-77349047D01*
X109100272Y-77929619D01*
X109571986Y-77929619D01*
X109898557Y-77929619D02*
X110025557Y-76913619D01*
X110019510Y-77542571D02*
X110188843Y-77929619D01*
X110273510Y-77252285D02*
X109934843Y-77639333D01*
D10*
X103018166Y-77929619D02*
X102679500Y-77445809D01*
X102437595Y-77929619D02*
X102437595Y-76913619D01*
X102824642Y-76913619D01*
X102921404Y-76962000D01*
X102969785Y-77010380D01*
X103018166Y-77107142D01*
X103018166Y-77252285D01*
X102969785Y-77349047D01*
X102921404Y-77397428D01*
X102824642Y-77445809D01*
X102437595Y-77445809D01*
X103501976Y-77929619D02*
X103695500Y-77929619D01*
X103792261Y-77881238D01*
X103840642Y-77832857D01*
X103937404Y-77687714D01*
X103985785Y-77494190D01*
X103985785Y-77107142D01*
X103937404Y-77010380D01*
X103889023Y-76962000D01*
X103792261Y-76913619D01*
X103598738Y-76913619D01*
X103501976Y-76962000D01*
X103453595Y-77010380D01*
X103405214Y-77107142D01*
X103405214Y-77349047D01*
X103453595Y-77445809D01*
X103501976Y-77494190D01*
X103598738Y-77542571D01*
X103792261Y-77542571D01*
X103889023Y-77494190D01*
X103937404Y-77445809D01*
X103985785Y-77349047D01*
D12*
X108162891Y-74470380D02*
X108205224Y-74422000D01*
X108283843Y-74373619D01*
X108465272Y-74373619D01*
X108531796Y-74422000D01*
X108562034Y-74470380D01*
X108586224Y-74567142D01*
X108574129Y-74663904D01*
X108519700Y-74809047D01*
X108011700Y-75389619D01*
X108483415Y-75389619D01*
X108822081Y-75292857D02*
X108852319Y-75341238D01*
X108809986Y-75389619D01*
X108779748Y-75341238D01*
X108822081Y-75292857D01*
X108809986Y-75389619D01*
X109251462Y-74470380D02*
X109293796Y-74422000D01*
X109372415Y-74373619D01*
X109553843Y-74373619D01*
X109620367Y-74422000D01*
X109650605Y-74470380D01*
X109674796Y-74567142D01*
X109662700Y-74663904D01*
X109608272Y-74809047D01*
X109100272Y-75389619D01*
X109571986Y-75389619D01*
X109898557Y-75389619D02*
X110025557Y-74373619D01*
X110019510Y-75002571D02*
X110188843Y-75389619D01*
X110273510Y-74712285D02*
X109934843Y-75099333D01*
D10*
X102534357Y-72849619D02*
X102195690Y-72365809D01*
X101953785Y-72849619D02*
X101953785Y-71833619D01*
X102340833Y-71833619D01*
X102437595Y-71882000D01*
X102485976Y-71930380D01*
X102534357Y-72027142D01*
X102534357Y-72172285D01*
X102485976Y-72269047D01*
X102437595Y-72317428D01*
X102340833Y-72365809D01*
X101953785Y-72365809D01*
X103501976Y-72849619D02*
X102921404Y-72849619D01*
X103211690Y-72849619D02*
X103211690Y-71833619D01*
X103114928Y-71978761D01*
X103018166Y-72075523D01*
X102921404Y-72123904D01*
X104130928Y-71833619D02*
X104227690Y-71833619D01*
X104324452Y-71882000D01*
X104372833Y-71930380D01*
X104421214Y-72027142D01*
X104469595Y-72220666D01*
X104469595Y-72462571D01*
X104421214Y-72656095D01*
X104372833Y-72752857D01*
X104324452Y-72801238D01*
X104227690Y-72849619D01*
X104130928Y-72849619D01*
X104034166Y-72801238D01*
X103985785Y-72752857D01*
X103937404Y-72656095D01*
X103889023Y-72462571D01*
X103889023Y-72220666D01*
X103937404Y-72027142D01*
X103985785Y-71930380D01*
X104034166Y-71882000D01*
X104130928Y-71833619D01*
D12*
X108162891Y-71930380D02*
X108205224Y-71882000D01*
X108283843Y-71833619D01*
X108465272Y-71833619D01*
X108531796Y-71882000D01*
X108562034Y-71930380D01*
X108586224Y-72027142D01*
X108574129Y-72123904D01*
X108519700Y-72269047D01*
X108011700Y-72849619D01*
X108483415Y-72849619D01*
X108822081Y-72752857D02*
X108852319Y-72801238D01*
X108809986Y-72849619D01*
X108779748Y-72801238D01*
X108822081Y-72752857D01*
X108809986Y-72849619D01*
X109251462Y-71930380D02*
X109293796Y-71882000D01*
X109372415Y-71833619D01*
X109553843Y-71833619D01*
X109620367Y-71882000D01*
X109650605Y-71930380D01*
X109674796Y-72027142D01*
X109662700Y-72123904D01*
X109608272Y-72269047D01*
X109100272Y-72849619D01*
X109571986Y-72849619D01*
X109898557Y-72849619D02*
X110025557Y-71833619D01*
X110019510Y-72462571D02*
X110188843Y-72849619D01*
X110273510Y-72172285D02*
X109934843Y-72559333D01*
D10*
X102534357Y-70309619D02*
X102195690Y-69825809D01*
X101953785Y-70309619D02*
X101953785Y-69293619D01*
X102340833Y-69293619D01*
X102437595Y-69342000D01*
X102485976Y-69390380D01*
X102534357Y-69487142D01*
X102534357Y-69632285D01*
X102485976Y-69729047D01*
X102437595Y-69777428D01*
X102340833Y-69825809D01*
X101953785Y-69825809D01*
X103501976Y-70309619D02*
X102921404Y-70309619D01*
X103211690Y-70309619D02*
X103211690Y-69293619D01*
X103114928Y-69438761D01*
X103018166Y-69535523D01*
X102921404Y-69583904D01*
X104469595Y-70309619D02*
X103889023Y-70309619D01*
X104179309Y-70309619D02*
X104179309Y-69293619D01*
X104082547Y-69438761D01*
X103985785Y-69535523D01*
X103889023Y-69583904D01*
D12*
X108162891Y-69390380D02*
X108205224Y-69342000D01*
X108283843Y-69293619D01*
X108465272Y-69293619D01*
X108531796Y-69342000D01*
X108562034Y-69390380D01*
X108586224Y-69487142D01*
X108574129Y-69583904D01*
X108519700Y-69729047D01*
X108011700Y-70309619D01*
X108483415Y-70309619D01*
X108822081Y-70212857D02*
X108852319Y-70261238D01*
X108809986Y-70309619D01*
X108779748Y-70261238D01*
X108822081Y-70212857D01*
X108809986Y-70309619D01*
X109251462Y-69390380D02*
X109293796Y-69342000D01*
X109372415Y-69293619D01*
X109553843Y-69293619D01*
X109620367Y-69342000D01*
X109650605Y-69390380D01*
X109674796Y-69487142D01*
X109662700Y-69583904D01*
X109608272Y-69729047D01*
X109100272Y-70309619D01*
X109571986Y-70309619D01*
X109898557Y-70309619D02*
X110025557Y-69293619D01*
X110019510Y-69922571D02*
X110188843Y-70309619D01*
X110273510Y-69632285D02*
X109934843Y-70019333D01*
D10*
X115234357Y-58879619D02*
X114895690Y-58395809D01*
X114653785Y-58879619D02*
X114653785Y-57863619D01*
X115040833Y-57863619D01*
X115137595Y-57912000D01*
X115185976Y-57960380D01*
X115234357Y-58057142D01*
X115234357Y-58202285D01*
X115185976Y-58299047D01*
X115137595Y-58347428D01*
X115040833Y-58395809D01*
X114653785Y-58395809D01*
X116201976Y-58879619D02*
X115621404Y-58879619D01*
X115911690Y-58879619D02*
X115911690Y-57863619D01*
X115814928Y-58008761D01*
X115718166Y-58105523D01*
X115621404Y-58153904D01*
X116589023Y-57960380D02*
X116637404Y-57912000D01*
X116734166Y-57863619D01*
X116976071Y-57863619D01*
X117072833Y-57912000D01*
X117121214Y-57960380D01*
X117169595Y-58057142D01*
X117169595Y-58153904D01*
X117121214Y-58299047D01*
X116540642Y-58879619D01*
X117169595Y-58879619D01*
D12*
X120862891Y-59230380D02*
X120905224Y-59182000D01*
X120983843Y-59133619D01*
X121165272Y-59133619D01*
X121231796Y-59182000D01*
X121262034Y-59230380D01*
X121286224Y-59327142D01*
X121274129Y-59423904D01*
X121219700Y-59569047D01*
X120711700Y-60149619D01*
X121183415Y-60149619D01*
X121522081Y-60052857D02*
X121552319Y-60101238D01*
X121509986Y-60149619D01*
X121479748Y-60101238D01*
X121522081Y-60052857D01*
X121509986Y-60149619D01*
X121951462Y-59230380D02*
X121993796Y-59182000D01*
X122072415Y-59133619D01*
X122253843Y-59133619D01*
X122320367Y-59182000D01*
X122350605Y-59230380D01*
X122374796Y-59327142D01*
X122362700Y-59423904D01*
X122308272Y-59569047D01*
X121800272Y-60149619D01*
X122271986Y-60149619D01*
X122598557Y-60149619D02*
X122725557Y-59133619D01*
X122719510Y-59762571D02*
X122888843Y-60149619D01*
X122973510Y-59472285D02*
X122634843Y-59859333D01*
D10*
X115234357Y-65864619D02*
X114895690Y-65380809D01*
X114653785Y-65864619D02*
X114653785Y-64848619D01*
X115040833Y-64848619D01*
X115137595Y-64897000D01*
X115185976Y-64945380D01*
X115234357Y-65042142D01*
X115234357Y-65187285D01*
X115185976Y-65284047D01*
X115137595Y-65332428D01*
X115040833Y-65380809D01*
X114653785Y-65380809D01*
X116201976Y-65864619D02*
X115621404Y-65864619D01*
X115911690Y-65864619D02*
X115911690Y-64848619D01*
X115814928Y-64993761D01*
X115718166Y-65090523D01*
X115621404Y-65138904D01*
X116540642Y-64848619D02*
X117169595Y-64848619D01*
X116830928Y-65235666D01*
X116976071Y-65235666D01*
X117072833Y-65284047D01*
X117121214Y-65332428D01*
X117169595Y-65429190D01*
X117169595Y-65671095D01*
X117121214Y-65767857D01*
X117072833Y-65816238D01*
X116976071Y-65864619D01*
X116685785Y-65864619D01*
X116589023Y-65816238D01*
X116540642Y-65767857D01*
D12*
X120862891Y-64310380D02*
X120905224Y-64262000D01*
X120983843Y-64213619D01*
X121165272Y-64213619D01*
X121231796Y-64262000D01*
X121262034Y-64310380D01*
X121286224Y-64407142D01*
X121274129Y-64503904D01*
X121219700Y-64649047D01*
X120711700Y-65229619D01*
X121183415Y-65229619D01*
X121522081Y-65132857D02*
X121552319Y-65181238D01*
X121509986Y-65229619D01*
X121479748Y-65181238D01*
X121522081Y-65132857D01*
X121509986Y-65229619D01*
X121951462Y-64310380D02*
X121993796Y-64262000D01*
X122072415Y-64213619D01*
X122253843Y-64213619D01*
X122320367Y-64262000D01*
X122350605Y-64310380D01*
X122374796Y-64407142D01*
X122362700Y-64503904D01*
X122308272Y-64649047D01*
X121800272Y-65229619D01*
X122271986Y-65229619D01*
X122598557Y-65229619D02*
X122725557Y-64213619D01*
X122719510Y-64842571D02*
X122888843Y-65229619D01*
X122973510Y-64552285D02*
X122634843Y-64939333D01*
D10*
X158096857Y-64594619D02*
X157758190Y-64110809D01*
X157516285Y-64594619D02*
X157516285Y-63578619D01*
X157903333Y-63578619D01*
X158000095Y-63627000D01*
X158048476Y-63675380D01*
X158096857Y-63772142D01*
X158096857Y-63917285D01*
X158048476Y-64014047D01*
X158000095Y-64062428D01*
X157903333Y-64110809D01*
X157516285Y-64110809D01*
X159064476Y-64594619D02*
X158483904Y-64594619D01*
X158774190Y-64594619D02*
X158774190Y-63578619D01*
X158677428Y-63723761D01*
X158580666Y-63820523D01*
X158483904Y-63868904D01*
X159983714Y-63578619D02*
X159499904Y-63578619D01*
X159451523Y-64062428D01*
X159499904Y-64014047D01*
X159596666Y-63965666D01*
X159838571Y-63965666D01*
X159935333Y-64014047D01*
X159983714Y-64062428D01*
X160032095Y-64159190D01*
X160032095Y-64401095D01*
X159983714Y-64497857D01*
X159935333Y-64546238D01*
X159838571Y-64594619D01*
X159596666Y-64594619D01*
X159499904Y-64546238D01*
X159451523Y-64497857D01*
D12*
X158503272Y-62689619D02*
X158067843Y-62689619D01*
X158285557Y-62689619D02*
X158412557Y-61673619D01*
X158321843Y-61818761D01*
X158237177Y-61915523D01*
X158158557Y-61963904D01*
X159101986Y-61673619D02*
X159174557Y-61673619D01*
X159241081Y-61722000D01*
X159271319Y-61770380D01*
X159295510Y-61867142D01*
X159307605Y-62060666D01*
X159277367Y-62302571D01*
X159216891Y-62496095D01*
X159168510Y-62592857D01*
X159126177Y-62641238D01*
X159047557Y-62689619D01*
X158974986Y-62689619D01*
X158908462Y-62641238D01*
X158878224Y-62592857D01*
X158854034Y-62496095D01*
X158841938Y-62302571D01*
X158872177Y-62060666D01*
X158932653Y-61867142D01*
X158981034Y-61770380D01*
X159023367Y-61722000D01*
X159101986Y-61673619D01*
D10*
X177146857Y-56339619D02*
X176808190Y-55855809D01*
X176566285Y-56339619D02*
X176566285Y-55323619D01*
X176953333Y-55323619D01*
X177050095Y-55372000D01*
X177098476Y-55420380D01*
X177146857Y-55517142D01*
X177146857Y-55662285D01*
X177098476Y-55759047D01*
X177050095Y-55807428D01*
X176953333Y-55855809D01*
X176566285Y-55855809D01*
X178114476Y-56339619D02*
X177533904Y-56339619D01*
X177824190Y-56339619D02*
X177824190Y-55323619D01*
X177727428Y-55468761D01*
X177630666Y-55565523D01*
X177533904Y-55613904D01*
X178985333Y-55323619D02*
X178791809Y-55323619D01*
X178695047Y-55372000D01*
X178646666Y-55420380D01*
X178549904Y-55565523D01*
X178501523Y-55759047D01*
X178501523Y-56146095D01*
X178549904Y-56242857D01*
X178598285Y-56291238D01*
X178695047Y-56339619D01*
X178888571Y-56339619D01*
X178985333Y-56291238D01*
X179033714Y-56242857D01*
X179082095Y-56146095D01*
X179082095Y-55904190D01*
X179033714Y-55807428D01*
X178985333Y-55759047D01*
X178888571Y-55710666D01*
X178695047Y-55710666D01*
X178598285Y-55759047D01*
X178549904Y-55807428D01*
X178501523Y-55904190D01*
D12*
X183903272Y-56339619D02*
X183467843Y-56339619D01*
X183685557Y-56339619D02*
X183812557Y-55323619D01*
X183721843Y-55468761D01*
X183637177Y-55565523D01*
X183558557Y-55613904D01*
X184501986Y-55323619D02*
X184574557Y-55323619D01*
X184641081Y-55372000D01*
X184671319Y-55420380D01*
X184695510Y-55517142D01*
X184707605Y-55710666D01*
X184677367Y-55952571D01*
X184616891Y-56146095D01*
X184568510Y-56242857D01*
X184526177Y-56291238D01*
X184447557Y-56339619D01*
X184374986Y-56339619D01*
X184308462Y-56291238D01*
X184278224Y-56242857D01*
X184254034Y-56146095D01*
X184241938Y-55952571D01*
X184272177Y-55710666D01*
X184332653Y-55517142D01*
X184381034Y-55420380D01*
X184423367Y-55372000D01*
X184501986Y-55323619D01*
D10*
X151650095Y-97614619D02*
X151650095Y-96598619D01*
X152037142Y-96598619D01*
X152133904Y-96647000D01*
X152182285Y-96695380D01*
X152230666Y-96792142D01*
X152230666Y-96937285D01*
X152182285Y-97034047D01*
X152133904Y-97082428D01*
X152037142Y-97130809D01*
X151650095Y-97130809D01*
X152617714Y-96695380D02*
X152666095Y-96647000D01*
X152762857Y-96598619D01*
X153004761Y-96598619D01*
X153101523Y-96647000D01*
X153149904Y-96695380D01*
X153198285Y-96792142D01*
X153198285Y-96888904D01*
X153149904Y-97034047D01*
X152569333Y-97614619D01*
X153198285Y-97614619D01*
D12*
X151645272Y-98911833D02*
X152008129Y-98911833D01*
X151536415Y-99202119D02*
X151917415Y-98186119D01*
X152044415Y-99202119D01*
X152298415Y-99202119D02*
X152425415Y-98186119D01*
X152606843Y-98186119D01*
X152709653Y-98234500D01*
X152770129Y-98331261D01*
X152794319Y-98428023D01*
X152806415Y-98621547D01*
X152788272Y-98766690D01*
X152727796Y-98960214D01*
X152679415Y-99056976D01*
X152594748Y-99153738D01*
X152479843Y-99202119D01*
X152298415Y-99202119D01*
X153060415Y-99202119D02*
X153187415Y-98186119D01*
X153368843Y-98186119D01*
X153471653Y-98234500D01*
X153532129Y-98331261D01*
X153556319Y-98428023D01*
X153568415Y-98621547D01*
X153550272Y-98766690D01*
X153489796Y-98960214D01*
X153441415Y-99056976D01*
X153356748Y-99153738D01*
X153241843Y-99202119D01*
X153060415Y-99202119D01*
X154257843Y-99202119D02*
X154064319Y-98718309D01*
X153822415Y-99202119D02*
X153949415Y-98186119D01*
X154239700Y-98186119D01*
X154306224Y-98234500D01*
X154336462Y-98282880D01*
X154360653Y-98379642D01*
X154342510Y-98524785D01*
X154294129Y-98621547D01*
X154251796Y-98669928D01*
X154173177Y-98718309D01*
X153882891Y-98718309D01*
D10*
X118312595Y-97614619D02*
X118312595Y-96598619D01*
X118699642Y-96598619D01*
X118796404Y-96647000D01*
X118844785Y-96695380D01*
X118893166Y-96792142D01*
X118893166Y-96937285D01*
X118844785Y-97034047D01*
X118796404Y-97082428D01*
X118699642Y-97130809D01*
X118312595Y-97130809D01*
X119860785Y-97614619D02*
X119280214Y-97614619D01*
X119570500Y-97614619D02*
X119570500Y-96598619D01*
X119473738Y-96743761D01*
X119376976Y-96840523D01*
X119280214Y-96888904D01*
D12*
X118180772Y-99202119D02*
X118307772Y-98186119D01*
X118979057Y-99202119D02*
X118785534Y-98718309D01*
X118543629Y-99202119D02*
X118670629Y-98186119D01*
X118960915Y-98186119D01*
X119027438Y-98234500D01*
X119057677Y-98282880D01*
X119081867Y-98379642D01*
X119063724Y-98524785D01*
X119015343Y-98621547D01*
X118973010Y-98669928D01*
X118894391Y-98718309D01*
X118604105Y-98718309D01*
X119801534Y-99298880D02*
X119735010Y-99250500D01*
X119674534Y-99153738D01*
X119583819Y-99008595D01*
X119517296Y-98960214D01*
X119444724Y-98960214D01*
X119450772Y-99202119D02*
X119384248Y-99153738D01*
X119323772Y-99056976D01*
X119311677Y-98863452D01*
X119354010Y-98524785D01*
X119414486Y-98331261D01*
X119499153Y-98234500D01*
X119577772Y-98186119D01*
X119722915Y-98186119D01*
X119789438Y-98234500D01*
X119849915Y-98331261D01*
X119862010Y-98524785D01*
X119819677Y-98863452D01*
X119759200Y-99056976D01*
X119674534Y-99153738D01*
X119595915Y-99202119D01*
X119450772Y-99202119D01*
D10*
X128826380Y-64866761D02*
X128778000Y-64963523D01*
X128681238Y-65060285D01*
X128536095Y-65205428D01*
X128487714Y-65302190D01*
X128487714Y-65398952D01*
X128729619Y-65350571D02*
X128681238Y-65447333D01*
X128584476Y-65544095D01*
X128390952Y-65592476D01*
X128052285Y-65592476D01*
X127858761Y-65544095D01*
X127762000Y-65447333D01*
X127713619Y-65350571D01*
X127713619Y-65157047D01*
X127762000Y-65060285D01*
X127858761Y-64963523D01*
X128052285Y-64915142D01*
X128390952Y-64915142D01*
X128584476Y-64963523D01*
X128681238Y-65060285D01*
X128729619Y-65157047D01*
X128729619Y-65350571D01*
X128729619Y-63947523D02*
X128729619Y-64528095D01*
X128729619Y-64237809D02*
X127713619Y-64237809D01*
X127858761Y-64334571D01*
X127955523Y-64431333D01*
X128003904Y-64528095D01*
D12*
X127810380Y-62379965D02*
X127762000Y-62337632D01*
X127713619Y-62259013D01*
X127713619Y-62077584D01*
X127762000Y-62011061D01*
X127810380Y-61980822D01*
X127907142Y-61956632D01*
X128003904Y-61968727D01*
X128149047Y-62023156D01*
X128729619Y-62531156D01*
X128729619Y-62059442D01*
X128729619Y-61732870D02*
X127713619Y-61605870D01*
X128729619Y-61297442D01*
X127713619Y-61170442D01*
X127713619Y-60880156D02*
X127713619Y-60408442D01*
X128100666Y-60710822D01*
X128100666Y-60601965D01*
X128149047Y-60535442D01*
X128197428Y-60505203D01*
X128294190Y-60481013D01*
X128536095Y-60511251D01*
X128632857Y-60559632D01*
X128681238Y-60601965D01*
X128729619Y-60680584D01*
X128729619Y-60898299D01*
X128681238Y-60964822D01*
X128632857Y-60995061D01*
X128729619Y-60172584D02*
X128729619Y-60027442D01*
X128681238Y-59948822D01*
X128632857Y-59906489D01*
X128487714Y-59815775D01*
X128294190Y-59755299D01*
X127907142Y-59706918D01*
X127810380Y-59731108D01*
X127762000Y-59761346D01*
X127713619Y-59827870D01*
X127713619Y-59973013D01*
X127762000Y-60051632D01*
X127810380Y-60093965D01*
X127907142Y-60142346D01*
X128149047Y-60172584D01*
X128245809Y-60148394D01*
X128294190Y-60118156D01*
X128342571Y-60051632D01*
X128342571Y-59906489D01*
X128294190Y-59827870D01*
X128245809Y-59785537D01*
X128149047Y-59737156D01*
X127713619Y-59211013D02*
X127713619Y-59138442D01*
X127762000Y-59071918D01*
X127810380Y-59041680D01*
X127907142Y-59017489D01*
X128100666Y-59005394D01*
X128342571Y-59035632D01*
X128536095Y-59096108D01*
X128632857Y-59144489D01*
X128681238Y-59186822D01*
X128729619Y-59265442D01*
X128729619Y-59338013D01*
X128681238Y-59404537D01*
X128632857Y-59434775D01*
X128536095Y-59458965D01*
X128342571Y-59471061D01*
X128100666Y-59440822D01*
X127907142Y-59380346D01*
X127810380Y-59331965D01*
X127762000Y-59289632D01*
X127713619Y-59211013D01*
X128052285Y-58346203D02*
X128729619Y-58430870D01*
X127665238Y-58479251D02*
X128390952Y-58751394D01*
X128390952Y-58279680D01*
D10*
X177146857Y-53799619D02*
X176808190Y-53315809D01*
X176566285Y-53799619D02*
X176566285Y-52783619D01*
X176953333Y-52783619D01*
X177050095Y-52832000D01*
X177098476Y-52880380D01*
X177146857Y-52977142D01*
X177146857Y-53122285D01*
X177098476Y-53219047D01*
X177050095Y-53267428D01*
X176953333Y-53315809D01*
X176566285Y-53315809D01*
X178114476Y-53799619D02*
X177533904Y-53799619D01*
X177824190Y-53799619D02*
X177824190Y-52783619D01*
X177727428Y-52928761D01*
X177630666Y-53025523D01*
X177533904Y-53073904D01*
X178453142Y-52783619D02*
X179130476Y-52783619D01*
X178695047Y-53799619D01*
D12*
X183903272Y-53799619D02*
X183467843Y-53799619D01*
X183685557Y-53799619D02*
X183812557Y-52783619D01*
X183721843Y-52928761D01*
X183637177Y-53025523D01*
X183558557Y-53073904D01*
X184501986Y-52783619D02*
X184574557Y-52783619D01*
X184641081Y-52832000D01*
X184671319Y-52880380D01*
X184695510Y-52977142D01*
X184707605Y-53170666D01*
X184677367Y-53412571D01*
X184616891Y-53606095D01*
X184568510Y-53702857D01*
X184526177Y-53751238D01*
X184447557Y-53799619D01*
X184374986Y-53799619D01*
X184308462Y-53751238D01*
X184278224Y-53702857D01*
X184254034Y-53606095D01*
X184241938Y-53412571D01*
X184272177Y-53170666D01*
X184332653Y-52977142D01*
X184381034Y-52880380D01*
X184423367Y-52832000D01*
X184501986Y-52783619D01*
D11*
X186886547Y-78679523D02*
X186463214Y-78074761D01*
X186160833Y-78679523D02*
X186160833Y-77409523D01*
X186644642Y-77409523D01*
X186765595Y-77470000D01*
X186826071Y-77530476D01*
X186886547Y-77651428D01*
X186886547Y-77832857D01*
X186826071Y-77953809D01*
X186765595Y-78014285D01*
X186644642Y-78074761D01*
X186160833Y-78074761D01*
X187249404Y-77409523D02*
X187672738Y-78679523D01*
X188096071Y-77409523D01*
X189184642Y-78679523D02*
X188458928Y-78679523D01*
X188821785Y-78679523D02*
X188821785Y-77409523D01*
X188700833Y-77590952D01*
X188579880Y-77711904D01*
X188458928Y-77772380D01*
D10*
X191672225Y-78679523D02*
X191091653Y-78679523D01*
X191381939Y-78679523D02*
X191540689Y-77409523D01*
X191421248Y-77590952D01*
X191309367Y-77711904D01*
X191205046Y-77772380D01*
X192459927Y-77409523D02*
X192556689Y-77409523D01*
X192645891Y-77470000D01*
X192686713Y-77530476D01*
X192719975Y-77651428D01*
X192738117Y-77893333D01*
X192700320Y-78195714D01*
X192621701Y-78437619D01*
X192558201Y-78558571D01*
X192502260Y-78619047D01*
X192397939Y-78679523D01*
X192301177Y-78679523D01*
X192211975Y-78619047D01*
X192171153Y-78558571D01*
X192137891Y-78437619D01*
X192119748Y-78195714D01*
X192157546Y-77893333D01*
X192236165Y-77651428D01*
X192299665Y-77530476D01*
X192355606Y-77470000D01*
X192459927Y-77409523D01*
X193075272Y-78679523D02*
X193234022Y-77409523D01*
X193232510Y-78195714D02*
X193462320Y-78679523D01*
X193568153Y-77832857D02*
X193120629Y-78316666D01*
X125076857Y-70309619D02*
X124738190Y-69825809D01*
X124496285Y-70309619D02*
X124496285Y-69293619D01*
X124883333Y-69293619D01*
X124980095Y-69342000D01*
X125028476Y-69390380D01*
X125076857Y-69487142D01*
X125076857Y-69632285D01*
X125028476Y-69729047D01*
X124980095Y-69777428D01*
X124883333Y-69825809D01*
X124496285Y-69825809D01*
X126044476Y-70309619D02*
X125463904Y-70309619D01*
X125754190Y-70309619D02*
X125754190Y-69293619D01*
X125657428Y-69438761D01*
X125560666Y-69535523D01*
X125463904Y-69583904D01*
X126915333Y-69632285D02*
X126915333Y-70309619D01*
X126673428Y-69245238D02*
X126431523Y-69970952D01*
X127060476Y-69970952D01*
D12*
X118643415Y-70309619D02*
X118207986Y-70309619D01*
X118425700Y-70309619D02*
X118552700Y-69293619D01*
X118461986Y-69438761D01*
X118377319Y-69535523D01*
X118298700Y-69583904D01*
X118982081Y-70212857D02*
X119012319Y-70261238D01*
X118969986Y-70309619D01*
X118939748Y-70261238D01*
X118982081Y-70212857D01*
X118969986Y-70309619D01*
X119822700Y-69293619D02*
X119459843Y-69293619D01*
X119363081Y-69777428D01*
X119405415Y-69729047D01*
X119484034Y-69680666D01*
X119665462Y-69680666D01*
X119731986Y-69729047D01*
X119762224Y-69777428D01*
X119786415Y-69874190D01*
X119756177Y-70116095D01*
X119707796Y-70212857D01*
X119665462Y-70261238D01*
X119586843Y-70309619D01*
X119405415Y-70309619D01*
X119338891Y-70261238D01*
X119308653Y-70212857D01*
X120058557Y-70309619D02*
X120185557Y-69293619D01*
X120179510Y-69922571D02*
X120348843Y-70309619D01*
X120433510Y-69632285D02*
X120094843Y-70019333D01*
D11*
X160322380Y-112017023D02*
X160322380Y-113045119D01*
X160382857Y-113166071D01*
X160443333Y-113226547D01*
X160564285Y-113287023D01*
X160806190Y-113287023D01*
X160927142Y-113226547D01*
X160987619Y-113166071D01*
X161048095Y-113045119D01*
X161048095Y-112017023D01*
X162318095Y-113287023D02*
X161592380Y-113287023D01*
X161955238Y-113287023D02*
X161955238Y-112017023D01*
X161834285Y-112198452D01*
X161713333Y-112319404D01*
X161592380Y-112379880D01*
D10*
X176566784Y-112017023D02*
X177244117Y-112017023D01*
X176649939Y-113287023D01*
X178013677Y-112440357D02*
X177907844Y-113287023D01*
X177832248Y-111956547D02*
X177476951Y-112863690D01*
X178105903Y-112863690D01*
X178923844Y-113287023D02*
X178440034Y-113287023D01*
X178598784Y-112017023D01*
X179221689Y-113226547D02*
X179359272Y-113287023D01*
X179601177Y-113287023D01*
X179705498Y-113226547D01*
X179761439Y-113166071D01*
X179824939Y-113045119D01*
X179840058Y-112924166D01*
X179806796Y-112803214D01*
X179765975Y-112742738D01*
X179676772Y-112682261D01*
X179490808Y-112621785D01*
X179401606Y-112561309D01*
X179360784Y-112500833D01*
X179327522Y-112379880D01*
X179342641Y-112258928D01*
X179406141Y-112137976D01*
X179462082Y-112077500D01*
X179566403Y-112017023D01*
X179808308Y-112017023D01*
X179945891Y-112077500D01*
X180325379Y-112137976D02*
X180381320Y-112077500D01*
X180485641Y-112017023D01*
X180727546Y-112017023D01*
X180816748Y-112077500D01*
X180857570Y-112137976D01*
X180890832Y-112258928D01*
X180875713Y-112379880D01*
X180804653Y-112561309D01*
X180133367Y-113287023D01*
X180762320Y-113287023D01*
X181739010Y-112440357D02*
X181633177Y-113287023D01*
X181557582Y-111956547D02*
X181202284Y-112863690D01*
X181831237Y-112863690D01*
X182807927Y-112017023D02*
X182324117Y-112017023D01*
X182200141Y-112621785D01*
X182256082Y-112561309D01*
X182360403Y-112500833D01*
X182602308Y-112500833D01*
X182691510Y-112561309D01*
X182732332Y-112621785D01*
X182765594Y-112742738D01*
X182727796Y-113045119D01*
X182664296Y-113166071D01*
X182608356Y-113226547D01*
X182504034Y-113287023D01*
X182262129Y-113287023D01*
X182172927Y-113226547D01*
X182132106Y-113166071D01*
D11*
X110792380Y-94237023D02*
X110792380Y-95265119D01*
X110852857Y-95386071D01*
X110913333Y-95446547D01*
X111034285Y-95507023D01*
X111276190Y-95507023D01*
X111397142Y-95446547D01*
X111457619Y-95386071D01*
X111518095Y-95265119D01*
X111518095Y-94237023D01*
X112667142Y-94660357D02*
X112667142Y-95507023D01*
X112364761Y-94176547D02*
X112062380Y-95083690D01*
X112848571Y-95083690D01*
D10*
X114820594Y-94237023D02*
X115497927Y-94237023D01*
X114903748Y-95507023D01*
X116267487Y-94660357D02*
X116161653Y-95507023D01*
X116086058Y-94176547D02*
X115730760Y-95083690D01*
X116359713Y-95083690D01*
X117177653Y-95507023D02*
X116693844Y-95507023D01*
X116852594Y-94237023D01*
X117475498Y-95446547D02*
X117613082Y-95507023D01*
X117854987Y-95507023D01*
X117959308Y-95446547D01*
X118015248Y-95386071D01*
X118078748Y-95265119D01*
X118093867Y-95144166D01*
X118060606Y-95023214D01*
X118019784Y-94962738D01*
X117930582Y-94902261D01*
X117744617Y-94841785D01*
X117655415Y-94781309D01*
X117614594Y-94720833D01*
X117581332Y-94599880D01*
X117596451Y-94478928D01*
X117659951Y-94357976D01*
X117715891Y-94297500D01*
X117820213Y-94237023D01*
X118062117Y-94237023D01*
X118199701Y-94297500D01*
X118545927Y-94237023D02*
X119223260Y-94237023D01*
X118629082Y-95507023D01*
X119992820Y-94660357D02*
X119886987Y-95507023D01*
X119811391Y-94176547D02*
X119456094Y-95083690D01*
X120085046Y-95083690D01*
X131172857Y-111611833D02*
X131221238Y-111660214D01*
X131269619Y-111805357D01*
X131269619Y-111902119D01*
X131221238Y-112047261D01*
X131124476Y-112144023D01*
X131027714Y-112192404D01*
X130834190Y-112240785D01*
X130689047Y-112240785D01*
X130495523Y-112192404D01*
X130398761Y-112144023D01*
X130302000Y-112047261D01*
X130253619Y-111902119D01*
X130253619Y-111805357D01*
X130302000Y-111660214D01*
X130350380Y-111611833D01*
X130253619Y-111273166D02*
X130253619Y-110644214D01*
X130640666Y-110982880D01*
X130640666Y-110837738D01*
X130689047Y-110740976D01*
X130737428Y-110692595D01*
X130834190Y-110644214D01*
X131076095Y-110644214D01*
X131172857Y-110692595D01*
X131221238Y-110740976D01*
X131269619Y-110837738D01*
X131269619Y-111128023D01*
X131221238Y-111224785D01*
X131172857Y-111273166D01*
D12*
X130253619Y-107906442D02*
X130253619Y-107833870D01*
X130302000Y-107767346D01*
X130350380Y-107737108D01*
X130447142Y-107712918D01*
X130640666Y-107700822D01*
X130882571Y-107731061D01*
X131076095Y-107791537D01*
X131172857Y-107839918D01*
X131221238Y-107882251D01*
X131269619Y-107960870D01*
X131269619Y-108033442D01*
X131221238Y-108099965D01*
X131172857Y-108130203D01*
X131076095Y-108154394D01*
X130882571Y-108166489D01*
X130640666Y-108136251D01*
X130447142Y-108075775D01*
X130350380Y-108027394D01*
X130302000Y-107985061D01*
X130253619Y-107906442D01*
X131172857Y-107440775D02*
X131221238Y-107410537D01*
X131269619Y-107452870D01*
X131221238Y-107483108D01*
X131172857Y-107440775D01*
X131269619Y-107452870D01*
X131269619Y-106690870D02*
X131269619Y-107126299D01*
X131269619Y-106908584D02*
X130253619Y-106781584D01*
X130398761Y-106872299D01*
X130495523Y-106956965D01*
X130543904Y-107035584D01*
X130592285Y-105953061D02*
X131269619Y-106037727D01*
X130592285Y-106279632D02*
X131124476Y-106346156D01*
X131221238Y-106321965D01*
X131269619Y-106255442D01*
X131269619Y-106146584D01*
X131221238Y-106067965D01*
X131172857Y-106025632D01*
X130737428Y-105354346D02*
X130737428Y-105608346D01*
X131269619Y-105674870D02*
X130253619Y-105547870D01*
X130253619Y-105185013D01*
D10*
X148952857Y-79710642D02*
X149001238Y-79759023D01*
X149049619Y-79904166D01*
X149049619Y-80000928D01*
X149001238Y-80146071D01*
X148904476Y-80242833D01*
X148807714Y-80291214D01*
X148614190Y-80339595D01*
X148469047Y-80339595D01*
X148275523Y-80291214D01*
X148178761Y-80242833D01*
X148082000Y-80146071D01*
X148033619Y-80000928D01*
X148033619Y-79904166D01*
X148082000Y-79759023D01*
X148130380Y-79710642D01*
X149049619Y-78743023D02*
X149049619Y-79323595D01*
X149049619Y-79033309D02*
X148033619Y-79033309D01*
X148178761Y-79130071D01*
X148275523Y-79226833D01*
X148323904Y-79323595D01*
X148033619Y-78114071D02*
X148033619Y-78017309D01*
X148082000Y-77920547D01*
X148130380Y-77872166D01*
X148227142Y-77823785D01*
X148420666Y-77775404D01*
X148662571Y-77775404D01*
X148856095Y-77823785D01*
X148952857Y-77872166D01*
X149001238Y-77920547D01*
X149049619Y-78017309D01*
X149049619Y-78114071D01*
X149001238Y-78210833D01*
X148952857Y-78259214D01*
X148856095Y-78307595D01*
X148662571Y-78355976D01*
X148420666Y-78355976D01*
X148227142Y-78307595D01*
X148130380Y-78259214D01*
X148082000Y-78210833D01*
X148033619Y-78114071D01*
D12*
X148033619Y-74886442D02*
X148033619Y-74813870D01*
X148082000Y-74747346D01*
X148130380Y-74717108D01*
X148227142Y-74692918D01*
X148420666Y-74680822D01*
X148662571Y-74711061D01*
X148856095Y-74771537D01*
X148952857Y-74819918D01*
X149001238Y-74862251D01*
X149049619Y-74940870D01*
X149049619Y-75013442D01*
X149001238Y-75079965D01*
X148952857Y-75110203D01*
X148856095Y-75134394D01*
X148662571Y-75146489D01*
X148420666Y-75116251D01*
X148227142Y-75055775D01*
X148130380Y-75007394D01*
X148082000Y-74965061D01*
X148033619Y-74886442D01*
X148952857Y-74420775D02*
X149001238Y-74390537D01*
X149049619Y-74432870D01*
X149001238Y-74463108D01*
X148952857Y-74420775D01*
X149049619Y-74432870D01*
X149049619Y-73670870D02*
X149049619Y-74106299D01*
X149049619Y-73888584D02*
X148033619Y-73761584D01*
X148178761Y-73852299D01*
X148275523Y-73936965D01*
X148323904Y-74015584D01*
X148372285Y-72933061D02*
X149049619Y-73017727D01*
X148372285Y-73259632D02*
X148904476Y-73326156D01*
X149001238Y-73301965D01*
X149049619Y-73235442D01*
X149049619Y-73126584D01*
X149001238Y-73047965D01*
X148952857Y-73005632D01*
X148517428Y-72334346D02*
X148517428Y-72588346D01*
X149049619Y-72654870D02*
X148033619Y-72527870D01*
X148033619Y-72165013D01*
D10*
X169272857Y-79710642D02*
X169321238Y-79759023D01*
X169369619Y-79904166D01*
X169369619Y-80000928D01*
X169321238Y-80146071D01*
X169224476Y-80242833D01*
X169127714Y-80291214D01*
X168934190Y-80339595D01*
X168789047Y-80339595D01*
X168595523Y-80291214D01*
X168498761Y-80242833D01*
X168402000Y-80146071D01*
X168353619Y-80000928D01*
X168353619Y-79904166D01*
X168402000Y-79759023D01*
X168450380Y-79710642D01*
X169369619Y-78743023D02*
X169369619Y-79323595D01*
X169369619Y-79033309D02*
X168353619Y-79033309D01*
X168498761Y-79130071D01*
X168595523Y-79226833D01*
X168643904Y-79323595D01*
X169369619Y-77775404D02*
X169369619Y-78355976D01*
X169369619Y-78065690D02*
X168353619Y-78065690D01*
X168498761Y-78162452D01*
X168595523Y-78259214D01*
X168643904Y-78355976D01*
D12*
X168353619Y-74886442D02*
X168353619Y-74813870D01*
X168402000Y-74747346D01*
X168450380Y-74717108D01*
X168547142Y-74692918D01*
X168740666Y-74680822D01*
X168982571Y-74711061D01*
X169176095Y-74771537D01*
X169272857Y-74819918D01*
X169321238Y-74862251D01*
X169369619Y-74940870D01*
X169369619Y-75013442D01*
X169321238Y-75079965D01*
X169272857Y-75110203D01*
X169176095Y-75134394D01*
X168982571Y-75146489D01*
X168740666Y-75116251D01*
X168547142Y-75055775D01*
X168450380Y-75007394D01*
X168402000Y-74965061D01*
X168353619Y-74886442D01*
X169272857Y-74420775D02*
X169321238Y-74390537D01*
X169369619Y-74432870D01*
X169321238Y-74463108D01*
X169272857Y-74420775D01*
X169369619Y-74432870D01*
X169369619Y-73670870D02*
X169369619Y-74106299D01*
X169369619Y-73888584D02*
X168353619Y-73761584D01*
X168498761Y-73852299D01*
X168595523Y-73936965D01*
X168643904Y-74015584D01*
X168692285Y-72933061D02*
X169369619Y-73017727D01*
X168692285Y-73259632D02*
X169224476Y-73326156D01*
X169321238Y-73301965D01*
X169369619Y-73235442D01*
X169369619Y-73126584D01*
X169321238Y-73047965D01*
X169272857Y-73005632D01*
X168837428Y-72334346D02*
X168837428Y-72588346D01*
X169369619Y-72654870D02*
X168353619Y-72527870D01*
X168353619Y-72165013D01*
D10*
X189592857Y-111143142D02*
X189641238Y-111191523D01*
X189689619Y-111336666D01*
X189689619Y-111433428D01*
X189641238Y-111578571D01*
X189544476Y-111675333D01*
X189447714Y-111723714D01*
X189254190Y-111772095D01*
X189109047Y-111772095D01*
X188915523Y-111723714D01*
X188818761Y-111675333D01*
X188722000Y-111578571D01*
X188673619Y-111433428D01*
X188673619Y-111336666D01*
X188722000Y-111191523D01*
X188770380Y-111143142D01*
X189689619Y-110175523D02*
X189689619Y-110756095D01*
X189689619Y-110465809D02*
X188673619Y-110465809D01*
X188818761Y-110562571D01*
X188915523Y-110659333D01*
X188963904Y-110756095D01*
X188770380Y-109788476D02*
X188722000Y-109740095D01*
X188673619Y-109643333D01*
X188673619Y-109401428D01*
X188722000Y-109304666D01*
X188770380Y-109256285D01*
X188867142Y-109207904D01*
X188963904Y-109207904D01*
X189109047Y-109256285D01*
X189689619Y-109836857D01*
X189689619Y-109207904D01*
D12*
X193499619Y-108868013D02*
X193499619Y-109303442D01*
X193499619Y-109085727D02*
X192483619Y-108958727D01*
X192628761Y-109049442D01*
X192725523Y-109134108D01*
X192773904Y-109212727D01*
X192483619Y-108269299D02*
X192483619Y-108196727D01*
X192532000Y-108130203D01*
X192580380Y-108099965D01*
X192677142Y-108075775D01*
X192870666Y-108063680D01*
X193112571Y-108093918D01*
X193306095Y-108154394D01*
X193402857Y-108202775D01*
X193451238Y-108245108D01*
X193499619Y-108323727D01*
X193499619Y-108396299D01*
X193451238Y-108462822D01*
X193402857Y-108493061D01*
X193306095Y-108517251D01*
X193112571Y-108529346D01*
X192870666Y-108499108D01*
X192677142Y-108438632D01*
X192580380Y-108390251D01*
X192532000Y-108347918D01*
X192483619Y-108269299D01*
X192822285Y-107404489D02*
X193499619Y-107489156D01*
X192822285Y-107731061D02*
X193354476Y-107797584D01*
X193451238Y-107773394D01*
X193499619Y-107706870D01*
X193499619Y-107598013D01*
X193451238Y-107519394D01*
X193402857Y-107477061D01*
X192967428Y-106805775D02*
X192967428Y-107059775D01*
X193499619Y-107126299D02*
X192483619Y-106999299D01*
X192483619Y-106636442D01*
D10*
X190572571Y-110877047D02*
X190572571Y-110102952D01*
X190959619Y-110490000D02*
X190185523Y-110490000D01*
X189592857Y-103523142D02*
X189641238Y-103571523D01*
X189689619Y-103716666D01*
X189689619Y-103813428D01*
X189641238Y-103958571D01*
X189544476Y-104055333D01*
X189447714Y-104103714D01*
X189254190Y-104152095D01*
X189109047Y-104152095D01*
X188915523Y-104103714D01*
X188818761Y-104055333D01*
X188722000Y-103958571D01*
X188673619Y-103813428D01*
X188673619Y-103716666D01*
X188722000Y-103571523D01*
X188770380Y-103523142D01*
X189689619Y-102555523D02*
X189689619Y-103136095D01*
X189689619Y-102845809D02*
X188673619Y-102845809D01*
X188818761Y-102942571D01*
X188915523Y-103039333D01*
X188963904Y-103136095D01*
X188673619Y-102216857D02*
X188673619Y-101587904D01*
X189060666Y-101926571D01*
X189060666Y-101781428D01*
X189109047Y-101684666D01*
X189157428Y-101636285D01*
X189254190Y-101587904D01*
X189496095Y-101587904D01*
X189592857Y-101636285D01*
X189641238Y-101684666D01*
X189689619Y-101781428D01*
X189689619Y-102071714D01*
X189641238Y-102168476D01*
X189592857Y-102216857D01*
D12*
X193499619Y-101248013D02*
X193499619Y-101683442D01*
X193499619Y-101465727D02*
X192483619Y-101338727D01*
X192628761Y-101429442D01*
X192725523Y-101514108D01*
X192773904Y-101592727D01*
X192483619Y-100649299D02*
X192483619Y-100576727D01*
X192532000Y-100510203D01*
X192580380Y-100479965D01*
X192677142Y-100455775D01*
X192870666Y-100443680D01*
X193112571Y-100473918D01*
X193306095Y-100534394D01*
X193402857Y-100582775D01*
X193451238Y-100625108D01*
X193499619Y-100703727D01*
X193499619Y-100776299D01*
X193451238Y-100842822D01*
X193402857Y-100873061D01*
X193306095Y-100897251D01*
X193112571Y-100909346D01*
X192870666Y-100879108D01*
X192677142Y-100818632D01*
X192580380Y-100770251D01*
X192532000Y-100727918D01*
X192483619Y-100649299D01*
X192822285Y-99784489D02*
X193499619Y-99869156D01*
X192822285Y-100111061D02*
X193354476Y-100177584D01*
X193451238Y-100153394D01*
X193499619Y-100086870D01*
X193499619Y-99978013D01*
X193451238Y-99899394D01*
X193402857Y-99857061D01*
X192967428Y-99185775D02*
X192967428Y-99439775D01*
X193499619Y-99506299D02*
X192483619Y-99379299D01*
X192483619Y-99016442D01*
D10*
X190572571Y-103257047D02*
X190572571Y-102482952D01*
X190959619Y-102870000D02*
X190185523Y-102870000D01*
X203245357Y-103523142D02*
X203293738Y-103571523D01*
X203342119Y-103716666D01*
X203342119Y-103813428D01*
X203293738Y-103958571D01*
X203196976Y-104055333D01*
X203100214Y-104103714D01*
X202906690Y-104152095D01*
X202761547Y-104152095D01*
X202568023Y-104103714D01*
X202471261Y-104055333D01*
X202374500Y-103958571D01*
X202326119Y-103813428D01*
X202326119Y-103716666D01*
X202374500Y-103571523D01*
X202422880Y-103523142D01*
X203342119Y-102555523D02*
X203342119Y-103136095D01*
X203342119Y-102845809D02*
X202326119Y-102845809D01*
X202471261Y-102942571D01*
X202568023Y-103039333D01*
X202616404Y-103136095D01*
X202664785Y-101684666D02*
X203342119Y-101684666D01*
X202277738Y-101926571D02*
X203003452Y-102168476D01*
X203003452Y-101539523D01*
D12*
X199849619Y-101248013D02*
X199849619Y-101683442D01*
X199849619Y-101465727D02*
X198833619Y-101338727D01*
X198978761Y-101429442D01*
X199075523Y-101514108D01*
X199123904Y-101592727D01*
X198833619Y-100649299D02*
X198833619Y-100576727D01*
X198882000Y-100510203D01*
X198930380Y-100479965D01*
X199027142Y-100455775D01*
X199220666Y-100443680D01*
X199462571Y-100473918D01*
X199656095Y-100534394D01*
X199752857Y-100582775D01*
X199801238Y-100625108D01*
X199849619Y-100703727D01*
X199849619Y-100776299D01*
X199801238Y-100842822D01*
X199752857Y-100873061D01*
X199656095Y-100897251D01*
X199462571Y-100909346D01*
X199220666Y-100879108D01*
X199027142Y-100818632D01*
X198930380Y-100770251D01*
X198882000Y-100727918D01*
X198833619Y-100649299D01*
X199172285Y-99784489D02*
X199849619Y-99869156D01*
X199172285Y-100111061D02*
X199704476Y-100177584D01*
X199801238Y-100153394D01*
X199849619Y-100086870D01*
X199849619Y-99978013D01*
X199801238Y-99899394D01*
X199752857Y-99857061D01*
X199317428Y-99185775D02*
X199317428Y-99439775D01*
X199849619Y-99506299D02*
X198833619Y-99379299D01*
X198833619Y-99016442D01*
D10*
X196922571Y-103257047D02*
X196922571Y-102482952D01*
X197309619Y-102870000D02*
X196535523Y-102870000D01*
X104756857Y-58147857D02*
X104708476Y-58196238D01*
X104563333Y-58244619D01*
X104466571Y-58244619D01*
X104321428Y-58196238D01*
X104224666Y-58099476D01*
X104176285Y-58002714D01*
X104127904Y-57809190D01*
X104127904Y-57664047D01*
X104176285Y-57470523D01*
X104224666Y-57373761D01*
X104321428Y-57277000D01*
X104466571Y-57228619D01*
X104563333Y-57228619D01*
X104708476Y-57277000D01*
X104756857Y-57325380D01*
X105724476Y-58244619D02*
X105143904Y-58244619D01*
X105434190Y-58244619D02*
X105434190Y-57228619D01*
X105337428Y-57373761D01*
X105240666Y-57470523D01*
X105143904Y-57518904D01*
X106595333Y-57228619D02*
X106401809Y-57228619D01*
X106305047Y-57277000D01*
X106256666Y-57325380D01*
X106159904Y-57470523D01*
X106111523Y-57664047D01*
X106111523Y-58051095D01*
X106159904Y-58147857D01*
X106208285Y-58196238D01*
X106305047Y-58244619D01*
X106498571Y-58244619D01*
X106595333Y-58196238D01*
X106643714Y-58147857D01*
X106692095Y-58051095D01*
X106692095Y-57809190D01*
X106643714Y-57712428D01*
X106595333Y-57664047D01*
X106498571Y-57615666D01*
X106305047Y-57615666D01*
X106208285Y-57664047D01*
X106159904Y-57712428D01*
X106111523Y-57809190D01*
D12*
X104491986Y-62689619D02*
X104056557Y-62689619D01*
X104274272Y-62689619D02*
X104401272Y-61673619D01*
X104310557Y-61818761D01*
X104225891Y-61915523D01*
X104147272Y-61963904D01*
X105090700Y-61673619D02*
X105163272Y-61673619D01*
X105229796Y-61722000D01*
X105260034Y-61770380D01*
X105284224Y-61867142D01*
X105296319Y-62060666D01*
X105266081Y-62302571D01*
X105205605Y-62496095D01*
X105157224Y-62592857D01*
X105114891Y-62641238D01*
X105036272Y-62689619D01*
X104963700Y-62689619D01*
X104897177Y-62641238D01*
X104866938Y-62592857D01*
X104842748Y-62496095D01*
X104830653Y-62302571D01*
X104860891Y-62060666D01*
X104921367Y-61867142D01*
X104969748Y-61770380D01*
X105012081Y-61722000D01*
X105090700Y-61673619D01*
X105955510Y-62012285D02*
X105870843Y-62689619D01*
X105628938Y-62012285D02*
X105562415Y-62544476D01*
X105586605Y-62641238D01*
X105653129Y-62689619D01*
X105761986Y-62689619D01*
X105840605Y-62641238D01*
X105882938Y-62592857D01*
X106554224Y-62157428D02*
X106300224Y-62157428D01*
X106233700Y-62689619D02*
X106360700Y-61673619D01*
X106723557Y-61673619D01*
D10*
X102942571Y-65157047D02*
X102942571Y-64382952D01*
X103329619Y-64770000D02*
X102555523Y-64770000D01*
X162224357Y-65132857D02*
X162175976Y-65181238D01*
X162030833Y-65229619D01*
X161934071Y-65229619D01*
X161788928Y-65181238D01*
X161692166Y-65084476D01*
X161643785Y-64987714D01*
X161595404Y-64794190D01*
X161595404Y-64649047D01*
X161643785Y-64455523D01*
X161692166Y-64358761D01*
X161788928Y-64262000D01*
X161934071Y-64213619D01*
X162030833Y-64213619D01*
X162175976Y-64262000D01*
X162224357Y-64310380D01*
X163191976Y-65229619D02*
X162611404Y-65229619D01*
X162901690Y-65229619D02*
X162901690Y-64213619D01*
X162804928Y-64358761D01*
X162708166Y-64455523D01*
X162611404Y-64503904D01*
X163530642Y-64213619D02*
X164207976Y-64213619D01*
X163772547Y-65229619D01*
D12*
X166721986Y-65229619D02*
X166286557Y-65229619D01*
X166504272Y-65229619D02*
X166631272Y-64213619D01*
X166540557Y-64358761D01*
X166455891Y-64455523D01*
X166377272Y-64503904D01*
X167320700Y-64213619D02*
X167393272Y-64213619D01*
X167459796Y-64262000D01*
X167490034Y-64310380D01*
X167514224Y-64407142D01*
X167526319Y-64600666D01*
X167496081Y-64842571D01*
X167435605Y-65036095D01*
X167387224Y-65132857D01*
X167344891Y-65181238D01*
X167266272Y-65229619D01*
X167193700Y-65229619D01*
X167127177Y-65181238D01*
X167096938Y-65132857D01*
X167072748Y-65036095D01*
X167060653Y-64842571D01*
X167090891Y-64600666D01*
X167151367Y-64407142D01*
X167199748Y-64310380D01*
X167242081Y-64262000D01*
X167320700Y-64213619D01*
X168185510Y-64552285D02*
X168100843Y-65229619D01*
X167858938Y-64552285D02*
X167792415Y-65084476D01*
X167816605Y-65181238D01*
X167883129Y-65229619D01*
X167991986Y-65229619D01*
X168070605Y-65181238D01*
X168112938Y-65132857D01*
X168784224Y-64697428D02*
X168530224Y-64697428D01*
X168463700Y-65229619D02*
X168590700Y-64213619D01*
X168953557Y-64213619D01*
D10*
X165172571Y-67697047D02*
X165172571Y-66922952D01*
X165559619Y-67310000D02*
X164785523Y-67310000D01*
X111741857Y-58147857D02*
X111693476Y-58196238D01*
X111548333Y-58244619D01*
X111451571Y-58244619D01*
X111306428Y-58196238D01*
X111209666Y-58099476D01*
X111161285Y-58002714D01*
X111112904Y-57809190D01*
X111112904Y-57664047D01*
X111161285Y-57470523D01*
X111209666Y-57373761D01*
X111306428Y-57277000D01*
X111451571Y-57228619D01*
X111548333Y-57228619D01*
X111693476Y-57277000D01*
X111741857Y-57325380D01*
X112709476Y-58244619D02*
X112128904Y-58244619D01*
X112419190Y-58244619D02*
X112419190Y-57228619D01*
X112322428Y-57373761D01*
X112225666Y-57470523D01*
X112128904Y-57518904D01*
X113193285Y-58244619D02*
X113386809Y-58244619D01*
X113483571Y-58196238D01*
X113531952Y-58147857D01*
X113628714Y-58002714D01*
X113677095Y-57809190D01*
X113677095Y-57422142D01*
X113628714Y-57325380D01*
X113580333Y-57277000D01*
X113483571Y-57228619D01*
X113290047Y-57228619D01*
X113193285Y-57277000D01*
X113144904Y-57325380D01*
X113096523Y-57422142D01*
X113096523Y-57664047D01*
X113144904Y-57760809D01*
X113193285Y-57809190D01*
X113290047Y-57857571D01*
X113483571Y-57857571D01*
X113580333Y-57809190D01*
X113628714Y-57760809D01*
X113677095Y-57664047D01*
D12*
X111942653Y-62012285D02*
X111857986Y-62689619D01*
X111809605Y-61625238D02*
X111537462Y-62350952D01*
X112009177Y-62350952D01*
X112269224Y-62592857D02*
X112299462Y-62641238D01*
X112257129Y-62689619D01*
X112226891Y-62641238D01*
X112269224Y-62592857D01*
X112257129Y-62689619D01*
X112674415Y-61673619D02*
X113182415Y-61673619D01*
X112728843Y-62689619D01*
X113756938Y-62012285D02*
X113672272Y-62689619D01*
X113430367Y-62012285D02*
X113363843Y-62544476D01*
X113388034Y-62641238D01*
X113454557Y-62689619D01*
X113563415Y-62689619D01*
X113642034Y-62641238D01*
X113684367Y-62592857D01*
X114355653Y-62157428D02*
X114101653Y-62157428D01*
X114035129Y-62689619D02*
X114162129Y-61673619D01*
X114524986Y-61673619D01*
D10*
X110562571Y-65157047D02*
X110562571Y-64382952D01*
X110949619Y-64770000D02*
X110175523Y-64770000D01*
X102851857Y-80055357D02*
X102803476Y-80103738D01*
X102658333Y-80152119D01*
X102561571Y-80152119D01*
X102416428Y-80103738D01*
X102319666Y-80006976D01*
X102271285Y-79910214D01*
X102222904Y-79716690D01*
X102222904Y-79571547D01*
X102271285Y-79378023D01*
X102319666Y-79281261D01*
X102416428Y-79184500D01*
X102561571Y-79136119D01*
X102658333Y-79136119D01*
X102803476Y-79184500D01*
X102851857Y-79232880D01*
X103238904Y-79232880D02*
X103287285Y-79184500D01*
X103384047Y-79136119D01*
X103625952Y-79136119D01*
X103722714Y-79184500D01*
X103771095Y-79232880D01*
X103819476Y-79329642D01*
X103819476Y-79426404D01*
X103771095Y-79571547D01*
X103190523Y-80152119D01*
X103819476Y-80152119D01*
X104787095Y-80152119D02*
X104206523Y-80152119D01*
X104496809Y-80152119D02*
X104496809Y-79136119D01*
X104400047Y-79281261D01*
X104303285Y-79378023D01*
X104206523Y-79426404D01*
D12*
X108132653Y-79792285D02*
X108047986Y-80469619D01*
X107999605Y-79405238D02*
X107727462Y-80130952D01*
X108199177Y-80130952D01*
X108459224Y-80372857D02*
X108489462Y-80421238D01*
X108447129Y-80469619D01*
X108416891Y-80421238D01*
X108459224Y-80372857D01*
X108447129Y-80469619D01*
X108864415Y-79453619D02*
X109372415Y-79453619D01*
X108918843Y-80469619D01*
X109620367Y-79792285D02*
X109535700Y-80469619D01*
X109608272Y-79889047D02*
X109650605Y-79840666D01*
X109729224Y-79792285D01*
X109838081Y-79792285D01*
X109904605Y-79840666D01*
X109928796Y-79937428D01*
X109862272Y-80469619D01*
X110545653Y-79937428D02*
X110291653Y-79937428D01*
X110225129Y-80469619D02*
X110352129Y-79453619D01*
X110714986Y-79453619D01*
D10*
X124124357Y-80372857D02*
X124075976Y-80421238D01*
X123930833Y-80469619D01*
X123834071Y-80469619D01*
X123688928Y-80421238D01*
X123592166Y-80324476D01*
X123543785Y-80227714D01*
X123495404Y-80034190D01*
X123495404Y-79889047D01*
X123543785Y-79695523D01*
X123592166Y-79598761D01*
X123688928Y-79502000D01*
X123834071Y-79453619D01*
X123930833Y-79453619D01*
X124075976Y-79502000D01*
X124124357Y-79550380D01*
X124511404Y-79550380D02*
X124559785Y-79502000D01*
X124656547Y-79453619D01*
X124898452Y-79453619D01*
X124995214Y-79502000D01*
X125043595Y-79550380D01*
X125091976Y-79647142D01*
X125091976Y-79743904D01*
X125043595Y-79889047D01*
X124463023Y-80469619D01*
X125091976Y-80469619D01*
X125479023Y-79550380D02*
X125527404Y-79502000D01*
X125624166Y-79453619D01*
X125866071Y-79453619D01*
X125962833Y-79502000D01*
X126011214Y-79550380D01*
X126059595Y-79647142D01*
X126059595Y-79743904D01*
X126011214Y-79889047D01*
X125430642Y-80469619D01*
X126059595Y-80469619D01*
D12*
X118292653Y-79792285D02*
X118207986Y-80469619D01*
X118159605Y-79405238D02*
X117887462Y-80130952D01*
X118359177Y-80130952D01*
X118619224Y-80372857D02*
X118649462Y-80421238D01*
X118607129Y-80469619D01*
X118576891Y-80421238D01*
X118619224Y-80372857D01*
X118607129Y-80469619D01*
X119024415Y-79453619D02*
X119532415Y-79453619D01*
X119078843Y-80469619D01*
X119780367Y-79792285D02*
X119695700Y-80469619D01*
X119768272Y-79889047D02*
X119810605Y-79840666D01*
X119889224Y-79792285D01*
X119998081Y-79792285D01*
X120064605Y-79840666D01*
X120088796Y-79937428D01*
X120022272Y-80469619D01*
X120705653Y-79937428D02*
X120451653Y-79937428D01*
X120385129Y-80469619D02*
X120512129Y-79453619D01*
X120874986Y-79453619D01*
D10*
X102851857Y-67672857D02*
X102803476Y-67721238D01*
X102658333Y-67769619D01*
X102561571Y-67769619D01*
X102416428Y-67721238D01*
X102319666Y-67624476D01*
X102271285Y-67527714D01*
X102222904Y-67334190D01*
X102222904Y-67189047D01*
X102271285Y-66995523D01*
X102319666Y-66898761D01*
X102416428Y-66802000D01*
X102561571Y-66753619D01*
X102658333Y-66753619D01*
X102803476Y-66802000D01*
X102851857Y-66850380D01*
X103238904Y-66850380D02*
X103287285Y-66802000D01*
X103384047Y-66753619D01*
X103625952Y-66753619D01*
X103722714Y-66802000D01*
X103771095Y-66850380D01*
X103819476Y-66947142D01*
X103819476Y-67043904D01*
X103771095Y-67189047D01*
X103190523Y-67769619D01*
X103819476Y-67769619D01*
X104158142Y-66753619D02*
X104787095Y-66753619D01*
X104448428Y-67140666D01*
X104593571Y-67140666D01*
X104690333Y-67189047D01*
X104738714Y-67237428D01*
X104787095Y-67334190D01*
X104787095Y-67576095D01*
X104738714Y-67672857D01*
X104690333Y-67721238D01*
X104593571Y-67769619D01*
X104303285Y-67769619D01*
X104206523Y-67721238D01*
X104158142Y-67672857D01*
D12*
X108132653Y-67092285D02*
X108047986Y-67769619D01*
X107999605Y-66705238D02*
X107727462Y-67430952D01*
X108199177Y-67430952D01*
X108459224Y-67672857D02*
X108489462Y-67721238D01*
X108447129Y-67769619D01*
X108416891Y-67721238D01*
X108459224Y-67672857D01*
X108447129Y-67769619D01*
X108864415Y-66753619D02*
X109372415Y-66753619D01*
X108918843Y-67769619D01*
X109620367Y-67092285D02*
X109535700Y-67769619D01*
X109608272Y-67189047D02*
X109650605Y-67140666D01*
X109729224Y-67092285D01*
X109838081Y-67092285D01*
X109904605Y-67140666D01*
X109928796Y-67237428D01*
X109862272Y-67769619D01*
X110545653Y-67237428D02*
X110291653Y-67237428D01*
X110225129Y-67769619D02*
X110352129Y-66753619D01*
X110714986Y-66753619D01*
M02*
